<svg xmlns="http://www.w3.org/2000/svg" version="1.1" xmlns:xlink="http://www.w3.org/1999/xlink" width="100px" height="100px"><svg version="1.1" id="SvgjsSvg1001" xmlns="http://www.w3.org/2000/svg" xmlns:xlink="http://www.w3.org/1999/xlink" x="0px" y="0px" width="100px" height="100px" viewBox="0 0 100 100" style="enable-background:new 0 0 100 100;" xml:space="preserve">
<g>
	<path style="fill:#716D6E;" d="M52,3.6c1.4,0.4,2.9,0.5,4.3,1.1c6.9,2.6,11.2,7.5,12.6,14.7c1.9,10.1-4.6,19.9-14.7,22.2
		c-8.7,2-17.8-2.5-21.6-10.7C27.2,19.4,34.4,5.8,47.1,3.8c0.3,0,0.7,0.1,0.9-0.2C49.3,3.6,50.7,3.6,52,3.6z"></path>
	<path style="fill:#1A88B6;" d="M0,46.9c0-2.3,1-4.8,2.9-6.8c2.4-2.5,4.8-5,7.4-7.3c3.9-3.4,10.3-3.5,14.1,0.1
		c4.1,3.9,8.1,8,12.1,12.1c8.9,8.9,17.8,17.8,26.7,26.8c3.9,3.9,3.7,10.9-0.2,14.8c-2.2,2.2-4.3,4.3-6.5,6.5
		c-4.4,4.4-11.2,4.4-15.6,0c-12.5-12.5-25-25-37.5-37.5C1.2,53.4,0,50.7,0,46.9z"></path>
	<path style="fill:#1A88B6;" d="M100,46.4c0,1.8-0.6,3.4-2,4.7c-6.4,6.4-12.8,12.9-19.3,19.3c-2.4,2.4-6.5,2.5-9,0.1
		c-3.9-3.8-7.8-7.7-11.6-11.6c-2.6-2.7-2.5-6.7,0.2-9.3c6.4-6.4,12.9-12.9,19.3-19.3c2.4-2.4,6.4-2.5,8.8-0.2c4.1,3.9,8,8,12,12
		C99.6,43.2,100,44.7,100,46.4z"></path>
</g>
</svg><style>@media (prefers-color-scheme: light) { :root { filter: none; } }
@media (prefers-color-scheme: dark) { :root { filter: none; } }
</style></svg>