<?xml version="1.0" encoding="UTF-8" standalone="no"?>
<!DOCTYPE svg PUBLIC "-//W3C//DTD SVG 1.1//EN" "http://www.w3.org/Graphics/SVG/1.1/DTD/svg11.dtd">
<svg width="100%" height="100%" viewBox="0 0 2500 2500" version="1.1" xmlns="http://www.w3.org/2000/svg" xmlns:xlink="http://www.w3.org/1999/xlink" xml:space="preserve" xmlns:serif="http://www.serif.com/" style="fill-rule:evenodd;clip-rule:evenodd;stroke-linejoin:round;stroke-miterlimit:2;">
    <g id="Lager-1" serif:id="Lager 1">
        <clipPath id="_clip1">
            <rect x="2.288" y="0" width="2497.71" height="2500" clip-rule="nonzero"/>
        </clipPath>
        <g clip-path="url(#_clip1)">
            <path d="M622.705,606.582c-3.246,-8.942 -6.504,-17.896 -9.763,-26.821c-47.549,-18.513 -106.929,-41.104 -142.57,1.575c-42.729,51.179 -127,83.092 -113.8,193.321c97.412,-61.529 181.779,-114.8 266.133,-168.075m-138.325,987.583c-1.3,0.067 -2.6,0.15 -3.917,0.217c0,43.321 -0.904,86.641 0.205,129.92c1.975,77.342 -0.492,155.371 8.995,231.863c19.992,161.413 146.596,217.204 283.621,128.142c22.713,-14.775 48.113,-31.15 61.667,-53.275c65.104,-106.246 148.129,-207.959 184.412,-323.929c58.38,-186.588 174.238,-322.446 312.355,-447.367c21.429,-19.375 48.8,-34.421 75.975,-44.759c86.12,-32.804 88.57,-39.72 60.27,-133.574c-69.208,-229.621 -14.308,-382.65 203.73,-472.905c15.937,-6.612 26.862,-25.37 40.116,-38.471c-16.25,-14.42 -31.941,-40.229 -48.879,-41.091c-49.221,-2.492 -101.371,-3.338 -148.046,10.121c-179.083,51.641 -355.637,112.116 -535.008,162.641c-53.917,15.196 -114.063,7.309 -171.063,13.046c-18.608,1.875 -38.279,10.367 -53.97,21.004c-67.884,45.921 -129.713,103.755 -202.675,138.488c-98.688,46.991 -134.192,96.362 -109.342,216.366c33.887,163.696 29.521,335.321 41.554,503.563m1523.14,613.2c-0,-224.992 -9.159,-450.479 3.054,-674.812c8.858,-162.984 57.037,-323.875 65.225,-486.83c3.437,-68.662 -1.792,-139.954 5.383,-210.191c1.038,-10.079 -5.696,-22.334 -11.871,-31.534c-61.696,-91.908 -158.479,-139.516 -256.554,-167.883c-101.808,-29.425 -196.962,10.363 -269.9,93.429c-66.825,76.138 -71.975,171.817 -56.6,258.209c10.254,57.575 62.475,117.666 111.917,155.975c76.216,59.062 125.275,129.616 131.708,221.745c22.25,318.384 38.529,637.163 58.342,955.709c2.75,44.333 -17.375,64.091 -55.779,80.796c-739.45,321.516 -1620.56,-184.33 -1715.98,-986.05c-0.258,-2.271 -0.466,-4.546 -0.7,-6.817c-24.754,-244.588 -41.758,-234.179 199.529,-383.117c137.625,-84.941 282.771,-157.796 419.755,-243.666c70.783,-44.363 129.108,-108.15 197.116,-157.55c36.513,-26.509 79.709,-49.921 123.238,-59.45c97.675,-21.359 197.075,-36.392 296.487,-47.646c57.929,-6.559 117.338,1.054 175.909,-1.534c23.25,-1.037 55.779,-5.833 66.17,-21.112c9.463,-13.908 1.588,-49.838 -11.266,-65.979c-14.296,-17.921 -43.829,-35.804 -65.134,-34.075c-145.112,11.746 -289.533,36.416 -434.716,41.646c-134.6,4.85 -229.154,64.791 -318.642,159.208c-163.121,172.087 -383.883,242.912 -601.262,328.704c1.45,-365.687 516.004,-833.333 986.375,-908.596c605.137,-96.825 1191.78,255.609 1387.28,833.004c184.329,544.43 -48.946,1116.88 -403.079,1361.83c-8.667,-1.137 -17.346,-2.258 -26,-3.408" style="fill:#0087b6;fill-rule:nonzero;"/>
        </g>
    </g>
</svg>
