<svg width="100%" height="100%" viewBox="0 0 400 400" version="1.1" xmlns="http://www.w3.org/2000/svg" xmlns:xlink="http://www.w3.org/1999/xlink" xml:space="preserve" xmlns:serif="http://www.serif.com/" style="fill-rule:evenodd;clip-rule:evenodd;stroke-linecap:round;stroke-linejoin:round;stroke-miterlimit:1.5;">
  <g id="XMLID_1377_" transform="matrix(1.33714,0,0,1.33714,0,0)">
    <g transform="matrix(0.836497,0,0,0.836497,7.14636e-05,46.9044)">
      <path d="M173.931,259.952C172.103,255.611 160.738,228.631 158.976,224.448C166.867,217.438 169.407,205.712 164.312,195.788C164.251,195.668 164.179,195.556 164.116,195.438C159.669,187.121 150.838,182.287 141.49,182.938L126.532,147.427C124.883,143.514 120.37,141.689 116.473,143.331C112.565,144.977 110.73,149.481 112.377,153.39L127.332,188.894C124.148,191.722 121.764,195.367 120.437,199.609C108.653,187.461 90.214,183.133 73.712,190.084L43.564,202.783L30.566,208.258C25.764,210.281 23.375,215.884 25.452,220.815L28.028,226.931L49.744,217.784C62.825,212.273 78.168,218.236 83.823,231.662C89.392,244.884 83.167,260.172 69.944,265.741L48.228,274.888L50.804,281.004C52.838,285.834 58.447,288.188 63.361,286.118L106.508,267.944C122.75,261.101 132.802,245.027 132.336,227.857C136.068,229.762 140.315,230.716 144.816,230.403L159.774,265.915C161.42,269.824 165.925,271.658 169.833,270.011C173.632,268.411 175.461,264.114 174.051,260.286C174.011,260.175 173.977,260.063 173.931,259.952ZM147.497,216.979C141.783,219.385 135.243,216.703 132.846,211.013C130.446,205.317 133.114,198.762 138.812,196.362C144.525,193.956 151.066,196.638 153.463,202.328C155.862,208.024 153.195,214.578 147.497,216.979Z" style="fill:white;fill-rule:nonzero;"/>
    </g>
    <g transform="matrix(0.836497,0,0,0.836497,7.14636e-05,46.9044)">
      <path d="M72.205,236.555C69.329,229.728 61.464,226.526 54.638,229.401L8.21,248.957C1.383,251.833 -1.819,259.698 1.055,266.525C3.931,273.353 11.797,276.554 18.622,273.679L65.051,254.122C71.877,251.247 75.08,243.382 72.205,236.555Z" style="fill:white;fill-rule:nonzero;"/>
    </g>
    <g transform="matrix(0.836497,0,0,0.836497,7.14636e-05,46.9044)">
      <circle cx="224.871" cy="51.114" r="20.924" style="fill:white;"/>
    </g>
    <g transform="matrix(0.836497,0,0,0.836497,7.14636e-05,46.9044)">
      <path d="M251.887,81.164L205.224,81.164L183.116,78.579L195.017,64.281C198.584,59.996 198.002,53.629 193.716,50.062C189.431,46.495 183.065,47.078 179.497,51.363L155.674,79.984C153.304,82.832 152.684,86.749 154.059,90.188C155.434,93.628 158.582,96.04 162.262,96.47L197.885,100.635C197.885,200.84 197.884,157.217 197.89,274.755C197.89,281.446 203.314,286.87 210.005,286.87C216.696,286.87 222.12,281.446 222.12,274.755L222.12,177.916L227.351,177.916L227.351,274.754C227.351,281.445 232.775,286.869 239.466,286.869C246.157,286.869 251.581,281.445 251.581,274.754L251.366,105.047C251.365,103.883 252.306,102.937 253.47,102.934C254.634,102.931 255.582,103.871 255.586,105.035L255.958,179.207C255.986,184.766 260.5,189.252 266.053,189.252L266.104,189.252C271.68,189.224 276.177,184.681 276.149,179.106L275.777,104.934C275.713,91.828 264.995,81.164 251.887,81.164Z" style="fill:white;fill-rule:nonzero;"/>
    </g>
    <g transform="matrix(0.747862,0,0,0.747862,0,-1.03421)">
      <path d="M304.235,154.538L322.558,136.214" style="fill:none;stroke:rgb(255,0,0);stroke-width:9.81px;"/>
    </g>
    <g transform="matrix(0.739111,0.114075,-0.114075,0.739111,22.6417,-34.9779)">
      <path d="M309.767,164.218L328.09,156.612" style="fill:none;stroke:rgb(255,0,0);stroke-width:9.81px;"/>
    </g>
    <g transform="matrix(0.747862,0,0,0.747862,1.03421,-2.32697)">
      <path d="M293.172,150.735L295.592,133.449" style="fill:none;stroke:rgb(255,0,0);stroke-width:9.81px;"/>
    </g>
  </g>
</svg>
