<?xml version="1.0" encoding="UTF-8" standalone="no"?>
<!DOCTYPE svg PUBLIC "-//W3C//DTD SVG 1.1//EN" "http://www.w3.org/Graphics/SVG/1.1/DTD/svg11.dtd">
<svg width="100%" height="100%" viewBox="0 0 601 601" version="1.1" xmlns="http://www.w3.org/2000/svg" xmlns:xlink="http://www.w3.org/1999/xlink" xml:space="preserve" xmlns:serif="http://www.serif.com/" style="fill-rule:evenodd;clip-rule:evenodd;stroke-linecap:round;">
    <g id="Artboard1" transform="matrix(1,0,0,1,-99.8031,-99.8031)">
        <rect x="99.803" y="99.803" width="600.394" height="600.394" style="fill:none;"/>
        <clipPath id="_clip1">
            <rect x="99.803" y="99.803" width="600.394" height="600.394"/>
        </clipPath>
        <g clip-path="url(#_clip1)">
            <g transform="matrix(1,0,0,1,-41.166,11.9423)">
                <circle cx="441.969" cy="388.861" r="300.197" style="fill:rgb(25,103,175);"/>
            </g>
            <g transform="matrix(18.4935,0,0,18.4935,178.881,162.228)">
                <path d="M3,9l18,0m-14,-6l0,2m10,-2l0,2m-11,7l2,0m3,0l2,0m3,0l2,0m-12,3l2,0m3,0l2,0m3,0l2,0m-12,3l2,0m3,0l2,0m3,0l2,0m-11.8,3l11.6,0c1.12,0 1.68,0 2.108,-0.218c0.376,-0.192 0.682,-0.498 0.874,-0.874c0.218,-0.428 0.218,-0.988 0.218,-2.108l0,-9.6c0,-1.12 0,-1.68 -0.218,-2.108c-0.192,-0.376 -0.498,-0.682 -0.874,-0.874c-0.428,-0.218 -0.988,-0.218 -2.108,-0.218l-11.6,-0c-1.12,-0 -1.68,-0 -2.108,0.218c-0.376,0.192 -0.682,0.498 -0.874,0.874c-0.218,0.428 -0.218,0.988 -0.218,2.108l0,9.6c0,1.12 0,1.68 0.218,2.108c0.192,0.376 0.498,0.682 0.874,0.874c0.428,0.218 0.988,0.218 2.108,0.218Z" style="fill:none;fill-rule:nonzero;stroke:white;stroke-width:2px;"/>
            </g>
        </g>
    </g>
</svg>
