<?xml version="1.0" encoding="UTF-8" standalone="no"?>
<!DOCTYPE svg PUBLIC "-//W3C//DTD SVG 1.1//EN" "http://www.w3.org/Graphics/SVG/1.1/DTD/svg11.dtd">
<svg width="100%" height="100%" viewBox="0 0 24 24" version="1.1" xmlns="http://www.w3.org/2000/svg" xmlns:xlink="http://www.w3.org/1999/xlink" xml:space="preserve" xmlns:serif="http://www.serif.com/" style="fill-rule:evenodd;clip-rule:evenodd;stroke-linejoin:round;stroke-miterlimit:2;">
    <g id="Artboard1" transform="matrix(0.382044,0,0,0.382044,0,0)">
        <rect x="0" y="0" width="62.82" height="62.82" style="fill:none;"/>
        <g id="Layer_2">
            <g id="Layer_1-2">
                <circle cx="31.41" cy="31.41" r="31.41" style="fill:rgb(25,103,175);"/>
                <path d="M27.24,20.61c-0.006,-0.073 -0.006,-0.147 -0,-0.22c0.772,-4.645 4.83,-8.085 9.539,-8.085c0.632,0 1.262,0.062 1.881,0.185c4.593,0.962 7.892,5.078 7.83,9.77c-0.08,9.81 -0,19.63 -0,29.44c-0,0.69 -0,0.69 0.67,0.69l6.61,0c0.65,0 0.66,0 0.66,-0.65l-0,-28.69c0.019,-1.234 -0.054,-2.467 -0.22,-3.69c-0.476,-3.395 -1.981,-6.564 -4.31,-9.08c-4.064,-4.666 -10.351,-6.785 -16.41,-5.53c-4.052,0.713 -7.706,2.883 -10.27,6.1c-2.136,2.561 -3.481,5.688 -3.87,9c-0.14,1.06 -0.1,0.85 -0.78,1c-3.959,0.764 -7.673,2.48 -10.82,5c-0.874,0.672 -1.371,1.728 -1.33,2.83l0,4.36c-0.002,0.041 -0.002,0.081 -0.002,0.122c-0,1.777 1.462,3.24 3.24,3.24c0.034,-0 0.068,-0.001 0.102,-0.002l26.83,0c0.051,0.002 0.102,0.004 0.153,0.004c1.789,-0 3.26,-1.472 3.26,-3.26c0,-0.048 -0.001,-0.096 -0.003,-0.144l0,-4.26c0.043,-1.136 -0.473,-2.225 -1.38,-2.91c-2.285,-1.853 -4.892,-3.27 -7.69,-4.18c-1.22,-0.42 -2.45,-0.7 -3.69,-1.04Z" style="fill:white;fill-rule:nonzero;"/>
                <path d="M14.28,46.21c0.025,-0.783 -0.191,-1.555 -0.62,-2.21c-0.793,-1.273 -1.59,-2.543 -2.39,-3.81c-0.49,-0.77 -1.09,-0.77 -1.6,0c-0.76,1.12 -1.49,2.26 -2.28,3.35c-0.779,1.056 -1.097,2.385 -0.88,3.68c0.285,1.957 1.981,3.423 3.958,3.423c0.273,0 0.545,-0.028 0.812,-0.083c1.8,-0.39 3,-2.07 3,-4.35Z" style="fill:white;fill-rule:nonzero;"/>
                <path d="M27.1,46.16c-0.01,-0.808 -0.261,-1.595 -0.72,-2.26c-0.78,-1.21 -1.53,-2.43 -2.29,-3.64c-0.49,-0.78 -1.08,-0.79 -1.59,-0c-0.76,1.1 -1.49,2.22 -2.27,3.3c-0.798,1.083 -1.126,2.443 -0.91,3.77c0.307,1.934 1.992,3.373 3.951,3.373c0.217,0 0.434,-0.018 0.649,-0.053c1.96,-0.43 3.23,-2.13 3.18,-4.49Z" style="fill:white;fill-rule:nonzero;"/>
                <path d="M39.93,46.22c0.014,-0.75 -0.195,-1.488 -0.6,-2.12c-0.8,-1.287 -1.607,-2.573 -2.42,-3.86c-0.49,-0.78 -1.08,-0.79 -1.6,0c-0.74,1.09 -1.46,2.2 -2.23,3.27c-0.809,1.074 -1.152,2.43 -0.95,3.76c0.287,1.955 1.982,3.418 3.957,3.418c0.353,0 0.703,-0.046 1.043,-0.138c1.72,-0.55 2.78,-2.13 2.8,-4.33Z" style="fill:white;fill-rule:nonzero;"/>
            </g>
        </g>
    </g>
</svg>
