<?xml version="1.0" encoding="UTF-8" standalone="no"?>
<!DOCTYPE svg PUBLIC "-//W3C//DTD SVG 1.1//EN" "http://www.w3.org/Graphics/SVG/1.1/DTD/svg11.dtd">
<svg width="100%" height="100%" viewBox="0 0 100 100" version="1.1" xmlns="http://www.w3.org/2000/svg" xmlns:xlink="http://www.w3.org/1999/xlink" xml:space="preserve" xmlns:serif="http://www.serif.com/" style="fill-rule:evenodd;clip-rule:evenodd;stroke-miterlimit:10;">
    <rect id="Artboard1" x="0" y="0" width="100" height="100" style="fill:none;"/>
    <clipPath id="_clip1">
        <rect x="0" y="0" width="100" height="100"/>
    </clipPath>
    <g clip-path="url(#_clip1)">
        <g id="Layer-1" serif:id="Layer 1">
            <path d="M51.772,77.194c-0,-1.457 -0.025,-2.917 0.009,-4.373c0.022,-0.958 -0.333,-1.727 -0.987,-2.383c-1.094,-1.094 -6.953,-1.461 -8.16,-0.511c-0.148,0.117 -0.292,0.25 -0.401,0.403c-0.652,0.914 -1.242,1.628 0.637,1.905c2.597,0.383 4.178,2.32 4.207,4.656c0.031,2.416 -1.56,4.355 -4.263,4.789c-1.55,0.25 -1.425,0.853 -0.823,1.861c0.457,0.766 1.093,1.186 2.022,1.171c1.457,-0.025 2.915,0.018 4.373,-0.013c1.995,-0.044 3.311,-1.328 3.377,-3.32c0.045,-1.394 0.009,-2.789 0.009,-4.185m1.316,21.21c-4.383,-0 -8.766,-0.047 -13.147,0.029c-1.308,0.024 -1.747,-0.314 -1.721,-1.676c0.083,-4.381 -0.023,-8.766 0.063,-13.147c0.026,-1.345 -0.36,-1.713 -1.691,-1.68c-3.681,0.092 -7.367,0.024 -11.051,0.036c-2.436,0.008 -4.38,-0.85 -5.332,-3.212c-0.951,-2.36 -0.137,-4.274 1.616,-6c4.705,-4.636 9.384,-9.297 13.997,-14.025c1.858,-1.903 3.969,-2.757 6.622,-2.722c6.414,0.08 12.829,-0.025 19.244,0.061c1.539,0.02 2.575,-0.477 3.634,-1.553c6.681,-6.791 13.43,-13.514 20.156,-20.263c0.806,-0.809 1.605,-1.633 2.664,-2.125c1.724,-0.8 3.652,-0.5 4.944,0.767c1.297,1.271 1.645,3.191 0.877,4.925c-0.474,1.069 -1.286,1.877 -2.096,2.689c-7.581,7.599 -15.147,15.213 -22.758,22.78c-0.882,0.878 -1.234,1.756 -1.228,2.994c0.05,10.098 -0.001,20.197 0.078,30.295c0.013,1.549 -0.456,1.892 -1.915,1.861c-4.317,-0.094 -8.638,-0.034 -12.956,-0.034" style="fill:white;fill-rule:nonzero;"/>
            <path d="M51.772,77.194c-0,-1.457 -0.025,-2.917 0.009,-4.373c0.022,-0.958 -0.333,-1.727 -0.987,-2.383c-1.094,-1.094 -6.953,-1.461 -8.16,-0.511c-0.148,0.117 -0.292,0.25 -0.401,0.403c-0.652,0.914 -1.242,1.628 0.637,1.905c2.597,0.383 4.178,2.32 4.207,4.656c0.031,2.416 -1.56,4.355 -4.263,4.789c-1.55,0.25 -1.425,0.853 -0.823,1.861c0.457,0.766 1.093,1.186 2.022,1.171c1.457,-0.025 2.915,0.018 4.373,-0.013c1.995,-0.044 3.311,-1.328 3.377,-3.32c0.045,-1.394 0.009,-2.789 0.009,-4.185Zm1.316,21.21c-4.383,-0 -8.766,-0.047 -13.147,0.029c-1.308,0.024 -1.747,-0.314 -1.721,-1.676c0.083,-4.381 -0.023,-8.766 0.063,-13.147c0.026,-1.345 -0.36,-1.713 -1.691,-1.68c-3.681,0.092 -7.367,0.024 -11.051,0.036c-2.436,0.008 -4.38,-0.85 -5.332,-3.212c-0.951,-2.36 -0.137,-4.274 1.616,-6c4.705,-4.636 9.384,-9.297 13.997,-14.025c1.858,-1.903 3.969,-2.757 6.622,-2.722c6.414,0.08 12.829,-0.025 19.244,0.061c1.539,0.02 2.575,-0.477 3.634,-1.553c6.681,-6.791 13.43,-13.514 20.156,-20.263c0.806,-0.809 1.605,-1.633 2.664,-2.125c1.724,-0.8 3.652,-0.5 4.944,0.767c1.297,1.271 1.645,3.191 0.877,4.925c-0.474,1.069 -1.286,1.877 -2.096,2.689c-7.581,7.599 -15.147,15.213 -22.758,22.78c-0.882,0.878 -1.234,1.756 -1.228,2.994c0.05,10.098 -0.001,20.197 0.078,30.295c0.013,1.549 -0.456,1.892 -1.915,1.861c-4.317,-0.094 -8.638,-0.034 -12.956,-0.034Z" style="fill:none;fill-rule:nonzero;stroke:black;stroke-width:4.17px;"/>
            <path d="M52.168,54.238c-6.301,-0.003 -11.389,-5.102 -11.37,-11.393c0.02,-6.275 5.176,-11.364 11.462,-11.31c6.213,0.051 11.253,5.103 11.283,11.307c0.031,6.275 -5.083,11.399 -11.375,11.396" style="fill:white;fill-rule:nonzero;"/>
            <path d="M52.168,54.238c-6.301,-0.003 -11.389,-5.102 -11.37,-11.393c0.02,-6.275 5.176,-11.364 11.462,-11.31c6.213,0.051 11.253,5.103 11.283,11.307c0.031,6.275 -5.083,11.399 -11.375,11.396Z" style="fill:none;fill-rule:nonzero;stroke:black;stroke-width:4.17px;"/>
            <path d="M17.377,3.698c-0.114,0.142 -0.282,0.39 -0.49,0.601c-3.947,4.039 -7.905,8.067 -11.839,12.117c-0.525,0.541 -0.841,0.679 -1.516,0.102c-1.472,-1.253 -2.336,-2.511 -1.337,-4.517c0.995,-1.997 1.275,-3.964 -1.041,-5.405c-0.795,-0.495 -0.419,-1 0.102,-1.505c1.321,-1.278 2.642,-2.562 3.903,-3.901c0.604,-0.642 1.114,-0.833 1.647,-0.025c1.309,1.986 2.934,1.969 4.821,0.889c0.654,-0.374 1.41,-0.569 2.127,-0.82c0.897,-0.316 3.514,1.367 3.623,2.464" style="fill:rgb(0,102,204);fill-rule:nonzero;"/>
            <path d="M13.35,13.626c0.526,0.942 0.822,1.9 0.08,2.868c-0.857,1.116 -1.979,0.896 -3.319,0.383c0.137,1.306 0.698,2.55 -0.458,3.439c-0.441,0.339 -0.922,0.639 -1.491,0.542c-1.286,-0.22 -2.111,-0.943 -2.045,-2.323c0.073,-1.561 1.3,-2.123 3.853,-1.77c-0.308,-1.185 -0.678,-2.397 0.542,-3.271c0.991,-0.707 1.938,-0.4 2.864,0.161l-0.026,-0.029" style="fill:rgb(0,102,204);fill-rule:nonzero;"/>
            <path d="M70.534,27.934c-0.072,1.643 -1.496,2.947 -3.133,2.865c-1.647,-0.079 -2.933,-1.501 -2.856,-3.154c0.078,-1.658 1.481,-2.932 3.14,-2.85c1.658,0.082 2.922,1.475 2.849,3.139" style="fill:rgb(0,102,204);fill-rule:nonzero;"/>
            <path d="M27.31,57.486c-0.053,1.682 -1.445,2.967 -3.133,2.896c-1.704,-0.072 -2.948,-1.447 -2.851,-3.152c0.091,-1.612 1.406,-2.842 3.012,-2.819c1.685,0.024 3.025,1.411 2.972,3.075" style="fill:rgb(0,102,204);fill-rule:nonzero;"/>
            <path d="M38.493,46.152c0.029,1.604 -1.215,2.919 -2.835,2.999c-1.671,0.083 -3.085,-1.255 -3.1,-2.931c-0.015,-1.583 1.273,-2.949 2.842,-3.018c1.656,-0.07 3.064,1.271 3.093,2.95" style="fill:rgb(0,102,204);fill-rule:nonzero;"/>
            <path d="M40.482,33.239c-1.669,-0.033 -2.966,-1.409 -2.905,-3.081c0.058,-1.58 1.364,-2.867 2.93,-2.888c1.65,-0.02 2.987,1.327 2.986,3.007c-0,1.682 -1.335,2.995 -3.011,2.962" style="fill:rgb(0,102,204);fill-rule:nonzero;"/>
            <path d="M59.508,27.321c-1.623,-0.001 -2.895,-1.3 -2.861,-2.922c0.033,-1.548 1.248,-2.798 2.767,-2.847c1.558,-0.048 2.944,1.278 2.985,2.858c0.04,1.585 -1.279,2.913 -2.891,2.911" style="fill:rgb(0,102,204);fill-rule:nonzero;"/>
            <path d="M23.975,49.662c0.006,1.519 -1.233,2.805 -2.752,2.853c-1.622,0.053 -2.945,-1.219 -2.948,-2.831c-0.004,-1.619 1.307,-2.895 2.926,-2.85c1.524,0.042 2.767,1.311 2.774,2.828" style="fill:rgb(0,102,204);fill-rule:nonzero;"/>
            <path d="M30.835,37.126c1.588,0.006 2.831,1.328 2.78,2.951c-0.05,1.541 -1.266,2.716 -2.813,2.713c-1.525,-0.003 -2.765,-1.214 -2.803,-2.741c-0.04,-1.578 1.271,-2.929 2.836,-2.923" style="fill:rgb(0,102,204);fill-rule:nonzero;"/>
            <path d="M37.092,25.663c-0.044,1.548 -1.308,2.72 -2.867,2.657c-1.554,-0.062 -2.721,-1.323 -2.663,-2.873c0.059,-1.537 1.342,-2.737 2.872,-2.683c1.522,0.055 2.701,1.339 2.658,2.899" style="fill:rgb(0,102,204);fill-rule:nonzero;"/>
            <path d="M51.514,18.37c1.542,0.032 2.733,1.291 2.689,2.846c-0.043,1.55 -1.314,2.719 -2.875,2.647c-1.487,-0.069 -2.597,-1.241 -2.587,-2.735c0.009,-1.556 1.248,-2.787 2.773,-2.758" style="fill:rgb(0,102,204);fill-rule:nonzero;"/>
            <path d="M28.811,33.715c0.029,1.458 -1.119,2.644 -2.599,2.684c-1.494,0.042 -2.697,-1.056 -2.759,-2.517c-0.066,-1.522 1.181,-2.834 2.681,-2.823c1.428,0.009 2.647,1.22 2.677,2.656" style="fill:rgb(0,102,204);fill-rule:nonzero;"/>
            <path d="M20.614,41.925c0.015,1.456 -1.132,2.68 -2.564,2.739c-1.513,0.061 -2.805,-1.175 -2.815,-2.689c-0.009,-1.473 1.111,-2.658 2.571,-2.72c1.539,-0.066 2.79,1.125 2.808,2.67" style="fill:rgb(0,102,204);fill-rule:nonzero;"/>
            <path d="M43.592,15.143c1.444,0.087 2.594,1.401 2.483,2.84c-0.111,1.457 -1.407,2.533 -2.886,2.402c-1.4,-0.123 -2.444,-1.313 -2.381,-2.709c0.064,-1.469 1.331,-2.621 2.784,-2.533" style="fill:rgb(0,102,204);fill-rule:nonzero;"/>
            <path d="M28.029,18.26c1.46,-0.044 2.705,1.161 2.7,2.611c-0.004,1.38 -1.144,2.519 -2.55,2.552c-1.436,0.036 -2.587,-1 -2.67,-2.402c-0.088,-1.486 1.034,-2.716 2.52,-2.761" style="fill:rgb(0,102,204);fill-rule:nonzero;"/>
            <path d="M21.343,24.992c1.341,-0.042 2.575,1.115 2.63,2.465c0.055,1.355 -1.091,2.577 -2.46,2.627c-1.345,0.049 -2.578,-1.109 -2.617,-2.458c-0.039,-1.373 1.094,-2.592 2.447,-2.634" style="fill:rgb(0,102,204);fill-rule:nonzero;"/>
            <path d="M14.735,36.768c-1.385,-0.007 -2.53,-1.132 -2.55,-2.504c-0.022,-1.476 1.159,-2.625 2.648,-2.575c1.41,0.047 2.464,1.164 2.441,2.583c-0.024,1.405 -1.139,2.502 -2.539,2.495" style="fill:rgb(0,102,204);fill-rule:nonzero;"/>
            <path d="M37.923,14.427c0.016,1.381 -1.15,2.575 -2.531,2.502c-1.466,-0.077 -2.35,-0.905 -2.496,-2.355c-0.134,-1.32 1.116,-2.6 2.441,-2.637c1.347,-0.038 2.57,1.142 2.586,2.49" style="fill:rgb(0,102,204);fill-rule:nonzero;"/>
            <path d="M21.73,18.554c-1.277,-0.186 -2.274,-0.918 -2.243,-2.419c0.032,-1.455 0.932,-2.32 2.421,-2.38c1.286,-0.051 2.432,1.139 2.423,2.408c-0.011,1.284 -1.166,2.412 -2.601,2.391" style="fill:rgb(0,102,204);fill-rule:nonzero;"/>
            <path d="M13.621,26.072c0.011,1.198 -1.11,2.4 -2.297,2.316c-1.372,-0.097 -2.283,-0.872 -2.288,-2.294c-0.004,-1.417 0.875,-2.202 2.266,-2.296c1.211,-0.081 2.306,1.046 2.319,2.274" style="fill:rgb(0,102,204);fill-rule:nonzero;"/>
            <path d="M18.522,21.178c-0.016,1.231 -1.134,2.351 -2.35,2.243c-1.319,-0.114 -2.091,-0.896 -2.181,-2.223c-0.086,-1.228 1.023,-2.341 2.253,-2.355c1.208,-0.014 2.294,1.099 2.278,2.335" style="fill:rgb(0,102,204);fill-rule:nonzero;"/>
            <path d="M27.36,8.761c1.317,0.003 2.42,1.108 2.392,2.395c-0.026,1.311 -1.158,2.427 -2.453,2.321c-1.369,-0.115 -2.206,-0.883 -2.284,-2.286c-0.074,-1.316 1.05,-2.433 2.345,-2.43" style="fill:rgb(0,102,204);fill-rule:nonzero;"/>
            <path d="M17,9.966c-0.314,0.474 0.205,0.731 0.295,1.1c0.424,1.725 -0.933,3.041 -2.683,2.681c-0.385,-0.079 -0.778,-0.99 -1.262,-0.121l0.027,0.029c0.645,-0.207 0.21,-0.522 0.065,-0.789c-0.519,-0.964 -0.454,-1.886 0.317,-2.658c0.775,-0.775 1.697,-0.832 2.647,-0.282c0.205,0.118 0.394,0.268 0.635,0.081l-0.041,-0.041Z" style="fill:rgb(0,102,204);fill-rule:nonzero;"/>
            <path d="M17.04,10.007c0.288,-0.489 -0.247,-0.739 -0.334,-1.125c-0.239,-1.063 0.015,-1.947 0.962,-2.506c0.942,-0.557 1.877,-0.424 2.636,0.379c0.7,0.739 0.806,1.625 0.3,2.505c-0.545,0.95 -1.398,1.264 -2.475,1.017c-0.383,-0.089 -0.645,-0.608 -1.13,-0.311l0.041,0.041" style="fill:rgb(0,102,204);fill-rule:nonzero;"/>
            <path d="M51.772,77.194c-0,1.396 0.037,2.791 -0.01,4.185c-0.065,1.992 -1.381,3.276 -3.376,3.32c-1.458,0.031 -2.916,-0.012 -4.374,0.013c-0.928,0.015 -1.564,-0.405 -2.022,-1.171c-0.601,-1.008 -0.725,-1.611 0.824,-1.861c2.703,-0.434 4.294,-2.373 4.264,-4.789c-0.03,-2.336 -1.61,-4.273 -4.208,-4.656c-1.88,-0.277 -1.289,-0.991 -0.638,-1.905c0.11,-0.153 0.255,-0.286 0.402,-0.403c1.206,-0.95 7.067,-0.583 8.159,0.511c0.657,0.656 1.01,1.425 0.988,2.383c-0.033,1.456 -0.009,2.916 -0.009,4.373" style="fill:rgb(249,245,245);fill-rule:nonzero;"/>
        </g>
    </g>
</svg>
