<?xml version="1.0" encoding="UTF-8" standalone="no"?>
<!DOCTYPE svg PUBLIC "-//W3C//DTD SVG 1.1//EN" "http://www.w3.org/Graphics/SVG/1.1/DTD/svg11.dtd">
<svg width="100%" height="100%" viewBox="0 0 100 100" version="1.1" xmlns="http://www.w3.org/2000/svg" xmlns:xlink="http://www.w3.org/1999/xlink" xml:space="preserve" xmlns:serif="http://www.serif.com/" style="fill-rule:evenodd;clip-rule:evenodd;stroke-linejoin:round;stroke-miterlimit:2;">
    <g id="Artboard1" transform="matrix(0.0448598,0,0,0.0448598,0,0)">
        <rect x="0" y="0" width="2229.17" height="2229.17" style="fill:none;"/>
        <clipPath id="_clip1">
            <rect x="0" y="0" width="2229.17" height="2229.17"/>
        </clipPath>
        <g clip-path="url(#_clip1)">
            <g id="Layer-1" serif:id="Layer 1" transform="matrix(4.16667,0,0,4.16667,0,0)">
                <g>
                    <g transform="matrix(1,0,0,1,269.61,534.173)">
                        <path d="M0,-531.342c-71.581,0.432 -132.48,24.232 -183.253,72.491c-50.855,48.338 -78.899,107.904 -82.172,178.089c-3.469,74.379 19.902,139.733 71.092,194.161c48.44,51.505 108.394,79.937 179.136,83.23c74.936,3.488 140.626,-20.258 195.233,-72.122c50.883,-48.327 78.897,-107.917 82.163,-178.093c3.489,-74.951 -20.191,-140.699 -72.148,-195.219c-51.969,-54.533 -116.097,-81.916 -190.051,-82.537m-1.183,533.169c-87.667,-0 -175.334,-0.033 -263,0.106c-3.917,0.006 -4.515,-1.065 -4.513,-4.68c0.098,-175.333 0.102,-350.666 -0.019,-526c-0.003,-3.916 1.064,-4.514 4.678,-4.512c175.333,0.098 350.667,0.102 526,-0.019c3.917,-0.003 4.514,1.064 4.512,4.678c-0.097,175.333 -0.101,350.667 0.02,526c0.003,3.916 -1.064,4.518 -4.678,4.513c-87.667,-0.111 -175.334,-0.086 -263,-0.086" style="fill:rgb(254,254,254);fill-rule:nonzero;"/>
                    </g>
                    <g transform="matrix(1,0,0,1,270.361,504.605)">
                        <path d="M0,-472.088c-64.175,1.077 -118.41,21.833 -163.439,64.33c-44.8,42.282 -69.13,95.054 -72.697,156.434c-3.848,66.216 17.248,124.569 62.163,173.261c42.267,45.821 95.667,70.575 157.769,74.208c66.75,3.905 125.488,-17.487 174.366,-63.093c45.317,-42.284 69.75,-95.428 73.244,-157.189c3.788,-66.972 -17.705,-125.841 -63.74,-174.602c-45.832,-48.547 -103.328,-71.775 -167.666,-73.349m-0.751,-29.686c73.954,0.622 138.082,28.004 190.051,82.538c51.957,54.519 75.637,120.267 72.148,195.219c-3.266,70.175 -31.28,129.766 -82.163,178.093c-54.607,51.863 -120.297,75.61 -195.233,72.121c-70.742,-3.293 -130.696,-31.725 -179.136,-83.23c-51.19,-54.428 -74.561,-119.782 -71.093,-194.161c3.273,-70.185 31.318,-129.751 82.173,-178.089c50.773,-48.259 111.672,-72.058 183.253,-72.491" style="fill-rule:nonzero;"/>
                    </g>
                    <g transform="matrix(1,0,0,1,276,67.3523)">
                        <path d="M0,402.468c0,-5.65 0.076,-11.301 -0.024,-16.949c-0.082,-4.605 -3.342,-7.902 -7.531,-7.871c-4.174,0.031 -7.389,3.344 -7.42,7.981c-0.076,11.299 -0.068,22.599 -0.004,33.898c0.026,4.677 3.126,8.007 7.285,8.12c4.384,0.119 7.619,-3.276 7.678,-8.23c0.068,-5.649 0.016,-11.299 0.016,-16.949m195.266,-209.82c-5.649,-0 -11.3,-0.047 -16.949,0.014c-4.963,0.053 -8.378,3.231 -8.316,7.594c0.059,4.174 3.372,7.339 8.033,7.369c11.299,0.071 22.599,0.069 33.898,0.001c4.677,-0.029 7.987,-3.159 8.068,-7.337c0.084,-4.371 -3.325,-7.57 -8.283,-7.627c-5.483,-0.063 -10.967,-0.014 -16.451,-0.014m-405.499,15c5.484,-0 10.967,0.025 16.451,-0.007c5.407,-0.032 8.868,-3.07 8.782,-7.634c-0.083,-4.343 -3.491,-7.329 -8.565,-7.347c-10.967,-0.039 -21.934,-0.041 -32.901,-0c-5.072,0.019 -8.471,3.025 -8.533,7.379c-0.066,4.557 3.398,7.571 8.814,7.602c5.317,0.031 10.635,0.007 15.952,0.007m210.233,-209.797c0,-5.484 0.026,-10.967 -0.007,-16.451c-0.034,-5.392 -3.099,-8.859 -7.664,-8.752c-4.336,0.103 -7.3,3.514 -7.317,8.595c-0.038,10.967 -0.042,21.934 0.001,32.901c0.02,5.053 3.056,8.457 7.408,8.503c4.357,0.047 7.512,-3.371 7.566,-8.346c0.059,-5.483 0.013,-10.967 0.013,-16.45m86.378,353.754c-2.808,0.181 -5.094,1.442 -6.424,4.232c-1.257,2.637 -1.471,5.008 0.324,7.731c5.925,8.986 11.693,18.081 17.307,27.266c3.296,5.391 7.172,7.221 11.468,4.813c4.416,-2.475 5.234,-6.796 1.899,-12.152c-5.949,-9.555 -12.049,-19.017 -18.194,-28.448c-1.38,-2.119 -3.531,-3.344 -6.38,-3.442m108.629,-50.048c-0.224,-2.264 -1.441,-4.404 -4.132,-5.969c-10.257,-5.964 -20.571,-11.817 -31.261,-16.975c-4.25,-2.05 -7.529,-0.826 -9.667,3.334c-2.215,4.308 -0.564,8.052 4.759,10.965c9.7,5.308 19.398,10.621 29.065,15.987c4.757,2.64 11.169,-1.13 11.236,-7.342m-361.022,-183.24c-0.246,-2.069 -1.401,-4.263 -3.871,-5.657c-10.462,-5.905 -20.862,-11.918 -31.673,-17.191c-1.992,-0.971 -3.649,-1.025 -5.548,-0.24c-2.974,1.229 -4.808,3.411 -4.844,6.63c-0.043,3.794 2.14,6.138 5.437,7.915c9.872,5.321 19.628,10.859 29.446,16.282c4.713,2.603 11.184,-1.55 11.053,-7.739m1.032,164.629c-0.179,-5.262 -5.415,-8.396 -10.391,-6.5c-4.201,1.601 -7.261,4.773 -10.763,7.292c-6.706,4.824 -13.239,9.916 -19.566,15.228c-3.161,2.653 -3.259,6.437 -0.737,9.628c2.422,3.065 5.727,4.227 9.512,2.052c1.113,-0.639 2.292,-1.192 3.318,-1.95c7.798,-5.757 15.643,-11.456 23.301,-17.395c2.662,-2.064 5.432,-4.385 5.326,-8.355m362.962,-177.632c0.137,-6.799 -5.768,-10.318 -11.436,-7.745c-10.35,4.697 -20.678,9.442 -30.98,14.244c-3.604,1.68 -5.433,6.516 -3.964,9.955c1.771,4.146 5.333,6.088 9.449,4.261c11.257,-4.995 22.394,-10.267 33.48,-15.635c2.248,-1.088 3.346,-3.475 3.451,-5.08m-286.956,-67.511c0.234,-1.628 -0.862,-2.977 -1.705,-4.299c-2.34,-3.665 -4.874,-7.206 -7.311,-10.81c-3.79,-5.605 -7.501,-11.264 -11.362,-16.819c-2.935,-4.222 -7.33,-5.376 -11.028,-3.114c-3.873,2.369 -4.712,6.266 -1.922,11.025c2.195,3.744 4.861,7.211 7.298,10.815c3.79,5.605 7.435,11.313 11.392,16.797c2.192,3.039 5.216,5.363 9.267,3.925c3.251,-1.153 5.391,-3.578 5.371,-7.52m0.118,323.657c-0.727,-2.442 -1.838,-4.868 -4.933,-6.211c-3.233,-1.402 -5.944,-0.519 -7.962,1.731c-8.023,8.941 -15.203,18.567 -22.344,28.219c-2.933,3.965 -2.588,7.628 1.006,10.791c3.321,2.921 7.38,2.439 11.055,-1.925c5.942,-7.056 11.304,-14.596 17.128,-21.757c2.57,-3.16 5.53,-5.97 6.05,-10.848m188.632,-295.805c3.139,0.064 5.09,-1.07 6.574,-2.908c7.245,-8.973 14.639,-17.839 21.56,-27.057c3.397,-4.525 2.745,-8.468 -0.661,-11.293c-3.577,-2.967 -7.479,-2.61 -11.434,2.065c-7.13,8.427 -13.967,17.113 -20.644,25.906c-2.017,2.656 -3.397,5.967 -1.158,9.455c1.517,2.364 3.607,3.68 5.763,3.832m-143.184,99.761c-0.224,-0.28 -0.448,-0.56 -0.672,-0.84c0.04,-0.999 -0.134,-2.063 0.15,-2.986c7.459,-24.211 23.089,-40.813 46.682,-49.953c18.069,-7.001 36.884,-9.424 56.133,-8.931c3.104,0.079 4.268,-0.548 4.208,-3.992c-0.224,-12.995 -0.193,-25.998 -0.017,-38.995c0.043,-3.183 -0.703,-4.17 -4.051,-4.161c-14.342,0.037 -28.584,0.64 -42.794,2.997c-22.302,3.698 -42.811,11.31 -61.838,23.798c-19.747,12.961 -33.842,30.498 -44.21,51.122c-8.225,16.359 -12.98,33.916 -15.358,52.23c-1.925,14.82 -2.724,29.589 -0.668,44.29c2.448,17.495 7.184,34.414 16.827,49.58c8.196,12.89 18.419,23.757 31.962,31.015c22.591,12.106 46.5,15.739 71.843,11.143c25.807,-4.68 46.34,-17.543 61.054,-38.996c8.947,-13.043 13.796,-27.768 15.413,-43.825c1.275,-12.66 -0.073,-24.742 -3.314,-36.748c-4.658,-17.258 -14.333,-31.371 -28.834,-41.751c-11.185,-8.007 -23.809,-12.403 -37.701,-13.953c-16.653,-1.857 -32.385,0.165 -47.573,7.173c-6.439,2.971 -11.506,7.843 -17.242,11.783m37.772,-200.251c64.339,1.573 121.834,24.802 167.666,73.348c46.035,48.762 67.529,107.631 63.74,174.603c-3.493,61.761 -27.926,114.905 -73.243,157.188c-48.879,45.607 -107.617,66.999 -174.366,63.094c-62.103,-3.633 -115.503,-28.387 -157.77,-74.208c-44.915,-48.692 -66.01,-107.045 -62.163,-173.261c3.567,-61.38 27.898,-114.153 72.698,-156.434c45.028,-42.497 99.263,-63.253 163.438,-64.33" style="fill:rgb(254,254,254);fill-rule:nonzero;"/>
                    </g>
                    <g transform="matrix(1,0,0,1,306.058,216.081)">
                        <path d="M0,84.42c-0.053,-3.96 -0.182,-7.839 -0.989,-11.767c-4.745,-23.104 -22.467,-36.67 -45.74,-31.688c-15.537,3.326 -25.943,12.831 -29.852,28.232c-1.987,7.828 -0.286,16.023 1.549,23.888c4.279,18.332 13.099,32.785 33.27,36.449c11.465,2.082 23.749,-0.983 31.944,-12.18c7.239,-9.89 9.73,-21.016 9.818,-32.934m-73.469,-67.733c5.736,-3.94 10.803,-8.812 17.242,-11.783c15.188,-7.008 30.92,-9.03 47.573,-7.172c13.892,1.549 26.516,5.946 37.701,13.952c14.501,10.38 24.176,24.493 28.834,41.751c3.241,12.006 4.589,24.089 3.314,36.748c-1.617,16.058 -6.466,30.782 -15.413,43.825c-14.714,21.453 -35.247,34.316 -61.054,38.996c-25.343,4.596 -49.252,0.963 -71.843,-11.143c-13.543,-7.257 -23.766,-18.125 -31.962,-31.015c-9.643,-15.166 -14.379,-32.085 -16.826,-49.579c-2.057,-14.702 -1.258,-29.471 0.667,-44.29c2.378,-18.315 7.133,-35.872 15.358,-52.231c10.368,-20.624 24.464,-38.161 44.21,-51.122c19.027,-12.488 39.536,-20.1 61.838,-23.798c14.21,-2.357 28.452,-2.96 42.794,-2.997c3.348,-0.009 4.095,0.978 4.052,4.161c-0.176,12.997 -0.208,26 0.016,38.995c0.06,3.445 -1.104,4.071 -4.208,3.992c-19.249,-0.493 -38.064,1.93 -56.133,8.931c-23.592,9.141 -39.223,25.742 -46.682,49.954c-0.284,0.922 -0.11,1.986 -0.149,2.985c-0.932,0.309 -1.078,0.923 -0.68,1.749c0.45,-0.303 0.9,-0.606 1.351,-0.909" style="fill:rgb(0,0,152);fill-rule:nonzero;"/>
                    </g>
                    <g transform="matrix(1,0,0,1,375.773,88.8463)">
                        <path d="M0,44.161c-2.156,-0.152 -4.246,-1.468 -5.763,-3.832c-2.239,-3.488 -0.859,-6.799 1.158,-9.455c6.677,-8.793 13.514,-17.479 20.644,-25.906c3.954,-4.675 7.857,-5.032 11.433,-2.065c3.407,2.825 4.059,6.768 0.661,11.293c-6.921,9.218 -14.314,18.084 -21.56,27.057c-1.484,1.838 -3.434,2.972 -6.573,2.908" style="fill-rule:nonzero;"/>
                    </g>
                    <g transform="matrix(1,0,0,1,187.14,458.651)">
                        <path d="M0,-29.838c-0.519,4.878 -3.48,7.688 -6.05,10.848c-5.823,7.16 -11.186,14.701 -17.128,21.757c-3.675,4.364 -7.733,4.846 -11.054,1.924c-3.595,-3.162 -3.94,-6.826 -1.007,-10.79c7.141,-9.652 14.322,-19.278 22.344,-28.219c2.018,-2.25 4.73,-3.133 7.963,-1.731c3.095,1.342 4.205,3.768 4.932,6.211" style="fill-rule:nonzero;"/>
                    </g>
                    <g transform="matrix(1,0,0,1,187.023,76.8086)">
                        <path d="M0,28.347c0.021,3.941 -2.12,6.366 -5.371,7.52c-4.05,1.438 -7.074,-0.886 -9.267,-3.925c-3.956,-5.484 -7.602,-11.192 -11.392,-16.797c-2.436,-3.604 -5.102,-7.071 -7.298,-10.815c-2.789,-4.759 -1.95,-8.656 1.922,-11.025c3.698,-2.263 8.093,-1.109 11.028,3.114c3.862,5.555 7.573,11.214 11.363,16.819c2.436,3.604 4.971,7.144 7.31,10.81c0.844,1.321 1.939,2.671 1.705,4.299" style="fill-rule:nonzero;"/>
                    </g>
                    <g transform="matrix(1,0,0,1,473.979,184.89)">
                        <path d="M0,-12.224c-0.105,1.605 -1.204,3.992 -3.452,5.08c-11.085,5.368 -22.222,10.64 -33.479,15.635c-4.116,1.827 -7.678,-0.115 -9.449,-4.261c-1.469,-3.439 0.36,-8.275 3.964,-9.955c10.302,-4.802 20.63,-9.547 30.98,-14.244c5.668,-2.573 11.572,0.946 11.436,7.745" style="fill-rule:nonzero;"/>
                    </g>
                    <g transform="matrix(1,0,0,1,111.017,371.777)">
                        <path d="M0,-21.479c0.105,3.971 -2.664,6.291 -5.326,8.355c-7.658,5.939 -15.503,11.638 -23.301,17.395c-1.026,0.758 -2.205,1.311 -3.318,1.951c-3.785,2.174 -7.09,1.012 -9.513,-2.053c-2.522,-3.191 -2.423,-6.974 0.738,-9.628c6.327,-5.312 12.859,-10.404 19.566,-15.227c3.502,-2.519 6.562,-5.692 10.763,-7.293c4.975,-1.896 10.212,1.238 10.391,6.5" style="fill-rule:nonzero;"/>
                    </g>
                    <g transform="matrix(1,0,0,1,109.985,172.138)">
                        <path d="M0,13.532c0.131,6.189 -6.341,10.341 -11.053,7.738c-9.818,-5.422 -19.574,-10.961 -29.447,-16.282c-3.296,-1.776 -5.479,-4.12 -5.437,-7.915c0.037,-3.218 1.871,-5.401 4.845,-6.63c1.899,-0.784 3.556,-0.731 5.548,0.241c10.811,5.272 21.211,11.285 31.673,17.19c2.469,1.394 3.624,3.589 3.871,5.658" style="fill-rule:nonzero;"/>
                    </g>
                    <g transform="matrix(1,0,0,1,471.007,353.897)">
                        <path d="M0,15.012c-0.067,6.213 -6.479,9.982 -11.236,7.342c-9.667,-5.366 -19.365,-10.679 -29.065,-15.987c-5.322,-2.913 -6.974,-6.656 -4.759,-10.965c2.138,-4.16 5.417,-5.384 9.667,-3.333c10.69,5.157 21.004,11.01 31.261,16.974c2.691,1.565 3.908,3.705 4.132,5.969" style="fill-rule:nonzero;"/>
                    </g>
                    <g transform="matrix(1,0,0,1,362.378,465.407)">
                        <path d="M0,-46.449c2.849,0.097 5,1.323 6.38,3.441c6.145,9.431 12.245,18.893 18.194,28.448c3.335,5.357 2.517,9.677 -1.899,12.153c-4.295,2.407 -8.172,0.577 -11.467,-4.814c-5.615,-9.184 -11.382,-18.279 -17.308,-27.266c-1.795,-2.722 -1.581,-5.093 -0.324,-7.731c1.33,-2.79 3.616,-4.05 6.424,-4.231" style="fill-rule:nonzero;"/>
                    </g>
                    <g transform="matrix(1,0,0,1,276,64.7361)">
                        <path d="M0,0.467c0,5.484 0.046,10.968 -0.014,16.45c-0.053,4.975 -3.208,8.393 -7.565,8.346c-4.352,-0.046 -7.388,-3.45 -7.408,-8.503c-0.043,-10.966 -0.039,-21.934 -0.002,-32.901c0.018,-5.081 2.982,-8.492 7.318,-8.595c4.565,-0.107 7.63,3.36 7.664,8.752c0.033,5.484 0.007,10.967 0.007,16.451" style="fill-rule:nonzero;"/>
                    </g>
                    <g transform="matrix(1,0,0,1,65.7668,259.997)">
                        <path d="M0,15.003c-5.317,-0 -10.635,0.024 -15.952,-0.007c-5.416,-0.031 -8.88,-3.044 -8.814,-7.602c0.062,-4.353 3.461,-7.359 8.533,-7.378c10.967,-0.041 21.934,-0.04 32.901,-0.001c5.074,0.018 8.482,3.004 8.565,7.347c0.086,4.565 -3.375,7.602 -8.782,7.634c-5.484,0.032 -10.967,0.007 -16.451,0.007" style="fill-rule:nonzero;"/>
                    </g>
                    <g transform="matrix(1,0,0,1,471.266,274.999)">
                        <path d="M0,-14.999c5.484,0 10.968,-0.049 16.45,0.014c4.959,0.057 8.367,3.256 8.283,7.628c-0.08,4.177 -3.39,7.308 -8.067,7.336c-11.299,0.068 -22.599,0.07 -33.898,-0.001c-4.661,-0.029 -7.975,-3.195 -8.034,-7.369c-0.061,-4.363 3.353,-7.54 8.317,-7.594c5.649,-0.061 11.299,-0.014 16.949,-0.014" style="fill-rule:nonzero;"/>
                    </g>
                    <g transform="matrix(1,0,0,1,276,470.267)">
                        <path d="M0,-0.447c0,5.65 0.052,11.3 -0.016,16.949c-0.059,4.954 -3.294,8.349 -7.678,8.23c-4.159,-0.113 -7.259,-3.443 -7.285,-8.12c-0.064,-11.299 -0.072,-22.599 0.004,-33.898c0.031,-4.637 3.246,-7.95 7.42,-7.981c4.189,-0.031 7.449,3.266 7.531,7.871c0.1,5.648 0.024,11.299 0.024,16.949" style="fill-rule:nonzero;"/>
                    </g>
                    <g transform="matrix(1,0,0,1,306.058,299.26)">
                        <path d="M0,1.241c-0.088,11.918 -2.579,23.044 -9.818,32.934c-8.195,11.197 -20.479,14.262 -31.944,12.18c-20.171,-3.664 -28.991,-18.117 -33.27,-36.449c-1.835,-7.865 -3.536,-16.06 -1.549,-23.888c3.909,-15.401 14.315,-24.906 29.852,-28.232c23.273,-4.982 40.995,8.584 45.74,31.688c0.807,3.928 0.936,7.807 0.989,11.767" style="fill:rgb(254,254,254);fill-rule:nonzero;"/>
                    </g>
                    <g transform="matrix(1,0,0,1,232.589,232.837)">
                        <path d="M0,-0.068c-0.45,0.303 -0.901,0.606 -1.351,0.909c-0.398,-0.826 -0.252,-1.441 0.68,-1.75c0.224,0.281 0.447,0.561 0.671,0.841" style="fill:rgb(254,254,254);fill-rule:nonzero;"/>
                    </g>
                </g>
            </g>
        </g>
    </g>
</svg>
