<?xml version="1.0" encoding="UTF-8" standalone="no"?>
<!DOCTYPE svg PUBLIC "-//W3C//DTD SVG 1.1//EN" "http://www.w3.org/Graphics/SVG/1.1/DTD/svg11.dtd">
<svg width="100%" height="100%" viewBox="0 0 100 100" version="1.1" xmlns="http://www.w3.org/2000/svg" xmlns:xlink="http://www.w3.org/1999/xlink" xml:space="preserve" xmlns:serif="http://www.serif.com/" style="fill-rule:evenodd;clip-rule:evenodd;stroke-linejoin:round;stroke-miterlimit:2;">
    <g id="Artboard2" transform="matrix(1,0,0,1,-0.473993,-0.767996)">
        <rect x="0.474" y="0.768" width="99.052" height="99.053" style="fill:none;"/>
        <g transform="matrix(1,0,0,1,0.0238099,0.0364351)">
            <path d="M40.957,49.252c-6.414,-7.776 -14.092,-14.323 -21.023,-21.597c-1.477,-1.55 -1.872,0.442 -2.372,1.142c-10.216,14.324 -8.203,35.705 4.53,48.655c13.029,13.253 34.503,15.581 49.228,5.405c1.545,-1.067 2.176,-1.78 0.537,-3.369c-7.147,-6.93 -14.204,-13.95 -21.295,-20.937c-2.964,-3.344 -5.886,-6.733 -9.605,-9.299m15.897,0.178c2.908,3.369 5.913,6.638 9.508,9.302c3.68,4.661 8.175,8.537 12.32,12.748c1.193,1.21 2.408,1.477 3.596,-0.423c2.307,-3.689 4.464,-7.522 5.478,-11.688c3.87,-15.897 -2.313,-31.762 -15.706,-41.203c-12.627,-8.9 -30.996,-9.086 -43.468,-0.42c-1.037,0.72 -2.653,1.172 -0.807,2.973c9.748,9.516 19.396,19.132 29.079,28.711m-56.17,0.505c0.012,-27.017 22.008,-48.967 49.055,-48.956c27.014,0.009 49.145,21.57 49.57,47.701c0.505,31.013 -24.881,51.216 -49.491,50.928c-27.426,-0.32 -49.148,-22.003 -49.134,-49.673" style="fill:rgb(233,14,15);fill-rule:nonzero;"/>
        </g>
        <g transform="matrix(1,0,0,1,0.0238099,0.0364351)">
            <path d="M50.563,58.551c7.09,6.987 14.148,14.006 21.293,20.936c1.641,1.591 1.008,2.301 -0.536,3.369c-14.726,10.178 -36.198,7.85 -49.228,-5.403c-12.732,-12.95 -14.745,-34.332 -4.529,-48.655c0.498,-0.702 0.895,-2.694 2.37,-1.144c6.931,7.275 14.611,13.822 21.023,21.599c-5.782,0.01 -11.562,0.025 -17.343,0.029c-6.68,0.005 -6.605,-0.001 -6.469,6.867c0.037,1.91 0.467,2.605 2.509,2.577c10.302,-0.141 20.607,-0.131 30.91,-0.175Z" style="fill:rgb(25,103,175);fill-rule:nonzero;"/>
        </g>
        <g transform="matrix(1,0,0,1,0.0238099,0.0364351)">
            <path d="M83.129,53.727c-1.566,-1.102 1.205,-4.263 -1.776,-4.263c-2.946,-0 -1.211,3.069 -1.247,4.535c-0.035,1.428 -1.643,4.498 1.24,4.487c2.897,-0.009 0.542,-3.067 1.783,-4.759m-21.005,-15.43l0,-0.012c-2.522,-0 -5.043,0.011 -7.564,-0.003c-1.715,-0.01 -2.918,-0.755 -3.267,-2.515c-0.347,-1.762 0.461,-3.135 2.089,-3.484c1.675,-0.358 2.238,-1.222 2.531,-2.731c0.633,-3.263 2.671,-5.117 6.019,-5.124c3.496,-0.006 5.692,1.858 6.235,5.319c0.265,1.689 1.011,2.163 2.654,2.435c5.916,0.975 8.936,4.601 9.16,10.621c0.047,1.257 -0.043,2.519 0.012,3.777c0.028,0.656 0.327,1.141 1.152,1.173c0.883,0.035 1.303,-0.236 1.576,-1.137c1.974,-6.506 -2.24,-14.624 -8.962,-16.736c-1.721,-0.541 -2.678,-1.22 -3.413,-2.933c-1.515,-3.528 -4.423,-5.455 -8.317,-5.456c-3.892,-0 -6.647,1.964 -8.358,5.434c-0.584,1.188 -0.873,2.389 -2.356,3.153c-2.639,1.361 -3.564,3.933 -2.747,6.766c0.87,3.017 3.155,4.375 6.291,4.353c4.034,-0.026 8.072,0.092 12.101,-0.042c4.058,-0.134 7.253,0.917 8.424,5.252c0.279,1.034 0.77,1.535 1.837,1.335c1.614,-0.304 0.971,-1.509 0.822,-2.37c-0.645,-3.722 -4.384,-6.78 -8.736,-7.05c-2.386,-0.147 -4.789,-0.025 -7.183,-0.025m-5.27,11.135c-9.683,-9.582 -19.331,-19.197 -29.078,-28.713c-1.847,-1.802 -0.231,-2.253 0.806,-2.973c12.472,-8.666 30.841,-8.48 43.467,0.42c13.394,9.441 19.577,25.308 15.707,41.205c-1.014,4.164 -3.171,7.996 -5.478,11.687c-1.188,1.899 -2.404,1.631 -3.594,0.422c-4.147,-4.211 -8.642,-8.088 -12.319,-12.748c2.003,-0.018 4.005,-0.049 6.005,-0.049c6.286,-0.001 6.183,0.006 6.068,-6.433c-0.037,-2.15 -0.359,-3.114 -2.831,-3.025c-6.245,0.224 -12.501,0.157 -18.753,0.207" style="fill:rgb(25,103,175);fill-rule:nonzero;"/>
        </g>
        <g transform="matrix(1,0,0,1,0.0238099,0.0364351)">
            <path d="M50.563,58.551c-10.303,0.044 -20.608,0.034 -30.91,0.175c-2.042,0.028 -2.472,-0.667 -2.509,-2.577c-0.136,-6.868 -0.211,-6.862 6.469,-6.867c5.781,-0.005 11.561,-0.019 17.343,-0.03c3.719,2.566 6.643,5.954 9.607,9.299Z" style="fill:white;fill-rule:nonzero;"/>
        </g>
        <g transform="matrix(1,0,0,1,0.0238099,0.0364351)">
            <path d="M56.854,49.431c6.251,-0.05 12.507,0.017 18.754,-0.206c2.471,-0.089 2.792,0.875 2.83,3.026c0.116,6.438 0.219,6.432 -6.067,6.432c-2.002,-0.001 -4.003,0.031 -6.006,0.048c-3.599,-2.664 -6.604,-5.933 -9.511,-9.3Z" style="fill:white;fill-rule:nonzero;"/>
        </g>
        <g transform="matrix(1,0,0,1,0.0238099,0.0364351)">
            <path d="M62.124,38.297c2.395,-0 4.796,-0.121 7.182,0.026c4.352,0.269 8.091,3.327 8.736,7.05c0.149,0.861 0.794,2.064 -0.822,2.369c-1.065,0.201 -1.557,-0.302 -1.835,-1.335c-1.171,-4.335 -4.366,-5.385 -8.424,-5.251c-4.03,0.134 -8.067,0.014 -12.101,0.041c-3.136,0.021 -5.422,-1.336 -6.293,-4.354c-0.817,-2.831 0.108,-5.403 2.747,-6.764c1.485,-0.765 1.772,-1.967 2.358,-3.153c1.711,-3.472 4.466,-5.436 8.358,-5.434c3.892,0.001 6.801,1.928 8.315,5.456c0.735,1.711 1.694,2.391 3.415,2.931c6.72,2.113 10.935,10.232 8.962,16.738c-0.273,0.9 -0.694,1.17 -1.577,1.136c-0.826,-0.033 -1.123,-0.517 -1.153,-1.174c-0.054,-1.256 0.036,-2.518 -0.011,-3.776c-0.223,-6.021 -3.245,-9.646 -9.161,-10.622c-1.642,-0.272 -2.389,-0.744 -2.653,-2.433c-0.542,-3.461 -2.739,-5.325 -6.234,-5.319c-3.348,0.007 -5.386,1.861 -6.02,5.122c-0.293,1.511 -0.855,2.374 -2.53,2.733c-1.628,0.348 -2.438,1.72 -2.089,3.483c0.347,1.761 1.551,2.505 3.266,2.514c2.521,0.014 5.042,0.005 7.564,0.005l0,0.011Z" style="fill:white;fill-rule:nonzero;"/>
        </g>
        <g transform="matrix(1,0,0,1,0.0238099,0.0364351)">
            <path d="M83.129,53.727c-1.241,1.692 1.114,4.75 -1.783,4.759c-2.883,0.011 -1.275,-3.059 -1.24,-4.487c0.036,-1.466 -1.699,-4.535 1.246,-4.535c2.982,0 0.211,3.161 1.777,4.263Z" style="fill:white;fill-rule:nonzero;"/>
        </g>
        <g id="Layer-1" serif:id="Layer 1">
        </g>
    </g>
</svg>
