<?xml version="1.0" encoding="UTF-8" standalone="no"?>
<!DOCTYPE svg PUBLIC "-//W3C//DTD SVG 1.1//EN" "http://www.w3.org/Graphics/SVG/1.1/DTD/svg11.dtd">
<svg width="100%" height="100%" viewBox="0 0 24 24" version="1.1" xmlns="http://www.w3.org/2000/svg" xmlns:xlink="http://www.w3.org/1999/xlink" xml:space="preserve" xmlns:serif="http://www.serif.com/" style="fill-rule:evenodd;clip-rule:evenodd;stroke-linejoin:round;stroke-miterlimit:2;">
    <g transform="matrix(1,0,0,1,-7.12636,-218.607)">
        <g transform="matrix(0.0512524,0,0,0.0512524,-1.53161,210.818)">
            <circle cx="404.135" cy="386.917" r="234.135" style="fill:rgb(25,103,175);"/>
        </g>
        <g transform="matrix(0.0512524,0,0,0.0512524,7.52939,218.591)">
            <g transform="matrix(0.587933,0,0,0.587933,90.9167,78.0604)">
                <path d="M471.199,231.069l-199.599,-197.344l0.044,0.093c-22.495,-22.547 -52.143,-33.868 -81.649,-33.818c-29.463,-0.05 -59.112,11.271 -81.609,33.818c-22.54,22.49 -33.857,52.092 -33.815,81.609c-0.042,29.502 11.274,59.147 33.815,81.645l47.106,46.6c-1.42,-0.043 -2.842,-0.043 -4.259,-0.043c-38.632,0 -73.726,9.714 -99.984,26.161c-13.106,8.245 -24.057,18.189 -31.846,29.782c-7.832,11.55 -12.417,24.835 -12.417,38.858l-0,78.719c-0,14.016 4.585,27.308 12.417,38.858c11.732,17.364 30.377,31.15 53.107,40.83c22.773,9.664 49.762,15.113 78.723,15.163c38.579,-0.05 73.676,-9.758 99.93,-26.211c13.149,-8.202 24.054,-18.188 31.89,-29.781c7.793,-11.55 12.374,-24.842 12.374,-38.858l0,-35.144l12.554,12.425l-0.043,-0.1c22.494,22.54 52.143,33.868 81.648,33.818c29.466,0.05 59.112,-11.278 81.612,-33.768c22.54,-22.548 33.814,-52.143 33.814,-81.659c0.001,-29.51 -11.273,-59.113 -33.813,-81.653Z" style="fill:white;"/>
            </g>
            <g transform="matrix(0.587933,0,0,0.587933,90.9167,78.0604)">
                <path d="M29.897,338.43c0.043,-9.026 2.838,-17.637 8.481,-26.075c4.95,-7.37 12.231,-14.432 21.347,-20.705l175.312,102.594c-3.986,2.194 -8.201,4.259 -12.65,6.137c-20.113,8.567 -44.672,13.608 -71.152,13.608c-35.38,0.05 -67.27,-9.026 -89.764,-23.186c-11.27,-7.097 -20.16,-15.4 -26.118,-24.283c-2.205,-3.305 -4.033,-6.645 -5.456,-10.08l-0,-18.01Z" style="fill:rgb(25,103,175);"/>
            </g>
            <g transform="matrix(0.587933,0,0,0.587933,90.9167,78.0604)">
                <path d="M451.77,374.9c-17.228,17.192 -39.639,25.752 -62.183,25.752c-22.588,-0 -44.991,-8.524 -62.223,-25.752l-0.046,-0.043l-31.89,-31.524l0,-4.903c0,-14.024 -4.581,-27.309 -12.374,-38.858c-9.801,-14.432 -24.326,-26.39 -42.016,-35.553c2.201,-5.728 4.994,-11.966 8.432,-18.368c9.714,-18.246 24.286,-38.041 43.578,-53.247c19.196,-15.17 42.798,-25.982 71.984,-27.638l86.692,85.731l0.046,-0c17.182,17.228 25.749,39.683 25.749,62.223c0,22.548 -8.567,45.003 -25.749,62.18Z" style="fill:rgb(25,103,175);"/>
            </g>
            <g transform="matrix(0.587933,0,0,0.587933,90.9167,78.0604)">
                <path d="M272.518,417.15c0,9.026 -2.842,17.644 -8.474,26.068c-8.438,12.56 -23.418,24.196 -43.074,32.542c-19.612,8.338 -43.715,13.335 -69.736,13.335c-34.735,-0 -66.029,-8.94 -87.792,-22.684c-10.908,-6.832 -19.433,-14.848 -25.064,-23.193c-5.642,-8.424 -8.439,-17.042 -8.482,-26.068l-0,-32.484c11.087,12.274 26.211,22.498 44.034,30.054c22.268,9.449 48.798,14.854 77.304,14.854c37.983,-0 72.44,-9.586 98.005,-25.623c8.98,-5.586 16.816,-12.045 23.279,-19.243l0,32.442Z" style="fill:rgb(25,103,175);"/>
            </g>
            <g transform="matrix(0.587933,0,0,0.587933,90.9167,78.0604)">
                <path d="M272.519,356.44c-0.273,0.688 -0.553,1.326 -0.919,2.014c-1.233,2.753 -2.749,5.406 -4.538,8.065c-3.847,5.772 -9.026,11.228 -15.164,16.311l-173.569,-101.54c1.054,-0.459 2.065,-1.011 3.116,-1.42c19.611,-8.338 43.715,-13.335 69.79,-13.335c10.26,0 20.208,0.781 29.689,2.251c22.637,3.434 42.704,10.762 58.054,20.382c1.878,1.147 3.667,2.388 5.359,3.628c8.294,5.908 14.847,12.46 19.475,19.293c0.093,0.086 0.183,0.179 0.233,0.265c5.632,8.438 8.474,17.049 8.474,26.075l-0,18.011Z" style="fill:rgb(25,103,175);"/>
            </g>
        </g>
    </g>
    <g id="Artboard2" transform="matrix(1,0,0,1,-173.271,-183.773)">
        <rect x="173.271" y="183.773" width="24" height="24" style="fill:none;"/>
    </g>
</svg>
