<?xml version="1.0" encoding="UTF-8" standalone="no"?>
<!DOCTYPE svg PUBLIC "-//W3C//DTD SVG 1.1//EN" "http://www.w3.org/Graphics/SVG/1.1/DTD/svg11.dtd">
<svg width="100%" height="100%" viewBox="0 0 24 24" version="1.1" xmlns="http://www.w3.org/2000/svg" xmlns:xlink="http://www.w3.org/1999/xlink" xml:space="preserve" xmlns:serif="http://www.serif.com/" style="fill-rule:evenodd;clip-rule:evenodd;stroke-linejoin:round;stroke-miterlimit:2;">
    <rect id="Artboard1" x="0" y="0" width="24" height="24" style="fill:none;"/>
    <g id="Layer_2">
        <g id="Layer_1-2">
            <circle cx="12" cy="12" r="12" style="fill:#1967af;"/>
            <path d="M22.315,16.332l0,0.478c-0.249,0.778 -0.715,1.469 -1.345,1.99c-0.615,0.573 -1.203,1.185 -1.791,1.785c-0.726,0.741 -1.406,1.547 -2.53,1.692l-0.382,-0c-0.569,-0.195 -1.09,-0.51 -1.528,-0.925c-0.833,-0.867 -1.704,-1.696 -2.537,-2.563c-0.236,-0.248 -0.359,-0.264 -0.599,-0c-0.764,0.798 -1.555,1.57 -2.338,2.349c-0.352,0.407 -0.864,0.641 -1.401,0.641c-0.529,-0 -1.033,-0.227 -1.385,-0.621c-1.085,-1.078 -2.166,-2.159 -3.243,-3.244c-0.397,-0.349 -0.625,-0.854 -0.625,-1.383c-0,-0.539 0.237,-1.052 0.648,-1.402c0.764,-0.764 1.555,-1.574 2.349,-2.338c0.253,-0.241 0.253,-0.382 0,-0.596c-0.275,-0.234 -0.53,-0.489 -0.764,-0.764c-0.947,-1.074 -2.258,-1.853 -2.727,-3.316l-0,-0.577c0.246,-0.774 0.704,-1.464 1.321,-1.991c0.654,-0.607 1.273,-1.249 1.911,-1.887c0.638,-0.638 1.314,-1.41 2.33,-1.589l0.294,-0c0.67,0.14 1.284,0.475 1.765,0.962c0.829,0.875 1.704,1.701 2.537,2.568c0.214,0.225 0.321,0.21 0.527,-0c0.764,-0.806 1.582,-1.593 2.38,-2.388c0.351,-0.403 0.86,-0.635 1.395,-0.635c0.534,0 1.043,0.232 1.394,0.635c1.062,1.057 2.122,2.117 3.179,3.179c0.902,0.905 0.902,1.956 -0,2.857c-0.791,0.799 -1.586,1.593 -2.388,2.38c-0.176,0.176 -0.195,0.279 0,0.459c0.51,0.479 1.006,0.972 1.49,1.478c0.787,0.841 1.796,1.525 2.063,2.766Zm-0.921,0.436c0.041,-0.492 -0.138,-0.978 -0.489,-1.326c-4.003,-3.991 -8.001,-7.983 -11.992,-11.977c-0.27,-0.309 -0.662,-0.486 -1.072,-0.486c-0.398,-0 -0.779,0.167 -1.048,0.459c-1.116,1.096 -2.22,2.201 -3.313,3.317c-0.3,0.272 -0.471,0.658 -0.471,1.063c0,0.42 0.184,0.819 0.502,1.091c3.978,3.994 7.961,7.976 11.946,11.947c0.276,0.327 0.683,0.516 1.11,0.516c0.416,-0 0.812,-0.179 1.087,-0.489c1.089,-1.074 2.163,-2.159 3.248,-3.24c0.263,-0.224 0.437,-0.534 0.492,-0.875Zm-0.45,-9.039c-0.037,-0.266 -0.165,-0.511 -0.363,-0.692c-1.066,-1.073 -2.128,-2.147 -3.206,-3.209c-0.531,-0.523 -1.05,-0.531 -1.574,-0.019c-0.825,0.806 -1.627,1.635 -2.452,2.441c-0.191,0.187 -0.161,0.294 -0,0.466c1.441,1.429 2.876,2.864 4.305,4.306c0.184,0.187 0.291,0.172 0.466,-0c0.829,-0.848 1.67,-1.681 2.507,-2.522c0.215,-0.196 0.331,-0.48 0.317,-0.771Zm-13.127,13.192c0.264,-0.001 0.518,-0.105 0.706,-0.291c0.837,-0.84 1.674,-1.681 2.522,-2.51c0.183,-0.179 0.179,-0.286 -0,-0.466c-1.444,-1.439 -2.881,-2.879 -4.31,-4.321c-0.175,-0.179 -0.286,-0.191 -0.466,0c-0.806,0.803 -1.635,1.624 -2.449,2.449c-0.511,0.527 -0.5,1.039 0.023,1.57c1.051,1.063 2.113,2.117 3.171,3.175c0.213,0.222 0.497,0.362 0.803,0.394Z" style="fill:#fff;fill-rule:nonzero;"/>
            <path d="M21.394,16.768c-0.054,0.34 -0.227,0.651 -0.489,0.875c-1.081,1.081 -2.154,2.166 -3.247,3.24c-0.275,0.31 -0.671,0.489 -1.087,0.489c-0.427,-0 -0.834,-0.189 -1.11,-0.516c-3.988,-3.971 -7.972,-7.952 -11.95,-11.943c-0.318,-0.273 -0.502,-0.672 -0.502,-1.091c0,-0.405 0.171,-0.791 0.471,-1.064c1.093,-1.118 2.197,-2.224 3.313,-3.32c0.27,-0.295 0.652,-0.463 1.051,-0.463c0.409,0 0.799,0.176 1.069,0.482c3.991,3.997 7.986,7.992 11.985,11.985c0.353,0.347 0.535,0.833 0.496,1.326Zm-7.258,-5.593c0,-0.012 0,-0.023 0,-0.035c0,-0.48 -0.395,-0.874 -0.875,-0.874c0,-0 -0,-0 -0,-0c-0.018,-0.002 -0.036,-0.002 -0.054,-0.002c-0.486,-0 -0.886,0.4 -0.886,0.886c-0,0.003 -0,0.006 -0,0.01c0.012,0.491 0.4,0.897 0.89,0.932c0.496,-0.004 0.902,-0.414 0.902,-0.91c-0,-0.002 -0,-0.005 -0,-0.007l0.023,-0Zm-2.931,2.915c0.013,0 0.026,0.001 0.039,0.001c0.484,-0 0.882,-0.399 0.882,-0.883c0,-0.008 0,-0.016 0,-0.024c-0.013,-0.498 -0.401,-0.913 -0.898,-0.959c-0.512,0.002 -0.932,0.424 -0.932,0.936c-0,0.011 -0,0.021 0,0.031c-0,0.008 -0,0.015 -0,0.023c-0,0.48 0.395,0.875 0.875,0.875c0.004,-0 0.008,-0 0.011,-0l0.023,-0Zm4.039,-0c0.501,0.01 0.923,-0.393 0.936,-0.894c-0.024,-0.512 -0.429,-0.931 -0.94,-0.971c-0.496,0.037 -0.894,0.437 -0.929,0.933c0,0.01 -0,0.02 -0,0.03c-0,0.497 0.409,0.906 0.905,0.906c0.002,-0 0.003,-0 0.005,-0l0.023,-0.004Zm-1.108,1.123c-0,-0.008 -0,-0.015 -0,-0.023c-0,-0.495 -0.403,-0.905 -0.898,-0.913c-0.005,-0 -0.009,-0 -0.014,-0c-0.507,-0 -0.924,0.417 -0.924,0.925c-0,0.502 0.409,0.917 0.911,0.924c0.495,-0.002 0.902,-0.41 0.902,-0.905c-0,-0.002 -0,-0.003 -0,-0.004l0.023,-0.004Zm-4.917,-4.967c-0.021,-0.001 -0.041,-0.002 -0.061,-0.002c-0.497,0 -0.906,0.409 -0.906,0.906c0,0.002 0,0.004 0,0.006c0.019,0.499 0.418,0.909 0.917,0.94c0.484,-0.027 0.878,-0.411 0.917,-0.894c0,-0.011 0,-0.021 0,-0.031c0,-0.491 -0.4,-0.896 -0.89,-0.902l0.023,-0.023Zm1.096,-1.123c-0,0.01 -0,0.021 -0,0.031c-0,0.492 0.405,0.898 0.897,0.898c0.002,-0 0.003,-0 0.005,-0c0.502,-0.019 0.905,-0.434 0.909,-0.936c-0.022,-0.486 -0.412,-0.881 -0.898,-0.91c-0.01,-0 -0.021,-0 -0.031,-0c-0.497,-0 -0.905,0.408 -0.905,0.905c-0,0.012 -0,0.023 0,0.035l0.023,-0.023Z" style="fill:#1967af;fill-rule:nonzero;"/>
            <path d="M20.944,7.729c0.016,0.286 -0.094,0.566 -0.302,0.764c-0.837,0.837 -1.677,1.673 -2.506,2.521c-0.172,0.176 -0.279,0.191 -0.466,0c-1.429,-1.439 -2.862,-2.873 -4.298,-4.301c-0.172,-0.172 -0.203,-0.279 -0,-0.467c0.825,-0.806 1.627,-1.635 2.452,-2.441c0.52,-0.508 1.043,-0.5 1.574,0.019c1.078,1.062 2.14,2.136 3.206,3.209c0.19,0.186 0.31,0.432 0.34,0.696Z" style="fill:#1967af;fill-rule:nonzero;"/>
            <path d="M7.817,20.921c-0.3,-0.032 -0.58,-0.167 -0.791,-0.382c-1.058,-1.059 -2.121,-2.109 -3.171,-3.175c-0.527,-0.554 -0.539,-1.055 -0.035,-1.582c0.807,-0.825 1.632,-1.627 2.438,-2.452c0.183,-0.188 0.29,-0.172 0.466,-0c1.429,1.441 2.864,2.876 4.306,4.305c0.179,0.18 0.183,0.287 -0,0.466c-0.849,0.829 -1.681,1.67 -2.522,2.51c-0.182,0.189 -0.43,0.3 -0.691,0.31Z" style="fill:#1967af;fill-rule:nonzero;"/>
            <path d="M14.113,11.175c-0,0.004 -0,0.008 -0,0.011c-0,0.499 -0.411,0.91 -0.909,0.91c-0.007,-0 -0.013,-0 -0.02,-0c-0.49,-0.036 -0.877,-0.442 -0.89,-0.933c0,-0.003 0,-0.006 0,-0.009c0,-0.486 0.4,-0.886 0.886,-0.886c0.018,-0 0.036,0 0.054,0.001c0.001,0 0.003,0 0.004,0c0.48,0 0.875,0.395 0.875,0.875c0,0.01 0,0.021 -0,0.031Z" style="fill:#fff;fill-rule:nonzero;"/>
            <path d="M11.182,14.09c-0.005,-0 -0.01,-0 -0.015,-0c-0.48,-0 -0.875,-0.395 -0.875,-0.875c0,-0.003 0,-0.005 0,-0.008c-0,-0.015 -0.001,-0.03 -0.001,-0.046c0,-0.513 0.423,-0.936 0.936,-0.936c0.001,0 0.001,0 0.001,0c0.484,0.055 0.859,0.458 0.879,0.944c0.001,0.013 0.001,0.026 0.001,0.039c-0,0.484 -0.399,0.883 -0.883,0.883c-0.014,-0 -0.028,-0.001 -0.043,-0.001Z" style="fill:#fff;fill-rule:nonzero;"/>
            <path d="M15.221,14.094c-0.002,-0 -0.003,-0 -0.004,-0c-0.497,-0 -0.906,-0.409 -0.906,-0.906c0,-0.004 0,-0.007 0,-0.011c0.026,-0.504 0.426,-0.914 0.929,-0.952c0.495,0.052 0.884,0.459 0.913,0.956c-0.002,0.501 -0.415,0.913 -0.917,0.913c-0.005,-0 -0.01,-0 -0.015,-0Z" style="fill:#fff;fill-rule:nonzero;"/>
            <path d="M14.113,15.217c-0,0.002 -0,0.005 -0,0.008c-0,0.496 -0.409,0.905 -0.906,0.905c-0.005,0 -0.01,-0 -0.015,-0c-0.502,-0.007 -0.911,-0.422 -0.911,-0.925c-0,-0.507 0.417,-0.924 0.924,-0.924c0.005,-0 0.009,-0 0.014,-0c0.493,0.01 0.894,0.419 0.894,0.913c-0,0.007 -0,0.015 -0,0.023Z" style="fill:#fff;fill-rule:nonzero;"/>
            <path d="M9.196,10.269c-0,0 0,0 0,0c0.495,0 0.902,0.407 0.902,0.902c-0,0.01 -0,0.02 -0.001,0.031c-0.039,0.487 -0.44,0.872 -0.928,0.894c-0.499,-0.031 -0.898,-0.441 -0.917,-0.94c0.01,-0.49 0.416,-0.887 0.905,-0.887c0.013,-0 0.026,-0 0.039,0Z" style="fill:#fff;fill-rule:nonzero;"/>
            <path d="M10.292,9.146c0,-0.004 0,-0.008 0,-0.011c0,-0.497 0.409,-0.906 0.906,-0.906c0.002,0 0.005,0 0.007,0c0.486,0.029 0.876,0.424 0.898,0.909c-0.004,0.503 -0.407,0.918 -0.909,0.936c-0.002,0.001 -0.003,0.001 -0.004,0.001c-0.493,-0 -0.898,-0.406 -0.898,-0.898c-0,-0.01 -0,-0.021 0,-0.031Z" style="fill:#fff;fill-rule:nonzero;"/>
        </g>
    </g>
</svg>
