<?xml version="1.0" encoding="UTF-8" standalone="no"?>
<!DOCTYPE svg PUBLIC "-//W3C//DTD SVG 1.1//EN" "http://www.w3.org/Graphics/SVG/1.1/DTD/svg11.dtd">
<svg width="100%" height="100%" viewBox="0 0 100 100" version="1.1" xmlns="http://www.w3.org/2000/svg" xmlns:xlink="http://www.w3.org/1999/xlink" xml:space="preserve" xmlns:serif="http://www.serif.com/" style="fill-rule:evenodd;clip-rule:evenodd;stroke-linejoin:round;stroke-miterlimit:2;">
    <g id="Artboard1" transform="matrix(0.375,0,0,0.375,0,0)">
        <rect x="0" y="0" width="266.667" height="266.667" style="fill:none;"/>
        <g id="Layer-1" serif:id="Layer 1" transform="matrix(4.28298,0,0,4.28298,-3.66826,-3.66826)">
            <g transform="matrix(1,0,0,1,13.2511,38.0362)">
                <path d="M0,-12.474c-0.043,0.002 -0.085,0.003 -0.128,0.005c-0.01,0.678 0.128,1.351 0.128,2.027l0,-2.032Zm3.453,3.798c-1.326,-0.054 -2.705,0.367 -3.406,-1.411c-0.035,1.688 0.176,3.17 0.144,4.675c1.009,-1.157 2.202,-2.072 3.262,-3.264m0.458,-5.173c-0,-0.985 0.005,-1.969 -0.002,-2.954c-0.005,-0.609 -0.289,-0.998 -0.848,-1.128c-0.38,-0.088 -0.776,-0.091 -1.155,0.002c-0.597,0.147 -0.834,0.474 -0.842,1.123c-0.008,0.65 -0,1.301 -0.003,1.952c-0.002,0.61 -0.262,0.867 -0.857,0.895c-0.169,0.008 -0.467,-0.135 -0.447,0.231c0.016,0.309 0.282,0.177 0.441,0.185c0.62,0.027 0.862,0.28 0.864,0.941c0.001,0.493 -0.001,0.985 -0,1.477c0.001,1.017 0.351,1.379 1.339,1.388c0.135,0.001 0.271,0.003 0.406,-0.006c0.729,-0.051 1.096,-0.446 1.102,-1.205c0.008,-0.967 0.002,-1.934 0.002,-2.901m33.547,-20.763c0.026,-0.526 -0.209,-0.879 -0.659,-1.081c-0.231,-0.104 -0.469,-0.193 -0.709,-0.273c-0.593,-0.198 -1.091,-0.005 -1.341,0.59c-0.77,1.828 -1.52,3.665 -2.263,5.506c-0.18,0.445 -0.019,1.041 0.337,1.263c0.301,0.188 0.634,0.323 0.959,0.464c0.525,0.227 1.233,-0.144 1.404,-0.67c0.134,-0.413 0.363,-0.792 0.504,-1.204c0.178,-0.521 0.421,-0.921 1.029,-0.873c0.143,0.011 0.205,-0.072 0.267,-0.19c0.095,-0.183 -0.059,-0.203 -0.144,-0.267c-0.322,-0.241 -0.41,-0.538 -0.227,-0.916c0.075,-0.156 0.142,-0.318 0.196,-0.484c0.206,-0.625 0.588,-1.185 0.647,-1.865m-46.052,18.917l-0.005,0c-0,-0.334 0.009,-0.669 -0.002,-1.003c-0.022,-0.714 -0.344,-1.109 -1.002,-1.251c-1.096,-0.236 -1.903,0.265 -1.914,1.245c-0.024,1.901 -0.018,3.803 -0.002,5.705c0.007,0.718 0.394,1.17 1.065,1.238c1.042,0.106 1.945,-0.075 1.864,-1.634c-0.025,-0.474 0.002,-0.951 -0.006,-1.427c-0.007,-0.443 0.178,-0.694 0.616,-0.718c0.13,-0.008 0.284,0.025 0.296,-0.19c0.014,-0.246 -0.152,-0.225 -0.305,-0.233c-0.443,-0.025 -0.617,-0.288 -0.607,-0.728c0.009,-0.334 0.002,-0.669 0.002,-1.004m54.218,-7.255c0.487,0.019 0.836,-0.18 1.036,-0.663c0.716,-1.738 1.448,-3.469 2.156,-5.21c0.113,-0.278 0.264,-0.557 0.16,-0.905c-0.229,-0.765 -1.316,-1.328 -2.099,-1.081c-0.302,0.096 -0.497,0.281 -0.62,0.568c-0.245,0.576 -0.491,1.152 -0.731,1.731c-0.3,0.726 -0.507,0.828 -1.188,0.526c-0.228,-0.101 -0.436,-0.226 -0.592,0.085c-0.048,0.095 -0.033,0.103 0.44,0.304c0.586,0.25 0.72,0.591 0.472,1.208c-0.155,0.388 -0.298,0.782 -0.472,1.16c-0.704,1.535 0.232,2.08 1.438,2.277m-36.326,33.779c-0,4.14 0.008,8.281 -0.01,12.422c-0.002,0.434 0.089,0.546 0.517,0.545c5.911,-0.017 11.822,-0.018 17.734,0c0.462,0.002 0.57,-0.119 0.57,-0.596c-0.015,-8.669 -0.009,-17.338 -0.017,-26.007c-0,-0.421 0.117,-0.673 0.525,-0.813c0.308,-0.106 0.584,-0.318 0.812,-0.575c0.754,-0.847 1.393,-1.786 2.03,-2.729c0.972,-1.44 1.87,-2.928 2.728,-4.443c1.214,-2.145 2.445,-4.279 3.633,-6.44c1.521,-2.765 3.017,-5.546 4.341,-8.421c0.195,-0.424 0.481,-0.836 0.467,-1.334c-0.015,-0.486 0.015,-0.931 0.406,-1.278c0.278,-0.246 0.317,-0.621 0.394,-0.962c0.195,-0.86 -0.179,-1.972 -0.767,-2.334c-1.718,-1.059 -4.053,-0.236 -4.772,1.718c-0.597,1.624 -1.322,3.188 -2.046,4.751c-0.611,1.32 -1.287,2.608 -1.949,3.903c-1.598,3.128 -2.84,6.463 -4.977,9.278c-0.728,0.96 -1.617,1.606 -2.856,1.597c-0.353,-0.002 -0.703,-0.13 -1.039,-0.092c-1.122,0.129 -2.128,0.652 -3.147,1.115c-1.028,0.466 -2.09,0.848 -3.202,0.961c-1.126,0.114 -2.167,-0.32 -3.194,-0.771c-0.903,-0.396 -1.776,-0.889 -2.74,-1.104c-1.015,-0.226 -2.038,-0.265 -3.081,-0.13c-1.293,0.167 -2.514,0.489 -3.621,1.234c-0.74,0.498 -1.276,1.203 -1.882,1.845c-1.288,1.365 -2.631,2.675 -3.942,4.017c-0.214,0.219 -0.425,0.446 -0.733,0.289c-0.269,-0.138 -0.371,-0.399 -0.355,-0.741c0.085,-1.756 -0.105,-3.507 -0.1,-5.262c-0,-0.07 0.005,-0.142 -0.005,-0.211c-0.205,-1.378 -0.225,-2.773 -0.266,-4.159c-0.016,-0.544 -0.045,-1.073 -0.125,-1.608c-0.065,-0.431 -0.281,-0.682 -0.681,-0.779c-1.037,-0.253 -2.031,-0.061 -3.041,0.22c-1.128,0.314 -1.608,1.86 -1.562,2.671c0.084,1.475 0.206,2.948 0.297,4.422c0.063,1.03 0.015,2.061 0.077,3.096c0.087,1.427 0.109,2.859 0.219,4.288c0.117,1.515 0.285,3.014 0.838,4.429c0.574,1.47 1.288,2.349 3.106,2.22c1.107,-0.078 2.161,-0.414 3.172,-0.886c1.603,-0.748 2.824,-2.038 4.095,-3.232c1.159,-1.088 2.279,-2.235 3.202,-3.563c0.167,-0.24 0.395,-0.428 0.688,-0.275c0.273,0.143 0.446,0.415 0.34,0.741c-0.108,0.329 -0.078,0.655 -0.078,0.983c-0.004,4 -0.003,8 -0.003,12m-21.549,-29.021c0.319,-0.134 0.427,-0.551 0.773,-0.64c1.076,-0.278 2.156,-0.468 3.161,0.227c0.46,0.317 0.725,0.787 0.734,1.377c0.01,0.72 0.002,1.441 0.002,2.165c0.217,-0.007 0.179,-0.171 0.224,-0.297c0.29,-0.821 0.86,-1.336 1.63,-1.676c0.871,-0.385 1.772,-0.452 2.694,-0.416c0.55,0.021 1.109,-0.076 1.642,0.149c0.749,0.318 1.046,0.951 1.128,1.736c0.009,0.087 0.008,0.176 0.006,0.264c-0.004,0.142 0.058,0.266 0.186,0.268c0.192,0.002 0.113,-0.181 0.114,-0.282c0.008,-0.651 0.001,-1.303 0.005,-1.955c0.004,-0.917 0.8,-1.746 1.688,-1.758c0.424,-0.006 0.847,-0.001 1.27,-0.001c1.181,-0.001 1.92,0.766 1.92,1.994c0.001,2.202 0.001,4.404 0.001,6.606l-0,0.174c0.782,-0.706 1.657,-1.146 2.614,-1.4c1.535,-0.407 3.087,-0.426 4.668,-0.334c1.558,0.091 2.88,0.838 4.222,1.464c1.532,0.714 2.909,0.445 4.342,-0.145c0.973,-0.401 1.905,-0.916 2.923,-1.19c0.715,-0.193 1.437,-0.233 2.179,-0.146c0.564,0.066 1.083,-0.164 1.533,-0.537c0.936,-0.775 1.476,-1.858 2.069,-2.897c1.265,-2.217 2.263,-4.578 3.406,-6.861c0.691,-1.379 1.392,-2.753 2.081,-4.133c0.109,-0.218 0.178,-0.458 0.288,-0.748c-1.252,0.496 -2.312,0.142 -3.264,-0.588c-0.394,-0.302 -0.602,-0.797 -0.634,-1.347c-0.037,-0.652 0.058,-1.268 0.31,-1.868c0.661,-1.574 1.301,-3.157 1.967,-4.729c0.649,-1.53 1.724,-1.608 3.062,-1.271c0.556,0.14 1.114,0.376 1.474,0.949c0.502,0.798 0.47,1.61 0.202,2.459c-0.072,0.226 -0.146,0.452 -0.219,0.678c-0.1,0.034 -0.131,0.123 -0.067,0.188c0.057,0.056 0.096,-0.045 0.136,-0.087c1.531,-1.242 3.199,-1.072 4.847,-0.396c0.904,0.37 1.387,1.189 1.397,2.242c0.006,0.574 0.001,1.148 0.1,1.759c0.206,-0.467 0.429,-0.927 0.613,-1.403c0.319,-0.823 0.993,-1.343 1.783,-1.363c1.098,-0.029 2.013,0.291 2.79,1.081l-0,2.96c-0.472,0.813 -0.74,1.723 -1.12,2.58c-0.378,0.849 -0.689,1.73 -1.117,2.556c-0.312,0.601 -0.833,0.832 -1.444,0.961c-0.882,0.186 -2.699,-0.432 -3.039,-1.491c-0.157,-0.491 -0.187,-0.993 -0.197,-1.596c-0.536,1.049 -1.024,2.007 -1.516,2.963c-1.004,1.952 -2.059,3.874 -3.118,5.795c-1.214,2.2 -2.443,4.392 -3.714,6.556c-1.081,1.838 -2.194,3.658 -3.538,5.311c-0.498,0.613 -0.985,1.228 -1.661,1.635c-0.259,0.156 -0.172,0.394 -0.172,0.604c-0.005,5.761 -0.004,11.523 -0.004,17.284c-0,2.978 -0.007,5.955 0.008,8.933c0.002,0.499 -0.162,0.679 -0.646,0.679c-6.503,-0.011 -13.007,-0.007 -19.511,-0.008c-0.633,0 -0.673,-0.045 -0.673,-0.74l-0,-24.686c-0.161,-0.061 -0.203,0.093 -0.274,0.166c-1.068,1.097 -2.1,2.233 -3.239,3.253c-1.261,1.13 -2.53,2.225 -4.165,2.788c-1.315,0.453 -2.643,0.602 -3.994,0.48c-1.154,-0.104 -1.89,-0.939 -2.45,-1.908c-0.719,-1.243 -0.971,-2.639 -1.129,-4.062c-0.201,-1.822 -0.266,-3.65 -0.334,-5.482c-0.03,-0.821 -0.058,-1.643 -0.06,-2.464c-0.003,-0.911 -0.188,-1.811 -0.14,-2.738c-0.171,0.916 -0.625,1.623 -1.511,1.802c-0.766,0.155 -1.569,0.162 -2.345,-0.05c-0.392,-0.108 -0.554,-0.54 -0.897,-0.723l-0,-8.67Z" style="fill:#020202;fill-rule:nonzero;"/>
            </g>
            <g transform="matrix(1,0,0,1,39.8258,16.2227)">
                <path d="M0,0.282c0.01,-4.287 -3.173,-7.301 -6.79,-7.447c-4.504,-0.181 -7.47,3.357 -7.541,7.251c-0.082,4.431 3.165,7.578 6.995,7.662c4.161,0.092 7.38,-3.262 7.336,-7.466m1.01,0.082c0.119,1.682 -0.273,3.288 -1.226,4.696c-1.29,1.905 -2.95,3.3 -5.255,3.629c-1.565,0.224 -3.131,0.254 -4.647,-0.319c-1.812,-0.684 -3.178,-1.944 -4.183,-3.633c-1.127,-1.894 -1.274,-3.984 -0.932,-6.102c0.58,-3.6 2.717,-5.83 6.047,-6.69c2.348,-0.606 4.713,-0.322 6.738,1.186c2.334,1.738 3.632,4.102 3.458,7.233" style="fill:#020202;fill-rule:nonzero;"/>
            </g>
            <g transform="matrix(1,0,0,1,22.5495,17.8098)">
                <path d="M0,31.055c0,-4 -0.001,-8 0.002,-12c0.001,-0.327 -0.03,-0.653 0.078,-0.983c0.107,-0.325 -0.066,-0.598 -0.34,-0.741c-0.292,-0.152 -0.521,0.035 -0.688,0.276c-0.923,1.327 -2.043,2.474 -3.201,3.562c-1.272,1.195 -2.493,2.484 -4.096,3.232c-1.011,0.472 -2.065,0.808 -3.172,0.887c-1.818,0.128 -2.531,-0.75 -3.106,-2.22c-0.553,-1.415 -0.721,-2.915 -0.838,-4.43c-0.11,-1.429 -0.132,-2.861 -0.218,-4.288c-0.063,-1.034 -0.014,-2.066 -0.078,-3.095c-0.091,-1.475 -0.212,-2.947 -0.296,-4.422c-0.047,-0.811 0.433,-2.358 1.561,-2.672c1.011,-0.281 2.005,-0.472 3.041,-0.22c0.4,0.097 0.616,0.348 0.681,0.779c0.081,0.535 0.109,1.065 0.125,1.608c0.042,1.387 0.062,2.781 0.267,4.159c0.01,0.069 0.005,0.141 0.004,0.212c-0.004,1.754 0.186,3.506 0.101,5.261c-0.017,0.342 0.085,0.603 0.355,0.741c0.307,0.158 0.518,-0.07 0.732,-0.289c1.312,-1.342 2.654,-2.652 3.943,-4.017c0.606,-0.642 1.141,-1.347 1.882,-1.845c1.107,-0.745 2.327,-1.066 3.621,-1.234c1.043,-0.135 2.065,-0.095 3.08,0.131c0.965,0.214 1.838,0.707 2.74,1.103c1.028,0.451 2.068,0.886 3.195,0.772c1.112,-0.113 2.174,-0.495 3.201,-0.962c1.02,-0.463 2.025,-0.986 3.147,-1.114c0.337,-0.039 0.686,0.089 1.039,0.092c1.239,0.009 2.129,-0.637 2.857,-1.597c2.136,-2.816 3.379,-6.151 4.977,-9.279c0.661,-1.295 1.338,-2.582 1.949,-3.903c0.723,-1.563 1.448,-3.126 2.046,-4.751c0.719,-1.953 3.054,-2.777 4.772,-1.718c0.587,0.362 0.961,1.475 0.767,2.334c-0.077,0.342 -0.117,0.717 -0.394,0.962c-0.392,0.347 -0.421,0.792 -0.407,1.278c0.015,0.499 -0.272,0.91 -0.467,1.334c-1.324,2.875 -2.819,5.656 -4.341,8.422c-1.188,2.16 -2.419,4.295 -3.633,6.439c-0.858,1.515 -1.756,3.003 -2.728,4.443c-0.636,0.943 -1.275,1.882 -2.029,2.73c-0.228,0.257 -0.505,0.468 -0.813,0.574c-0.407,0.141 -0.525,0.392 -0.524,0.813c0.007,8.669 0.001,17.339 0.016,26.008c0.001,0.476 -0.107,0.597 -0.57,0.596c-5.911,-0.018 -11.823,-0.018 -17.734,-0.001c-0.428,0.001 -0.518,-0.111 -0.516,-0.545c0.017,-4.14 0.01,-8.281 0.01,-12.422" style="fill:#fefefe;fill-rule:nonzero;"/>
            </g>
            <g transform="matrix(1,0,0,1,58.875,6.9989)">
                <path d="M0,8.087c-1.206,-0.197 -2.142,-0.742 -1.438,-2.277c0.174,-0.378 0.317,-0.772 0.473,-1.159c0.247,-0.618 0.113,-0.959 -0.473,-1.208c-0.473,-0.202 -0.488,-0.209 -0.44,-0.305c0.156,-0.31 0.364,-0.186 0.592,-0.085c0.681,0.302 0.888,0.2 1.188,-0.526c0.24,-0.579 0.486,-1.155 0.732,-1.731c0.122,-0.286 0.317,-0.472 0.619,-0.567c0.783,-0.248 1.87,0.315 2.099,1.08c0.104,0.348 -0.047,0.627 -0.16,0.905c-0.708,1.741 -1.44,3.472 -2.156,5.21c-0.199,0.483 -0.549,0.682 -1.036,0.663" style="fill:#000395;fill-rule:nonzero;"/>
            </g>
            <g transform="matrix(1,0,0,1,4.6572,25.8915)">
                <path d="M0,-3.55c0,0.335 0.007,0.669 -0.002,1.004c-0.01,0.439 0.164,0.703 0.606,0.727c0.154,0.009 0.32,-0.013 0.306,0.234c-0.012,0.215 -0.166,0.182 -0.296,0.189c-0.438,0.025 -0.623,0.276 -0.616,0.719c0.008,0.476 -0.019,0.952 0.006,1.426c0.08,1.56 -0.822,1.741 -1.864,1.635c-0.671,-0.068 -1.059,-0.52 -1.065,-1.238c-0.016,-1.902 -0.022,-3.804 0.001,-5.706c0.012,-0.979 0.819,-1.48 1.915,-1.244c0.658,0.142 0.979,0.537 1.002,1.25c0.011,0.335 0.002,0.669 0.002,1.004l0.005,-0" style="fill:#000395;fill-rule:nonzero;"/>
            </g>
            <g transform="matrix(1,0,0,1,50.7086,8.5685)">
                <path d="M0,-5.144c-0.058,0.679 -0.44,1.24 -0.646,1.865c-0.055,0.165 -0.121,0.328 -0.197,0.484c-0.182,0.377 -0.094,0.675 0.227,0.916c0.085,0.063 0.24,0.084 0.144,0.267c-0.061,0.118 -0.124,0.201 -0.266,0.19c-0.608,-0.048 -0.851,0.352 -1.029,0.873c-0.141,0.411 -0.371,0.791 -0.505,1.204c-0.17,0.526 -0.878,0.897 -1.403,0.67c-0.326,-0.141 -0.659,-0.276 -0.96,-0.464c-0.355,-0.222 -0.516,-0.818 -0.336,-1.264c0.743,-1.84 1.493,-3.677 2.262,-5.506c0.25,-0.594 0.749,-0.787 1.341,-0.589c0.24,0.08 0.479,0.168 0.71,0.273c0.45,0.202 0.684,0.555 0.658,1.081" style="fill:#000395;fill-rule:nonzero;"/>
            </g>
            <g transform="matrix(1,0,0,1,17.1619,24.1294)">
                <path d="M0,0.058c0,0.967 0.006,1.934 -0.002,2.901c-0.005,0.759 -0.373,1.153 -1.102,1.205c-0.135,0.009 -0.27,0.007 -0.406,0.006c-0.987,-0.009 -1.337,-0.371 -1.339,-1.388c-0.001,-0.492 0.001,-0.984 0,-1.477c-0.002,-0.661 -0.244,-0.914 -0.864,-0.942c-0.159,-0.007 -0.425,0.124 -0.441,-0.185c-0.02,-0.365 0.278,-0.222 0.447,-0.23c0.596,-0.028 0.855,-0.285 0.857,-0.896c0.003,-0.65 -0.005,-1.301 0.003,-1.951c0.008,-0.649 0.246,-0.976 0.842,-1.123c0.379,-0.093 0.776,-0.09 1.155,-0.002c0.559,0.13 0.843,0.519 0.848,1.128c0.008,0.985 0.002,1.969 0.002,2.954" style="fill:#000395;fill-rule:nonzero;"/>
            </g>
            <g transform="matrix(1,0,0,1,13.2511,27.5942)">
                <path d="M0,-2.032l0,2.032c0,-0.676 -0.138,-1.349 -0.128,-2.027c0.043,-0.002 0.085,-0.003 0.128,-0.005" style="fill:#fefefe;fill-rule:nonzero;"/>
            </g>
            <g transform="matrix(1,0,0,1,51.4697,5.2798)">
                <path d="M0,-0.044c-0.04,0.043 -0.079,0.144 -0.135,0.087c-0.064,-0.064 -0.033,-0.153 0.066,-0.187c0.023,0.033 0.046,0.067 0.069,0.1" style="fill:#fefefe;fill-rule:nonzero;"/>
            </g>
            <g transform="matrix(0.0136754,-0.999906,-0.999906,-0.0136754,32.7745,9.28635)">
                <path d="M-7.121,-7.149c-4.203,-0.102 -7.601,3.071 -7.566,7.233c0.032,3.831 3.134,7.12 7.566,7.099c3.894,-0.018 7.473,-2.935 7.353,-7.441c-0.096,-3.619 -3.067,-6.843 -7.353,-6.891" style="fill:#fff;fill-rule:nonzero;"/>
            </g>
        </g>
    </g>
</svg>
