<svg width="540" height="497" xmlns="http://www.w3.org/2000/svg" xmlns:xlink="http://www.w3.org/1999/xlink" xml:space="preserve" overflow="hidden"><defs><filter id="fx0" x="-10%" y="-10%" width="120%" height="120%" filterUnits="userSpaceOnUse" primitiveUnits="userSpaceOnUse"><feComponentTransfer color-interpolation-filters="sRGB"><feFuncR type="discrete" tableValues="0 0"/><feFuncG type="discrete" tableValues="0 0"/><feFuncB type="discrete" tableValues="0 0"/><feFuncA type="linear" slope="0.4" intercept="0"/></feComponentTransfer><feGaussianBlur stdDeviation="1.77778 1.77778"/></filter><clipPath id="clip1"><rect x="45" y="213" width="540" height="497"/></clipPath></defs><g clip-path="url(#clip1)" transform="translate(-45 -213)"><g filter="url(#fx0)" transform="translate(44 212)"><g><g><g><g><path d="M210.896 183.222C213.439 186.402 213.439 187.673 213.439 188.309" stroke="#000000" stroke-width="3.9484" stroke-linecap="round" stroke-linejoin="round" stroke-miterlimit="10" fill="none" transform="matrix(1 0 0 1.00104 6.82843 7.1485)"/><path d="M76.7017 473.109C71.932 454.347 81.7911 371.351 81.7911 371.351 99.2806 247.016 113.907 224.121 122.811 202.498 131.715 180.874 147.615 166.883 155.883 157.024 164.151 147.167 190.862 121.409 215.028 100.422 239.196 79.4339 256.368 44.8578 256.368 44.8578 256.368 44.8578 266.863 19.971 269.405 7.25124 271.95-5.46854 452.252 8.84047 456.066 8.52262 459.882 8.20478 449.071 43.5015 449.071 43.5015 449.071 43.5015 437.623 77.5269 449.071 111.234 460.838 111.552 475.782 113.777 479.599 119.184 483.415 124.59 506.945 120.138 516.167 127.452 525.39 134.765 526.026 474.699 526.026 474.699 526.026 474.699 81.4713 491.87 76.7017 473.109L76.7017 473.109Z" stroke="#000000" stroke-width="3.9484" stroke-linecap="round" stroke-linejoin="round" stroke-miterlimit="10" fill="#F0E0C8" fill-rule="evenodd" transform="matrix(1 0 0 1.00104 6.82843 7.1485)"/><path d="M237.925 177.883C250.773 172.308 259.781 147.07 301.285 180.637" stroke="#000000" stroke-width="3.9484" stroke-linecap="round" stroke-linejoin="round" stroke-miterlimit="10" fill="none" transform="matrix(1 0 0 1.00104 6.82843 7.1485)"/><path d="M429.951 149.672C434.899 152.371 440.3 154.078 444.945 157.336 451.993 162.279 457.861 169.098 464.681 174.421 472.624 180.618 481.194 185.796 488.879 192.362 493.353 196.184 497.404 200.484 500.713 205.356 501.078 205.893 503.818 209.743 503.484 210.187 503.38 210.325 501.417 209.595 501.293 209.552 498.952 208.709 496.618 207.745 494.407 206.602 484.654 201.558 479.999 191.209 472.371 183.83 462.431 174.209 448.465 170.46 437.773 161.825 434.022 158.797 428.816 153.97 427.442 149.184L429.951 149.672 429.951 149.672Z" fill="#D7CAB5" fill-rule="evenodd" transform="matrix(1 0 0 1.00104 6.82843 7.1485)"/><path d="M307.565 157.98C324.736 157.662 336.503 157.024 361.304 146.213 373.543 140.879 410.353 142.549 427.766 145.578 436.784 148.156 438.577 152.254 438.577 152.254M339.681 106.785C343.815 124.91 354.628 134.131 362.896 138.583M424.268 105.829C427.13 125.226 427.766 135.72 447.8 152.254" stroke="#000000" stroke-width="3.9484" stroke-linecap="round" stroke-linejoin="round" stroke-miterlimit="10" fill="none" transform="matrix(1 0 0 1.00104 6.82843 7.1485)"/><path d="M91.1962 338.4C101.099 328.772 158.355 309.75 169.355 301.879 178.732 295.169 186.035 284.934 195.807 279.059 208.661 271.332 223.387 268.519 231.797 254.652 236.75 246.489 236.474 232.227 224.913 230 219.215 228.903 213.749 233.041 209.607 236.286 209.019 236.746 210.493 235.082 210.937 234.48 211.557 233.645 212.189 232.819 212.839 232.006 215.018 229.27 217.148 226.457 219.539 223.9 226.808 216.13 236.549 211.832 244.426 204.869 248.943 200.873 258.166 189.492 253.503 182.977 251.217 179.785 244.765 180.685 244.41 175.487 243.92 168.358 260.113 163.016 260.354 162.783 260.354 162.783 274.586 130.433 221.799 144.742 169.011 159.051 134.668 188.943 126.082 222.65 117.497 256.358 95.6619 307.697 95.6619 307.697L89.5142 338.398 91.1962 338.398Z" fill="#D7CAB5" fill-rule="evenodd" transform="matrix(1 0 0 1.00104 6.82843 7.1485)"/><path d="M269.832 101.419 251.093 124.582 259.564 123.172 249.079 138.23 256.575 135.535 248.161 155.934 271.567 125.747 262.853 127.488 272.341 114.423 263.518 116.227 269.832 101.419Z" stroke="#D82A27" stroke-width="0.953539" stroke-linejoin="round" stroke-miterlimit="10" fill="#D82A27" transform="matrix(1 0 0 1.00104 6.82843 7.1485)"/><path d="M169.238 147.724C167.592 148.134 200.571 137.26 212.167 135.004 217.2 134.025 227.112 132.459 232.837 133.097 240.15 135.639 249.053 136.593 257.003 138.502 266.576 140.8 279.263 141.365 274.811 153.129 270.359 164.895 234.426 164.259 232.2 164.259 229.975 164.259 197.539 170.3 197.539 170.3" stroke="#000000" stroke-width="3.9484" stroke-linecap="round" stroke-linejoin="round" stroke-miterlimit="10" fill="#F0E0C8" fill-rule="evenodd" transform="matrix(1 0 0 1.00104 6.82843 7.1485)"/><path d="M21.0529 222.85C36.6352 210.45 58.2587 189.46 65.8909 187.233 73.5232 185.008 85.9824 172.999 88.7857 170.699 101.188 160.522 148.424 159.723 157.79 151.619 166.844 143.787 187.999 136.992 199.13 138.263 209.623 144.304 214.376 145.724 211.214 182.781 214.074 189.142 200.719 232.389 200.719 232.389 200.719 232.389 201.673 238.112 201.99 240.339 202.31 242.564 202.628 271.82 191.815 278.181 181.005 284.54 161.606 281.677 158.744 281.677 155.883 281.677 150.476 273.729 150.476 273.729 150.476 273.729 145.787 282.688 121.976 288.073 95.1367 310.619 24.2531 301.934 6.20294 315.714 4.46959 317.039 1.98012 315.742 1.98407 313.56 2.18939 205.046 5.92852 234.89 21.0529 222.85L21.0529 222.85Z" stroke="#000000" stroke-width="3.9484" stroke-linecap="round" stroke-linejoin="round" stroke-miterlimit="10" fill="#F0E0C8" fill-rule="evenodd" transform="matrix(1 0 0 1.00104 6.82843 7.1485)"/><path d="M101.506 178.332C111.045 176.107 125.883 167 133.624 164.023 150.158 157.664 162.242 148.76 162.242 148.76M137.438 193.278C150.158 186.917 190.544 169.746 199.13 171.655 204.786 172.912 207.716 179.605 211.532 187.555M198.812 213.547C190.862 223.724 171.781 226.267 171.781 226.267" stroke="#000000" stroke-width="3.9484" stroke-linecap="round" stroke-linejoin="round" stroke-miterlimit="10" fill="none" transform="matrix(1 0 0 1.00104 6.82843 7.1485)"/><path d="M267.816 148.043C262.409 148.361 257.003 146.772 254.779 145.501 252.552 144.227 259.23 139.14 259.23 139.14 259.23 139.14 265.907 140.729 268.77 140.729 271.632 140.727 273.221 147.724 267.816 148.043L267.816 148.043Z" stroke="#000000" stroke-width="3.9484" stroke-linecap="round" stroke-linejoin="round" stroke-miterlimit="10" fill="#A39A8B" fill-rule="evenodd" transform="matrix(1 0 0 1.00104 6.82843 7.1485)"/><path d="M201.037 232.946C201.037 232.946 199.128 227.6 196.903 227.54 173.372 226.903 152.702 231.674 152.702 231.674M187.363 263.155C174.644 267.607 162.877 268.56 154.61 267.607 152.385 270.469 148.886 275.557 148.886 275.557M184.183 275.239C174.008 272.377 172.737 266.653 172.737 266.653M237.607 157.78C235.698 160.961 231.564 162.55 231.564 162.55M55.7139 211.522C44.5854 221.063 35.9996 228.693 17.2387 238.553M74.7946 218.518C55.0782 235.372 42.9941 243.64 27.7316 254.451M66.8445 255.088C48.7193 269.715 12.4671 289.75 2.92774 293.883M393.423 329.814C391.833 340.625 384.519 374.014 381.656 379.42" stroke="#000000" stroke-width="3.9484" stroke-linecap="round" stroke-linejoin="round" stroke-miterlimit="10" fill="none" transform="matrix(1 0 0 1.00104 6.82843 7.1485)"/><path d="M341.59 364.159C350.357 350.845 361.883 339.924 368.85 325.358 371.758 319.278 373.614 312.946 375.515 306.51 375.688 305.926 376.97 300.45 377.288 300.426 378.839 300.313 381.864 305.352 382.596 306.497 387.174 313.657 393.557 319.252 392.341 327.654 388.61 353.437 385.198 366.572 374.362 388.163 366.828 403.169 355.234 402.188 349.738 406.028 348.117 407.159 343.341 406.06 341.555 405.704 333.52 404.101 323.216 399.312 321.388 390.463 319.159 379.682 332.451 369.474 340.163 364.266L341.59 364.159 341.59 364.159Z" fill="#D7CAB5" fill-rule="evenodd" transform="matrix(1 0 0 1.00104 6.82843 7.1485)"/><path d="M310.717 119.639 287.452 138.243 296.027 138.686 282.559 151.143 290.458 150.12 277.867 168.243 307.201 143.769 298.316 143.605 310.384 132.878 301.378 132.749 310.717 119.639Z" stroke="#D82A27" stroke-width="0.953539" stroke-linejoin="round" stroke-miterlimit="10" fill="#D82A27" transform="matrix(1 0 0 1.00104 6.82843 7.1485)"/></g></g></g></g></g><g><g><g><path d="M210.896 183.222C213.439 186.402 213.439 187.673 213.439 188.309" stroke="#000000" stroke-width="3.9484" stroke-linecap="round" stroke-linejoin="round" stroke-miterlimit="10" fill="none" transform="matrix(1 0 0 1.00104 48 216.32)"/><path d="M76.7017 473.109C71.932 454.347 81.7911 371.351 81.7911 371.351 99.2806 247.016 113.907 224.121 122.811 202.498 131.715 180.874 147.615 166.883 155.883 157.024 164.151 147.167 190.862 121.409 215.028 100.422 239.196 79.4339 256.368 44.8578 256.368 44.8578 256.368 44.8578 266.863 19.971 269.405 7.25124 271.95-5.46854 452.252 8.84047 456.066 8.52262 459.882 8.20478 449.071 43.5015 449.071 43.5015 449.071 43.5015 437.623 77.5269 449.071 111.234 460.838 111.552 475.782 113.777 479.599 119.184 483.415 124.59 506.945 120.138 516.167 127.452 525.39 134.765 526.026 474.699 526.026 474.699 526.026 474.699 81.4713 491.87 76.7017 473.109L76.7017 473.109Z" stroke="#000000" stroke-width="3.9484" stroke-linecap="round" stroke-linejoin="round" stroke-miterlimit="10" fill="#F0E0C8" fill-rule="evenodd" transform="matrix(1 0 0 1.00104 48 216.32)"/><path d="M237.925 177.883C250.773 172.308 259.781 147.07 301.285 180.637" stroke="#000000" stroke-width="3.9484" stroke-linecap="round" stroke-linejoin="round" stroke-miterlimit="10" fill="none" transform="matrix(1 0 0 1.00104 48 216.32)"/><path d="M429.951 149.672C434.899 152.371 440.3 154.078 444.945 157.336 451.993 162.279 457.861 169.098 464.681 174.421 472.624 180.618 481.194 185.796 488.879 192.362 493.353 196.184 497.404 200.484 500.713 205.356 501.078 205.893 503.818 209.743 503.484 210.187 503.38 210.325 501.417 209.595 501.293 209.552 498.952 208.709 496.618 207.745 494.407 206.602 484.654 201.558 479.999 191.209 472.371 183.83 462.431 174.209 448.465 170.46 437.773 161.825 434.022 158.797 428.816 153.97 427.442 149.184L429.951 149.672 429.951 149.672Z" fill="#D7CAB5" fill-rule="evenodd" transform="matrix(1 0 0 1.00104 48 216.32)"/><path d="M307.565 157.98C324.736 157.662 336.503 157.024 361.304 146.213 373.543 140.879 410.353 142.549 427.766 145.578 436.784 148.156 438.577 152.254 438.577 152.254M339.681 106.785C343.815 124.91 354.628 134.131 362.896 138.583M424.268 105.829C427.13 125.226 427.766 135.72 447.8 152.254" stroke="#000000" stroke-width="3.9484" stroke-linecap="round" stroke-linejoin="round" stroke-miterlimit="10" fill="none" transform="matrix(1 0 0 1.00104 48 216.32)"/><path d="M91.1962 338.4C101.099 328.772 158.355 309.75 169.355 301.879 178.732 295.169 186.035 284.934 195.807 279.059 208.661 271.332 223.387 268.519 231.797 254.652 236.75 246.489 236.474 232.227 224.913 230 219.215 228.903 213.749 233.041 209.607 236.286 209.019 236.746 210.493 235.082 210.937 234.48 211.557 233.645 212.189 232.819 212.839 232.006 215.018 229.27 217.148 226.457 219.539 223.9 226.808 216.13 236.549 211.832 244.426 204.869 248.943 200.873 258.166 189.492 253.503 182.977 251.217 179.785 244.765 180.685 244.41 175.487 243.92 168.358 260.113 163.016 260.354 162.783 260.354 162.783 274.586 130.433 221.799 144.742 169.011 159.051 134.668 188.943 126.082 222.65 117.497 256.358 95.6619 307.697 95.6619 307.697L89.5142 338.398 91.1962 338.398Z" fill="#D7CAB5" fill-rule="evenodd" transform="matrix(1 0 0 1.00104 48 216.32)"/><path d="M269.832 101.419 251.093 124.582 259.564 123.172 249.079 138.23 256.575 135.535 248.161 155.934 271.567 125.747 262.853 127.488 272.341 114.423 263.518 116.227 269.832 101.419Z" stroke="#D82A27" stroke-width="0.953539" stroke-linejoin="round" stroke-miterlimit="10" fill="#D82A27" transform="matrix(1 0 0 1.00104 48 216.32)"/><path d="M169.238 147.724C167.592 148.134 200.571 137.26 212.167 135.004 217.2 134.025 227.112 132.459 232.837 133.097 240.15 135.639 249.053 136.593 257.003 138.502 266.576 140.8 279.263 141.365 274.811 153.129 270.359 164.895 234.426 164.259 232.2 164.259 229.975 164.259 197.539 170.3 197.539 170.3" stroke="#000000" stroke-width="3.9484" stroke-linecap="round" stroke-linejoin="round" stroke-miterlimit="10" fill="#F0E0C8" fill-rule="evenodd" transform="matrix(1 0 0 1.00104 48 216.32)"/><path d="M21.0529 222.85C36.6352 210.45 58.2587 189.46 65.8909 187.233 73.5232 185.008 85.9824 172.999 88.7857 170.699 101.188 160.522 148.424 159.723 157.79 151.619 166.844 143.787 187.999 136.992 199.13 138.263 209.623 144.304 214.376 145.724 211.214 182.781 214.074 189.142 200.719 232.389 200.719 232.389 200.719 232.389 201.673 238.112 201.99 240.339 202.31 242.564 202.628 271.82 191.815 278.181 181.005 284.54 161.606 281.677 158.744 281.677 155.883 281.677 150.476 273.729 150.476 273.729 150.476 273.729 145.787 282.688 121.976 288.073 95.1367 310.619 24.2531 301.934 6.20294 315.714 4.46959 317.039 1.98012 315.742 1.98407 313.56 2.18939 205.046 5.92852 234.89 21.0529 222.85L21.0529 222.85Z" stroke="#000000" stroke-width="3.9484" stroke-linecap="round" stroke-linejoin="round" stroke-miterlimit="10" fill="#F0E0C8" fill-rule="evenodd" transform="matrix(1 0 0 1.00104 48 216.32)"/><path d="M101.506 178.332C111.045 176.107 125.883 167 133.624 164.023 150.158 157.664 162.242 148.76 162.242 148.76M137.438 193.278C150.158 186.917 190.544 169.746 199.13 171.655 204.786 172.912 207.716 179.605 211.532 187.555M198.812 213.547C190.862 223.724 171.781 226.267 171.781 226.267" stroke="#000000" stroke-width="3.9484" stroke-linecap="round" stroke-linejoin="round" stroke-miterlimit="10" fill="none" transform="matrix(1 0 0 1.00104 48 216.32)"/><path d="M267.816 148.043C262.409 148.361 257.003 146.772 254.779 145.501 252.552 144.227 259.23 139.14 259.23 139.14 259.23 139.14 265.907 140.729 268.77 140.729 271.632 140.727 273.221 147.724 267.816 148.043L267.816 148.043Z" stroke="#000000" stroke-width="3.9484" stroke-linecap="round" stroke-linejoin="round" stroke-miterlimit="10" fill="#A39A8B" fill-rule="evenodd" transform="matrix(1 0 0 1.00104 48 216.32)"/><path d="M201.037 232.946C201.037 232.946 199.128 227.6 196.903 227.54 173.372 226.903 152.702 231.674 152.702 231.674M187.363 263.155C174.644 267.607 162.877 268.56 154.61 267.607 152.385 270.469 148.886 275.557 148.886 275.557M184.183 275.239C174.008 272.377 172.737 266.653 172.737 266.653M237.607 157.78C235.698 160.961 231.564 162.55 231.564 162.55M55.7139 211.522C44.5854 221.063 35.9996 228.693 17.2387 238.553M74.7946 218.518C55.0782 235.372 42.9941 243.64 27.7316 254.451M66.8445 255.088C48.7193 269.715 12.4671 289.75 2.92774 293.883M393.423 329.814C391.833 340.625 384.519 374.014 381.656 379.42" stroke="#000000" stroke-width="3.9484" stroke-linecap="round" stroke-linejoin="round" stroke-miterlimit="10" fill="none" transform="matrix(1 0 0 1.00104 48 216.32)"/><path d="M341.59 364.159C350.357 350.845 361.883 339.924 368.85 325.358 371.758 319.278 373.614 312.946 375.515 306.51 375.688 305.926 376.97 300.45 377.288 300.426 378.839 300.313 381.864 305.352 382.596 306.497 387.174 313.657 393.557 319.252 392.341 327.654 388.61 353.437 385.198 366.572 374.362 388.163 366.828 403.169 355.234 402.188 349.738 406.028 348.117 407.159 343.341 406.06 341.555 405.704 333.52 404.101 323.216 399.312 321.388 390.463 319.159 379.682 332.451 369.474 340.163 364.266L341.59 364.159 341.59 364.159Z" fill="#D7CAB5" fill-rule="evenodd" transform="matrix(1 0 0 1.00104 48 216.32)"/><path d="M310.717 119.639 287.452 138.243 296.027 138.686 282.559 151.143 290.458 150.12 277.867 168.243 307.201 143.769 298.316 143.605 310.384 132.878 301.378 132.749 310.717 119.639Z" stroke="#D82A27" stroke-width="0.953539" stroke-linejoin="round" stroke-miterlimit="10" fill="#D82A27" transform="matrix(1 0 0 1.00104 48 216.32)"/></g></g></g></g></svg>