<?xml version="1.0" encoding="utf-8"?>
<!-- Generator: Adobe Illustrator 19.2.1, SVG Export Plug-In . SVG Version: 6.00 Build 0)  -->
<!DOCTYPE svg PUBLIC "-//W3C//DTD SVG 1.1//EN" "http://www.w3.org/Graphics/SVG/1.1/DTD/svg11.dtd">
<svg version="1.1" id="Layer_1" xmlns="http://www.w3.org/2000/svg" xmlns:xlink="http://www.w3.org/1999/xlink" x="0px" y="0px"
	 viewBox="0 0 400 400" style="enable-background:new 0 0 400 400;" xml:space="preserve">
<style type="text/css">
	.st0{fill-rule:evenodd;clip-rule:evenodd;fill:#FFFCD5;stroke:#000000;stroke-width:0.4222;}
	.st1{fill-rule:evenodd;clip-rule:evenodd;fill:#8ED8F8;stroke:#000000;stroke-width:1.9547;}
	.st2{fill-rule:evenodd;clip-rule:evenodd;fill:#BFBFBF;stroke:#000000;stroke-width:2;}
	.st3{fill-rule:evenodd;clip-rule:evenodd;fill:#9CBFDB;stroke:#000000;stroke-width:1.9547;}
	.st4{fill-rule:evenodd;clip-rule:evenodd;fill:none;stroke:#000000;stroke-width:0.4222;}
	.st5{fill-rule:evenodd;clip-rule:evenodd;fill:#ED1C24;stroke:#000000;stroke-width:0.4222;}
	.st6{font-family:'Georgia-Bold';}
	.st7{font-size:28.0365px;}
	.st8{font-size:23.8197px;}
	.st9{font-size:27.6798px;}
	.st10{font-size:27.9153px;}
	.st11{font-size:28.0091px;}
	.st12{font-size:28.0296px;}
	.st13{font-size:27.9841px;}
	.st14{font-size:27.9535px;}
	.st15{fill-rule:evenodd;clip-rule:evenodd;fill:#FFF200;stroke:#000000;stroke-width:1.9547;}
	.st16{fill-rule:evenodd;clip-rule:evenodd;fill:none;stroke:#000000;stroke-width:1.9547;}
	.st17{font-size:27.8014px;}
	.st18{font-size:27.8859px;}
	.st19{fill:#FFFFFF;stroke:#000000;stroke-miterlimit:10;}
</style>
<path class="st0" d="M330.1,86.8l-31.9-24.7c-61.9-32.5-159.9,12.4-204.7,59.7c-34.5,36.4-30.7,73.1-31,114.6
	c-0.3,45.4,45.6,113.6,65.1,119.2c89.9,25.9,198.7-11.1,223.9-92.2C367.8,210.7,361.1,119.5,330.1,86.8z"/>
<path class="st1" d="M265.8,140l-1.6,3.5c-7.7-16.6-30-23.4-48.4-23.4c-8.1,0-16.3,4.2-23,4.2c-5.8,0-14.8,7.7-19.6,7.7
	c-0.5,0,5.2-3.6,7.1-3.9c12.7-3.5,23.4-13.3,38.9-13.3c21.8,0,46.3,7.1,64.7-2.5c4.4-2.3-6-16-15.3-29.5
	c-4.8-6.6-9.2-13.4-11.4-18.5c-2.3-5.2,0.3-17.1,7.3-17.5c8.9-0.6,18.4-2.9,27.5,3.9c15.9,11.7,29.7,33.7,34.3,44.9
	c9,22.8,4.4,44.5-14.1,34.8c-15.9-8.4-18.9-22.7-39.1-12c-4.8,2.5-3,6.9-5.6,9.8c-0.3,0.3-0.5,2.5-0.5,2.7L265.8,140z"/>
<path class="st1" d="M202.7,122.1l4.2-0.3c-9,0-21.2,0.3-28,7.4c-0.7,0.9-20.4,9.8-14.4,3.3c9.6-10.1,26.4-10.1,5.1-21.2
	c-5.1-2.7-21.4,14.7-33.7,17.3c-12.2,2.5-27.8-19.4-29.9-23.6c-7-14.7,28.5-21.4,37-24.4c3.6-1.3,39.6-8.8,39.6-0.6
	c0,3.2-1.9,11.9-5.9,17.1c-3.8,5.2-9.9,6.9-3.6,11.3C182.3,114.7,190.8,122.1,202.7,122.1z"/>
<image style="overflow:visible;" width="547" height="623" xlink:href="5EFA3CB1.jpg"  transform="matrix(0.4564 0 0 0.4809 99.4936 38.0371)">
</image>
<path class="st2" d="M340.3,41.9l5.8,29.3l0.3,1l-1,0.3c-28.1,5.1-47,11.1-54.9,23.6c-7.8,12.4-4.9,31.5,10.6,63l0,0l0,0l0,0
	c1.8,3.8,3.2,7.7,4.2,11.9c1.1,4.2,1.8,8.5,2.2,13c1.9,22.8-3.8,48.3-9.2,65l0,0l0,0l0,0c-1.1,3.3-2.3,6.5-3.7,9.7
	c-1.4,3.2-2.7,6.4-4.4,9.4c-8.5,15.6-20.4,29-35.1,38.2c-2.2,1.3-4.5,2.6-6.7,3.8c-22.1,11.7-47.5,15.9-70.3,12.1
	c-22.9-3.8-43-15.5-54.3-35.7c-0.7-1.3-1.4-2.6-2.1-4c-5.2-11-10-22.4-13.6-34c-3.4-11.4-5.6-23.1-5.5-34.7v-0.4l0,0
	c0-3.2,0.3-6.5,0.5-9.7c0.3-3.3,0.5-6.5,1.1-9.8c2.5-16.6,7.8-33,14.5-47.8l0,0l0,0c1-2.3,2.5-4.6,4.5-7.2c1.9-2.5,4.2-5.1,7-7.8
	c14.1-14,38.2-30.2,64.8-42.5l0,0l0.3-0.1c8.6-3.9,17.4-7.7,26-11.1c8.6-3.6,17.1-6.9,25.5-10c42.9-15.9,80.2-25.6,92.4-26l0.8-0.1
	L340.3,41.9z"/>
<path class="st3" d="M208,122.6c-91.1,13.3-109.7,157.1-14.4,171.1C283.9,307,323.8,119.2,208,122.6z"/>
<path class="st4" d="M215.3,140.7c14.9,2.7,22.5,2.2,35.9,16.6c8.5,9,10.1,23.4,10.8,34.8"/>
<path class="st4" d="M222.4,156.5c6.7,1.3,13,4.2,19.7,11.4c4.2,4.5,6.3,10.1,7.4,16.2"/>
<path class="st4" d="M148.7,227c0,9.4,4.9,23.1,11,29.6c13.6,14.2,21.8,21.5,41.4,22"/>
<path class="st4" d="M163.2,232.2c1,6.5,12.2,21.4,17.1,25.9c6.4,5.9,10.7,4.9,19,6.9"/>
<path class="st5" d="M159.4,142.7l1.8-6.1c-0.8,5.2,9.5-6.4,11.5-8.2c1-0.9,9.9-4.2,8.2-2.5c-2.6,2.7,2.7-1.2,4-1.9
	c2.7-1.6,7.5-5.8,2.9-0.9c-2.5,2.6,16.4-12.9,5.8-1.6c-0.7,0.6,2.5-1.2,3.3-1.6c4.7-2.3,9.7-4.6,1.8,0c-1.8,1.2,12.6-4.3,17.7-5.1
	c4.5-0.6-8.8,5.5-9,5.6c-0.3,0.1,8.1-3.9,13.6-4c2.7-0.1-5.9,3.3-1.9,2.2c1.4-0.4,12.9-4.9,5.8-1.3c-6.7,3.5,9.6-1.4,10.8-1.6
	c4.4-0.9-7,3.3-2.7,2.6c2.9-0.4,5.9-1.6,8.6-2c0.1,0,5.1-1.2,5.1-0.7c0.3,1.3-10.7,4.8-2.9,3.2c7.8-1.6,9.2-2,0.3,1.2
	c-6.9,2.3,5.3-1.2,6.9-1.2c3.6-0.1-5.5,2.7-4.8,3.2c0.4,0.3,8.1-1.6,4.4-0.4c-6,2.3-0.4,0.7,2.7,0.4c5.5-0.4-3.2,1.7-2.9,2.3
	c0,0.1,9.2-1.3,6.7,0.1c-12.3,7.2,12.7-3.3,0.8,3.6c-2.9,1.6,5.3,1.2,5.8,1.2c1.2,0.1-4.4,2.2-4.4,2.5c-0.1,1,2.1,2.5,4.5,2.5
	c1.2,0,0.5,0.3,0.5,0.3c-9.3,3.2,7.8,0.1,1.5,3.2c-3.4,1.7-0.1,3.9,1.8,4.9c0.8,0.4-2.6,2,0.3,3.5c0.3,0.1-0.7,6.9-3.7,0.7
	c-5.3-10.8-29.6-22.3-41.5-23.4c-9.9-0.9-17.8-0.1-25.2,2.2c-7.4,2.3-14.3,6.5-23.4,9.8c-1.5,0.6-3.8,2.3-6.2,4.2
	c-2.2,1.9-4.7,3.3-5.8,4.9c-0.7,1.2-2.7,3.5-2.6,1.9L159.4,142.7z"/>
<text transform="matrix(0.9482 0 0 1 93.4657 24.6625)" class="st6 st7">Labrumskada</text>
<text transform="matrix(0.9482 0 0 1 141.0126 208.9238)" class="st6 st7">Ledskål</text>
<text transform="matrix(0.8854 -0.3773 0.3577 0.9338 118.8139 116.8647)" class="st6 st8">C</text>
<text transform="matrix(0.8854 -0.3773 0.3577 0.9338 133.8872 110.3625)" class="st6 st8">y</text>
<text transform="matrix(0.8854 -0.3773 0.3577 0.9338 145.8098 105.016)" class="st6 st8">s</text>
<text transform="matrix(0.8854 -0.3773 0.3577 0.9338 156.4967 100.5356)" class="st6 st8">t</text>
<text transform="matrix(0.8854 -0.3773 0.3577 0.9338 164.9943 96.9233)" class="st6 st8">a</text>
<text transform="matrix(0.8317 0.5064 -0.4802 0.8772 144.7125 300.4029)" class="st6 st9">L</text>
<text transform="matrix(0.9107 0.2937 -0.2784 0.9605 160.3344 310.2298)" class="st6 st10">a</text>
<text transform="matrix(0.9399 0.1393 -0.1321 0.9912 175.6798 315.1464)" class="st6 st11">b</text>
<text transform="matrix(0.9461 -6.981446e-002 6.619613e-002 0.9978 192.533 318.7565)" class="st6 st12">r</text>
<text transform="matrix(0.9325 -0.1912 0.1812 0.9834 206.5135 318.4665)" class="st6 st13">u</text>
<text transform="matrix(0.9107 -0.2937 0.2784 0.9605 224.1898 315.145)" class="st6 st10">m</text>
<text transform="matrix(0.9107 -0.2937 0.2784 0.9605 252.4173 88.9732)" class="st6 st10">B</text>
<text transform="matrix(0.9107 -0.2937 0.2784 0.9605 271.464 82.6147)" class="st6 st10">i</text>
<text transform="matrix(0.9107 -0.2937 0.2784 0.9605 280.6452 79.7237)" class="st6 st10">c</text>
<text transform="matrix(0.9227 -0.2426 0.23 0.9732 293.9374 75.2451)" class="st6 st14">e</text>
<text transform="matrix(0.9227 -0.2426 0.23 0.9732 309.011 71.3434)" class="st6 st14">p</text>
<text transform="matrix(0.9399 -0.1393 0.1321 0.9912 325.7254 65.9939)" class="st6 st11">s</text>
<text transform="matrix(0.9482 0 0 1 5.9032 206.0322)" class="st6 st7">Bak</text>
<text transform="matrix(0.9482 0 0 1 153.2069 389.7158)" class="st6 st7">Nedåt</text>
<path class="st15" d="M254.9,34.1l1.3,11.9L216,51.5c-19.2,2-37.7,12.3-54.8,21.2c-1.6,0.8-18.8,0.5-32.5,5.7
	c-41,15.6-111.4,47.6-122.8,44.1c-4.4-1.3-8.1-3.7,0-12.2c22.7,7.2,144.8-50.7,166.8-58.4c22.1-7.7,43.4-15.2,66.9-16L254.9,34.1z"
	/>
<line class="st16" x1="192" y1="27.8" x2="203.2" y2="121.8"/>
<text transform="matrix(0.8735 -0.4102 0.3889 0.9213 112.2381 72.9344)" class="st6 st17">n</text>
<text transform="matrix(0.8735 -0.4102 0.3889 0.9213 133.0651 64.5522)" class="st6 st17">e</text>
<text transform="matrix(0.9013 -0.3274 0.3104 0.9506 151.0158 57.1801)" class="st6 st18">r</text>
<text transform="matrix(0.9013 -0.3274 0.3104 0.9506 167.871 52.1207)" class="st6 st18">v</text>
<path class="st19" d="M274.8,226.2"/>
<path class="st15" d="M29.8,59.6"/>
</svg>
