<svg id="Layer_1" data-name="Layer 1" xmlns="http://www.w3.org/2000/svg" xmlns:xlink="http://www.w3.org/1999/xlink" viewBox="0 0 600 600"><defs><style>.cls-1,.cls-13,.cls-15,.cls-4{fill:none;}.cls-2{clip-path:url(#clip-path);}.cls-3{fill:#adadad;}.cls-10,.cls-11,.cls-12,.cls-3,.cls-5,.cls-6,.cls-7,.cls-8,.cls-9{fill-rule:evenodd;}.cls-15,.cls-4{stroke:#000;}.cls-13,.cls-15,.cls-4{stroke-linecap:round;stroke-linejoin:round;}.cls-13,.cls-4{stroke-width:2px;}.cls-5{fill:#fb2522;}.cls-6{fill:#f6f6f6;}.cls-7{fill:#fffee9;}.cls-8{fill:#dddbcd;}.cls-9{fill:#ebfbff;}.cls-11{fill:#ddd;}.cls-12{fill:#fff;}.cls-13{stroke:#fff;}.cls-14{fill:#dedede;}.cls-15{stroke-width:6px;stroke-dasharray:30 30;}</style><clipPath id="clip-path"><rect class="cls-1" width="600" height="600"/></clipPath></defs><title>Artboard 1</title><g class="cls-2"><path class="cls-3" d="M176.17,181.65l30.32,41,13.89-13.23-6-25.91s-8.78-4.28-12.29-3.45-4.58,7.49-8.79,8.38S176.17,181.65,176.17,181.65Z"/><path class="cls-4" d="M176.17,181.65l30.32,41,13.89-13.23-6-25.91s-8.78-4.28-12.29-3.45-4.58,7.49-8.79,8.38S176.17,181.65,176.17,181.65Z"/><path class="cls-5" d="M214.4,183.5s-8.78-4.28-12.29-3.45-4.58,7.49-8.79,8.38-17.15-6.78-17.15-6.78a132.82,132.82,0,0,1,14.66-4.33C197.15,176,209.65,166.74,214.4,183.5Z"/><path class="cls-4" d="M214.4,183.5s-8.78-4.28-12.29-3.45-4.58,7.49-8.79,8.38-17.15-6.78-17.15-6.78a132.82,132.82,0,0,1,14.66-4.33C197.15,176,209.65,166.74,214.4,183.5Z"/><line class="cls-4" x1="191.31" y1="194.46" x2="205.59" y2="216.75"/><line class="cls-4" x1="198.63" y1="196.07" x2="206.17" y2="210.47"/><line class="cls-4" x1="201.67" y1="190.79" x2="211.38" y2="210.2"/><line class="cls-4" x1="209.72" y1="194.32" x2="213.13" y2="203.42"/><line class="cls-4" x1="211.95" y1="190.08" x2="216.53" y2="204.3"/><polyline class="cls-3" points="241.78 185.6 219.75 205.31 231.73 207.01 268.09 195.88"/><polyline class="cls-4" points="241.78 185.6 219.75 205.31 231.73 207.01 268.09 195.88"/><path class="cls-5" d="M268.09,195.88c-2.55-4.22-10.64-.74-15.37-.88-3.53-.1-4.79-4-8.13-4.48-2.56-.36,1.31-6.06-2.81-4.92a47.53,47.53,0,0,1,7.36.22c2.69.48,6.26,2.11,8.78,2.64,2.06.43,4.61-.73,6.3.51S268.09,195.88,268.09,195.88Z"/><path class="cls-4" d="M268.09,195.88c-2.55-4.22-10.64-.74-15.37-.88-3.53-.1-4.79-4-8.13-4.48-2.56-.36,1.31-6.06-2.81-4.92a47.53,47.53,0,0,1,7.36.22c2.69.48,6.26,2.11,8.78,2.64,2.06.43,4.61-.73,6.3.51S268.09,195.88,268.09,195.88Z"/><line class="cls-4" x1="226.6" y1="203.32" x2="236.46" y2="195.62"/><line class="cls-4" x1="233.72" y1="201.85" x2="237.72" y2="199.11"/><line class="cls-4" x1="235.18" y1="204.29" x2="248.28" y2="199.96"/><path class="cls-5" d="M130.52,143.26c0-1.94,3.74-5.85,5.81-3.78,1.76,1.75,2.21,4.52,3.68,6.49.23.3.9.64,1,1.07.34,2,0,4.26.87,6.1.23.45-1.13,2.22-.67,3.59,1,3.17,6.18,3.39,7.46,5.52s-.32,5.77,1.16,8.23c.51.86,1.42.76,2.13,1.17a16.13,16.13,0,0,1,4.27,3.58c2.42,3,5.3,8.29,3.58,11.73-.35.69-3,1.26-3.78,1-1.91-.77-2.06-4.28-4-5.43a16.93,16.93,0,0,0-4.94-1.26c-1.08-.15-2.22.2-3.1-.68-3.94-3.94-5.11-9.23-6.88-14.34-1.36-3.93-3.69-7.59-4.75-11.63a27.11,27.11,0,0,1-.39-5.33c-.13-2.3-1.07-4.47-1.07-6.78"/><path class="cls-4" d="M130.52,143.26c0-1.94,3.74-5.85,5.81-3.78,1.76,1.75,2.21,4.52,3.68,6.49.23.3.9.64,1,1.07.34,2,0,4.26.87,6.1.23.45-1.13,2.22-.67,3.59,1,3.17,6.18,3.39,7.46,5.52s-.32,5.77,1.16,8.23c.51.86,1.42.76,2.13,1.17a16.13,16.13,0,0,1,4.27,3.58c2.42,3,5.3,8.29,3.58,11.73-.35.69-3,1.26-3.78,1-1.91-.77-2.06-4.28-4-5.43a16.93,16.93,0,0,0-4.94-1.26c-1.08-.15-2.22.2-3.1-.68-3.94-3.94-5.11-9.23-6.88-14.34-1.36-3.93-3.69-7.59-4.75-11.63a27.11,27.11,0,0,1-.39-5.33c-.13-2.3-1.07-4.47-1.07-6.78"/><path class="cls-6" d="M104.63,163.7c6.21-9.09,22.83-28.45,31.07-18.41s-1.4,9.92.34,12.86,7.29,4.16,10.07,4.77l-1.29,15s6.25-4.16,8.39-2.83,7.1,7.93,4.48,10.82c-3.49,3.85-17.07,11.26-25.45,12.29s-20.17-.33-24.77-6.09S98.41,172.78,104.63,163.7Z"/><path class="cls-4" d="M104.63,163.7c6.21-9.09,22.83-28.45,31.07-18.41s-1.4,9.92.34,12.86,7.29,4.16,10.07,4.77l-1.29,15s6.25-4.16,8.39-2.83,7.1,7.93,4.48,10.82c-3.49,3.85-17.07,11.26-25.45,12.29s-20.17-.33-24.77-6.09S98.41,172.78,104.63,163.7Z"/><path class="cls-3" d="M107.57,166.66c6.34-8,9.77-28.58,27.23-17.8l-2.09-9s-2.49-9.41-34.84,22.77C97.87,162.59,101.24,174.71,107.57,166.66Z"/><path class="cls-4" d="M107.57,166.66c6.34-8,9.77-28.58,27.23-17.8l-2.09-9s-2.49-9.41-34.84,22.77C97.87,162.59,101.24,174.71,107.57,166.66Z"/><path class="cls-4" d="M109.32,158.13s2.38.58,5.93-6.62c3.19-6.46,10.38-11.57,17.7-7"/><path class="cls-3" d="M113.07,193c13,6.09,34.08,1.25,38-5.13,4.74-7.62,14.6-5.79,7.64-.06-3.23,2.66-8.16,6.94-15.61,9.62-8.64,3.12-20.67,4.09-37.35-2.11C74.75,183.75,100,186.89,113.07,193Z"/><path class="cls-4" d="M113.07,193c13,6.09,34.08,1.25,38-5.13,4.74-7.62,14.6-5.79,7.64-.06-3.23,2.66-8.16,6.94-15.61,9.62-8.64,3.12-20.67,4.09-37.35-2.11C74.75,183.75,100,186.89,113.07,193Z"/><path class="cls-4" d="M118.69,197.23a93.36,93.36,0,0,0,21.72-.35"/><path class="cls-4" d="M128,168.29c1.62-1.62,4.42-2.09,6.35-3.25"/><path class="cls-4" d="M121.51,157.69c-.17.18,1.29-1.16,1.7-1.41,1.13-.68,2.36-1.17,3.53-1.83"/><path class="cls-4" d="M133.94,189.05c3.21,3.21,8.48-.92,10.88-2.68"/><path class="cls-7" d="M110.14,279.38c-6.84-9.76-30.28-36-44.44-38.7s-83.25,2.61-56.82-33.84c23-35.31,76.63-45.29,107.06-45.29,0,0,12.77,6.85,11.32,27.08-4.36,5.43-36.74,8.69-38.43,12.13C86.24,206,128.38,238.1,146.91,242,146.91,242,117,289.15,110.14,279.38Z"/><path class="cls-4" d="M110.14,279.38c-6.84-9.76-30.28-36-44.44-38.7s-83.25,2.61-56.82-33.84c23-35.31,76.63-45.29,107.06-45.29,0,0,12.77,6.85,11.32,27.08-4.36,5.43-36.74,8.69-38.43,12.13C86.24,206,128.38,238.1,146.91,242,146.91,242,117,289.15,110.14,279.38Z"/><path class="cls-8" d="M118.57,180.18c-4.18,12.26-64.28,8.55-78.72,21S4.27,221.3,11.57,230.83c5.82,7.61,37.22,7,45.58,8.75,17.4-27.9,43.57-12.81,29.8-39.78,7.84-3.76,37.78-8.23,38.85-11C127.64,184,124.09,164,118.57,180.18Z"/><path class="cls-4" d="M119.91,177.43c-.28,0-1.23,2.81-1.35,3-2.78,5.85-7.24,7.42-13.47,7.95-51.71,4.36-60.36,4.85-88.38,29.67C9.8,224.21,11,226.17,11.41,231"/><path class="cls-9" d="M117.66,169.47c-6.27-2.53-1.72-7.92-1.72-7.92s12.77,6.85,11.32,27.08C127.26,188.63,123.28,171.73,117.66,169.47Z"/><path class="cls-4" d="M117.66,169.47c-6.27-2.53-1.72-7.92-1.72-7.92s12.77,6.85,11.32,27.08C127.26,188.63,123.28,171.73,117.66,169.47Z"/><path class="cls-7" d="M138.81,143.12c1-10.07.38-24.58,5.75-27.56,12-3.88,35.84-2.79,64.78-.61,24.58,1.85,54.32,4.54,72.13,10.11,45.11,12.63,164.17,58.25,182.56,64.09S539.08,220,549.8,222.52a118.72,118.72,0,0,1,27.09,2.64c18.22,8.68,34.31,35.21-.7,53.22-4.27-1-4.82-1.05-7.18-1.72s-4.56-1.9-7-2.3c-3.15-.53-8.29.75-11.93-.87-7.87-3.48-22.84-14.73-35.27-20-34.69-14.81-131.91-56.1-172.86-68.84-23.33-7.26-53-2.75-72.89-7.64-16.62-4.08-32.28-17.82-46.52-21.67-12.54-3.39-29.3-2-38.94-1.42-6.49.37-12.59,6.24-18.91,4.73C157.25,156.81,137.8,153.19,138.81,143.12Z"/><path class="cls-4" d="M138.81,143.12c1-10.07.38-24.58,5.75-27.56,12-3.88,35.84-2.79,64.78-.61,24.58,1.85,54.32,4.54,72.13,10.11,45.11,12.63,164.17,58.25,182.56,64.09S539.08,220,549.8,222.52a118.72,118.72,0,0,1,27.09,2.64c18.22,8.68,34.31,35.21-.7,53.22-4.27-1-4.82-1.05-7.18-1.72s-4.56-1.9-7-2.3c-3.15-.53-8.29.75-11.93-.87-7.87-3.48-22.84-14.73-35.27-20-34.69-14.81-131.91-56.1-172.86-68.84-23.33-7.26-53-2.75-72.89-7.64-16.62-4.08-32.28-17.82-46.52-21.67-12.54-3.39-29.3-2-38.94-1.42-6.49.37-12.59,6.24-18.91,4.73C157.25,156.81,137.8,153.19,138.81,143.12Z"/><path class="cls-8" d="M576.25,277.55c-4.27-1-4.68-.74-7-1.38s-4.69-2.22-7.22-2.66C559,273,554.61,274.62,551,273c-6.91-2.27-15.35-9.14-23.22-13.42-7.4-4-13.36-6.72-12.75-7.2,1.25-1,39.83,15.43,43.58,14.42s20.08,4.63,19.09,2.93,4.77,2.67,2.83,4.6A21.4,21.4,0,0,1,576.25,277.55Z"/><path class="cls-4" d="M589.58,243.35c1.26,4.49,8.2,12.63-6.76,26.46"/><path class="cls-8" d="M268.75,176.2c-10.2-1.66-32.28-17.82-46.52-21.66-12.54-3.39-32.37-1.8-38.94-1.42-2.08.11,45.59-13.56,78.36,3.83C280.49,166.94,275.24,177.26,268.75,176.2Z"/><path class="cls-9" d="M140.74,148.85a7.43,7.43,0,0,1-1.93-5.73c1-10.07.38-24.58,5.75-27.56,0,0,1.65,2.63,3,3.32a33.19,33.19,0,0,0,7.39,2.15c3.91.88,12.46,2.5,14.6,7.55s1.22,18.87-1.73,22.81-11.54,1.61-15.94.86A84.87,84.87,0,0,1,140.74,148.85Z"/><path class="cls-4" d="M140.74,148.85a7.43,7.43,0,0,1-1.93-5.73c1-10.07.38-24.58,5.75-27.56,0,0,1.65,2.63,3,3.32a33.19,33.19,0,0,0,7.39,2.15c3.91.88,12.46,2.5,14.6,7.55s1.22,18.87-1.73,22.81-11.54,1.61-15.94.86A84.87,84.87,0,0,1,140.74,148.85Z"/><path class="cls-7" d="M129,253.08c8.94-9.69,16.3-15.52,42.14-15.39,14.87-5.74,37.05-17.88,47.23-32.1,13.57-3.13,30.59,3.14,41,29,3.91,25.32-21.46,31.16-29,15.5,0,0-5.81.95-8.29,5.12s-6.56,7.83-11.2,15.43c-10.49,34.75-25.4,167.81-31.41,204.94-13.39,82.59-37,30.59-41.06-4.38,0,0-5.12-90-11.57-106a68.1,68.1,0,0,1-18.06-16.06C90.64,325.68,94.65,290.26,129,253.08Z"/><path class="cls-4" d="M129,253.08c8.94-9.69,16.3-15.52,42.14-15.39,14.87-5.74,37.05-17.88,47.23-32.1,13.57-3.13,30.59,3.14,41,29,3.91,25.32-21.46,31.16-29,15.5,0,0-5.81.95-8.29,5.12s-6.56,7.83-11.2,15.43c-10.49,34.75-25.4,167.81-31.41,204.94-13.39,82.59-37,30.59-41.06-4.38,0,0-5.12-90-11.57-106a68.1,68.1,0,0,1-18.06-16.06C90.64,325.68,94.65,290.26,129,253.08Z"/><path class="cls-8" d="M147,405.4c0-12.73,3.33-26.69,11.25-36.87,4-5.08,8.22-10,12.46-14.82,1.06-1.2,2.14-2.4,3.14-3.66a7,7,0,0,0,1.13-2.17c-.1-.68-1.71-.14-2.09.16-.65.52-1.84,1.84-2.58,2.36-2.5,1.75-4.39,4.07-6.92,5.76-6.82,4.54-15.74,6.36-23.8,6.36A40.84,40.84,0,0,1,125.19,360c-2-.72-3.8-2.14-5.75-2.87-2.32-.88-7.91-5.52-8-5.39-.5.5,10,8.62,13.74,11.36,4.81,3.52,5.75,13.29,6,14.33a27.72,27.72,0,0,0,1.74,5c.32.32.52-2.67.88-3.75.72-2.18,2.4-4.38,3.66-6.27.11-.18,1.59-2,1.83-1.48a23.81,23.81,0,0,1,1.77,3.22c2,6,1.38,13.24,2.93,19.44.62,2.46.95,5.19,2.09,7.49.37.73.41,1.6.79,2.36.09.19.52,1.1.52,1"/><path class="cls-9" d="M121,262.6c-18.43,25.76-39.11,55.06-10.83,88.16,36.1,28.43,78.07-3.77,76.11-33.85-2.55-19.56-7.59-26.9-5.41-47.09C183.56,244.7,145.35,230.11,121,262.6Z"/><path class="cls-4" d="M121,262.6c-18.43,25.76-39.11,55.06-10.83,88.16,36.1,28.43,78.07-3.77,76.11-33.85-2.55-19.56-7.59-26.9-5.41-47.09C183.56,244.7,145.35,230.11,121,262.6Z"/><path class="cls-8" d="M226.71,238.34a62.07,62.07,0,0,0-10,1.51c-4.63,1-11.26,2.51-12.46,7.88a4.56,4.56,0,0,0,.64,3.94,9.66,9.66,0,0,0,3.54,2.41c2.45,1.27,4.31,3.37,6.73,4.68.73.4,1.11,2.27,2.54,1,.9-.77,4.06-5.71,5.66-7.27a15.07,15.07,0,0,1,4.25-2.64c.23-.09,2-.49,2-.55.19-1.13-.72-3-1.11-4.1a71.64,71.64,0,0,1-2.06-7.32Z"/><polygon class="cls-10" points="229.15 224.25 229.16 224.26 229.61 224.87 229.5 225.63 229.5 225.63 229.48 225.65 229.47 225.68 229.44 225.72 229.41 225.77 229.38 225.84 229.33 225.92 229.31 225.97 229.28 226.02 229.26 226.07 229.23 226.13 229.2 226.19 229.17 226.25 229.14 226.32 229.11 226.39 229.08 226.46 229.04 226.54 229.01 226.62 228.97 226.7 228.94 226.79 228.9 226.88 228.86 226.97 228.83 227.07 228.79 227.17 228.75 227.27 228.71 227.38 228.67 227.49 228.63 227.6 228.59 227.72 228.55 227.84 228.51 227.96 228.47 228.09 228.43 228.22 228.39 228.35 228.35 228.49 228.31 228.63 228.28 228.77 228.24 228.92 228.2 229.07 228.16 229.22 228.12 229.38 228.09 229.53 228.05 229.7 228.02 229.86 227.98 230.03 227.96 230.12 227.95 230.2 227.93 230.29 227.91 230.38 227.9 230.47 227.88 230.56 227.87 230.65 227.85 230.74 227.84 230.83 227.82 230.92 227.81 231.01 227.79 231.11 227.78 231.2 227.77 231.3 227.75 231.4 227.74 231.49 227.73 231.59 227.72 231.69 227.7 231.79 227.69 231.89 227.68 231.99 227.67 232.09 227.66 232.19 227.65 232.3 227.64 232.4 227.63 232.51 227.62 232.61 227.61 232.72 227.6 232.83 227.6 232.93 227.59 233.04 227.58 233.15 227.57 233.26 227.57 233.37 227.56 233.49 227.56 233.6 227.55 233.71 227.55 233.83 227.55 233.94 227.54 234.06 227.54 234.17 227.54 234.29 227.54 234.41 227.54 234.53 227.53 234.65 227.53 234.77 227.54 234.89 227.54 235.01 227.54 235.13 227.54 235.26 227.54 235.38 227.55 235.5 227.55 235.63 227.56 235.76 227.56 235.88 227.57 236.01 227.57 236.14 227.58 236.27 227.59 236.4 227.6 236.53 227.61 236.66 227.62 236.79 227.63 236.93 227.64 237.06 227.65 237.2 227.66 237.33 227.67 237.47 227.69 237.6 227.7 237.74 227.72 237.88 227.73 238.02 227.75 238.16 227.77 238.3 227.79 238.44 227.81 238.58 227.81 238.64 227.82 238.73 227.85 238.87 227.87 239.01 227.89 239.16 227.91 239.3 227.94 239.45 227.96 239.6 227.99 239.75 228.01 239.9 228.04 240.04 228.07 240.19 228.09 240.34 228.13 240.5 228.16 240.65 228.19 240.8 228.22 240.96 228.25 241.11 228.29 241.27 228.32 241.42 228.36 241.58 228.39 241.74 228.43 241.89 228.47 242.05 228.51 242.21 228.55 242.37 228.59 242.53 228.63 242.69 228.68 242.86 228.72 243.02 228.77 243.19 228.81 243.35 228.86 243.51 228.91 243.68 228.96 243.85 229.01 244.02 229.06 244.18 229.11 244.35 229.17 244.52 229.22 244.69 229.28 244.86 229.33 245.04 229.39 245.21 229.45 245.38 229.51 245.56 229.57 245.73 229.63 245.91 229.7 246.08 229.76 246.26 229.83 246.44 229.89 246.61 229.96 246.79 230.03 246.97 230.1 247.15 230.17 247.33 230.24 247.51 230.32 247.7 230.39 247.88 230.47 248.06 230.55 248.25 230.63 248.43 230.71 248.62 230.79 248.81 230.87 248.99 230.95 249.18 231.04 249.37 231.12 249.56 231.21 249.75 231.3 249.94 231.39 250.13 231.48 250.32 231.57 250.52 231.67 250.71 231.76 250.91 231.86 251.1 231.96 251.29 232.06 251.49 232.16 251.69 232.16 251.69 232.22 252.45 231.73 253.03 231.72 253.04 230.96 253.1 230.38 252.6 230.38 252.6 230.27 252.4 230.17 252.19 230.07 251.99 229.97 251.79 229.87 251.59 229.77 251.39 229.68 251.19 229.58 250.99 229.49 250.79 229.4 250.59 229.3 250.39 229.22 250.19 229.13 250 229.04 249.8 228.95 249.61 228.87 249.41 228.79 249.22 228.7 249.03 228.62 248.84 228.54 248.64 228.47 248.45 228.39 248.26 228.31 248.07 228.24 247.88 228.16 247.69 228.09 247.51 228.02 247.32 227.95 247.13 227.88 246.95 227.82 246.76 227.75 246.58 227.68 246.4 227.62 246.21 227.56 246.03 227.5 245.85 227.44 245.67 227.38 245.49 227.32 245.31 227.26 245.13 227.2 244.95 227.15 244.77 227.09 244.6 227.04 244.42 226.99 244.25 226.94 244.07 226.89 243.9 226.84 243.72 226.79 243.55 226.75 243.38 226.7 243.21 226.66 243.04 226.61 242.87 226.57 242.7 226.53 242.53 226.49 242.36 226.45 242.19 226.41 242.03 226.37 241.86 226.33 241.7 226.3 241.53 226.26 241.37 226.23 241.21 226.19 241.04 226.16 240.88 226.13 240.72 226.1 240.56 226.07 240.4 226.04 240.25 226.01 240.09 225.99 239.93 225.96 239.78 225.94 239.62 225.91 239.47 225.89 239.31 225.87 239.16 225.84 239 225.83 238.92 225.82 238.85 225.8 238.7 225.78 238.55 225.76 238.4 225.75 238.25 225.73 238.1 225.71 237.96 225.7 237.81 225.68 237.66 225.67 237.52 225.66 237.38 225.64 237.23 225.63 237.09 225.62 236.95 225.61 236.8 225.6 236.66 225.59 236.52 225.58 236.38 225.58 236.25 225.57 236.11 225.56 235.97 225.56 235.84 225.55 235.7 225.55 235.56 225.54 235.43 225.54 235.3 225.54 235.16 225.54 235.03 225.54 234.9 225.53 234.77 225.53 234.64 225.54 234.51 225.54 234.39 225.54 234.26 225.54 234.13 225.54 234.01 225.55 233.88 225.55 233.76 225.56 233.64 225.56 233.51 225.57 233.39 225.57 233.27 225.58 233.15 225.59 233.03 225.59 232.91 225.6 232.8 225.61 232.68 225.62 232.56 225.63 232.45 225.64 232.33 225.65 232.22 225.66 232.11 225.67 231.99 225.68 231.88 225.69 231.77 225.7 231.66 225.72 231.55 225.73 231.45 225.74 231.34 225.76 231.23 225.77 231.13 225.78 231.02 225.8 230.92 225.81 230.81 225.83 230.71 225.85 230.61 225.86 230.51 225.88 230.41 225.9 230.31 225.91 230.21 225.93 230.11 225.95 230.02 225.97 229.92 225.98 229.82 226 229.73 226.02 229.64 226.06 229.45 226.1 229.27 226.14 229.09 226.18 228.92 226.22 228.75 226.26 228.58 226.3 228.41 226.34 228.25 226.39 228.09 226.43 227.94 226.47 227.79 226.52 227.64 226.56 227.5 226.61 227.36 226.65 227.22 226.7 227.08 226.74 226.95 226.78 226.83 226.83 226.7 226.87 226.58 226.92 226.46 226.96 226.35 227 226.24 227.05 226.13 227.09 226.03 227.13 225.93 227.17 225.83 227.21 225.74 227.25 225.65 227.29 225.57 227.32 225.48 227.36 225.41 227.4 225.33 227.43 225.26 227.46 225.19 227.5 225.13 227.53 225.06 227.56 225.01 227.61 224.9 227.66 224.81 227.7 224.74 227.73 224.68 227.76 224.63 227.78 224.59 228.4 224.15 229.15 224.25"/><polygon class="cls-10" points="226.95 212.53 227.51 213.04 227.55 213.8 227.55 213.8 227.55 213.82 227.53 213.86 227.5 213.94 227.47 214.05 227.45 214.12 227.42 214.19 227.4 214.28 227.37 214.37 227.34 214.47 227.31 214.57 227.27 214.69 227.24 214.81 227.2 214.93 227.17 215.07 227.13 215.21 227.09 215.36 227.05 215.52 227.01 215.68 226.97 215.85 226.93 216.02 226.89 216.21 226.84 216.4 226.8 216.59 226.76 216.79 226.72 217 226.68 217.21 226.66 217.32 226.63 217.43 226.61 217.54 226.59 217.65 226.57 217.77 226.55 217.88 226.53 218 226.51 218.12 226.49 218.24 226.47 218.36 226.46 218.48 226.44 218.61 226.42 218.73 226.4 218.86 226.38 218.99 226.36 219.11 226.35 219.24 226.33 219.38 226.31 219.51 226.3 219.64 226.28 219.78 226.26 219.91 226.25 220.05 226.24 220.19 226.22 220.33 226.21 220.4 226.21 220.47 226.19 220.61 226.18 220.75 226.17 220.9 226.16 221.04 226.15 221.19 226.14 221.34 226.13 221.49 226.12 221.64 226.11 221.79 226.1 221.94 226.09 222.09 226.08 222.24 226.08 222.4 226.07 222.55 226.07 222.71 226.06 222.87 226.06 223.03 226.06 223.19 226.05 223.35 226.05 223.51 226.05 223.67 226.05 223.83 226.05 224 226.05 224.16 226.06 224.32 226.06 224.49 226.06 224.66 226.07 224.83 226.07 224.99 226.08 225.16 226.09 225.33 226.1 225.5 226.11 225.68 226.12 225.85 226.13 226.02 226.14 226.19 226.16 226.37 226.17 226.54 226.19 226.72 226.2 226.9 226.22 227.07 226.24 227.25 226.24 227.26 226.02 227.99 225.36 228.35 225.35 228.35 224.62 228.13 224.25 227.47 224.25 227.46 224.23 227.28 224.21 227.09 224.19 226.9 224.18 226.72 224.16 226.53 224.15 226.34 224.13 226.16 224.12 225.98 224.11 225.79 224.1 225.61 224.09 225.43 224.08 225.25 224.08 225.07 224.07 224.89 224.06 224.71 224.06 224.54 224.06 224.36 224.05 224.19 224.05 224.01 224.05 223.84 224.05 223.66 224.05 223.49 224.05 223.32 224.06 223.15 224.06 222.99 224.06 222.82 224.07 222.65 224.07 222.49 224.08 222.32 224.09 222.16 224.09 221.99 224.1 221.83 224.11 221.67 224.12 221.51 224.13 221.35 224.14 221.2 224.15 221.04 224.16 220.89 224.18 220.73 224.19 220.58 224.2 220.43 224.22 220.28 224.23 220.13 224.25 219.98 224.26 219.84 224.28 219.69 224.29 219.55 224.31 219.4 224.33 219.26 224.35 219.12 224.36 218.98 224.38 218.85 224.4 218.71 224.42 218.57 224.44 218.44 224.46 218.31 224.48 218.18 224.5 218.05 224.52 217.92 224.54 217.79 224.56 217.67 224.58 217.54 224.6 217.42 224.63 217.3 224.65 217.18 224.67 217.06 224.69 216.95 224.71 216.83 224.76 216.6 224.8 216.39 224.85 216.17 224.89 215.97 224.94 215.76 224.98 215.57 225.02 215.38 225.07 215.2 225.11 215.03 225.15 214.86 225.2 214.7 225.24 214.55 225.28 214.4 225.31 214.26 225.35 214.13 225.39 214.01 225.42 213.9 225.45 213.79 225.49 213.69 225.51 213.59 225.54 213.51 225.57 213.43 225.61 213.3 225.64 213.21 225.66 213.15 225.67 213.12 226.18 212.56 226.94 212.52 226.95 212.53"/><polygon class="cls-10" points="222 217.73 222.29 218.44 222.29 218.44 222.29 218.63 222.3 218.82 222.3 219.01 222.3 219.2 222.31 219.38 222.32 219.57 222.32 219.75 222.33 219.94 222.34 220.12 222.35 220.3 222.37 220.48 222.38 220.66 222.39 220.84 222.41 221.02 222.42 221.2 222.44 221.38 222.46 221.55 222.48 221.73 222.5 221.9 222.52 222.08 222.54 222.25 222.56 222.42 222.59 222.59 222.61 222.77 222.64 222.94 222.66 223.1 222.69 223.27 222.72 223.44 222.75 223.61 222.78 223.77 222.81 223.94 222.84 224.1 222.87 224.27 222.91 224.43 222.94 224.59 222.97 224.75 223.01 224.91 223.05 225.07 223.08 225.23 223.12 225.39 223.16 225.55 223.2 225.7 223.24 225.86 223.28 226.01 223.32 226.17 223.36 226.32 223.4 226.47 223.44 226.63 223.49 226.78 223.53 226.93 223.57 227.08 223.62 227.22 223.66 227.37 223.71 227.52 223.74 227.62 223.75 227.67 223.8 227.81 223.85 227.96 223.9 228.1 223.94 228.25 223.99 228.39 224.04 228.53 224.09 228.67 224.14 228.81 224.19 228.95 224.24 229.09 224.29 229.23 224.34 229.37 224.39 229.5 224.44 229.64 224.5 229.77 224.55 229.91 224.6 230.04 224.65 230.18 224.71 230.31 224.76 230.44 224.81 230.57 224.87 230.7 224.92 230.83 224.97 230.96 225.03 231.09 225.08 231.21 225.14 231.34 225.19 231.47 225.25 231.59 225.3 231.71 225.36 231.84 225.47 232.08 225.58 232.32 225.69 232.56 225.8 232.8 225.91 233.03 226.02 233.26 226.13 233.49 226.24 233.72 226.34 233.94 226.45 234.16 226.56 234.38 226.77 234.8 226.98 235.22 227.18 235.62 227.38 236.02 227.47 236.21 227.56 236.4 227.57 236.4 227.61 237.16 227.11 237.74 227.11 237.74 227.1 237.74 226.34 237.79 225.77 237.29 225.77 237.28 225.68 237.09 225.58 236.91 225.39 236.51 225.19 236.11 224.98 235.69 224.77 235.26 224.66 235.04 224.55 234.82 224.44 234.59 224.32 234.36 224.21 234.13 224.1 233.89 223.99 233.65 223.87 233.41 223.76 233.16 223.64 232.91 223.53 232.65 223.47 232.52 223.42 232.39 223.36 232.26 223.3 232.13 223.25 232 223.19 231.87 223.13 231.74 223.08 231.6 223.02 231.47 222.96 231.33 222.91 231.19 222.85 231.05 222.8 230.92 222.74 230.78 222.69 230.64 222.63 230.49 222.58 230.35 222.52 230.21 222.47 230.06 222.41 229.92 222.36 229.78 222.31 229.63 222.25 229.48 222.2 229.33 222.15 229.18 222.1 229.03 222.05 228.88 222 228.73 221.95 228.58 221.9 228.43 221.85 228.27 221.83 228.22 221.8 228.12 221.75 227.96 221.7 227.8 221.66 227.65 221.61 227.49 221.56 227.33 221.52 227.17 221.47 227.01 221.43 226.84 221.38 226.68 221.34 226.52 221.3 226.35 221.26 226.19 221.22 226.02 221.18 225.85 221.13 225.69 221.1 225.52 221.06 225.35 221.02 225.18 220.98 225 220.95 224.83 220.91 224.66 220.88 224.49 220.84 224.31 220.81 224.13 220.78 223.96 220.75 223.78 220.72 223.6 220.69 223.42 220.66 223.24 220.63 223.06 220.61 222.88 220.58 222.69 220.56 222.51 220.53 222.32 220.51 222.14 220.49 221.95 220.47 221.76 220.45 221.58 220.43 221.39 220.41 221.2 220.4 221.01 220.38 220.81 220.37 220.62 220.36 220.43 220.34 220.23 220.34 220.04 220.32 219.84 220.32 219.64 220.31 219.45 220.31 219.25 220.3 219.05 220.3 218.85 220.29 218.65 220.29 218.45 220.29 218.44 220.59 217.74 221.29 217.44 221.3 217.44 222 217.73"/><polygon class="cls-10" points="180.23 339.49 180.23 339.49 180.24 339.49 180.7 340.1 180.6 340.85 180.6 340.86 180.55 340.95 180.49 341.05 180.43 341.15 180.36 341.26 180.29 341.37 180.22 341.49 180.15 341.61 180.07 341.73 179.98 341.86 179.9 342 179.81 342.13 179.71 342.27 179.62 342.42 179.52 342.57 179.41 342.72 179.31 342.88 179.2 343.04 179.09 343.2 178.97 343.37 178.85 343.55 178.61 343.9 178.35 344.27 178.08 344.65 177.8 345.05 177.51 345.45 177.22 345.87 176.91 346.31 176.59 346.75 176.27 347.2 175.93 347.66 175.59 348.13 175.24 348.61 174.89 349.1 174.53 349.6 174.16 350.1 173.79 350.61 173.41 351.13 173.03 351.65 172.26 352.71 171.47 353.79 170.67 354.87 169.87 355.97 168.25 358.17 167.45 359.26 166.66 360.34 165.87 361.41 165.1 362.46 164.73 362.98 164.35 363.49 163.99 364 163.63 364.49 163.27 364.98 162.92 365.46 162.58 365.94 162.25 366.4 161.92 366.85 161.6 367.3 161.29 367.73 161 368.15 160.71 368.56 160.43 368.95 160.16 369.33 159.9 369.7 159.78 369.88 159.66 370.06 159.54 370.24 159.42 370.41 159.3 370.59 159.18 370.77 159.06 370.95 158.94 371.13 158.82 371.3 158.71 371.48 158.59 371.66 158.48 371.84 158.36 372.02 158.25 372.2 158.14 372.38 158.03 372.55 157.91 372.73 157.81 372.91 157.69 373.09 157.59 373.27 157.48 373.45 157.37 373.63 157.26 373.81 157.16 373.99 157.05 374.17 156.95 374.36 156.84 374.54 156.74 374.72 156.64 374.9 156.54 375.08 156.44 375.26 156.33 375.45 156.23 375.63 156.13 375.81 156.04 376 155.94 376.18 155.84 376.37 155.75 376.55 155.65 376.74 155.56 376.92 155.46 377.11 155.37 377.3 155.27 377.48 155.18 377.67 155.09 377.86 155 378.05 154.91 378.24 154.82 378.43 154.73 378.62 154.64 378.81 154.55 379 154.47 379.19 154.38 379.38 154.29 379.57 154.21 379.76 154.12 379.96 154.04 380.15 153.96 380.35 153.87 380.54 153.79 380.74 153.71 380.93 153.63 381.13 153.55 381.33 153.47 381.53 153.39 381.73 153.31 381.93 153.23 382.13 153.16 382.33 153.08 382.53 153 382.73 152.93 382.93 152.85 383.14 152.78 383.34 152.71 383.55 152.63 383.75 152.56 383.96 152.49 384.17 152.42 384.38 152.35 384.58 152.28 384.79 152.21 385 152.14 385.21 152.07 385.43 152 385.64 151.94 385.85 151.87 386.07 151.8 386.29 151.74 386.5 151.67 386.72 151.61 386.94 151.55 387.16 151.48 387.38 151.42 387.6 151.36 387.82 151.3 388.04 151.24 388.27 151.18 388.49 151.12 388.72 151.06 388.94 151 389.17 150.94 389.4 150.88 389.63 150.82 389.86 150.77 390.09 150.71 390.33 150.66 390.56 150.6 390.8 150.55 391.03 150.49 391.27 150.44 391.51 150.39 391.75 150.34 391.99 150.28 392.23 150.23 392.47 150.18 392.71 150.13 392.96 150.08 393.2 150.03 393.45 149.98 393.7 149.94 393.95 149.89 394.2 149.84 394.45 149.79 394.71 149.75 394.96 149.7 395.22 149.66 395.48 149.61 395.73 149.57 395.99 149.53 396.25 149.48 396.52 149.44 396.78 149.4 397.04 149.36 397.31 149.31 397.58 149.27 397.85 149.23 398.12 149.19 398.39 149.16 398.66 149.12 398.93 149.08 399.21 149.04 399.49 149 399.76 148.97 400.04 148.93 400.33 148.89 400.61 148.86 400.89 148.82 401.18 148.79 401.46 148.75 401.75 148.72 402.04 148.69 402.33 148.66 402.63 148.62 402.92 148.59 403.22 148.56 403.51 148.53 403.81 148.5 404.11 148.47 404.42 148.44 404.72 148.41 405.02 148.38 405.33 148.35 405.64 148.32 405.95 148.3 406.26 148.27 406.57 148.24 406.89 148.22 407.2 148.19 407.52 148.17 407.84 148.14 408.16 148.12 408.49 148.09 408.81 148.07 409.13 148.05 409.46 148.02 409.79 148 410.12 147.98 410.46 147.96 410.79 147.94 411.13 147.92 411.47 147.9 411.81 147.88 412.15 147.86 412.49 147.84 412.84 147.82 413.19 147.8 413.53 147.78 413.88 147.76 414.24 147.75 414.59 147.73 414.95 147.71 415.31 147.7 415.67 147.68 416.03 147.67 416.39 147.65 416.76 147.65 416.92 147.64 417.13 147.62 417.5 147.61 417.87 147.6 418.24 147.58 418.62 147.57 418.99 147.56 419.37 147.55 419.75 147.53 420.14 147.52 420.52 147.51 420.91 147.5 421.3 147.49 421.69 147.48 422.08 147.47 422.48 147.46 422.88 147.45 423.27 147.45 423.68 147.44 424.08 147.43 424.49 147.42 424.89 147.41 425.71 147.4 426.54 147.38 427.38 147.38 428.23 147.37 429.08 147.36 429.95 147.35 430.82 147.35 431.71 147.34 432.6 147.34 433.5 147.34 434.41 147.34 435.33 147.34 436.25 147.34 437.19 147.35 438.14 147.35 439.09 147.35 440.06 147.36 441.04 147.37 442.02 147.38 443.02 147.39 443.83 147.4 444.64 147.4 445.45 147.41 446.24 147.43 447.02 147.44 447.8 147.45 448.56 147.47 449.32 147.49 450.07 147.5 450.81 147.52 451.55 147.54 452.27 147.56 452.99 147.58 453.7 147.6 454.4 147.62 455.09 147.65 455.78 147.67 456.45 147.7 457.13 147.72 457.79 147.75 458.44 147.78 459.09 147.81 459.73 147.84 460.36 147.87 460.99 147.9 461.61 147.93 462.22 147.96 462.82 148 463.42 148.03 464.01 148.07 464.59 148.11 465.17 148.14 465.74 148.18 466.3 148.22 466.86 148.26 467.41 148.3 467.95 148.34 468.49 148.39 469.02 148.43 469.55 148.47 470.07 148.52 470.58 148.56 471.09 148.61 471.59 148.66 472.09 148.71 472.58 148.76 473.06 148.81 473.54 148.86 474.01 148.91 474.48 148.96 474.94 149.01 475.4 149.07 475.85 149.12 476.3 149.18 476.74 149.23 477.18 149.29 477.61 149.34 478.04 149.4 478.46 149.46 478.88 149.52 479.29 149.58 479.7 149.64 480.11 149.7 480.5 149.76 480.9 149.83 481.29 149.89 481.68 149.96 482.06 150.02 482.44 150.09 482.81 150.15 483.19 150.22 483.55 150.29 483.92 150.35 484.28 150.42 484.63 150.49 484.99 150.56 485.34 150.63 485.68 150.71 486.02 150.78 486.36 150.85 486.7 150.92 487.03 151 487.37 151.07 487.69 151.15 488.02 151.22 488.34 151.3 488.66 151.37 488.98 151.45 489.29 151.53 489.6 151.61 489.91 151.69 490.22 151.76 490.52 151.84 490.82 151.93 491.13 152.01 491.42 152.09 491.72 152.17 492.01 152.25 492.31 152.34 492.6 152.42 492.89 152.5 493.18 152.59 493.46 152.68 493.75 152.76 494.03 152.85 494.32 152.94 494.6 153.02 494.88 153.11 495.16 153.2 495.44 153.29 495.71 153.38 495.99 153.47 496.27 153.56 496.54 153.65 496.82 153.74 497.09 153.83 497.37 153.93 497.64 154.02 497.91 154.11 498.19 154.21 498.46 154.3 498.73 154.39 499 154.49 499.28 154.68 499.82 154.87 500.37 154.88 500.38 154.83 501.14 154.27 501.65 154.26 501.65 153.5 501.61 152.99 501.04 152.99 501.04 152.79 500.49 152.6 499.94 152.5 499.66 152.41 499.39 152.31 499.11 152.22 498.83 152.12 498.56 152.03 498.28 151.94 498 151.84 497.73 151.75 497.45 151.66 497.17 151.57 496.89 151.47 496.61 151.38 496.33 151.29 496.04 151.2 495.76 151.11 495.48 151.03 495.19 150.94 494.9 150.85 494.62 150.76 494.33 150.67 494.04 150.59 493.74 150.5 493.45 150.41 493.15 150.33 492.86 150.25 492.56 150.16 492.25 150.08 491.95 150 491.65 149.91 491.34 149.83 491.03 149.75 490.72 149.67 490.4 149.59 490.09 149.51 489.77 149.43 489.45 149.35 489.13 149.27 488.8 149.2 488.47 149.12 488.14 149.04 487.8 148.97 487.47 148.9 487.13 148.82 486.78 148.75 486.44 148.68 486.08 148.6 485.73 148.53 485.38 148.46 485.02 148.39 484.65 148.32 484.29 148.25 483.92 148.18 483.54 148.12 483.16 148.05 482.78 147.98 482.39 147.92 482 147.85 481.61 147.79 481.21 147.73 480.81 147.66 480.4 147.6 480 147.54 479.58 147.48 479.16 147.42 478.74 147.36 478.31 147.31 477.87 147.25 477.44 147.19 476.99 147.14 476.54 147.08 476.09 147.03 475.63 146.97 475.17 146.92 474.7 146.87 474.23 146.82 473.75 146.77 473.26 146.72 472.77 146.67 472.28 146.62 471.78 146.57 471.27 146.53 470.76 146.48 470.24 146.44 469.71 146.39 469.19 146.35 468.65 146.31 468.11 146.27 467.56 146.23 467 146.19 466.44 146.15 465.87 146.11 465.3 146.07 464.72 146.04 464.13 146 463.53 145.97 462.93 145.93 462.32 145.9 461.71 145.87 461.09 145.84 460.46 145.81 459.82 145.78 459.18 145.75 458.53 145.72 457.87 145.7 457.2 145.67 456.53 145.65 455.85 145.62 455.16 145.6 454.46 145.58 453.76 145.56 453.05 145.54 452.33 145.52 451.6 145.5 450.86 145.49 450.12 145.47 449.36 145.46 448.6 145.44 447.83 145.43 447.05 145.42 446.27 145.41 445.47 145.4 444.67 145.39 443.86 145.38 443.03 145.37 442.04 145.36 441.05 145.35 440.07 145.35 439.1 145.35 438.15 145.34 437.2 145.34 436.26 145.34 435.33 145.34 434.4 145.34 433.49 145.34 432.59 145.35 431.7 145.35 430.81 145.36 429.93 145.37 429.07 145.38 428.21 145.38 427.36 145.4 426.51 145.41 425.68 145.42 424.86 145.43 424.45 145.44 424.04 145.45 423.63 145.46 423.23 145.46 422.83 145.47 422.43 145.48 422.03 145.49 421.64 145.5 421.25 145.51 420.85 145.52 420.46 145.54 420.08 145.55 419.69 145.56 419.31 145.57 418.93 145.58 418.55 145.6 418.17 145.61 417.79 145.63 417.42 145.64 417.05 145.65 416.68 145.67 416.31 145.68 415.94 145.7 415.58 145.72 415.22 145.73 414.86 145.75 414.5 145.77 414.14 145.78 413.78 145.8 413.43 145.82 413.08 145.84 412.73 145.86 412.38 145.88 412.03 145.9 411.69 145.92 411.35 145.94 411 145.96 410.67 145.98 410.33 146.01 409.99 146.03 409.66 146.05 409.32 146.07 408.99 146.1 408.66 146.12 408.33 146.15 408.01 146.17 407.69 146.2 407.36 146.22 407.04 146.25 406.72 146.28 406.4 146.31 406.09 146.33 405.77 146.36 405.46 146.39 405.14 146.42 404.83 146.45 404.53 146.48 404.22 146.51 403.91 146.54 403.61 146.57 403.31 146.6 403 146.63 402.7 146.67 402.41 146.7 402.11 146.73 401.81 146.77 401.52 146.8 401.23 146.84 400.94 146.87 400.65 146.91 400.36 146.95 400.07 146.98 399.79 147.02 399.5 147.06 399.22 147.1 398.94 147.14 398.66 147.18 398.38 147.22 398.1 147.25 397.82 147.3 397.55 147.34 397.27 147.38 397 147.42 396.73 147.47 396.46 147.51 396.19 147.55 395.93 147.6 395.66 147.64 395.39 147.69 395.13 147.73 394.87 147.78 394.61 147.83 394.35 147.88 394.09 147.92 393.83 147.97 393.57 148.02 393.32 148.07 393.07 148.12 392.81 148.17 392.56 148.22 392.31 148.28 392.06 148.33 391.81 148.38 391.56 148.43 391.32 148.49 391.07 148.54 390.83 148.6 390.58 148.65 390.34 148.71 390.1 148.77 389.86 148.82 389.62 148.88 389.38 148.94 389.15 149 388.91 149.06 388.68 149.12 388.44 149.18 388.21 149.24 387.98 149.31 387.74 149.37 387.51 149.43 387.29 149.5 387.06 149.56 386.83 149.63 386.6 149.69 386.38 149.76 386.15 149.82 385.93 149.89 385.7 149.96 385.48 150.03 385.26 150.1 385.04 150.17 384.82 150.24 384.6 150.31 384.38 150.38 384.16 150.45 383.95 150.53 383.73 150.6 383.52 150.67 383.3 150.75 383.09 150.82 382.88 150.9 382.66 150.98 382.45 151.05 382.24 151.13 382.03 151.21 381.82 151.29 381.61 151.37 381.4 151.45 381.2 151.53 380.99 151.61 380.79 151.69 380.58 151.78 380.38 151.86 380.17 151.95 379.97 152.03 379.76 152.12 379.56 152.2 379.36 152.29 379.16 152.38 378.96 152.47 378.76 152.56 378.56 152.64 378.36 152.74 378.16 152.83 377.97 152.92 377.77 153.01 377.57 153.1 377.38 153.2 377.18 153.29 376.99 153.39 376.79 153.48 376.6 153.58 376.4 153.68 376.21 153.77 376.02 153.87 375.82 153.97 375.63 154.07 375.44 154.17 375.25 154.27 375.06 154.37 374.87 154.48 374.68 154.58 374.49 154.68 374.3 154.79 374.11 154.89 373.92 155 373.73 155.11 373.55 155.21 373.36 155.32 373.17 155.43 372.98 155.54 372.8 155.65 372.61 155.76 372.43 155.87 372.24 155.99 372.05 156.1 371.87 156.21 371.68 156.33 371.5 156.44 371.31 156.56 371.13 156.68 370.94 156.79 370.76 156.91 370.58 157.03 370.39 157.15 370.21 157.27 370.02 157.39 369.84 157.51 369.66 157.64 369.48 157.76 369.29 157.88 369.11 158.01 368.93 158.13 368.75 158.26 368.56 158.52 368.19 158.79 367.8 159.07 367.4 159.37 366.99 159.67 366.57 159.98 366.13 160.29 365.69 160.62 365.23 160.96 364.77 161.3 364.29 161.65 363.81 162.01 363.32 162.37 362.82 162.74 362.31 163.11 361.8 163.49 361.28 164.26 360.23 165.04 359.16 165.84 358.07 166.64 356.98 168.25 354.79 169.06 353.69 169.85 352.6 170.64 351.53 171.42 350.47 171.8 349.95 172.18 349.44 172.55 348.93 172.91 348.42 173.27 347.93 173.63 347.44 173.97 346.96 174.31 346.49 174.64 346.03 174.97 345.58 175.28 345.14 175.59 344.71 175.88 344.3 176.17 343.89 176.44 343.5 176.71 343.12 176.96 342.76 177.21 342.41 177.32 342.24 177.44 342.08 177.54 341.92 177.65 341.76 177.75 341.6 177.85 341.45 177.95 341.31 178.04 341.17 178.13 341.03 178.22 340.9 178.3 340.78 178.38 340.65 178.46 340.54 178.53 340.43 178.59 340.32 178.66 340.22 178.72 340.12 178.77 340.03 178.82 339.94 178.87 339.86 179.47 339.39 180.23 339.49"/><polygon class="cls-10" points="200.6 291.13 201.24 291.55 201.4 292.29 201.4 292.3 201.31 292.76 201.22 293.25 201.13 293.74 201.04 294.24 200.95 294.76 200.85 295.28 200.76 295.82 200.67 296.37 200.57 296.93 200.48 297.5 200.38 298.08 200.28 298.67 200.19 299.28 200.09 299.89 199.99 300.51 199.89 301.15 199.78 301.79 199.68 302.45 199.58 303.11 199.47 303.79 199.37 304.47 199.26 305.17 199.16 305.87 199.05 306.58 198.94 307.31 198.83 308.04 198.72 308.78 198.62 309.53 198.5 310.29 198.39 311.06 198.28 311.83 198.17 312.62 198.05 313.41 197.94 314.21 197.82 315.02 197.71 315.84 197.59 316.67 197.47 317.5 197.36 318.35 197.24 319.2 197.12 320.05 197 320.92 196.76 322.67 196.51 324.45 196.27 326.26 196.02 328.1 195.77 329.96 195.51 331.85 195.26 333.77 195 335.7 194.74 337.67 194.47 339.65 194.21 341.65 193.94 343.68 193.68 345.72 193.41 347.79 193.13 349.87 192.86 351.97 192.58 354.08 192.03 358.36 191.46 362.69 190.89 367.07 190.32 371.49 189.74 375.94 189.16 380.43 188.86 382.68 188.57 384.93 188.27 387.19 187.97 389.45 187.68 391.72 187.38 393.98 187.08 396.25 186.78 398.51 186.71 399 186.48 400.77 186.18 403.04 185.87 405.29 185.57 407.55 185.27 409.8 184.97 412.04 184.66 414.28 184.36 416.51 184.05 418.73 183.75 420.95 183.6 422.05 183.44 423.15 183.29 424.25 183.14 425.34 182.99 426.44 182.83 427.52 182.68 428.61 182.53 429.69 182.38 430.77 182.22 431.85 182.07 432.93 181.92 434 181.77 435.06 181.62 436.12 181.46 437.18 181.31 438.24 181.16 439.29 181.01 440.33 180.85 441.37 180.7 442.41 180.55 443.44 180.4 444.47 180.25 445.49 180.1 446.51 179.95 447.52 179.79 448.53 179.64 449.54 179.49 450.54 179.34 451.53 179.19 452.51 179.04 453.5 178.89 454.47 178.74 455.44 178.59 456.41 178.44 457.37 178.29 458.32 178.14 459.26 177.99 460.2 177.84 461.14 177.69 462.06 177.54 462.98 177.4 463.9 177.25 464.8 177.1 465.7 176.95 466.6 176.81 467.48 176.66 468.36 176.51 469.23 176.36 470.09 176.22 470.95 176.07 471.8 175.93 472.64 175.78 473.47 175.63 474.3 175.49 475.11 175.34 475.92 175.2 476.72 175.06 477.51 174.91 478.3 174.77 479.07 174.63 479.84 174.48 480.59 174.34 481.34 174.2 482.08 174.06 482.81 173.91 483.53 173.77 484.25 173.63 484.95 173.56 485.3 173.49 485.64 173.42 485.98 173.35 486.32 173.28 486.66 173.21 487 173.14 487.33 173.07 487.66 173 487.99 172.94 488.31 172.87 488.64 172.8 488.96 172.73 489.28 172.66 489.59 172.59 489.9 172.52 490.22 172.45 490.52 172.38 490.83 172.32 491.13 172.25 491.43 172.18 491.73 172.11 492.02 172.04 492.32 171.98 492.61 171.91 492.89 171.84 493.18 171.77 493.46 171.71 493.74 171.64 494.01 171.57 494.29 171.5 494.56 171.44 494.82 171.37 495.09 171.3 495.35 171.24 495.61 171.17 495.87 171.1 496.12 171.04 496.37 170.97 496.62 170.91 496.87 170.84 497.11 170.77 497.35 170.71 497.59 170.64 497.82 170.58 498.05 170.51 498.28 170.44 498.5 170.38 498.73 170.31 498.95 170.25 499.16 170.19 499.38 170.12 499.59 170.06 499.79 169.99 500 169.93 500.2 169.86 500.4 169.8 500.59 169.73 500.79 169.67 500.98 169.6 501.16 169.54 501.35 169.48 501.53 169.41 501.7 169.35 501.88 169.28 502.05 169.22 502.22 169.16 502.38 169.09 502.55 169.03 502.7 168.97 502.86 168.9 503.01 168.84 503.16 168.77 503.31 168.71 503.45 168.65 503.59 168.58 503.73 168.52 503.87 168.45 504 168.39 504.13 168.32 504.25 168.26 504.37 168.23 504.44 168.19 504.5 168.16 504.55 168.13 504.61 168.1 504.67 168.06 504.73 168.03 504.78 168 504.84 167.96 504.89 167.93 504.94 167.9 505 167.86 505.05 167.83 505.1 167.8 505.15 167.76 505.2 167.73 505.25 167.69 505.3 167.66 505.35 167.62 505.4 167.59 505.44 167.55 505.49 167.52 505.53 167.48 505.58 167.44 505.62 167.41 505.67 167.37 505.71 167.33 505.75 167.29 505.79 167.26 505.83 167.22 505.87 167.18 505.91 167.14 505.95 167.1 505.99 167.06 506.02 167.02 506.06 166.97 506.1 166.93 506.13 166.89 506.16 166.84 506.2 166.8 506.23 166.75 506.26 166.7 506.29 166.66 506.32 166.61 506.35 166.56 506.38 166.52 506.4 166.51 506.4 165.76 506.46 165.17 505.97 165.17 505.97 165.17 505.97 165.11 505.21 165.59 504.62 165.61 504.61 165.63 504.61 165.63 504.6 165.64 504.6 165.65 504.59 165.66 504.58 165.68 504.57 165.69 504.56 165.7 504.55 165.72 504.54 165.73 504.53 165.75 504.51 165.76 504.5 165.78 504.48 165.8 504.46 165.81 504.45 165.83 504.43 165.85 504.41 165.87 504.38 165.89 504.36 165.91 504.34 165.93 504.31 165.95 504.29 165.98 504.26 166 504.23 166.02 504.2 166.04 504.17 166.07 504.14 166.09 504.1 166.11 504.07 166.14 504.03 166.16 504 166.19 503.96 166.21 503.92 166.24 503.88 166.26 503.84 166.29 503.8 166.31 503.76 166.34 503.71 166.36 503.67 166.39 503.62 166.42 503.58 166.44 503.53 166.47 503.48 166.5 503.43 166.55 503.33 166.6 503.22 166.66 503.11 166.72 503 166.77 502.88 166.83 502.76 166.88 502.63 166.94 502.5 167 502.37 167.06 502.24 167.12 502.1 167.18 501.95 167.23 501.81 167.29 501.66 167.35 501.5 167.41 501.35 167.47 501.18 167.53 501.02 167.59 500.85 167.65 500.68 167.71 500.51 167.78 500.33 167.84 500.15 167.9 499.96 167.96 499.78 168.02 499.58 168.08 499.39 168.15 499.19 168.21 498.99 168.27 498.79 168.34 498.58 168.4 498.37 168.46 498.16 168.53 497.94 168.59 497.72 168.65 497.5 168.72 497.28 168.78 497.05 168.84 496.82 168.91 496.58 168.97 496.34 169.04 496.1 169.1 495.86 169.17 495.61 169.24 495.36 169.3 495.11 169.37 494.86 169.43 494.6 169.5 494.34 169.56 494.07 169.63 493.81 169.7 493.54 169.76 493.26 169.83 492.99 169.9 492.71 169.96 492.43 170.03 492.15 170.1 491.86 170.16 491.57 170.23 491.28 170.3 490.99 170.37 490.69 170.43 490.39 170.5 490.09 170.57 489.78 170.64 489.48 170.71 489.16 170.77 488.85 170.84 488.54 170.91 488.22 170.98 487.9 171.05 487.57 171.12 487.25 171.19 486.92 171.25 486.59 171.32 486.26 171.39 485.92 171.46 485.58 171.53 485.24 171.6 484.9 171.67 484.55 171.81 483.85 171.95 483.15 172.09 482.43 172.23 481.7 172.38 480.97 172.52 480.22 172.66 479.47 172.8 478.7 172.94 477.93 173.09 477.15 173.23 476.36 173.38 475.57 173.52 474.76 173.66 473.95 173.81 473.13 173.95 472.3 174.1 471.46 174.25 470.61 174.39 469.76 174.54 468.9 174.69 468.03 174.83 467.15 174.98 466.27 175.13 465.38 175.27 464.48 175.42 463.57 175.57 462.66 175.72 461.75 175.87 460.82 176.02 459.89 176.16 458.95 176.31 458.01 176.46 457.06 176.61 456.1 176.76 455.14 176.91 454.17 177.06 453.19 177.21 452.21 177.36 451.23 177.51 450.24 177.67 449.24 177.82 448.24 177.97 447.23 178.12 446.22 178.27 445.2 178.42 444.18 178.57 443.15 178.72 442.12 178.88 441.08 179.03 440.04 179.18 439 179.33 437.95 179.48 436.9 179.64 435.84 179.79 434.78 179.94 433.71 180.09 432.64 180.25 431.57 180.4 430.5 180.55 429.42 180.7 428.33 180.85 427.25 181.01 426.16 181.16 425.07 181.31 423.97 181.46 422.88 181.62 421.78 181.77 420.67 182.07 418.46 182.38 416.24 182.68 414.01 182.98 411.77 183.29 409.53 183.59 407.28 183.89 405.03 184.19 402.77 184.49 400.51 184.79 398.25 185.09 395.98 185.39 393.72 185.69 391.45 185.99 389.19 186.29 386.93 186.58 384.67 186.88 382.42 187.17 380.17 187.76 375.69 188.34 371.23 188.91 366.81 189.48 362.43 190.04 358.1 190.6 353.82 190.88 351.71 191.15 349.61 191.42 347.53 191.69 345.46 191.96 343.42 192.23 341.39 192.49 339.39 192.75 337.4 193.01 335.44 193.27 333.5 193.53 331.59 193.78 329.7 194.03 327.83 194.28 325.99 194.53 324.18 194.78 322.4 195.02 320.64 195.14 319.78 195.26 318.92 195.38 318.07 195.49 317.23 195.61 316.39 195.73 315.56 195.84 314.74 195.96 313.93 196.07 313.13 196.19 312.33 196.3 311.55 196.41 310.77 196.53 310 196.64 309.24 196.75 308.49 196.86 307.75 196.97 307.01 197.07 306.29 197.18 305.57 197.29 304.87 197.39 304.17 197.5 303.49 197.6 302.81 197.71 302.14 197.81 301.48 197.91 300.84 198.01 300.2 198.11 299.57 198.21 298.96 198.31 298.35 198.41 297.75 198.5 297.17 198.6 296.6 198.7 296.03 198.79 295.48 198.88 294.94 198.98 294.41 199.07 293.89 199.16 293.38 199.25 292.88 199.34 292.4 199.43 291.92 199.85 291.29 200.59 291.13 200.6 291.13"/><polygon class="cls-10" points="110.55 294.63 110.55 294.64 110.94 295.29 110.76 296.03 110.76 296.04 110.7 296.12 110.64 296.19 110.58 296.27 110.52 296.35 110.47 296.44 110.41 296.51 110.35 296.6 110.29 296.68 110.24 296.76 110.18 296.84 110.13 296.92 110.07 297.01 110.02 297.09 109.96 297.17 109.91 297.26 109.85 297.34 109.8 297.43 109.74 297.51 109.69 297.6 109.64 297.68 109.58 297.77 109.53 297.85 109.48 297.94 109.42 298.03 109.37 298.11 109.32 298.2 109.27 298.29 109.22 298.38 109.17 298.47 109.11 298.56 109.06 298.65 109.01 298.74 108.96 298.83 108.91 298.92 108.86 299.01 108.81 299.1 108.77 299.19 108.72 299.28 108.67 299.37 108.62 299.47 108.57 299.56 108.52 299.65 108.48 299.75 108.43 299.84 108.38 299.93 108.34 300.03 108.29 300.12 108.24 300.22 108.2 300.31 108.15 300.41 108.11 300.5 108.06 300.6 108.02 300.7 107.97 300.79 107.93 300.89 107.89 300.99 107.84 301.09 107.8 301.19 107.76 301.28 107.71 301.38 107.67 301.48 107.63 301.58 107.59 301.68 107.55 301.78 107.5 301.88 107.46 301.98 107.42 302.08 107.38 302.18 107.34 302.28 107.3 302.38 107.26 302.49 107.22 302.59 107.19 302.69 107.15 302.79 107.11 302.9 107.07 303 107.03 303.1 107 303.21 106.96 303.31 106.92 303.42 106.89 303.52 106.85 303.63 106.81 303.73 106.78 303.84 106.74 303.94 106.71 304.05 106.64 304.26 106.57 304.47 106.5 304.69 106.44 304.9 106.38 305.12 106.31 305.34 106.25 305.56 106.19 305.77 106.13 306 106.07 306.22 106.02 306.44 105.96 306.66 105.91 306.88 105.85 307.11 105.8 307.33 105.75 307.56 105.7 307.79 105.65 308.01 105.61 308.24 105.56 308.47 105.52 308.7 105.47 308.93 105.43 309.17 105.39 309.4 105.35 309.63 105.31 309.86 105.28 310.1 105.24 310.33 105.21 310.57 105.18 310.81 105.14 311.04 105.11 311.28 105.09 311.52 105.06 311.76 105.03 312 105.01 312.24 104.98 312.48 104.96 312.72 104.94 312.96 104.92 313.2 104.91 313.44 104.89 313.69 104.87 313.93 104.86 314.18 104.85 314.42 104.84 314.67 104.83 314.91 104.82 315.16 104.81 315.4 104.81 315.65 104.8 315.89 104.8 316.14 104.8 316.39 104.8 316.64 104.8 316.89 104.81 317.13 104.81 317.38 104.81 317.63 104.82 317.88 104.83 318.13 104.84 318.38 104.85 318.63 104.87 318.88 104.88 319.13 104.9 319.38 104.91 319.64 104.93 319.89 104.95 320.14 104.97 320.39 105 320.64 105.02 320.89 105.05 321.14 105.08 321.4 105.11 321.65 105.14 321.9 105.17 322.15 105.18 322.28 105.2 322.4 105.22 322.53 105.24 322.66 105.25 322.78 105.27 322.91 105.29 323.04 105.31 323.16 105.33 323.29 105.35 323.41 105.37 323.54 105.39 323.67 105.41 323.79 105.43 323.92 105.45 324.05 105.48 324.17 105.5 324.3 105.52 324.42 105.55 324.55 105.57 324.68 105.59 324.8 105.62 324.93 105.64 325.05 105.67 325.18 105.69 325.31 105.72 325.43 105.75 325.56 105.77 325.68 105.8 325.81 105.83 325.93 105.86 326.06 105.88 326.19 105.91 326.31 105.94 326.44 105.97 326.56 106 326.69 106.02 326.78 106.03 326.81 106.06 326.94 106.09 327.06 106.12 327.19 106.16 327.31 106.19 327.44 106.22 327.56 106.25 327.69 106.29 327.81 106.32 327.94 106.35 328.06 106.39 328.19 106.42 328.31 106.46 328.44 106.49 328.56 106.53 328.69 106.57 328.81 106.6 328.94 106.64 329.06 106.68 329.19 106.72 329.31 106.75 329.43 106.79 329.56 106.83 329.68 106.87 329.81 106.91 329.93 106.95 330.05 106.99 330.18 107.03 330.3 107.08 330.42 107.12 330.55 107.16 330.67 107.2 330.79 107.25 330.92 107.29 331.04 107.33 331.16 107.38 331.29 107.42 331.41 107.47 331.53 107.51 331.65 107.56 331.78 107.61 331.9 107.65 332.02 107.7 332.14 107.75 332.26 107.8 332.39 107.84 332.51 107.89 332.63 107.94 332.75 107.99 332.87 108.04 332.99 108.09 333.11 108.14 333.24 108.19 333.36 108.25 333.48 108.3 333.6 108.35 333.72 108.4 333.84 108.46 333.96 108.51 334.08 108.56 334.2 108.62 334.32 108.67 334.44 108.73 334.56 108.78 334.68 108.84 334.8 108.9 334.91 108.95 335.03 109.01 335.15 109.07 335.27 109.13 335.39 109.19 335.51 109.25 335.63 109.3 335.74 109.36 335.86 109.42 335.98 109.48 336.1 109.55 336.21 109.61 336.33 109.67 336.45 109.73 336.56 109.8 336.68 109.86 336.8 109.92 336.91 109.98 337.03 110.05 337.15 110.11 337.26 110.18 337.38 110.25 337.49 110.31 337.61 110.38 337.72 110.45 337.84 110.51 337.95 110.58 338.07 110.65 338.18 110.72 338.3 110.79 338.41 110.86 338.52 110.93 338.64 111 338.75 111.07 338.86 111.14 338.98 111.21 339.09 111.28 339.2 111.36 339.31 111.43 339.43 111.5 339.54 111.58 339.65 111.65 339.76 111.72 339.87 111.8 339.98 111.88 340.09 111.95 340.2 112.03 340.32 112.1 340.43 112.18 340.54 112.26 340.65 112.34 340.75 112.42 340.86 112.49 340.97 112.57 341.08 112.65 341.19 112.73 341.3 112.81 341.41 112.9 341.52 112.98 341.62 113.06 341.73 113.14 341.84 113.22 341.94 113.31 342.05 113.39 342.16 113.48 342.26 113.56 342.37 113.65 342.48 113.73 342.58 113.82 342.69 113.9 342.79 113.99 342.9 114.08 343 114.17 343.11 114.25 343.21 114.34 343.31 114.43 343.42 114.52 343.52 114.61 343.62 114.7 343.73 114.79 343.83 114.88 343.93 114.98 344.03 115.07 344.13 115.16 344.24 115.25 344.34 115.35 344.44 115.44 344.54 115.54 344.64 115.63 344.74 115.73 344.84 115.82 344.94 115.92 345.04 116.02 345.14 116.11 345.23 116.21 345.33 116.31 345.43 116.41 345.53 116.51 345.63 116.61 345.72 116.7 345.82 116.81 345.92 116.91 346.01 117.01 346.11 117.11 346.2 117.21 346.3 117.31 346.39 117.42 346.49 117.52 346.58 117.63 346.68 117.73 346.77 117.83 346.87 117.94 346.96 118.05 347.05 118.15 347.14 118.26 347.24 118.37 347.33 118.47 347.42 118.58 347.51 118.69 347.6 118.8 347.69 118.91 347.78 119.02 347.87 119.13 347.96 119.24 348.05 119.35 348.14 119.46 348.23 119.58 348.32 119.69 348.41 119.8 348.49 119.92 348.58 120.03 348.67 120.15 348.75 120.26 348.84 120.38 348.93 120.49 349.01 120.61 349.1 120.73 349.18 120.84 349.27 120.96 349.35 121.08 349.44 121.2 349.52 121.32 349.6 121.44 349.69 121.56 349.77 121.68 349.85 121.8 349.93 121.92 350.01 122.05 350.09 122.17 350.17 122.29 350.25 122.42 350.33 122.54 350.41 122.67 350.49 122.79 350.57 122.92 350.65 123.04 350.73 123.17 350.81 123.3 350.88 123.42 350.96 123.55 351.04 123.68 351.11 123.81 351.19 123.94 351.26 124.07 351.34 124.2 351.41 124.33 351.49 124.47 351.56 124.6 351.63 124.73 351.71 124.86 351.78 125 351.85 125 351.86 125.48 352.45 125.41 353.2 125.4 353.21 125.4 353.21 124.81 353.69 124.05 353.62 124.05 353.61 123.91 353.54 123.77 353.46 123.63 353.38 123.49 353.31 123.35 353.23 123.21 353.15 123.08 353.07 122.94 353 122.8 352.92 122.67 352.84 122.53 352.76 122.4 352.68 122.26 352.6 122.13 352.51 122 352.43 121.86 352.35 121.73 352.27 121.6 352.18 121.47 352.1 121.34 352.02 121.21 351.93 121.08 351.85 120.95 351.76 120.82 351.68 120.69 351.59 120.56 351.51 120.43 351.42 120.31 351.33 120.18 351.25 120.06 351.16 119.93 351.07 119.8 350.98 119.68 350.89 119.56 350.8 119.43 350.71 119.31 350.63 119.19 350.54 119.06 350.44 118.94 350.35 118.82 350.26 118.7 350.17 118.58 350.08 118.46 349.99 118.34 349.89 118.22 349.8 118.11 349.71 117.99 349.61 117.87 349.52 117.76 349.42 117.64 349.33 117.53 349.23 117.41 349.14 117.3 349.04 117.18 348.95 117.07 348.85 116.95 348.75 116.84 348.65 116.73 348.56 116.62 348.46 116.51 348.36 116.4 348.26 116.29 348.16 116.18 348.06 116.07 347.96 115.96 347.87 115.85 347.76 115.74 347.66 115.64 347.56 115.53 347.46 115.42 347.36 115.32 347.26 115.21 347.16 115.11 347.05 115 346.95 114.9 346.85 114.79 346.75 114.69 346.64 114.59 346.54 114.49 346.43 114.39 346.33 114.28 346.22 114.18 346.12 114.08 346.01 113.98 345.91 113.88 345.8 113.78 345.69 113.69 345.59 113.59 345.48 113.49 345.37 113.39 345.27 113.3 345.16 113.2 345.05 113.11 344.94 113.01 344.83 112.92 344.73 112.83 344.62 112.73 344.51 112.64 344.4 112.55 344.29 112.45 344.18 112.36 344.07 112.27 343.95 112.18 343.84 112.09 343.73 112 343.62 111.91 343.51 111.82 343.4 111.73 343.29 111.65 343.17 111.56 343.06 111.47 342.95 111.39 342.83 111.3 342.72 111.21 342.61 111.13 342.49 111.04 342.38 110.96 342.26 110.88 342.15 110.79 342.03 110.71 341.92 110.63 341.8 110.55 341.69 110.47 341.57 110.38 341.46 110.3 341.34 110.22 341.22 110.14 341.11 110.06 340.99 109.99 340.87 109.91 340.75 109.83 340.64 109.75 340.52 109.68 340.4 109.6 340.28 109.52 340.17 109.45 340.05 109.37 339.93 109.3 339.81 109.22 339.69 109.15 339.57 109.08 339.45 109.01 339.33 108.93 339.21 108.86 339.09 108.79 338.97 108.72 338.85 108.65 338.73 108.58 338.61 108.51 338.49 108.44 338.36 108.37 338.24 108.3 338.12 108.24 338 108.17 337.88 108.1 337.75 108.03 337.63 107.97 337.51 107.9 337.39 107.84 337.26 107.77 337.14 107.71 337.02 107.65 336.89 107.58 336.77 107.52 336.65 107.46 336.52 107.39 336.4 107.33 336.27 107.27 336.15 107.21 336.02 107.15 335.9 107.09 335.77 107.03 335.65 106.97 335.52 106.92 335.4 106.86 335.27 106.8 335.15 106.74 335.02 106.69 334.9 106.63 334.77 106.57 334.64 106.52 334.52 106.46 334.39 106.41 334.27 106.35 334.14 106.3 334.01 106.25 333.89 106.19 333.76 106.14 333.63 106.09 333.5 106.04 333.38 105.99 333.25 105.94 333.12 105.89 332.99 105.83 332.87 105.79 332.74 105.74 332.61 105.69 332.48 105.64 332.35 105.59 332.23 105.55 332.1 105.5 331.97 105.45 331.84 105.41 331.71 105.36 331.58 105.31 331.45 105.27 331.32 105.22 331.19 105.18 331.06 105.14 330.94 105.09 330.81 105.05 330.68 105.01 330.55 104.97 330.42 104.93 330.29 104.89 330.16 104.84 330.03 104.8 329.9 104.77 329.77 104.72 329.64 104.69 329.51 104.65 329.38 104.61 329.25 104.57 329.12 104.53 328.99 104.5 328.86 104.46 328.72 104.42 328.59 104.39 328.46 104.35 328.33 104.32 328.2 104.28 328.07 104.25 327.94 104.22 327.81 104.18 327.68 104.15 327.55 104.12 327.42 104.09 327.28 104.08 327.25 104.06 327.15 104.02 327.02 103.99 326.89 103.96 326.76 103.93 326.63 103.9 326.5 103.87 326.36 103.84 326.23 103.82 326.1 103.79 325.97 103.76 325.84 103.73 325.71 103.71 325.57 103.68 325.44 103.66 325.31 103.63 325.18 103.6 325.05 103.58 324.92 103.56 324.78 103.53 324.65 103.51 324.52 103.48 324.39 103.46 324.26 103.44 324.13 103.42 323.99 103.4 323.86 103.37 323.73 103.35 323.6 103.33 323.46 103.31 323.33 103.29 323.2 103.27 323.07 103.25 322.94 103.24 322.81 103.22 322.67 103.2 322.54 103.18 322.41 103.15 322.15 103.12 321.88 103.09 321.62 103.06 321.36 103.03 321.09 103.01 320.83 102.98 320.57 102.96 320.3 102.94 320.04 102.92 319.78 102.9 319.52 102.88 319.25 102.87 318.99 102.86 318.73 102.84 318.47 102.83 318.21 102.82 317.95 102.82 317.69 102.81 317.43 102.81 317.17 102.8 316.9 102.8 316.65 102.8 316.39 102.8 316.13 102.8 315.87 102.81 315.61 102.81 315.35 102.82 315.1 102.83 314.84 102.84 314.58 102.85 314.32 102.86 314.07 102.88 313.81 102.89 313.56 102.91 313.3 102.93 313.05 102.95 312.8 102.97 312.54 102.99 312.29 103.02 312.04 103.04 311.79 103.07 311.54 103.1 311.29 103.13 311.04 103.16 310.79 103.19 310.54 103.23 310.29 103.26 310.04 103.3 309.8 103.34 309.55 103.38 309.31 103.42 309.06 103.46 308.82 103.5 308.57 103.55 308.33 103.6 308.09 103.64 307.85 103.69 307.61 103.74 307.37 103.8 307.13 103.85 306.89 103.9 306.65 103.96 306.42 104.02 306.18 104.08 305.95 104.14 305.71 104.2 305.48 104.26 305.25 104.32 305.02 104.39 304.79 104.46 304.56 104.52 304.33 104.59 304.1 104.66 303.87 104.73 303.65 104.81 303.42 104.84 303.31 104.88 303.2 104.92 303.09 104.96 302.98 105 302.87 105.03 302.75 105.07 302.64 105.11 302.53 105.15 302.42 105.19 302.31 105.23 302.2 105.27 302.09 105.31 301.99 105.36 301.88 105.4 301.77 105.44 301.66 105.48 301.55 105.53 301.44 105.57 301.34 105.61 301.23 105.65 301.12 105.7 301.02 105.74 300.91 105.79 300.8 105.83 300.7 105.88 300.59 105.92 300.49 105.97 300.38 106.01 300.28 106.06 300.17 106.11 300.07 106.15 299.97 106.2 299.86 106.25 299.76 106.3 299.66 106.34 299.55 106.39 299.45 106.44 299.35 106.49 299.25 106.54 299.15 106.59 299.05 106.64 298.94 106.69 298.85 106.74 298.75 106.79 298.64 106.84 298.55 106.9 298.45 106.95 298.35 107 298.25 107.05 298.15 107.11 298.05 107.16 297.95 107.21 297.86 107.27 297.76 107.32 297.66 107.38 297.57 107.43 297.47 107.48 297.38 107.54 297.28 107.6 297.19 107.65 297.09 107.71 297 107.77 296.9 107.82 296.81 107.88 296.72 107.94 296.62 108 296.53 108.05 296.44 108.11 296.35 108.17 296.26 108.23 296.17 108.29 296.07 108.35 295.98 108.41 295.89 108.47 295.8 108.53 295.71 108.59 295.63 108.65 295.54 108.71 295.45 108.78 295.36 108.84 295.27 108.9 295.19 108.96 295.1 109.03 295.01 109.09 294.93 109.15 294.84 109.81 294.45 110.55 294.63"/><polygon class="cls-11" points="177 294.98 177.02 295 177.07 295.06 177.14 295.16 177.22 295.25 177.29 295.35 177.36 295.45 177.43 295.56 177.51 295.66 177.58 295.77 177.66 295.89 177.73 296.01 177.81 296.13 177.89 296.25 177.97 296.38 178.04 296.51 178.12 296.64 178.2 296.77 178.28 296.91 178.36 297.06 178.44 297.2 178.52 297.35 178.6 297.5 178.68 297.65 178.76 297.81 178.85 297.96 178.93 298.13 179.01 298.29 179.09 298.46 179.17 298.63 179.26 298.8 179.34 298.98 179.42 299.15 179.5 299.33 179.59 299.52 179.67 299.7 179.75 299.89 179.83 300.08 179.91 300.27 180 300.47 180.08 300.67 180.16 300.87 180.24 301.07 180.32 301.28 180.4 301.48 180.48 301.69 180.56 301.91 180.64 302.12 180.72 302.34 180.77 302.48 180.8 302.56 180.88 302.78 180.95 303 181.03 303.23 181.1 303.46 181.18 303.69 181.25 303.93 181.32 304.16 181.4 304.4 181.47 304.64 181.54 304.88 181.61 305.12 181.68 305.37 181.75 305.61 181.81 305.86 181.88 306.11 181.95 306.37 182.01 306.62 182.08 306.88 182.14 307.14 182.2 307.4 182.26 307.66 182.32 307.93 182.38 308.19 182.44 308.46 182.5 308.73 182.55 309 182.61 309.27 182.66 309.55 182.71 309.82 182.74 309.96 182.76 310.1 182.79 310.24 182.81 310.38 182.84 310.52 182.86 310.66 182.89 310.8 182.91 310.94 182.93 311.08 182.96 311.23 182.98 311.37 183 311.51 183.02 311.66 183.04 311.8 183.06 311.94 183.08 312.09 183.1 312.23 183.12 312.38 183.14 312.52 183.16 312.67 183.18 312.81 183.2 312.96 183.21 313.06 183.22 313.11 183.23 313.26 183.25 313.4 183.26 313.55 183.28 313.7 183.29 313.85 183.31 314 183.32 314.15 183.33 314.3 183.34 314.45 183.36 314.6 183.37 314.75 183.38 314.9 183.39 315.05 183.4 315.2 183.41 315.35 183.42 315.5 183.43 315.66 183.44 315.81 183.45 315.96 183.45 316.12 183.46 316.27 183.47 316.42 183.47 316.58 183.48 316.73 183.49 316.88 183.49 317.04 183.49 317.19 183.5 317.35 183.5 317.51 183.5 317.66 183.51 317.82 183.51 317.97 183.51 318.13 183.51 318.29 183.51 318.44 183.51 318.6 183.51 318.76 183.51 318.92 183.51 318.97 183.51 319.07 183.5 319.23 183.5 319.39 183.49 319.55 183.49 319.71 183.48 319.87 183.47 320.03 183.47 320.19 183.46 320.35 183.45 320.51 183.44 320.67 183.43 320.83 183.42 320.99 183.41 321.15 183.4 321.31 183.39 321.47 183.38 321.63 183.36 321.79 183.35 321.95 183.34 322.12 183.32 322.28 183.31 322.44 183.29 322.6 183.27 322.76 183.25 322.93 183.24 323.09 183.22 323.25 183.2 323.41 183.18 323.58 183.16 323.74 183.14 323.9 183.12 324.07 183.09 324.23 183.07 324.39 183.05 324.56 183.02 324.72 183 324.89 182.98 324.98 182.97 325.05 182.94 325.21 182.91 325.38 182.88 325.54 182.85 325.71 182.82 325.87 182.79 326.04 182.76 326.2 182.72 326.36 182.69 326.53 182.66 326.69 182.62 326.86 182.58 327.02 182.55 327.19 182.51 327.35 182.47 327.52 182.43 327.68 182.39 327.85 182.35 328.01 182.31 328.18 182.27 328.34 182.23 328.51 182.18 328.67 182.14 328.84 182.09 329 182.05 329.17 182 329.33 181.95 329.5 181.91 329.67 181.86 329.83 181.81 330 181.76 330.16 181.71 330.33 181.65 330.49 181.6 330.66 181.56 330.79 181.55 330.82 181.49 330.99 181.43 331.15 181.38 331.32 181.32 331.48 181.26 331.64 181.2 331.81 181.14 331.97 181.07 332.14 181.01 332.3 180.95 332.47 180.88 332.63 180.82 332.8 180.75 332.96 180.68 333.12 180.62 333.29 180.55 333.45 180.52 333.51 180.48 333.61 180.41 333.78 180.33 333.94 180.26 334.1 180.18 334.26 180.11 334.43 180.03 334.59 179.96 334.75 179.88 334.91 179.8 335.07 179.72 335.24 179.64 335.4 179.56 335.56 179.47 335.72 179.39 335.88 179.31 336.04 179.3 336.05 179.22 336.2 179.13 336.36 179.04 336.52 178.95 336.68 178.86 336.84 178.77 337 178.68 337.16 178.58 337.32 178.49 337.47 178.39 337.63 178.3 337.79 178.2 337.95 178.1 338.11 178 338.26 177.9 338.42 177.8 338.57 177.8 338.58 177.7 338.73 177.59 338.88 177.49 339.04 177.38 339.19 177.27 339.35 177.16 339.5 177.05 339.65 176.94 339.81 176.83 339.96 176.72 340.11 176.61 340.26 176.49 340.42 176.38 340.57 176.26 340.72 176.14 340.87 176.03 341.02 175.91 341.17 175.9 341.18 175.78 341.32 175.66 341.47 175.54 341.62 175.41 341.76 175.29 341.91 175.16 342.06 175.03 342.2 174.9 342.35 174.77 342.5 174.64 342.64 174.51 342.79 174.38 342.93 174.24 343.07 174.11 343.22 173.97 343.36 173.84 343.5 173.7 343.65 173.56 343.79 173.42 343.93 173.28 344.07 173.14 344.21 172.99 344.35 172.85 344.49 172.71 344.63 172.56 344.77 172.41 344.91 172.26 345.05 172.12 345.19 171.97 345.32 171.81 345.46 171.66 345.6 171.51 345.73 171.35 345.87 171.2 346 171.04 346.13 171 346.17 170.88 346.27 170.72 346.4 170.56 346.53 170.4 346.66 170.24 346.79 170.07 346.92 169.91 347.05 169.74 347.18 169.57 347.31 169.41 347.44 169.24 347.56 169.07 347.69 168.9 347.81 168.72 347.94 168.55 348.07 168.38 348.19 168.2 348.31 168.02 348.44 167.84 348.56 167.67 348.68 167.49 348.8 167.31 348.93 167.12 349.05 166.94 349.17 166.75 349.29 166.57 349.4 166.38 349.52 166.19 349.64 166.01 349.76 165.82 349.87 165.63 349.99 165.43 350.11 165.24 350.22 165.05 350.33 165.05 350.33 164.85 350.45 164.65 350.56 164.45 350.67 164.25 350.78 164.05 350.89 163.85 351 163.65 351.11 163.44 351.21 163.24 351.32 163.03 351.43 162.83 351.53 162.62 351.64 162.41 351.74 162.2 351.85 161.99 351.95 161.77 352.05 161.56 352.15 161.34 352.25 161.13 352.36 160.91 352.45 160.69 352.55 160.47 352.65 160.25 352.75 160.03 352.85 159.8 352.94 159.58 353.04 159.35 353.14 159.13 353.23 158.9 353.32 158.73 353.39 158.67 353.42 158.44 353.51 158.21 353.6 157.97 353.69 157.74 353.77 157.5 353.86 157.27 353.95 157.03 354.04 156.79 354.12 156.55 354.21 156.31 354.29 156.06 354.38 155.82 354.46 155.57 354.54 155.33 354.62 155.08 354.7 154.83 354.78 154.58 354.86 154.33 354.94 154.08 355.02 153.82 355.09 153.57 355.17 153.31 355.25 153.06 355.32 152.8 355.39 152.54 355.47 152.28 355.54 152.01 355.61 151.75 355.68 151.49 355.75 151.22 355.82 150.95 355.89 150.68 355.95 150.41 356.02 150.14 356.09 149.87 356.15 149.6 356.22 149.32 356.28 149.05 356.34 148.77 356.4 148.49 356.47 148.21 356.53 147.93 356.59 147.83 356.61 147.65 356.64 147.36 356.7 147.08 356.75 146.79 356.81 146.5 356.86 146.21 356.92 145.92 356.97 145.63 357.02 145.34 357.07 145.04 357.12 144.75 357.17 144.45 357.21 144.15 357.26 143.85 357.31 143.55 357.35 143.38 357.38 143.25 357.4 143.22 357.38 143.24 357.36 143.37 357.32 143.53 357.27 143.82 357.19 144.12 357.1 144.41 357.02 144.69 356.93 144.98 356.84 145.26 356.75 145.54 356.67 145.83 356.58 146.11 356.49 146.38 356.4 146.66 356.31 146.94 356.21 147.21 356.12 147.48 356.03 147.66 355.97 147.75 355.94 148.02 355.85 148.29 355.75 148.56 355.66 148.82 355.56 149.08 355.47 149.35 355.38 149.61 355.28 149.87 355.18 150.12 355.09 150.38 354.99 150.63 354.89 150.89 354.79 151.14 354.69 151.39 354.59 151.64 354.49 151.89 354.39 152.13 354.29 152.38 354.19 152.62 354.09 152.86 353.98 153.1 353.88 153.34 353.78 153.58 353.67 153.81 353.57 154.05 353.46 154.28 353.36 154.51 353.25 154.74 353.14 154.97 353.03 155.2 352.93 155.42 352.82 155.65 352.71 155.87 352.6 156.09 352.49 156.31 352.38 156.53 352.27 156.75 352.15 156.97 352.04 157.18 351.93 157.4 351.82 157.61 351.7 157.82 351.59 157.88 351.56 158.03 351.48 158.24 351.36 158.45 351.25 158.65 351.14 158.86 351.02 159.06 350.91 159.26 350.79 159.46 350.68 159.66 350.56 159.86 350.44 160.06 350.32 160.25 350.21 160.45 350.09 160.64 349.97 160.83 349.85 161.02 349.73 161.21 349.61 161.4 349.49 161.59 349.37 161.77 349.25 161.96 349.13 162.14 349.01 162.32 348.89 162.5 348.76 162.68 348.64 162.86 348.52 163.03 348.39 163.21 348.27 163.38 348.15 163.56 348.02 163.56 348.02 163.73 347.9 163.9 347.77 164.07 347.65 164.24 347.53 164.41 347.4 164.57 347.27 164.74 347.15 164.9 347.02 165.06 346.9 165.23 346.77 165.39 346.64 165.55 346.52 165.7 346.39 165.86 346.26 166.02 346.13 166.17 346 166.32 345.87 166.48 345.74 166.63 345.62 166.78 345.49 166.93 345.35 167.07 345.22 167.22 345.09 167.37 344.96 167.51 344.83 167.65 344.7 167.79 344.57 167.94 344.43 168.08 344.3 168.22 344.17 168.35 344.04 168.49 343.9 168.62 343.77 168.73 343.67 168.76 343.63 168.89 343.5 169.03 343.37 169.16 343.24 169.29 343.1 169.42 342.97 169.55 342.83 169.68 342.7 169.81 342.56 169.93 342.43 170.06 342.3 170.18 342.16 170.31 342.02 170.43 341.89 170.55 341.75 170.67 341.62 170.79 341.48 170.91 341.34 171.02 341.21 171.14 341.07 171.25 340.93 171.37 340.79 171.48 340.65 171.59 340.52 171.71 340.38 171.81 340.24 171.92 340.1 172.03 339.96 172.14 339.82 172.25 339.68 172.35 339.54 172.46 339.4 172.56 339.26 172.66 339.12 172.76 338.98 172.86 338.85 172.86 338.84 172.97 338.7 173.06 338.56 173.16 338.42 173.26 338.28 173.36 338.14 173.46 338 173.55 337.86 173.65 337.72 173.74 337.58 173.84 337.44 173.93 337.3 174.02 337.16 174.11 337.01 174.2 336.87 174.29 336.73 174.38 336.59 174.46 336.45 174.47 336.44 174.55 336.3 174.64 336.16 174.73 336.02 174.81 335.88 174.9 335.74 174.98 335.59 175.07 335.45 175.15 335.31 175.23 335.17 175.31 335.02 175.39 334.88 175.47 334.74 175.55 334.59 175.63 334.45 175.7 334.31 175.77 334.17 175.78 334.16 175.85 334.02 175.93 333.87 176.01 333.73 176.08 333.59 176.16 333.44 176.23 333.3 176.3 333.16 176.37 333.01 176.44 332.87 176.51 332.72 176.58 332.58 176.65 332.43 176.72 332.29 176.78 332.14 176.85 332 176.89 331.9 176.92 331.85 176.98 331.71 177.05 331.56 177.11 331.42 177.18 331.27 177.24 331.13 177.3 330.98 177.37 330.84 177.43 330.69 177.49 330.54 177.55 330.4 177.61 330.25 177.66 330.11 177.72 329.96 177.78 329.81 177.84 329.67 177.89 329.52 177.9 329.49 177.95 329.37 178 329.23 178.06 329.08 178.11 328.93 178.17 328.79 178.22 328.64 178.27 328.49 178.32 328.35 178.38 328.2 178.43 328.05 178.48 327.9 178.53 327.76 178.57 327.61 178.62 327.46 178.67 327.32 178.72 327.17 178.76 327.02 178.81 326.87 178.85 326.73 178.9 326.58 178.94 326.43 178.98 326.28 179.02 326.13 179.06 325.99 179.1 325.84 179.15 325.69 179.18 325.54 179.22 325.39 179.26 325.24 179.3 325.1 179.34 324.95 179.37 324.8 179.41 324.65 179.44 324.5 179.48 324.35 179.49 324.29 179.51 324.2 179.55 324.06 179.58 323.91 179.62 323.76 179.65 323.61 179.68 323.46 179.72 323.32 179.75 323.17 179.78 323.02 179.81 322.87 179.84 322.72 179.87 322.57 179.9 322.43 179.93 322.28 179.95 322.13 179.98 321.98 180.01 321.83 180.03 321.69 180.06 321.54 180.08 321.39 180.11 321.24 180.13 321.09 180.16 320.95 180.18 320.8 180.2 320.65 180.22 320.5 180.24 320.36 180.26 320.21 180.28 320.06 180.3 319.91 180.32 319.76 180.34 319.62 180.36 319.47 180.38 319.32 180.39 319.18 180.41 319.03 180.42 318.88 180.43 318.78 180.44 318.74 180.46 318.59 180.47 318.44 180.49 318.3 180.5 318.15 180.52 318 180.53 317.86 180.54 317.71 180.56 317.56 180.57 317.42 180.58 317.27 180.59 317.13 180.6 316.98 180.61 316.84 180.62 316.69 180.63 316.55 180.64 316.4 180.65 316.26 180.66 316.11 180.66 315.97 180.67 315.82 180.68 315.68 180.68 315.54 180.69 315.39 180.69 315.25 180.7 315.1 180.7 314.96 180.71 314.82 180.71 314.68 180.71 314.53 180.72 314.39 180.72 314.25 180.72 314.11 180.72 313.96 180.72 313.82 180.72 313.68 180.72 313.54 180.72 313.4 180.72 313.26 180.72 313.2 180.72 313.12 180.72 312.98 180.72 312.84 180.72 312.7 180.72 312.56 180.72 312.42 180.72 312.28 180.71 312.14 180.71 312 180.71 311.86 180.7 311.72 180.7 311.58 180.69 311.45 180.69 311.31 180.69 311.17 180.68 311.03 180.67 310.9 180.67 310.76 180.66 310.63 180.65 310.49 180.65 310.35 180.64 310.22 180.63 310.08 180.61 309.81 180.59 309.55 180.57 309.28 180.55 309.01 180.53 308.75 180.51 308.49 180.48 308.23 180.46 307.96 180.43 307.71 180.4 307.45 180.37 307.19 180.34 306.94 180.3 306.69 180.27 306.44 180.24 306.19 180.2 305.94 180.16 305.69 180.13 305.45 180.09 305.21 180.05 304.96 180.01 304.73 179.97 304.49 179.92 304.25 179.88 304.02 179.84 303.79 179.79 303.56 179.75 303.33 179.7 303.1 179.65 302.88 179.63 302.8 179.6 302.66 179.56 302.44 179.51 302.22 179.46 302 179.41 301.79 179.36 301.58 179.31 301.37 179.26 301.16 179.21 300.95 179.16 300.75 179.11 300.55 179.05 300.35 179 300.16 178.94 299.96 178.89 299.77 178.84 299.58 178.78 299.39 178.72 299.21 178.67 299.03 178.61 298.85 178.56 298.68 178.5 298.5 178.44 298.33 178.38 298.16 178.33 298 178.27 297.83 178.21 297.67 178.15 297.51 178.09 297.36 178.03 297.21 177.98 297.06 177.92 296.91 177.86 296.77 177.8 296.63 177.74 296.49 177.68 296.36 177.63 296.23 177.57 296.1 177.51 295.97 177.45 295.85 177.39 295.73 177.33 295.62 177.28 295.5 177.22 295.39 177.16 295.29 177.1 295.18 177.05 295.08 177 295.01 176.99 294.99 176.94 294.89 177 294.98"/><polygon class="cls-12" points="105.64 295.38 105.6 295.46 105.52 295.63 105.44 295.81 105.36 295.98 105.28 296.16 105.21 296.33 105.13 296.51 105.06 296.69 104.99 296.86 104.92 297.04 104.85 297.21 104.78 297.39 104.71 297.56 104.64 297.74 104.58 297.92 104.52 298.09 104.45 298.27 104.39 298.44 104.33 298.62 104.27 298.8 104.21 298.97 104.16 299.15 104.1 299.33 104.05 299.5 103.99 299.68 103.94 299.86 103.89 300.04 103.84 300.21 103.79 300.39 103.74 300.57 103.69 300.74 103.65 300.92 103.6 301.1 103.6 301.1 103.55 301.28 103.51 301.45 103.46 301.63 103.42 301.81 103.38 301.99 103.34 302.16 103.3 302.34 103.26 302.52 103.22 302.7 103.18 302.88 103.15 303.05 103.11 303.23 103.08 303.41 103.04 303.59 103.01 303.77 102.98 303.95 102.95 304.13 102.92 304.3 102.89 304.48 102.86 304.66 102.83 304.84 102.8 305.02 102.78 305.2 102.75 305.38 102.73 305.56 102.71 305.74 102.69 305.92 102.66 306.1 102.64 306.28 102.62 306.46 102.6 306.64 102.58 306.82 102.57 307 102.55 307.18 102.54 307.36 102.52 307.54 102.51 307.72 102.49 307.9 102.48 308.08 102.47 308.26 102.46 308.44 102.45 308.62 102.44 308.69 102.44 308.8 102.42 308.98 102.41 309.17 102.4 309.35 102.39 309.53 102.38 309.71 102.38 309.89 102.37 310.07 102.36 310.25 102.36 310.43 102.35 310.61 102.34 310.8 102.34 310.98 102.34 311.16 102.33 311.34 102.33 311.52 102.33 311.7 102.33 311.89 102.33 312.07 102.33 312.25 102.33 312.43 102.33 312.62 102.33 312.8 102.33 312.82 102.33 312.98 102.34 313.16 102.34 313.35 102.34 313.53 102.34 313.71 102.34 313.89 102.35 314.08 102.35 314.26 102.36 314.44 102.36 314.63 102.37 314.81 102.38 314.99 102.38 315.18 102.39 315.36 102.4 315.54 102.41 315.73 102.41 315.91 102.42 316.1 102.43 316.28 102.44 316.46 102.45 316.65 102.47 316.83 102.48 317 102.48 317.01 102.49 317.2 102.5 317.38 102.5 317.57 102.52 317.75 102.53 317.94 102.54 318.12 102.55 318.31 102.58 318.89 102.6 319.18 102.62 319.47 102.64 319.76 102.66 320.05 102.69 320.34 102.71 320.63 102.73 320.92 102.75 321.12 102.75 321.21 102.77 321.5 102.78 321.64 102.8 321.78 102.81 321.93 102.82 322.07 102.83 322.21 102.84 322.35 102.86 322.49 102.87 322.63 102.89 322.78 102.9 322.92 102.91 323.06 102.92 323.08 102.93 323.2 102.94 323.34 102.96 323.48 102.97 323.62 102.99 323.76 103 323.9 103.02 324.04 103.03 324.18 103.05 324.31 103.07 324.45 103.09 324.59 103.11 324.73 103.13 324.86 103.14 324.92 103.15 325 103.17 325.13 103.19 325.27 103.21 325.41 103.23 325.54 103.25 325.68 103.27 325.81 103.29 325.94 103.32 326.08 103.34 326.21 103.37 326.34 103.39 326.48 103.42 326.61 103.45 326.74 103.45 326.78 103.47 326.87 103.5 327 103.53 327.13 103.56 327.26 103.6 327.45 103.64 327.63 103.68 327.82 103.73 328 103.77 328.18 103.82 328.36 103.87 328.55 103.92 328.73 103.94 328.83 103.96 328.91 104.01 329.09 104.06 329.27 104.11 329.45 104.16 329.63 104.21 329.81 104.26 329.99 104.31 330.17 104.36 330.35 104.42 330.53 104.47 330.71 104.53 330.88 104.59 331.06 104.65 331.24 104.7 331.42 104.76 331.59 104.82 331.77 104.89 331.95 104.95 332.13 105.01 332.3 105.07 332.48 105.14 332.65 105.2 332.83 105.27 333.01 105.34 333.18 105.38 333.31 105.4 333.36 105.47 333.54 105.53 333.71 105.6 333.89 105.67 334.07 105.74 334.25 105.81 334.42 105.87 334.6 105.94 334.78 106.02 334.95 106.09 335.13 106.16 335.31 106.23 335.49 106.31 335.66 106.38 335.84 106.45 336.02 106.53 336.2 106.6 336.38 106.68 336.55 106.76 336.73 106.83 336.91 106.91 337.09 106.99 337.27 107.15 337.63 107.31 337.99 107.31 338 107.46 338.35 107.62 338.71 107.72 338.94 107.83 339.17 107.93 339.4 108.03 339.63 108.14 339.86 108.24 340.08 108.34 340.31 108.45 340.54 108.55 340.76 108.66 340.98 108.77 341.2 108.88 341.43 108.98 341.65 109.09 341.87 109.2 342.08 109.32 342.3 109.42 342.5 109.43 342.52 109.54 342.74 109.65 342.95 109.71 343.06 109.77 343.17 109.82 343.27 109.88 343.38 109.94 343.49 110 343.59 110.06 343.7 110.11 343.8 110.17 343.91 110.23 344.01 110.29 344.12 110.35 344.22 110.41 344.33 110.47 344.43 110.53 344.54 110.59 344.64 110.66 344.74 110.72 344.85 110.78 344.95 110.84 345.05 110.91 345.15 110.97 345.26 111.04 345.36 111.1 345.46 111.17 345.56 111.23 345.66 111.3 345.76 111.36 345.86 111.43 345.96 111.5 346.06 111.56 346.16 111.63 346.26 111.7 346.36 111.77 346.46 111.84 346.56 111.91 346.65 111.98 346.75 112.05 346.85 112.12 346.95 112.19 347.04 112.26 347.14 112.33 347.24 112.41 347.33 112.48 347.43 112.55 347.52 112.63 347.62 112.7 347.71 112.78 347.81 112.86 347.9 112.93 347.99 113.01 348.09 113.09 348.18 113.17 348.27 113.24 348.36 113.32 348.45 113.4 348.55 113.48 348.64 113.56 348.73 113.65 348.82 113.73 348.91 113.81 349 113.9 349.09 113.98 349.18 113.98 349.18 114.06 349.27 114.15 349.36 114.23 349.45 114.32 349.54 114.41 349.62 114.5 349.71 114.58 349.8 114.67 349.89 114.76 349.97 114.85 350.06 114.94 350.14 115.03 350.23 115.13 350.32 115.22 350.4 115.31 350.49 115.41 350.57 115.5 350.65 115.6 350.74 115.69 350.82 115.79 350.9 115.89 350.99 115.99 351.07 116.09 351.15 116.19 351.23 116.29 351.31 116.39 351.39 116.41 351.41 116.49 351.47 116.5 351.51 116.47 351.51 116.38 351.46 116.35 351.45 116.24 351.39 116.12 351.32 116.01 351.26 115.9 351.2 115.78 351.14 115.67 351.07 115.56 351.01 115.45 350.94 115.34 350.88 115.23 350.81 115.12 350.74 115.01 350.68 114.9 350.61 114.79 350.54 114.69 350.47 114.58 350.4 114.47 350.33 114.37 350.26 114.26 350.19 114.16 350.12 114.05 350.04 113.95 349.97 113.85 349.9 113.74 349.82 113.64 349.75 113.55 349.68 113.54 349.67 113.44 349.6 113.34 349.52 113.24 349.44 113.14 349.36 113.04 349.29 112.94 349.21 112.85 349.13 112.75 349.05 112.65 348.97 112.56 348.88 112.46 348.8 112.36 348.72 112.27 348.64 112.17 348.56 112.08 348.47 111.99 348.39 111.89 348.31 111.8 348.22 111.71 348.13 111.62 348.05 111.53 347.96 111.43 347.88 111.34 347.79 111.25 347.7 111.16 347.61 111.07 347.53 110.98 347.44 110.9 347.35 110.81 347.26 110.72 347.17 110.63 347.08 110.55 346.99 110.46 346.9 110.37 346.8 110.29 346.71 110.2 346.62 110.12 346.53 110.03 346.43 109.95 346.34 109.86 346.25 109.78 346.15 109.69 346.06 109.61 345.96 109.53 345.87 109.45 345.77 109.36 345.68 109.28 345.58 109.2 345.48 109.12 345.38 109.04 345.29 108.96 345.19 108.88 345.09 108.8 344.99 108.72 344.89 108.64 344.8 108.56 344.7 108.48 344.6 108.41 344.5 108.33 344.4 108.25 344.3 108.17 344.19 108.09 344.09 108.02 343.99 107.86 343.79 107.71 343.58 107.7 343.57 107.56 343.38 107.42 343.17 107.27 342.96 107.12 342.75 106.98 342.54 106.83 342.32 106.69 342.11 106.55 341.9 106.41 341.69 106.26 341.47 106.12 341.25 105.98 341.04 105.84 340.82 105.7 340.6 105.57 340.38 105.43 340.16 105.29 339.94 105.08 339.6 104.87 339.27 104.87 339.26 104.66 338.92 104.45 338.57 104.35 338.4 104.25 338.23 104.15 338.05 104.05 337.88 103.95 337.71 103.85 337.53 103.75 337.36 103.65 337.19 103.55 337.01 103.45 336.84 103.35 336.66 103.26 336.49 103.16 336.31 103.06 336.14 102.97 335.96 102.87 335.79 102.78 335.61 102.68 335.43 102.59 335.25 102.5 335.08 102.4 334.9 102.31 334.72 102.28 334.67 102.22 334.54 102.13 334.36 102.05 334.18 101.96 334 101.87 333.81 101.79 333.63 101.7 333.45 101.62 333.26 101.54 333.08 101.45 332.89 101.37 332.71 101.29 332.52 101.21 332.33 101.13 332.15 101.05 331.96 100.97 331.77 100.9 331.58 100.82 331.39 100.74 331.2 100.67 331 100.59 330.81 100.52 330.62 100.45 330.43 100.38 330.23 100.31 330.03 100.28 329.95 100.24 329.84 100.18 329.64 100.11 329.44 100.05 329.24 99.99 329.04 99.92 328.84 99.86 328.63 99.81 328.43 99.75 328.23 99.7 328.07 99.66 327.92 99.62 327.76 99.6 327.65 99.58 327.61 99.55 327.45 99.51 327.29 99.48 327.14 99.45 326.98 99.41 326.82 99.38 326.67 99.35 326.51 99.32 326.36 99.3 326.2 99.27 326.04 99.24 325.89 99.22 325.73 99.19 325.57 99.18 325.49 99.17 325.42 99.15 325.26 99.13 325.11 99.11 324.95 99.09 324.79 99.08 324.64 99.06 324.48 99.04 324.32 99.03 324.17 99.01 324.01 99 323.86 98.98 323.7 98.97 323.55 98.96 323.41 98.96 323.39 98.95 323.24 98.94 323.08 98.93 322.93 98.92 322.77 98.92 322.62 98.91 322.46 98.9 322.31 98.9 322.16 98.89 322 98.89 321.85 98.88 321.69 98.87 321.39 98.87 321.3 98.87 321.09 98.87 320.78 98.87 320.48 98.87 320.18 98.87 319.88 98.87 319.58 98.88 319.28 98.88 318.98 98.89 318.39 98.89 318.2 98.89 318.01 98.9 317.81 98.9 317.62 98.91 317.43 98.91 317.24 98.92 317.04 98.92 317.02 98.93 316.85 98.94 316.66 98.95 316.46 98.96 316.27 98.97 316.08 98.98 315.88 98.99 315.69 99.01 315.5 99.02 315.31 99.03 315.12 99.05 314.92 99.06 314.73 99.08 314.54 99.09 314.35 99.11 314.15 99.13 313.96 99.14 313.77 99.16 313.58 99.18 313.39 99.2 313.2 99.22 313 99.24 312.81 99.26 312.64 99.26 312.62 99.29 312.43 99.31 312.24 99.34 312.05 99.36 311.86 99.39 311.67 99.42 311.48 99.45 311.29 99.48 311.1 99.5 310.91 99.53 310.72 99.57 310.53 99.6 310.34 99.63 310.15 99.66 309.96 99.7 309.77 99.73 309.59 99.77 309.4 99.8 309.21 99.84 309.02 99.87 308.83 99.91 308.65 99.95 308.46 99.97 308.35 99.99 308.27 100.03 308.09 100.08 307.9 100.12 307.71 100.17 307.53 100.21 307.34 100.26 307.16 100.31 306.97 100.35 306.79 100.4 306.6 100.45 306.42 100.5 306.24 100.55 306.05 100.61 305.87 100.66 305.69 100.71 305.5 100.77 305.32 100.82 305.14 100.88 304.96 100.93 304.78 100.99 304.6 101.05 304.42 101.11 304.24 101.17 304.06 101.23 303.88 101.29 303.69 101.36 303.52 101.42 303.34 101.49 303.16 101.55 302.98 101.62 302.8 101.69 302.63 101.75 302.45 101.82 302.27 101.89 302.1 101.96 301.92 102.04 301.75 102.11 301.57 102.18 301.4 102.26 301.22 102.33 301.05 102.41 300.88 102.49 300.7 102.49 300.7 102.57 300.53 102.65 300.36 102.73 300.19 102.82 300.02 102.9 299.85 102.99 299.68 103.07 299.51 103.16 299.34 103.25 299.17 103.34 299 103.43 298.84 103.52 298.67 103.61 298.5 103.71 298.34 103.8 298.17 103.9 298.01 103.99 297.84 104.09 297.68 104.19 297.52 104.29 297.35 104.39 297.19 104.49 297.03 104.59 296.87 104.7 296.71 104.8 296.55 104.91 296.39 105.02 296.23 105.13 296.07 105.23 295.91 105.34 295.75 105.46 295.6 105.57 295.44 105.62 295.37 105.68 295.29 105.64 295.38"/><polygon class="cls-12" points="180.43 297.76 180.62 298.4 180.85 299.17 180.97 299.57 181.09 299.97 181.21 300.38 181.33 300.8 181.45 301.21 181.57 301.64 181.7 302.06 181.82 302.5 181.94 302.94 182 303.16 182.06 303.38 182.12 303.6 182.19 303.83 182.25 304.05 182.31 304.28 182.37 304.51 182.43 304.74 182.49 304.97 182.53 305.15 182.54 305.2 182.6 305.43 182.66 305.67 182.72 305.9 182.77 306.14 182.83 306.38 182.88 306.61 182.94 306.85 182.99 307.09 183.05 307.33 183.1 307.58 183.15 307.82 183.21 308.06 183.26 308.31 183.31 308.56 183.36 308.8 183.41 309.05 183.46 309.3 183.51 309.55 183.56 309.8 183.61 310.05 183.66 310.31 183.7 310.56 183.75 310.81 183.79 311.07 183.84 311.32 183.88 311.58 183.93 311.84 183.97 312.1 184.01 312.36 184.05 312.62 184.09 312.88 184.13 313.14 184.17 313.4 184.2 313.67 184.24 313.93 184.28 314.19 184.31 314.46 184.34 314.73 184.37 314.93 184.37 314.99 184.4 315.26 184.43 315.53 184.45 315.8 184.48 316.07 184.5 316.34 184.52 316.61 184.54 316.88 184.56 317.15 184.58 317.43 184.6 317.7 184.62 317.97 184.63 318.25 184.64 318.52 184.66 318.8 184.67 319.07 184.68 319.35 184.68 319.63 184.69 319.9 184.69 320.18 184.7 320.35 184.7 320.46 184.7 320.74 184.69 321.02 184.69 321.16 184.69 321.3 184.69 321.44 184.68 321.58 184.68 321.72 184.68 321.86 184.67 322 184.67 322.14 184.66 322.28 184.66 322.42 184.65 322.56 184.65 322.7 184.64 322.85 184.63 322.99 184.62 323.13 184.62 323.27 184.61 323.41 184.6 323.55 184.59 323.69 184.58 323.83 184.57 323.98 184.56 324.12 184.55 324.26 184.54 324.4 184.52 324.54 184.51 324.69 184.5 324.83 184.49 324.97 184.47 325.11 184.46 325.25 184.44 325.4 184.43 325.54 184.41 325.68 184.4 325.82 184.39 325.89 184.38 325.97 184.36 326.11 184.34 326.25 184.32 326.39 184.3 326.54 184.28 326.68 184.26 326.82 184.23 326.96 184.21 327.11 184.19 327.25 184.16 327.39 184.14 327.53 184.12 327.68 184.09 327.82 184.06 327.96 184.04 328.1 184.01 328.25 183.99 328.39 183.96 328.53 183.93 328.68 183.9 328.82 183.87 328.96 183.84 329.1 183.81 329.25 183.78 329.39 183.75 329.53 183.72 329.67 183.68 329.82 183.65 329.96 183.62 330.1 183.58 330.25 183.55 330.39 183.51 330.53 183.47 330.67 183.44 330.82 183.4 330.96 183.36 331.1 183.32 331.24 183.31 331.29 183.28 331.39 183.24 331.53 183.2 331.67 183.16 331.81 183.12 331.95 183.07 332.1 183.03 332.24 182.98 332.38 182.94 332.52 182.89 332.66 182.84 332.81 182.8 332.95 182.75 333.09 182.7 333.23 182.65 333.37 182.6 333.51 182.55 333.65 182.5 333.8 182.48 333.85 182.45 333.94 182.39 334.08 182.34 334.22 182.28 334.36 182.23 334.5 182.17 334.64 182.11 334.78 182.06 334.92 182 335.06 181.94 335.2 181.88 335.34 181.82 335.48 181.76 335.61 181.69 335.75 181.63 335.89 181.57 336.03 181.51 336.17 181.47 336.25 181.44 336.31 181.37 336.45 181.31 336.58 181.24 336.72 181.17 336.86 181.1 337 181.03 337.13 180.96 337.27 180.89 337.41 180.81 337.54 180.74 337.68 180.67 337.82 180.59 337.95 180.52 338.09 180.44 338.22 180.36 338.36 180.29 338.49 180.21 338.63 180.19 338.65 180.13 338.76 180.05 338.9 179.97 339.03 179.88 339.16 179.8 339.3 179.71 339.43 179.63 339.56 179.54 339.69 179.46 339.83 179.37 339.96 179.28 340.09 179.19 340.22 179.1 340.36 179.02 340.49 178.93 340.62 178.83 340.75 178.74 340.88 178.65 341.01 178.56 341.14 178.55 341.14 178.46 341.27 178.36 341.39 178.26 341.52 178.17 341.65 178.07 341.78 177.97 341.91 177.87 342.03 177.77 342.16 177.66 342.29 177.56 342.41 177.46 342.54 177.35 342.66 177.25 342.79 177.14 342.91 177.04 343.04 176.93 343.16 176.82 343.29 176.71 343.41 176.6 343.53 176.49 343.66 176.38 343.78 176.27 343.9 176.16 344.02 176.04 344.15 175.93 344.27 175.81 344.39 175.7 344.51 175.58 344.63 175.46 344.75 175.34 344.87 175.23 344.99 175.11 345.11 174.99 345.23 174.87 345.35 174.74 345.47 174.62 345.59 174.5 345.7 174.37 345.82 174.25 345.94 174.23 345.95 174.12 346.05 173.99 346.17 173.86 346.28 173.73 346.4 173.6 346.51 173.47 346.63 173.34 346.74 173.2 346.85 173.07 346.96 172.94 347.08 172.8 347.19 172.66 347.3 172.53 347.41 172.39 347.52 172.25 347.63 172.11 347.74 171.97 347.85 171.83 347.96 171.69 348.07 171.54 348.18 171.4 348.28 171.25 348.39 171.11 348.5 170.96 348.6 170.82 348.71 170.67 348.82 170.52 348.92 170.37 349.03 170.22 349.13 170.07 349.24 169.92 349.34 169.76 349.44 169.61 349.55 169.46 349.65 169.3 349.75 169.14 349.85 168.99 349.95 168.88 350.02 168.83 350.05 168.67 350.15 168.51 350.25 168.35 350.35 168.19 350.45 168.02 350.55 167.86 350.64 167.69 350.74 167.53 350.83 167.36 350.93 167.19 351.03 167.03 351.12 166.86 351.21 166.69 351.31 166.51 351.4 166.34 351.5 166.17 351.59 166 351.68 165.82 351.77 165.65 351.86 165.47 351.95 165.29 352.04 165.12 352.13 164.94 352.22 164.76 352.31 164.58 352.4 164.4 352.49 164.21 352.58 164.03 352.66 163.84 352.75 163.66 352.84 163.47 352.92 163.29 353.01 163.16 353.06 163.1 353.09 162.91 353.17 162.72 353.25 162.53 353.34 162.34 353.42 162.14 353.5 161.95 353.58 161.75 353.66 161.56 353.74 161.36 353.82 161.16 353.9 160.97 353.97 160.76 354.05 160.56 354.13 160.36 354.2 160.16 354.28 159.96 354.36 159.75 354.43 159.55 354.5 159.34 354.58 159.13 354.65 158.93 354.72 158.72 354.8 158.51 354.87 158.3 354.94 158.09 355.01 157.87 355.08 157.66 355.15 157.44 355.22 157.23 355.29 157.01 355.35 156.79 355.42 156.58 355.49 156.36 355.56 156.14 355.62 155.91 355.69 155.69 355.75 155.47 355.81 155.25 355.88 155.02 355.94 154.79 356 154.57 356.07 154.34 356.13 154.11 356.19 153.88 356.25 153.65 356.31 153.41 356.37 153.24 356.41 153.18 356.43 152.95 356.49 152.71 356.54 152.47 356.6 152.24 356.65 152 356.71 151.76 356.76 151.52 356.81 151.27 356.87 151.03 356.92 150.79 356.97 150.54 357.02 150.3 357.07 150.05 357.12 149.8 357.17 149.55 357.22 149.3 357.27 149.17 357.29 149.05 357.32 149.02 357.3 149.04 357.28 149.16 357.24 149.28 357.19 149.52 357.11 149.76 357.02 150 356.94 150.24 356.86 150.47 356.77 150.7 356.68 150.94 356.6 151.17 356.51 151.4 356.43 151.63 356.34 151.86 356.25 152.09 356.16 152.31 356.07 152.53 355.99 152.76 355.9 152.98 355.81 153.04 355.79 153.2 355.72 153.42 355.63 153.64 355.54 153.86 355.45 154.08 355.36 154.29 355.27 154.51 355.18 154.72 355.09 154.93 355 155.15 354.91 155.35 354.82 155.56 354.73 155.77 354.63 155.98 354.54 156.18 354.45 156.39 354.35 156.59 354.26 156.79 354.17 156.99 354.07 157.19 353.98 157.39 353.88 157.59 353.79 157.79 353.69 157.98 353.6 158.18 353.5 158.37 353.4 158.56 353.31 158.75 353.21 158.94 353.11 159.13 353.01 159.32 352.91 159.5 352.81 159.69 352.72 159.88 352.62 160.06 352.52 160.24 352.42 160.42 352.32 160.6 352.22 160.78 352.12 160.96 352.02 161.13 351.92 161.31 351.81 161.49 351.71 161.66 351.61 161.83 351.51 162 351.4 162.17 351.3 162.23 351.27 162.34 351.2 162.51 351.1 162.68 351 162.85 350.89 163.01 350.79 163.18 350.69 163.34 350.58 163.5 350.48 163.67 350.38 163.83 350.27 163.99 350.17 164.15 350.06 164.3 349.96 164.46 349.85 164.62 349.75 164.77 349.64 164.92 349.54 165.08 349.43 165.23 349.32 165.38 349.22 165.53 349.11 165.68 349 165.82 348.9 165.97 348.79 166.12 348.68 166.26 348.57 166.41 348.46 166.55 348.36 166.69 348.25 166.83 348.14 166.97 348.03 167.11 347.92 167.25 347.81 167.29 347.77 167.39 347.7 167.52 347.59 167.66 347.48 167.79 347.38 167.93 347.26 168.06 347.16 168.19 347.05 168.33 346.94 168.46 346.82 168.59 346.71 168.72 346.6 168.84 346.49 168.97 346.38 169.09 346.27 169.22 346.16 169.34 346.05 169.47 345.94 169.59 345.82 169.71 345.71 169.83 345.6 169.95 345.49 170.07 345.37 170.19 345.26 170.31 345.15 170.42 345.03 170.54 344.92 170.65 344.81 170.76 344.69 170.88 344.58 170.99 344.46 171.1 344.35 171.21 344.23 171.32 344.12 171.43 344 171.54 343.89 171.64 343.77 171.75 343.66 171.84 343.56 171.85 343.54 171.96 343.43 172.07 343.31 172.17 343.2 172.27 343.08 172.38 342.97 172.48 342.85 172.58 342.74 172.68 342.62 172.78 342.5 172.88 342.39 172.97 342.27 173.07 342.16 173.17 342.04 173.26 341.92 173.36 341.81 173.45 341.69 173.54 341.57 173.64 341.45 173.73 341.34 173.82 341.22 173.91 341.1 174 340.99 174.09 340.87 174.17 340.75 174.26 340.63 174.35 340.51 174.43 340.39 174.52 340.27 174.6 340.15 174.69 340.04 174.77 339.92 174.85 339.8 174.93 339.68 175.01 339.56 175.09 339.44 175.17 339.32 175.25 339.2 175.33 339.08 175.4 338.96 175.4 338.96 175.48 338.84 175.56 338.72 175.63 338.6 175.71 338.48 175.79 338.36 175.86 338.24 175.94 338.12 176.01 338 176.08 337.88 176.15 337.76 176.22 337.64 176.29 337.52 176.36 337.4 176.43 337.28 176.5 337.15 176.57 337.03 176.64 336.91 176.7 336.79 176.76 336.69 176.77 336.67 176.84 336.55 176.9 336.43 176.97 336.31 177.03 336.19 177.1 336.06 177.16 335.94 177.23 335.82 177.29 335.7 177.35 335.58 177.41 335.45 177.47 335.33 177.53 335.21 177.59 335.09 177.65 334.96 177.71 334.84 177.77 334.72 177.83 334.6 177.85 334.55 177.88 334.47 177.94 334.35 178 334.23 178.06 334.11 178.11 333.98 178.17 333.86 178.22 333.74 178.28 333.61 178.33 333.49 178.39 333.37 178.44 333.24 178.49 333.12 178.54 333 178.6 332.87 178.65 332.75 178.7 332.62 178.75 332.5 178.78 332.42 178.8 332.37 178.85 332.25 178.9 332.13 178.94 332 178.99 331.88 179.04 331.75 179.09 331.63 179.13 331.5 179.18 331.38 179.23 331.25 179.27 331.13 179.32 331 179.36 330.88 179.4 330.75 179.45 330.62 179.49 330.5 179.53 330.37 179.57 330.25 179.6 330.16 179.61 330.12 179.66 330 179.7 329.87 179.74 329.74 179.78 329.62 179.82 329.49 179.86 329.36 179.9 329.24 179.94 329.11 179.98 328.98 180.01 328.86 180.05 328.73 180.09 328.6 180.13 328.48 180.16 328.35 180.2 328.22 180.23 328.09 180.27 327.97 180.3 327.84 180.34 327.71 180.37 327.58 180.4 327.45 180.43 327.33 180.46 327.2 180.5 327.07 180.53 326.94 180.56 326.81 180.59 326.69 180.62 326.56 180.65 326.43 180.67 326.3 180.7 326.17 180.73 326.04 180.76 325.91 180.78 325.78 180.81 325.65 180.84 325.52 180.86 325.4 180.88 325.33 180.89 325.27 180.91 325.14 180.94 325.01 180.97 324.88 180.99 324.75 181.02 324.62 181.04 324.49 181.06 324.36 181.09 324.23 181.11 324.1 181.13 323.97 181.16 323.84 181.18 323.71 181.2 323.58 181.22 323.45 181.24 323.32 181.26 323.19 181.28 323.06 181.3 322.93 181.32 322.8 181.34 322.67 181.36 322.54 181.38 322.41 181.39 322.28 181.41 322.15 181.43 322.02 181.44 321.89 181.46 321.76 181.47 321.63 181.49 321.5 181.5 321.37 181.52 321.24 181.53 321.11 181.55 320.98 181.56 320.85 181.59 320.59 181.61 320.32 181.62 320.22 181.64 320.06 181.66 319.8 181.68 319.54 181.71 319.28 181.72 319.02 181.74 318.76 181.76 318.5 181.78 318.24 181.79 317.98 181.81 317.72 181.82 317.46 181.83 317.2 181.84 316.94 181.85 316.68 181.86 316.42 181.86 316.16 181.87 315.9 181.87 315.64 181.88 315.38 181.88 315.12 181.88 315.06 181.88 314.86 181.88 314.6 181.88 314.35 181.88 314.09 181.88 313.83 181.88 313.57 181.88 313.32 181.88 313.06 181.87 312.81 181.87 312.55 181.86 312.3 181.85 312.04 181.84 311.79 181.84 311.54 181.83 311.28 181.82 311.03 181.8 310.78 181.79 310.53 181.78 310.28 181.76 310.03 181.75 309.78 181.73 309.53 181.72 309.28 181.7 309.03 181.68 308.78 181.66 308.54 181.65 308.29 181.63 308.05 181.61 307.8 181.59 307.56 181.56 307.32 181.54 307.08 181.52 306.83 181.5 306.6 181.47 306.36 181.45 306.12 181.43 305.88 181.4 305.64 181.38 305.41 181.37 305.36 181.35 305.17 181.33 304.94 181.3 304.7 181.28 304.47 181.25 304.24 181.23 304.01 181.2 303.78 181.18 303.55 181.15 303.32 181.12 303.1 181.07 302.65 181.01 302.2 180.96 301.76 180.9 301.33 180.84 300.9 180.79 300.47 180.73 300.05 180.67 299.64 180.62 299.23 180.5 298.42 180.41 297.76 180.4 297.64 180.43 297.76"/><path class="cls-12" d="M255.06,239.8c-4.26-4.26-12.52-.32-13.7,4.4-1,3.92,1.08,9.82,6.65,9.78C254.46,253.92,259,243.76,255.06,239.8Z"/><path class="cls-13" d="M255.06,239.8c-4.26-4.26-12.52-.32-13.7,4.4-1,3.92,1.08,9.82,6.65,9.78C254.46,253.92,259,243.76,255.06,239.8Z"/><path class="cls-4" d="M175.26,273.87c0-.27-.2.52-.26.79-.19.87-.35,1.75-.48,2.63-.32,2.21-.48,4.45-.62,6.67-.49,7.57,1.11,12.63,4.12,19.39"/><polygon points="395.25 143.83 395.25 131.16 390.52 131.16 390.52 129.47 401.9 129.47 401.9 131.16 397.15 131.16 397.15 143.83 395.25 143.83"/><path d="M402.44,147.83l-.2-1.65a4.11,4.11,0,0,0,1,.15,1.94,1.94,0,0,0,.94-.19,1.61,1.61,0,0,0,.58-.55,9,9,0,0,0,.54-1.31c0-.1.08-.24.15-.43l-3.94-10.43h1.9l2.16,6c.28.76.53,1.57.76,2.41a23.21,23.21,0,0,1,.72-2.37l2.22-6.07h1.77l-4,10.58a19.21,19.21,0,0,1-1,2.36,3.42,3.42,0,0,1-1.08,1.28,2.53,2.53,0,0,1-1.45.41A3.36,3.36,0,0,1,402.44,147.83Z"/><path d="M414.14,138.68a4.54,4.54,0,0,0,.81,3,2.51,2.51,0,0,0,2,1,2.56,2.56,0,0,0,2-1,4.78,4.78,0,0,0,.83-3.08,4.63,4.63,0,0,0-.81-3,2.48,2.48,0,0,0-2-1,2.54,2.54,0,0,0-2,1.05A4.73,4.73,0,0,0,414.14,138.68Zm-1.59,9.13V133.42h1.6v1.36a4,4,0,0,1,1.28-1.19,3.5,3.5,0,0,1,1.74-.4,4.09,4.09,0,0,1,2.35.69,4.2,4.2,0,0,1,1.54,1.93,7.15,7.15,0,0,1,.52,2.74,6.81,6.81,0,0,1-.58,2.87,4.28,4.28,0,0,1-1.66,2,4.33,4.33,0,0,1-2.3.68,3.29,3.29,0,0,1-1.58-.37,3.57,3.57,0,0,1-1.15-.94v5.06Z"/><rect x="429.82" y="129.47" width="1.9" height="14.36"/><rect x="435.4" y="129.47" width="1.9" height="14.36"/><rect x="440.97" y="129.47" width="1.9" height="14.36"/><line class="cls-14" x1="355.2" y1="138.99" x2="351.43" y2="84.84"/><polygon class="cls-10" points="351.49 84.94 357.22 94.1 361.37 101.24 362.87 104.14 363.63 106.09 356.43 106.59 356.29 109.17 356.38 112.65 356.67 116.8 357.09 121.36 358.16 130.7 359.15 138.45 359.19 138.71 359.19 138.71 359.05 140.27 358.31 141.6 357.08 142.54 355.48 142.97 355.47 142.97 353.83 142.77 352.48 142 351.56 140.79 351.21 139.27 351.21 139.26 351.21 139 351.12 131.19 350.88 121.79 350.67 117.22 350.38 113.07 349.99 109.61 349.49 107.08 342.29 107.58 342.77 105.54 343.85 102.46 346.98 94.82 351.38 84.94 351.43 84.84 351.49 84.94"/><line class="cls-14" x1="355.2" y1="138.99" x2="383.68" y2="135.78"/><polygon class="cls-10" points="372.03 126.96 373.75 128.06 378.04 131.25 383.61 135.73 383.68 135.78 383.63 135.85 379.19 141.45 375.71 145.51 374.28 146.97 373.3 147.71 372.5 140.54 371.12 140.38 369.27 140.44 367.09 140.68 364.71 141.05 359.82 142.02 355.78 142.93 355.65 142.96 355.64 142.96 354.09 142.96 352.73 142.29 351.73 141.08 351.23 139.44 351.23 139.43 351.35 137.72 352.06 136.31 353.23 135.36 354.75 135.02 354.75 135.02 354.89 135.02 359.03 135.01 364.01 134.86 366.42 134.7 368.6 134.45 370.41 134.1 371.72 133.63 370.91 126.46 372.03 126.96"/><line class="cls-14" x1="1.9" y1="165.72" x2="344.29" y2="140.06"/><line class="cls-15" x1="1.9" y1="165.72" x2="344.29" y2="140.06"/><polygon points="368.37 95.06 368.37 82.4 363.64 82.4 363.64 80.7 375.02 80.7 375.02 82.4 370.27 82.4 370.27 95.06 368.37 95.06"/><path d="M375.56,99.07l-.2-1.66a3.74,3.74,0,0,0,1,.16,1.94,1.94,0,0,0,.94-.19,1.7,1.7,0,0,0,.58-.55,9.29,9.29,0,0,0,.54-1.32c0-.09.08-.24.15-.43l-3.94-10.42h1.9l2.16,6c.28.76.53,1.56.76,2.41a22.47,22.47,0,0,1,.72-2.37l2.22-6.07h1.77l-4,10.58a19.21,19.21,0,0,1-1,2.36,3.42,3.42,0,0,1-1.08,1.28,2.53,2.53,0,0,1-1.45.41A3.62,3.62,0,0,1,375.56,99.07Z"/><path d="M387.26,89.92a4.48,4.48,0,0,0,.82,3,2.47,2.47,0,0,0,2,1,2.56,2.56,0,0,0,2-1,4.79,4.79,0,0,0,.83-3.09,4.62,4.62,0,0,0-.81-3,2.48,2.48,0,0,0-2-1,2.54,2.54,0,0,0-2,1A4.69,4.69,0,0,0,387.26,89.92Zm-1.59,9.13V84.66h1.6V86a4.08,4.08,0,0,1,1.28-1.19,3.61,3.61,0,0,1,1.74-.39,4.16,4.16,0,0,1,2.35.68,4.22,4.22,0,0,1,1.54,1.94,7.14,7.14,0,0,1,.52,2.73,6.83,6.83,0,0,1-.58,2.88,4.34,4.34,0,0,1-4,2.64,3.41,3.41,0,0,1-1.58-.37,3.7,3.7,0,0,1-1.15-.94v5.06Z"/><path d="M406.72,95.06l-5.56-14.35h2.06L407,91.14c.3.83.55,1.62.75,2.35.22-.79.48-1.57.78-2.35l3.88-10.43h1.94l-5.63,14.35Z"/></g></svg>