<?xml version="1.0" encoding="UTF-8" standalone="no"?>
<!DOCTYPE svg PUBLIC "-//W3C//DTD SVG 1.1//EN" "http://www.w3.org/Graphics/SVG/1.1/DTD/svg11.dtd">
<svg width="100%" height="100%" viewBox="0 0 1642 392" version="1.1" xmlns="http://www.w3.org/2000/svg" xmlns:xlink="http://www.w3.org/1999/xlink" xml:space="preserve" xmlns:serif="http://www.serif.com/" style="fill-rule:evenodd;clip-rule:evenodd;stroke-linejoin:round;stroke-miterlimit:2;">
    <g transform="matrix(4.16667,0,0,4.16667,0,0)">
        <path d="M69.485,20.821C69.485,31.767 60.611,40.641 49.665,40.641C38.718,40.641 29.844,31.767 29.844,20.821C29.844,9.875 38.718,1 49.665,1C60.611,1 69.485,9.875 69.485,20.821Z" style="fill:rgb(118,126,131);fill-rule:nonzero;"/>
        <path d="M61.081,87.689L58.628,90.142C53.597,95.171 45.365,95.171 40.334,90.142L4.943,54.751C-0.086,49.72 -0.086,41.488 4.943,36.457L7.396,34.004C12.427,28.974 20.659,28.974 25.69,34.004L61.081,69.395C66.111,74.425 66.111,82.659 61.081,87.689Z" style="fill:rgb(0,143,203);fill-rule:nonzero;"/>
        <path d="M65.633,64.535L63.552,62.453C58.521,57.421 58.521,49.189 63.552,44.159L73.203,34.507C78.234,29.476 86.466,29.476 91.497,34.507L93.579,36.588C98.61,41.62 98.61,49.852 93.579,54.883L83.927,64.535C78.897,69.565 70.664,69.565 65.633,64.535Z" style="fill:rgb(0,143,203);fill-rule:nonzero;"/>
        <path d="M115.198,8.163C108.622,8.163 104.446,12.579 104.446,18.051C104.446,28.899 119.038,28.851 119.038,34.659C119.038,36.339 118.174,37.155 115.726,37.155C113.758,37.155 111.406,35.907 110.446,33.075L103.966,35.283C105.31,40.611 110.302,43.923 115.822,43.923C122.734,43.923 127.198,40.179 127.198,33.603C127.198,22.611 113.086,22.227 113.086,17.523C113.086,15.891 114.046,15.027 116.254,15.027C118.414,15.027 120.046,16.131 121.006,18.771L126.91,16.131C124.99,11.331 121.39,8.163 115.198,8.163Z" style="fill:rgb(0,143,203);fill-rule:nonzero;"/>
        <path d="M142.413,8.163C134.205,8.163 129.741,13.107 129.741,20.691L129.741,31.395C129.741,38.979 134.205,43.923 142.413,43.923C150.669,43.923 155.133,38.979 155.133,31.395L155.133,20.691C155.133,13.107 150.669,8.163 142.413,8.163ZM146.397,31.395C146.397,35.523 145.245,36.963 142.413,36.963C139.629,36.963 138.477,35.523 138.477,31.395L138.477,20.691C138.477,16.707 139.677,15.363 142.413,15.363C145.245,15.363 146.397,16.755 146.397,20.691L146.397,31.395ZM135.453,1.395L135.453,7.251L140.973,7.251L140.973,1.395L135.453,1.395ZM143.949,1.395L143.949,7.251L149.517,7.251L149.517,1.395L143.949,1.395Z" style="fill:rgb(0,143,203);fill-rule:nonzero;"/>
        <path d="M159.501,8.643L159.501,43.443L172.173,43.443C180.285,43.443 184.941,38.451 184.941,30.771L184.941,21.219C184.941,13.587 180.285,8.643 172.173,8.643L159.501,8.643ZM176.205,21.651L176.205,30.531C176.205,35.043 175.005,36.339 172.173,36.339L168.285,36.339L168.285,15.987L172.173,15.987C175.005,15.987 176.205,17.283 176.205,21.651Z" style="fill:rgb(0,143,203);fill-rule:nonzero;"/>
        <path d="M189.309,8.643L189.309,43.443L210.285,43.443L210.285,36.051L198.093,36.051L198.093,28.899L206.685,28.899L206.685,22.371L198.093,22.371L198.093,16.131L209.901,16.131L209.901,8.643L189.309,8.643Z" style="fill:rgb(0,143,203);fill-rule:nonzero;"/>
        <path d="M230.205,43.443L239.517,43.443L232.941,28.371C236.157,26.835 237.837,23.523 237.837,19.155C237.837,12.867 234.477,8.643 226.173,8.643L214.221,8.643L214.221,43.443L223.005,43.443L223.005,30.435L225.261,30.435L230.205,43.443ZM223.005,15.699L225.933,15.699C228.381,15.699 229.149,16.611 229.149,19.779C229.149,22.563 228.573,23.955 226.077,23.955L223.005,23.955L223.005,15.699Z" style="fill:rgb(0,143,203);fill-rule:nonzero;"/>
        <path d="M267.117,8.643L258.909,27.507L258.813,27.507L250.653,8.643L242.349,8.643L242.349,43.443L250.269,43.443L250.269,25.347L250.365,25.347L256.941,38.643L260.781,38.643L267.357,25.347L267.453,25.347L267.453,43.443L275.421,43.443L275.421,8.643L267.117,8.643Z" style="fill:rgb(0,143,203);fill-rule:nonzero;"/>
        <path d="M288.429,36.867L297.309,36.867L298.797,43.443L307.677,43.443L297.933,8.643L287.949,8.643L278.205,43.443L286.989,43.443L288.429,36.867ZM292.797,17.187L292.893,17.187L295.869,30.483L289.869,30.483L292.797,17.187Z" style="fill:rgb(0,143,203);fill-rule:nonzero;"/>
        <path d="M310.46,8.643L310.46,43.443L329.996,43.443L329.996,35.811L318.908,35.811L318.908,8.643L310.46,8.643Z" style="fill:rgb(0,143,203);fill-rule:nonzero;"/>
        <path d="M358.316,8.643L350.108,27.507L350.012,27.507L341.852,8.643L333.548,8.643L333.548,43.443L341.468,43.443L341.468,25.347L341.564,25.347L348.14,38.643L351.98,38.643L358.556,25.347L358.652,25.347L358.652,43.443L366.62,43.443L366.62,8.643L358.316,8.643Z" style="fill:rgb(0,143,203);fill-rule:nonzero;"/>
        <path d="M381.163,8.163C374.587,8.163 370.411,12.579 370.411,18.051C370.411,28.899 385.003,28.851 385.003,34.659C385.003,36.339 384.139,37.155 381.691,37.155C379.723,37.155 377.371,35.907 376.411,33.075L369.931,35.283C371.275,40.611 376.267,43.923 381.787,43.923C388.699,43.923 393.163,40.179 393.163,33.603C393.163,22.611 379.051,22.227 379.051,17.523C379.051,15.891 380.011,15.027 382.219,15.027C384.379,15.027 386.011,16.131 386.971,18.771L392.875,16.131C390.955,11.331 387.355,8.163 381.163,8.163Z" style="fill:rgb(0,143,203);fill-rule:nonzero;"/>
        <path d="M117.694,58.164C109.486,58.164 105.022,63.108 105.022,70.692L105.022,81.396C105.022,88.98 109.486,93.924 117.694,93.924C125.95,93.924 130.414,88.98 130.414,81.396L130.414,70.692C130.414,63.108 125.95,58.164 117.694,58.164ZM121.678,81.396C121.678,85.524 120.526,86.964 117.694,86.964C114.91,86.964 113.758,85.524 113.758,81.396L113.758,70.692C113.758,66.708 114.958,65.364 117.694,65.364C120.526,65.364 121.678,66.756 121.678,70.692L121.678,81.396Z" style="fill:rgb(118,126,131);fill-rule:nonzero;"/>
        <path d="M150.766,93.444L160.078,93.444L153.502,78.372C156.718,76.836 158.398,73.524 158.398,69.156C158.398,62.868 155.038,58.644 146.734,58.644L134.782,58.644L134.782,93.444L143.566,93.444L143.566,80.436L145.822,80.436L150.766,93.444ZM143.566,65.7L146.494,65.7C148.942,65.7 149.71,66.612 149.71,69.78C149.71,72.564 149.134,73.956 146.638,73.956L143.566,73.956L143.566,65.7Z" style="fill:rgb(118,126,131);fill-rule:nonzero;"/>
        <path d="M160.126,58.644L160.126,66.18L167.47,66.18L167.47,93.444L176.206,93.444L176.206,66.18L183.55,66.18L183.55,58.644L160.126,58.644Z" style="fill:rgb(118,126,131);fill-rule:nonzero;"/>
        <path d="M197.903,58.164C189.695,58.164 185.231,63.108 185.231,70.692L185.231,81.396C185.231,88.98 189.695,93.924 197.903,93.924C206.159,93.924 210.623,88.98 210.623,81.396L210.623,70.692C210.623,63.108 206.159,58.164 197.903,58.164ZM201.887,81.396C201.887,85.524 200.735,86.964 197.903,86.964C195.119,86.964 193.967,85.524 193.967,81.396L193.967,70.692C193.967,66.708 195.167,65.364 197.903,65.364C200.735,65.364 201.887,66.756 201.887,70.692L201.887,81.396Z" style="fill:rgb(118,126,131);fill-rule:nonzero;"/>
        <path d="M227.711,58.644L214.991,58.644L214.991,93.444L223.775,93.444L223.775,82.212L228.335,82.212C235.055,82.212 238.943,77.748 238.943,70.5C238.943,63.156 234.815,58.644 227.711,58.644ZM223.775,65.796L227.375,65.796C229.391,65.796 230.207,66.996 230.207,70.596C230.207,74.148 229.391,75.588 227.375,75.588L223.775,75.588L223.775,65.796Z" style="fill:rgb(118,126,131);fill-rule:nonzero;"/>
        <path d="M242.734,58.644L242.734,93.444L263.71,93.444L263.71,86.052L251.518,86.052L251.518,78.9L260.11,78.9L260.11,72.372L251.518,72.372L251.518,66.132L263.326,66.132L263.326,58.644L242.734,58.644Z" style="fill:rgb(118,126,131);fill-rule:nonzero;"/>
        <path d="M267.646,58.644L267.646,93.444L280.318,93.444C288.43,93.444 293.086,88.452 293.086,80.772L293.086,71.22C293.086,63.588 288.43,58.644 280.318,58.644L267.646,58.644ZM284.35,71.652L284.35,80.532C284.35,85.044 283.15,86.34 280.318,86.34L276.43,86.34L276.43,65.988L280.318,65.988C283.15,65.988 284.35,67.284 284.35,71.652Z" style="fill:rgb(118,126,131);fill-rule:nonzero;"/>
        <rect x="297.837" y="58.644" width="8.736" height="34.8" style="fill:rgb(118,126,131);fill-rule:nonzero;"/>
    </g>
</svg>
