<?xml version="1.0" encoding="UTF-8" standalone="no"?>
<!DOCTYPE svg PUBLIC "-//W3C//DTD SVG 1.1//EN" "http://www.w3.org/Graphics/SVG/1.1/DTD/svg11.dtd">
<svg width="100%" height="100%" viewBox="0 0 2500 2500" version="1.1" xmlns="http://www.w3.org/2000/svg" xmlns:xlink="http://www.w3.org/1999/xlink" xml:space="preserve" xmlns:serif="http://www.serif.com/" style="fill-rule:evenodd;clip-rule:evenodd;stroke-linejoin:round;stroke-miterlimit:2;">
    <g transform="matrix(4.16667,0,0,4.16667,939.375,667.624)">
        <g id="Lager-1" serif:id="Lager 1">
            <path d="M0,276.585C5.07,257.864 -11.854,229.079 -27.893,226.377C-38.466,224.596 -44.546,230.807 -40.3,240.522C-32.672,257.986 -21.47,272.273 0,276.585M-61.954,-123.832C-60.999,-113.258 -59.34,-103.007 -59.271,-92.743C-58.777,-23.698 -58.626,45.35 -58.363,114.398C-58.326,124.264 -59.482,134.308 -58.073,143.976C-50.241,197.677 -9.379,211.369 35.638,199.248C50.39,195.274 59.386,181.554 59.857,166.723C60.552,144.832 57.513,123.428 40.343,106.093C32.738,98.416 24.818,87.102 24.255,77.038C20.272,5.916 18.418,-65.321 15.261,-136.493C14.59,-151.599 21.062,-155.724 35.052,-157.591C203.625,-180.075 359.123,-56.291 372.91,112.663C374.727,134.9 372.686,157.467 372.159,179.875C371.853,192.852 365.694,197.994 352.118,196.002C310.929,189.948 269.747,183.282 228.315,179.644C199.425,177.106 170.13,179.154 140.496,182.103C207.115,217.436 275.64,245.486 352.529,247.613C352.826,249.726 353.125,251.84 353.421,253.953C348.645,255.734 343.565,259.576 339.148,258.927C323.458,256.613 307.555,254.124 292.521,249.265C234.826,230.617 174.367,218.502 124.287,181.126C112.877,172.613 102.461,162.76 91.025,154.283C79.283,145.576 70.944,149.177 69.242,162.852C64.232,203.093 27.343,225.027 -11.535,210.934C-16.904,208.989 -22.385,207.352 -32.139,204.156C-12.154,228.543 2.903,251.03 22.253,268.859C32.442,278.247 49.804,282.165 64.492,283.979C144.443,293.848 224.575,302.272 304.632,311.308C308.266,311.72 311.772,313.267 315.423,314.31C282.849,395.16 132.698,456.66 21.039,435.598C-119.908,409.013 -221.264,288.554 -225.326,148.147C-229.454,5.538 -128.892,-100.179 -61.954,-123.832" style="fill:rgb(0,135,182);fill-rule:nonzero;"/>
        </g>
    </g>
</svg>
