<?xml version="1.0" encoding="UTF-8" standalone="no"?>
<!DOCTYPE svg PUBLIC "-//W3C//DTD SVG 1.1//EN" "http://www.w3.org/Graphics/SVG/1.1/DTD/svg11.dtd">
<svg width="100%" height="100%" viewBox="0 0 2500 2500" version="1.1" xmlns="http://www.w3.org/2000/svg" xmlns:xlink="http://www.w3.org/1999/xlink" xml:space="preserve" xmlns:serif="http://www.serif.com/" style="fill-rule:evenodd;clip-rule:evenodd;stroke-linejoin:round;stroke-miterlimit:2;">
    <g id="Lager-1" serif:id="Lager 1">
        <path d="M964.273,952.946l1.783,0c0,-18.241 -0.466,-36.483 0.079,-54.7c4.675,-156.4 3.88,-158.016 -141.47,-101.683c-20.475,7.921 -41.996,35.321 -46.792,57.262c-12.571,57.484 -16.133,116.938 -23.313,175.6c-7.566,61.734 10.55,113.8 63.388,148.242c14.762,9.621 43.133,15.9 55.771,8.183c52.658,-32.141 115.746,-59.662 91.775,-144.32c-7.788,-27.442 -1.221,-58.938 -1.221,-88.584m800.054,1436.52c1.329,-329.792 -137.1,-631.333 -118.529,-957.346c-51.354,109.225 -177.546,190.171 -116.842,334.867c74.521,177.625 83.375,368.287 112.417,554.991c0.354,2.246 0.412,4.55 0.7,6.813c16.254,122.475 6.262,133.742 -135.554,142.2c-5.25,-54.742 -13.171,-110.004 -15.434,-165.488c-7.233,-177.875 -11.4,-355.858 -18.75,-533.72c-3.354,-81.017 17.109,-152.946 65.063,-218.338c31.304,-42.692 64.612,-87.279 23.975,-142.375c-39.792,-53.975 -93.625,-51.467 -154.058,-44.654c-68.734,7.729 -138.975,1.7 -208.563,2.617c-42.667,0.562 -86.279,-2.071 -127.737,5.783c-54.617,10.35 -74.48,41.104 -65.913,104.112c8.621,63.567 1.604,133.33 -15.979,195.446c-28.138,99.492 -12.829,185.963 32.508,276.571c84.075,168.05 95.242,354.433 128.125,534.792c-290.483,76.096 -832.883,-290.154 -1024.25,-684.338c-262.562,-540.791 -103.12,-1186.77 384.18,-1550.56c474.075,-353.917 1098.14,-290.992 1459.08,-8.088c-22.696,14.338 -41.913,28.196 -62.609,39.254c-140.937,75.33 -279.708,155.396 -424.237,223.159c-98.163,46.012 -203.534,77.7 -307.492,109.991c-110.004,34.155 -153.946,122.421 -170.929,219.488c-26.192,149.779 4.346,293.842 109.812,409.037c37.746,41.23 92.9,78.55 146.355,91.105c150.42,35.345 246.812,-64.105 230.175,-217.555c-4.496,-41.458 2.166,-94.887 25.712,-126.354c46.958,-62.775 101.479,-126.162 166.596,-167.841c163.292,-104.509 334.917,-195.888 501.637,-295.171c45.625,-27.167 70.092,-17.109 99.655,24.271c423.829,593.383 200.958,1486.16 -453.942,1812.69c-15.583,7.771 -32.688,12.484 -65.171,24.642" style="fill:#0087b6;fill-rule:nonzero;"/>
    </g>
</svg>
