<?xml version="1.0" encoding="UTF-8" standalone="no"?>
<!DOCTYPE svg PUBLIC "-//W3C//DTD SVG 1.1//EN" "http://www.w3.org/Graphics/SVG/1.1/DTD/svg11.dtd">
<svg width="100%" height="100%" viewBox="0 0 100 100" version="1.1" xmlns="http://www.w3.org/2000/svg" xmlns:xlink="http://www.w3.org/1999/xlink" xml:space="preserve" xmlns:serif="http://www.serif.com/" style="fill-rule:evenodd;clip-rule:evenodd;stroke-linejoin:round;stroke-miterlimit:2;">
    <g id="Artboard1" transform="matrix(0.375,0,0,0.375,0,0)">
        <rect x="0" y="0" width="266.667" height="266.667" style="fill:none;"/>
        <g id="Layer-1" serif:id="Layer 1" transform="matrix(4.16667,0,0,4.16667,0,0)">
            <g transform="matrix(1,0,0,1,33.9807,38.2233)">
                <path d="M0,-12.412l0,-0.008c-2.376,-0 -4.752,0.002 -7.128,-0.002c-0.356,-0.001 -0.672,0.067 -0.923,0.344c-0.243,0.267 -0.265,0.589 -0.265,0.925c0.002,4.649 0.006,9.298 -0.003,13.947c-0.002,0.922 0.319,1.675 0.971,2.323c4.909,4.879 9.811,9.766 14.714,14.651c0.6,0.599 1.316,0.898 2.167,0.897c4.69,-0.003 9.38,-0.001 14.07,-0.002c0.867,-0 1.244,-0.377 1.244,-1.245c0.001,-4.669 0,-9.339 0.002,-14.008c0,-0.849 -0.297,-1.567 -0.898,-2.167c-4.929,-4.918 -9.856,-9.837 -14.783,-14.758c-0.599,-0.599 -1.311,-0.902 -2.164,-0.9c-2.334,0.008 -4.669,0.003 -7.004,0.003m-28.884,6.196c0,8.514 0,17.029 0.001,25.543c0,0.145 0,0.29 0.009,0.434c0.009,0.158 0.04,0.318 0.21,0.382c0.151,0.057 0.283,-0.013 0.396,-0.113c0.108,-0.095 0.212,-0.196 0.314,-0.299c4.852,-4.88 9.702,-9.763 14.557,-14.64c0.641,-0.643 0.948,-1.401 0.947,-2.305c-0.004,-6.014 -0.002,-12.028 -0.001,-18.042c-0,-0.134 -0.003,-0.269 0.009,-0.402c0.043,-0.48 0.424,-0.864 0.904,-0.909c0.144,-0.013 0.29,-0.011 0.435,-0.011c6.024,-0.001 12.048,-0.001 18.072,-0c0.831,-0 1.559,-0.256 2.155,-0.85c4.968,-4.955 9.936,-9.909 14.903,-14.865c0.094,-0.094 0.187,-0.196 0.252,-0.31c0.123,-0.216 0.052,-0.372 -0.184,-0.455c-0.18,-0.063 -0.367,-0.049 -0.553,-0.049c-17.029,-0 -34.058,-0 -51.087,-0.001c-0.197,-0 -0.393,0.003 -0.584,0.055c-0.409,0.11 -0.712,0.469 -0.746,0.89c-0.011,0.134 -0.008,0.269 -0.008,0.403c-0.001,8.514 -0.001,17.029 -0.001,25.544m-4.08,28.406l0,-56.668c0.021,-0.076 0.044,-0.151 0.062,-0.227c0.178,-0.741 0.546,-1.356 1.146,-1.84c0.434,-0.349 0.95,-0.492 1.458,-0.661l56.668,-0c0.017,0.045 0.057,0.048 0.098,0.056c0.763,0.147 1.387,0.52 1.883,1.124c0.374,0.456 0.541,0.995 0.685,1.548l0,56.668c-0.094,0.091 -0.093,0.219 -0.125,0.332c-0.2,0.711 -0.616,1.267 -1.201,1.704c-0.4,0.299 -0.879,0.413 -1.34,0.568l-56.73,-0c-0.077,-0.1 -0.202,-0.088 -0.304,-0.117c-0.925,-0.262 -1.59,-0.832 -2.001,-1.695c-0.121,-0.254 -0.2,-0.528 -0.299,-0.792" style="fill:rgb(0,118,59);fill-rule:nonzero;"/>
            </g>
            <g transform="matrix(1,0,0,1,5.0968,31.5188)">
                <path d="M0,0.488l0,-25.544c0,-0.134 -0.002,-0.269 0.009,-0.402c0.034,-0.421 0.337,-0.78 0.746,-0.891c0.191,-0.051 0.387,-0.055 0.584,-0.055c17.029,0.001 34.058,0.001 51.087,0.002c0.186,0 0.373,-0.015 0.553,0.049c0.235,0.083 0.307,0.239 0.184,0.455c-0.065,0.114 -0.158,0.216 -0.252,0.31c-4.967,4.955 -9.935,9.909 -14.903,14.864c-0.596,0.594 -1.324,0.85 -2.155,0.85c-6.024,-0.001 -12.048,0 -18.073,0c-0.144,0 -0.29,-0.001 -0.434,0.012c-0.48,0.044 -0.861,0.428 -0.905,0.908c-0.012,0.134 -0.009,0.268 -0.009,0.403c0,6.014 -0.002,12.028 0.002,18.042c0.001,0.903 -0.306,1.661 -0.947,2.305c-4.855,4.877 -9.705,9.759 -14.557,14.64c-0.102,0.102 -0.206,0.203 -0.314,0.299c-0.113,0.099 -0.245,0.17 -0.396,0.112c-0.17,-0.064 -0.201,-0.223 -0.211,-0.382c-0.008,-0.144 -0.009,-0.289 -0.009,-0.433l0,-25.544" style="fill:rgb(254,254,254);fill-rule:nonzero;"/>
            </g>
            <g transform="matrix(1,0,0,1,33.9807,58.8783)">
                <path d="M0,-33.067c2.335,0 4.67,0.005 7.004,-0.003c0.853,-0.002 1.565,0.301 2.164,0.9c4.927,4.921 9.854,9.84 14.783,14.758c0.601,0.6 0.898,1.318 0.898,2.167c-0.002,4.669 -0.001,9.339 -0.002,14.008c0,0.868 -0.377,1.245 -1.244,1.245c-4.69,0.001 -9.38,-0.001 -14.07,0.002c-0.851,0.001 -1.567,-0.298 -2.167,-0.897c-4.903,-4.885 -9.805,-9.772 -14.714,-14.651c-0.652,-0.648 -0.973,-1.401 -0.971,-2.323c0.009,-4.649 0.005,-9.298 0.003,-13.947c-0,-0.336 0.022,-0.658 0.265,-0.925c0.251,-0.277 0.567,-0.345 0.923,-0.344c2.376,0.004 4.752,0.002 7.128,0.002l-0,0.008Z" style="fill:rgb(254,254,254);fill-rule:nonzero;"/>
            </g>
        </g>
    </g>
</svg>
