<?xml version="1.0" encoding="UTF-8" standalone="no"?>
<!DOCTYPE svg PUBLIC "-//W3C//DTD SVG 1.1//EN" "http://www.w3.org/Graphics/SVG/1.1/DTD/svg11.dtd">
<svg width="100%" height="100%" viewBox="0 0 24 25" version="1.1" xmlns="http://www.w3.org/2000/svg" xmlns:xlink="http://www.w3.org/1999/xlink" xml:space="preserve" xmlns:serif="http://www.serif.com/" style="fill-rule:evenodd;clip-rule:evenodd;stroke-linejoin:round;stroke-miterlimit:2;">
    <g transform="matrix(0.0650897,0,0,0.0650936,-13.6101,-11.5896)">
        <circle cx="393.459" cy="362.406" r="184.361" style="fill:rgb(25,103,175);"/>
    </g>
    <g transform="matrix(0.0199688,0,0,0.01997,4.01246,2.81177)">
        <g transform="matrix(33.3333,0,0,33.3333,0,0)">
            <path d="M18.5,3l-2.5,0c-0.276,0 -0.5,0.224 -0.5,0.5l0,0.059l3.5,2.8l0,-2.859c0,-0.276 -0.224,-0.5 -0.5,-0.5Z" style="fill:white;fill-rule:nonzero;"/>
        </g>
        <g transform="matrix(33.3333,0,0,33.3333,0,0)">
            <path d="M10.75,9.5c0,-0.69 0.56,-1.25 1.25,-1.25c0.69,0 1.25,0.56 1.25,1.25c0,0.69 -0.56,1.25 -1.25,1.25c-0.69,0 -1.25,-0.56 -1.25,-1.25Z" style="fill:white;"/>
        </g>
        <g transform="matrix(33.3333,0,0,33.3333,0,0)">
            <path d="M20.75,10.961l0.782,0.625c0.323,0.258 0.795,0.206 1.054,-0.117c0.258,-0.324 0.206,-0.796 -0.117,-1.055l-8.126,-6.5c-1.37,-1.096 -3.316,-1.096 -4.686,-0l-8.125,6.5c-0.324,0.259 -0.376,0.731 -0.118,1.055c0.259,0.323 0.731,0.375 1.055,0.117l0.781,-0.626l0,10.29l-1.25,0c-0.414,0 -0.75,0.336 -0.75,0.75c0,0.414 0.336,0.75 0.75,0.75l20,0c0.414,0 0.75,-0.336 0.75,-0.75c0,-0.414 -0.336,-0.75 -0.75,-0.75l-1.25,0l0,-10.29Zm-11.5,-1.46c0,-1.519 1.231,-2.75 2.75,-2.75c1.519,0 2.75,1.231 2.75,2.75c0,1.519 -1.231,2.75 -2.75,2.75c-1.519,0 -2.75,-1.231 -2.75,-2.75Zm2.799,3.75c0.665,0 1.238,-0 1.697,0.062c0.492,0.066 0.963,0.215 1.345,0.597c0.382,0.382 0.531,0.854 0.597,1.345c0.058,0.43 0.062,0.961 0.062,1.573l0,4.423l-1.5,0l0,-4.25c0,-0.728 -0.002,-1.199 -0.048,-1.546c-0.044,-0.325 -0.114,-0.427 -0.172,-0.484c-0.057,-0.057 -0.159,-0.128 -0.484,-0.172c-0.347,-0.046 -0.818,-0.048 -1.546,-0.048c-0.728,0 -1.199,0.002 -1.546,0.048c-0.325,0.044 -0.427,0.115 -0.484,0.172c-0.057,0.057 -0.128,0.159 -0.172,0.484c-0.046,0.347 -0.048,0.818 -0.048,1.546l0,4.25l-1.5,0l0,-4.299c-0,-0.665 -0,-1.238 0.062,-1.697c0.066,-0.492 0.215,-0.963 0.597,-1.345c0.382,-0.382 0.854,-0.531 1.345,-0.597c0.459,-0.062 1.032,-0.062 1.697,-0.062l0.098,-0Z" style="fill:white;"/>
        </g>
        <g transform="matrix(33.3333,0,0,33.3333,0,0)">
            <path d="M10.75,9.5c0,-0.69 0.56,-1.25 1.25,-1.25c0.69,0 1.25,0.56 1.25,1.25c0,0.69 -0.56,1.25 -1.25,1.25c-0.69,0 -1.25,-0.56 -1.25,-1.25Z" style="fill:white;"/>
        </g>
    </g>
</svg>
