<?xml version="1.0" encoding="UTF-8" standalone="no"?>
<!DOCTYPE svg PUBLIC "-//W3C//DTD SVG 1.1//EN" "http://www.w3.org/Graphics/SVG/1.1/DTD/svg11.dtd">
<svg width="100%" height="100%" viewBox="0 0 100 100" version="1.1" xmlns="http://www.w3.org/2000/svg" xmlns:xlink="http://www.w3.org/1999/xlink" xml:space="preserve" xmlns:serif="http://www.serif.com/" style="fill-rule:evenodd;clip-rule:evenodd;stroke-linejoin:round;stroke-miterlimit:2;">
    <g id="Artboard1" transform="matrix(0.375,0,0,0.375,0,0)">
        <rect x="0" y="0" width="266.667" height="266.667" style="fill:none;"/>
        <g id="Layer-1" serif:id="Layer 1" transform="matrix(4.16667,0,0,4.16667,0,0)">
            <g transform="matrix(1,0,0,1,34.5484,34.5898)">
                <path d="M0,-5.184c0.497,0.633 1.162,1.091 1.723,1.659c0.673,0.682 1.313,1.399 2.054,2.012c1.052,0.94 1.974,2.012 3.037,2.944c0.972,0.853 1.815,1.844 2.786,2.705c0.979,0.868 1.858,1.842 2.813,2.74c1.699,1.595 3.34,3.252 4.985,4.904c0.268,0.269 0.351,0.182 0.526,-0.067c2.068,-2.959 3.45,-6.209 4.105,-9.762c0.678,-3.676 0.558,-7.335 -0.419,-10.943c-1.371,-5.064 -4.043,-9.334 -8.076,-12.678c-6.249,-5.179 -13.398,-6.944 -21.343,-5.342c-3.517,0.71 -6.694,2.232 -9.578,4.368c-0.16,0.118 -0.413,0.193 -0.12,0.471c1.15,1.09 2.281,2.2 3.419,3.302c2.042,1.989 4.084,3.977 6.125,5.966c0.231,0.32 0.566,0.529 0.844,0.797c1.214,1.169 2.413,2.353 3.619,3.531c1.142,1.117 2.285,2.232 3.428,3.348c0.02,0.019 0.048,0.03 0.072,0.045m-14.515,-4.119c0.097,-0.106 -0.014,-0.132 -0.069,-0.18c-0.108,-0.089 -0.222,-0.172 -0.323,-0.268c-0.948,-0.903 -1.849,-1.852 -2.807,-2.746c-1.575,-1.471 -3.091,-3.005 -4.614,-4.531c-0.266,-0.266 -0.37,-0.27 -0.588,0.047c-3.91,5.661 -5.387,11.897 -4.185,18.675c1.33,7.498 5.36,13.238 11.838,17.166c5.732,3.476 11.94,4.355 18.465,2.873c3.396,-0.771 6.465,-2.272 9.258,-4.353c0.264,-0.196 0.295,-0.306 0.037,-0.541c-0.784,-0.713 -1.508,-1.489 -2.285,-2.213c-1.48,-1.38 -2.9,-2.825 -4.342,-4.245c-0.474,-0.467 -0.927,-0.956 -1.466,-1.351c-1.387,-1.507 -2.93,-2.853 -4.375,-4.3c-0.303,-0.39 -0.711,-0.672 -1.06,-1.012c-1.677,-1.634 -3.318,-3.306 -5.019,-4.913c-0.63,-0.596 -1.224,-1.231 -1.884,-1.795c-0.443,-0.52 -0.974,-0.948 -1.463,-1.42c-1.621,-1.567 -3.217,-3.159 -4.829,-4.735c-0.073,-0.072 -0.117,-0.25 -0.289,-0.159l0,0.001Zm-20.033,7.19l0,-0.965c0.161,-0.084 0.081,-0.235 0.081,-0.351c-0.005,-1.198 0.116,-2.389 0.284,-3.57c0.383,-2.688 1.07,-5.301 2.132,-7.804c2.821,-6.654 7.347,-11.816 13.564,-15.475c3.826,-2.251 7.963,-3.6 12.364,-4.113c1.925,-0.225 3.859,-0.254 5.798,-0.113c2.129,0.154 4.224,0.487 6.276,1.07c7.041,1.998 12.767,5.942 17.157,11.799c3.87,5.162 5.921,11.013 6.294,17.447c0.115,1.981 0.028,3.97 -0.256,5.94c-0.321,2.222 -0.838,4.4 -1.616,6.51c-1.909,5.183 -4.931,9.596 -9.084,13.235c-3.441,3.016 -7.349,5.177 -11.708,6.534c-2.444,0.76 -4.95,1.205 -7.496,1.333c-1.93,0.097 -3.865,0.049 -5.794,-0.219c-1.908,-0.265 -3.784,-0.644 -5.614,-1.239c-6.705,-2.181 -12.146,-6.129 -16.278,-11.847c-3.846,-5.321 -5.843,-11.291 -6.022,-17.866c-0.003,-0.103 0.069,-0.238 -0.082,-0.306" style="fill:rgb(230,0,0);fill-rule:nonzero;"/>
            </g>
            <g transform="matrix(1,0,0,1,38.9524,31.4774)">
                <path d="M0,12.142c0.539,0.395 0.992,0.885 1.466,1.351c1.442,1.421 2.862,2.865 4.342,4.245c0.777,0.724 1.501,1.5 2.285,2.214c0.258,0.234 0.227,0.344 -0.037,0.541c-2.793,2.08 -5.862,3.582 -9.258,4.353c-6.525,1.481 -12.733,0.602 -18.465,-2.873c-6.478,-3.928 -10.508,-9.668 -11.838,-17.166c-1.202,-6.778 0.275,-13.015 4.185,-18.676c0.218,-0.316 0.322,-0.313 0.588,-0.046c1.523,1.526 3.039,3.06 4.614,4.53c0.958,0.894 1.859,1.843 2.807,2.746c0.101,0.097 0.215,0.179 0.323,0.269c-0.015,0.074 -0.039,0.152 0.069,0.179c0.02,1.072 0.118,2.087 0.928,2.945c0.418,0.443 0.781,0.81 1.417,0.832c0.385,0.013 0.615,0.153 0.562,0.647c-0.086,0.806 0.005,1.621 -0.088,2.436c-0.103,0.921 0.017,1.854 -0.086,2.786c-0.102,0.92 0.012,1.855 -0.09,2.786c-0.1,0.907 0.018,1.825 -0.085,2.742c-0.103,0.921 0.012,1.855 -0.09,2.786c-0.1,0.907 -0.021,1.825 -0.08,2.742c-0.104,1.641 -0.073,3.289 -0.115,4.934c-0.007,0.273 0.065,0.34 0.335,0.337c1.21,-0.016 2.421,-0.021 3.631,0.002c0.344,0.006 0.424,-0.088 0.423,-0.427c-0.011,-5.367 0.015,-10.733 -0.028,-16.099c-0.008,-1.043 -0.061,-2.09 -0.053,-3.136c0.66,0.564 1.254,1.199 1.884,1.795c1.701,1.608 3.342,3.28 5.018,4.913c0.35,0.341 0.758,0.622 1.061,1.013c-0.005,2.455 -0.01,4.91 -0.014,7.366c-0.002,1.271 0.001,2.543 -0.002,3.815c-0.001,0.22 -0.004,0.405 0.307,0.403c1.37,-0.008 2.74,-0.006 4.11,-0.001c0.224,0.001 0.304,-0.086 0.314,-0.311c0.037,-0.916 -0.064,-1.829 -0.115,-2.74c-0.079,-1.41 -0.163,-2.821 -0.225,-4.233" style="fill:none;fill-rule:nonzero;"/>
            </g>
            <g transform="matrix(1,0,0,1,20.4607,36.8959)">
                <path d="M0,-21.177c-1.138,-1.102 -2.269,-2.212 -3.419,-3.302c-0.293,-0.278 -0.041,-0.353 0.119,-0.471c2.885,-2.136 6.062,-3.658 9.579,-4.368c7.945,-1.602 15.094,0.163 21.342,5.342c4.033,3.344 6.706,7.614 8.077,12.678c0.976,3.608 1.097,7.267 0.419,10.943c-0.656,3.553 -2.038,6.803 -4.106,9.762c-0.174,0.249 -0.257,0.336 -0.525,0.067c-1.645,-1.652 -3.286,-3.31 -4.985,-4.905c-0.956,-0.897 -1.835,-1.871 -2.813,-2.739c-0.972,-0.861 -1.815,-1.852 -2.786,-2.705c-1.063,-0.932 -1.986,-2.004 -3.037,-2.944c-0.01,-0.521 -0.036,-1.039 -0.071,-1.559c-0.068,-1.038 -0.112,-2.077 -0.182,-3.116c-0.097,-1.445 -0.118,-2.895 -0.191,-4.343c-0.018,-0.356 0.167,-0.526 0.438,-0.658c0.947,-0.464 1.571,-1.204 1.94,-2.193c0.459,-1.229 0.228,-2.487 0.141,-3.721c-0.101,-1.434 -0.211,-2.869 -0.317,-4.303c-0.042,-0.562 -0.11,-1.122 -0.117,-1.689c-0.003,-0.273 0.031,-0.685 -0.422,-0.777c-0.543,-0.112 -1.044,0.282 -1.044,0.837c0,1.754 -0.014,3.509 0.01,5.263c0.005,0.378 -0.199,0.301 -0.407,0.305c-0.217,0.004 -0.41,0.057 -0.403,-0.311c0.016,-0.826 0.019,-1.651 -0.06,-2.48c-0.098,-1.01 0.042,-2.031 -0.088,-3.048c-0.044,-0.341 -0.19,-0.462 -0.473,-0.474c-0.614,-0.025 -0.871,0.332 -0.864,0.804c0.025,1.711 0.01,3.422 0.01,5.133c0,0.102 0.012,0.206 -0.003,0.306c-0.051,0.332 -0.366,0.073 -0.529,0.222c-0.073,0.066 -0.077,-0.145 -0.077,-0.228c-0.007,-0.731 -0.01,-1.463 -0.002,-2.194c0.01,-1.076 -0.008,-2.151 -0.089,-3.224c-0.04,-0.519 -0.322,-0.766 -0.841,-0.735c-0.412,0.024 -0.559,0.217 -0.559,0.735c0,1.725 -0.013,3.451 0.01,5.176c0.005,0.367 -0.12,0.445 -0.438,0.409c-0.259,-0.029 -0.555,0.124 -0.549,-0.389c0.021,-1.82 0.064,-3.642 -0.07,-5.462c-0.032,-0.429 -0.162,-0.575 -0.57,-0.557c-0.747,0.033 -1.182,0.475 -1.182,1.221c-0.003,2.895 -0.002,5.79 0.001,8.685c0,0.125 -0.013,0.246 0.052,0.378c0.4,0.824 0.971,1.501 1.7,2.048c0.354,0.266 0.805,0.319 1.182,0.545c0.191,0.116 0.306,0.222 0.305,0.46c-0.012,1.754 -0.014,3.509 -0.018,5.263c-0.024,-0.015 -0.052,-0.026 -0.072,-0.045c-1.144,-1.116 -2.287,-2.231 -3.429,-3.348c-1.205,-1.178 -2.405,-2.362 -3.618,-3.531c-0.278,-0.269 -0.613,-0.477 -0.844,-0.797c0.005,-1.418 0.023,-2.835 0.011,-4.253c-0.016,-1.893 -0.058,-3.786 -0.082,-5.68c-0.01,-0.802 -0.748,-1.28 -1.513,-0.97c-0.13,0.053 -0.272,0.081 -0.402,0.123c-0.487,0.158 -1.029,0.162 -1.431,0.569c-0.631,0.638 -1.287,1.257 -1.786,2.004c-0.452,0.677 -0.736,1.443 -0.922,2.241" style="fill:none;fill-rule:nonzero;"/>
            </g>
            <g transform="matrix(1,0,0,1,34.5484,14.2768)">
                <path d="M0,15.129c0.005,-1.754 0.007,-3.508 0.018,-5.263c0.002,-0.238 -0.113,-0.344 -0.305,-0.46c-0.376,-0.226 -0.828,-0.279 -1.182,-0.545c-0.728,-0.547 -1.299,-1.224 -1.7,-2.048c-0.065,-0.132 -0.051,-0.253 -0.052,-0.378c-0.003,-2.895 -0.004,-5.79 -0.001,-8.685c0.001,-0.746 0.435,-1.187 1.182,-1.221c0.409,-0.018 0.538,0.128 0.57,0.557c0.134,1.82 0.091,3.642 0.071,5.462c-0.006,0.513 0.289,0.36 0.548,0.389c0.318,0.036 0.443,-0.042 0.438,-0.409c-0.023,-1.725 -0.01,-3.451 -0.01,-5.176c-0,-0.518 0.147,-0.711 0.559,-0.735c0.52,-0.031 0.802,0.216 0.841,0.735c0.081,1.073 0.1,2.148 0.089,3.225c-0.008,0.731 -0.004,1.462 0.002,2.193c0.001,0.083 0.004,0.294 0.077,0.228c0.164,-0.149 0.478,0.11 0.529,-0.222c0.016,-0.1 0.003,-0.204 0.003,-0.306c0,-1.711 0.015,-3.422 -0.01,-5.132c-0.006,-0.473 0.25,-0.83 0.864,-0.805c0.283,0.012 0.429,0.133 0.473,0.474c0.13,1.017 -0.009,2.038 0.088,3.048c0.08,0.829 0.076,1.654 0.06,2.48c-0.006,0.368 0.186,0.316 0.403,0.311c0.208,-0.004 0.413,0.073 0.408,-0.304c-0.024,-1.755 -0.011,-3.509 -0.011,-5.264c0,-0.554 0.501,-0.949 1.045,-0.837c0.452,0.093 0.418,0.504 0.421,0.777c0.007,0.567 0.075,1.127 0.117,1.689c0.106,1.434 0.217,2.869 0.318,4.303c0.086,1.234 0.317,2.492 -0.141,3.721c-0.37,0.989 -0.993,1.729 -1.941,2.193c-0.271,0.133 -0.456,0.302 -0.438,0.658c0.074,1.448 0.094,2.898 0.191,4.343c0.07,1.039 0.114,2.078 0.183,3.116c0.034,0.52 0.06,1.038 0.07,1.559c-0.741,-0.613 -1.381,-1.33 -2.054,-2.012c-0.561,-0.568 -1.226,-1.026 -1.723,-1.659" style="fill-rule:nonzero;"/>
            </g>
            <g transform="matrix(1,0,0,1,26.6148,44.8635)">
                <path d="M0,-13.264c-0.008,1.046 0.045,2.093 0.053,3.136c0.043,5.366 0.017,10.732 0.028,16.098c0.001,0.34 -0.079,0.434 -0.423,0.428c-1.21,-0.023 -2.421,-0.018 -3.631,-0.002c-0.271,0.003 -0.342,-0.065 -0.335,-0.337c0.041,-1.645 0.01,-3.294 0.115,-4.934c0.058,-0.917 -0.02,-1.835 0.079,-2.742c0.103,-0.931 -0.012,-1.865 0.091,-2.786c0.103,-0.917 -0.015,-1.835 0.084,-2.742c0.103,-0.932 -0.012,-1.866 0.09,-2.786c0.104,-0.932 -0.017,-1.865 0.087,-2.786c0.092,-0.815 0.001,-1.63 0.088,-2.436c0.053,-0.494 -0.177,-0.635 -0.562,-0.647c-0.636,-0.022 -0.999,-0.389 -1.417,-0.832c-0.811,-0.858 -0.909,-1.873 -0.929,-2.945c0.173,-0.091 0.216,0.087 0.29,0.159c1.612,1.576 3.208,3.167 4.829,4.734c0.488,0.472 1.019,0.901 1.463,1.42" style="fill-rule:nonzero;"/>
            </g>
            <g transform="matrix(1,0,0,1,38.9524,46.6074)">
                <path d="M0,-2.988c0.062,1.412 0.146,2.823 0.225,4.233c0.051,0.911 0.152,1.824 0.115,2.74c-0.01,0.225 -0.09,0.312 -0.314,0.311c-1.37,-0.005 -2.74,-0.007 -4.11,0.001c-0.311,0.002 -0.308,-0.183 -0.307,-0.403c0.003,-1.272 0,-2.544 0.002,-3.815c0.004,-2.456 0.009,-4.911 0.014,-7.366c1.445,1.446 2.988,2.793 4.375,4.299" style="fill-rule:nonzero;"/>
            </g>
            <g transform="matrix(1,0,0,1,20.4607,16.4379)">
                <path d="M0,-0.719c0.186,-0.798 0.47,-1.564 0.922,-2.241c0.499,-0.747 1.155,-1.366 1.786,-2.004c0.402,-0.407 0.944,-0.411 1.431,-0.569c0.13,-0.042 0.272,-0.07 0.402,-0.123c0.765,-0.31 1.503,0.168 1.513,0.97c0.024,1.894 0.066,3.787 0.082,5.68c0.012,1.418 -0.006,2.835 -0.011,4.253c-2.042,-1.989 -4.083,-3.977 -6.125,-5.966" style="fill-rule:nonzero;"/>
            </g>
            <g transform="matrix(1,0,0,1,20.0334,25.1068)">
                <path d="M0,0.18c-0.108,-0.027 -0.084,-0.105 -0.069,-0.18c0.055,0.048 0.166,0.074 0.069,0.18" style="fill-rule:nonzero;"/>
            </g>
        </g>
    </g>
</svg>
