<?xml version="1.0" encoding="UTF-8" standalone="no"?>
<!DOCTYPE svg PUBLIC "-//W3C//DTD SVG 1.1//EN" "http://www.w3.org/Graphics/SVG/1.1/DTD/svg11.dtd">
<svg width="100%" height="100%" viewBox="0 0 24 24" version="1.1" xmlns="http://www.w3.org/2000/svg" xmlns:xlink="http://www.w3.org/1999/xlink" xml:space="preserve" xmlns:serif="http://www.serif.com/" style="fill-rule:evenodd;clip-rule:evenodd;stroke-linejoin:round;stroke-miterlimit:2;">
    <rect id="Artboard1" x="0" y="0" width="24" height="24" style="fill:none;"/>
    <g id="Layer_2">
        <g id="Layer_1-2">
            <circle cx="12" cy="12" r="12" style="fill:#1967af;"/>
            <path d="M15.282,5.815c0.167,0.006 0.321,0.091 0.416,0.229c0.134,0.172 0.233,0.13 0.359,-0c0.183,-0.206 0.379,-0.401 0.585,-0.585c0.168,-0.145 0.126,-0.233 -0,-0.382c-0.493,-0.508 -0.482,-0.706 0.019,-1.203c0.764,-0.764 0.84,-0.764 1.62,-0c0.779,0.764 1.501,1.528 2.246,2.319c0.129,0.104 0.204,0.26 0.204,0.425c-0,0.182 -0.091,0.352 -0.242,0.454c-0.16,0.152 -0.325,0.305 -0.478,0.466c-0.336,0.351 -0.641,0.382 -0.958,-0c-0.214,-0.245 -0.383,-0.348 -0.612,-0.019c-0.075,0.091 -0.161,0.173 -0.256,0.244c-0.24,0.218 -0.508,0.382 -0.114,0.764c0.248,0.233 0.068,0.554 -0.168,0.787c-1.164,1.139 -2.327,2.285 -3.488,3.439c-0.879,0.867 -1.754,1.738 -2.633,2.605c-0.504,0.497 -0.726,0.504 -1.207,0c-0.187,-0.202 -0.302,-0.214 -0.481,0c-0.18,0.214 -0.432,0.424 -0.642,0.638c-0.139,0.197 -0.376,0.301 -0.615,0.271c-0.184,-0.038 -0.252,0.115 -0.348,0.207c-1.408,1.337 -2.816,2.675 -4.222,4.015c-0.177,0.237 -0.506,0.306 -0.764,0.16c-0.282,-0.175 -0.244,-0.45 -0.214,-0.764c0.092,-0.886 0.764,-1.333 1.315,-1.864c0.966,-0.925 2.028,-1.769 2.884,-2.785c0.396,-0.532 0.821,-1.042 1.272,-1.528c0.096,-0.092 0.061,-0.157 0,-0.229l-0.221,-0.226c-0.382,-0.382 -0.382,-0.63 -0,-1.005l3.438,-3.404l2.724,-2.674c0.13,-0.2 0.344,-0.331 0.581,-0.355Zm-5.196,8.363l0.168,-0c0.107,0.095 0.218,0.187 0.321,0.286c0.73,0.699 0.481,0.764 1.299,-0.042c0.149,-0.145 0.134,-0.248 -0,-0.382c-0.279,-0.286 -0.539,-0.554 -0.795,-0.833c-0.068,-0.072 -0.175,-0.156 -0.065,-0.26c0.111,-0.103 0.195,-0.03 0.279,0.05c0.084,0.08 0.191,0.18 0.279,0.275c0.741,0.795 0.737,0.791 1.456,0c0.137,-0.149 0.149,-0.237 -0,-0.382c-0.256,-0.244 -0.493,-0.508 -0.738,-0.764c-0.088,-0.092 -0.233,-0.195 -0.114,-0.328c0.118,-0.134 0.229,0.019 0.309,0.103c0.161,0.156 0.298,0.328 0.455,0.489c0.581,0.588 0.405,0.531 0.932,0.03c0.134,-0.126 0.256,-0.26 0.382,-0.382c0.045,-0.029 0.072,-0.078 0.072,-0.132c0,-0.053 -0.027,-0.103 -0.072,-0.131c-0.237,-0.226 -0.466,-0.459 -0.695,-0.688l-0,-0.023l-0.019,-0c-0.046,-0.046 -0.096,-0.088 -0.138,-0.134c-0.099,-0.111 -0.275,-0.221 -0.103,-0.382c0.172,-0.16 0.275,0.035 0.382,0.13c0.18,0.164 0.344,0.344 0.516,0.516c0.405,0.485 0.516,0.474 0.791,-0.08c0.531,-0.382 0.531,-0.382 0.107,-0.826c-0.18,-0.191 -0.382,-0.382 -0.547,-0.565c-0.095,-0.095 -0.206,-0.206 -0.076,-0.329c0.13,-0.122 0.241,0 0.332,0.085c0.237,0.244 0.485,0.481 0.699,0.744c0.214,0.264 0.279,0.176 0.451,0c0.382,-0.416 0.818,-0.813 1.238,-1.211c0.134,-0.129 0.183,-0.206 0.019,-0.382c-0.607,-0.599 -1.2,-1.211 -1.784,-1.833c-0.145,-0.153 -0.218,-0.138 -0.359,-0c-1.434,1.421 -2.873,2.838 -4.317,4.252l-0.023,-0l-0.031,0.03c-0.049,0 -0.118,0 -0.149,0.038c-0.523,0.497 -1.043,0.998 -1.562,1.498c-0.134,0.126 -0.065,0.225 0.038,0.332c0.248,0.253 0.493,0.509 0.741,0.765l-0.092,0.091c-0.433,0.305 -0.819,0.672 -1.146,1.089c-0.214,0.233 0.161,0.313 0.252,0.474c0.092,0.16 0.168,0.195 0.31,0.046c0.298,-0.31 0.607,-0.612 0.917,-0.913c0.08,-0.104 0.153,-0.188 0.08,-0.321Zm-6.266,5.826c0.149,0.049 0.218,-0.092 0.306,-0.176c1.403,-1.342 2.804,-2.687 4.203,-4.034c0.095,-0.092 0.332,-0.145 0.114,-0.382c-0.218,-0.237 -0.294,-0.019 -0.382,0.076c-1.05,0.99 -2.105,1.975 -3.144,2.98c-0.455,0.439 -1.047,0.779 -1.097,1.536Zm14.671,-13.563c-0.038,-0.046 -0.057,-0.08 -0.084,-0.107c-0.256,-0.26 -0.478,-0.634 -0.787,-0.737c-0.195,-0.061 -0.436,0.382 -0.665,0.588c-0.039,0.035 -0.076,0.072 -0.111,0.111c-0.217,0.241 -0.661,0.443 -0.626,0.692c0.034,0.248 0.42,0.496 0.653,0.745l0.027,0.026c0.088,0.126 0.164,0.115 0.275,0c0.382,-0.382 0.802,-0.787 1.207,-1.18c0.039,-0.044 0.076,-0.09 0.111,-0.138Zm1.421,0.207c-0.072,-0.088 -0.114,-0.149 -0.168,-0.207c-0.707,-0.71 -1.406,-1.44 -2.113,-2.174c-0.172,-0.183 -0.248,-0.065 -0.382,0.039c-0.133,0.103 -0.175,0.187 -0.023,0.34c0.722,0.726 1.433,1.463 2.147,2.193c0.058,0.061 0.111,0.168 0.222,0.072l0.317,-0.263Z" style="fill:#fff;fill-rule:nonzero;"/>
            <path d="M10.743,11.049c1.439,-1.416 2.878,-2.834 4.317,-4.252c0.142,-0.142 0.214,-0.157 0.359,-0c0.589,0.618 1.181,1.226 1.773,1.83c0.164,0.16 0.115,0.24 -0.019,0.382c-0.42,0.382 -0.837,0.794 -1.238,1.211c-0.172,0.179 -0.283,0.21 -0.451,-0c-0.168,-0.21 -0.462,-0.501 -0.699,-0.745c-0.092,-0.096 -0.206,-0.207 -0.332,-0.084c-0.126,0.122 -0,0.233 0.076,0.328c0.184,0.187 0.382,0.382 0.546,0.566c0.425,0.45 0.421,0.45 -0.107,0.825l-0.79,0.08c-0.172,-0.172 -0.34,-0.351 -0.516,-0.516c-0.103,-0.095 -0.206,-0.29 -0.382,-0.13c-0.176,0.161 -0,0.272 0.103,0.382c0.042,0.046 0.092,0.088 0.138,0.134c-0.925,0.06 -1.853,0.056 -2.778,-0.011Z" style="fill:#1967af;fill-rule:nonzero;"/>
            <path d="M9.777,13.696c-0.245,-0.256 -0.49,-0.512 -0.742,-0.764c-0.103,-0.103 -0.172,-0.202 -0.038,-0.332c0.52,-0.501 1.039,-1.001 1.563,-1.498c0.034,-0.03 0.099,-0.027 0.149,-0.038c0.053,0.118 0.164,0.115 0.267,0.115l2.35,-0c0.091,-0 0.183,-0 0.237,-0.104c0.233,0.23 0.462,0.463 0.695,0.688c0.045,0.029 0.072,0.079 0.072,0.132c-0,0.053 -0.027,0.103 -0.072,0.132c-0.134,0.126 -0.256,0.263 -0.382,0.382c-0.527,0.5 -0.352,0.558 -0.932,-0.031c-0.157,-0.156 -0.298,-0.332 -0.455,-0.489c-0.084,-0.08 -0.172,-0.26 -0.309,-0.103c-0.138,0.157 0.026,0.237 0.114,0.329c0.245,0.256 0.482,0.519 0.738,0.764c0.152,0.141 0.141,0.233 -0,0.382c-0.719,0.787 -0.715,0.791 -1.456,-0c-0.088,-0.096 -0.187,-0.187 -0.279,-0.275c-0.092,-0.088 -0.183,-0.134 -0.279,-0.05c-0.095,0.084 0,0.187 0.065,0.26c0.26,0.275 0.52,0.554 0.791,0.821c0.141,0.138 0.16,0.241 -0,0.382c-0.818,0.791 -0.569,0.741 -1.299,0.042c-0.103,-0.099 -0.214,-0.191 -0.321,-0.286c-0.137,-0.174 -0.298,-0.329 -0.477,-0.459Z" style="fill:#b8b8b8;fill-rule:nonzero;"/>
            <path d="M3.82,20.004c0.039,-0.764 0.635,-1.097 1.085,-1.528c1.04,-1.005 2.09,-1.991 3.145,-2.98c0.103,-0.096 0.183,-0.306 0.382,-0.077c0.198,0.23 -0,0.291 -0.115,0.382c-1.398,1.348 -2.799,2.692 -4.202,4.035c-0.065,0.076 -0.134,0.217 -0.295,0.168Z" style="fill:#1967af;fill-rule:nonzero;"/>
            <path d="M18.491,6.441c-0.037,0.049 -0.077,0.097 -0.119,0.142c-0.401,0.382 -0.809,0.764 -1.207,1.18c-0.111,0.111 -0.183,0.122 -0.275,0l-0.027,-0.027c-0.233,-0.244 -0.618,-0.473 -0.653,-0.745c-0.034,-0.271 0.413,-0.45 0.627,-0.691c0.035,-0.039 0.071,-0.076 0.11,-0.111c0.234,-0.206 0.47,-0.653 0.665,-0.588c0.31,0.099 0.531,0.477 0.787,0.737c0.035,0.023 0.054,0.057 0.092,0.103Z" style="fill:#1967af;fill-rule:nonzero;"/>
            <path d="M19.912,6.651l-0.302,0.264c-0.11,0.096 -0.16,-0 -0.221,-0.073c-0.715,-0.729 -1.433,-1.47 -2.147,-2.196c-0.149,-0.153 -0.104,-0.226 0.023,-0.34c0.126,-0.115 0.191,-0.222 0.382,-0.039c0.695,0.734 1.406,1.452 2.108,2.174c0.043,0.054 0.085,0.123 0.157,0.21Z" style="fill:#1967af;fill-rule:nonzero;"/>
            <path d="M10.086,14.178c0.073,0.133 -0,0.217 -0.092,0.305c-0.305,0.302 -0.619,0.604 -0.917,0.913c-0.141,0.146 -0.244,0.069 -0.309,-0.045c-0.065,-0.115 -0.466,-0.241 -0.252,-0.474c0.326,-0.417 0.713,-0.784 1.146,-1.089l0.424,0.39Z" style="fill:#1967af;fill-rule:nonzero;"/>
            <path d="M13.563,11.079c-0.05,0.1 -0.142,0.103 -0.237,0.103l-2.35,0c-0.103,0 -0.214,0 -0.267,-0.114l-0,-0.019l0.023,-0c0.928,0.064 1.86,0.064 2.789,-0l0.019,-0l0.023,0.03Z" style="fill:#b8b8b8;fill-rule:nonzero;"/>
            <path d="M14.189,11.186l0.791,-0.08c-0.275,0.554 -0.386,0.565 -0.791,0.08Z" style="fill:#b8b8b8;fill-rule:nonzero;"/>
            <path d="M10.086,14.178l-0.401,-0.382l0.092,-0.092c0.18,0.135 0.341,0.294 0.477,0.474l-0.168,-0Z" style="fill:#020523;fill-rule:nonzero;"/>
        </g>
    </g>
</svg>
