<?xml version="1.0" encoding="UTF-8" standalone="no"?>
<!DOCTYPE svg PUBLIC "-//W3C//DTD SVG 1.1//EN" "http://www.w3.org/Graphics/SVG/1.1/DTD/svg11.dtd">
<svg width="100%" height="100%" viewBox="0 0 800 800" version="1.1" xmlns="http://www.w3.org/2000/svg" xmlns:xlink="http://www.w3.org/1999/xlink" xml:space="preserve" xmlns:serif="http://www.serif.com/" style="fill-rule:evenodd;clip-rule:evenodd;stroke-linejoin:round;stroke-miterlimit:2;">
    <g transform="matrix(33.3333,0,0,33.3333,-3.60901,-5.41354)">
        <path d="M12,2c-5.5,-0 -10,4.5 -10,10c0,5.5 4.5,10 10,10c5.5,0 10,-4.5 10,-10c0,-5.5 -4.5,-10 -10,-10Z" style="fill:rgb(25,103,175);"/>
        <g transform="matrix(1.64421,0,0,1.64421,-7.6222,-7.58015)">
            <path d="M13.7,11c-0.2,0.3 -0.4,0.6 -0.7,0.7l-0,3.3c-0,0.6 -0.4,1 -1,1c-0.6,-0 -1,-0.4 -1,-1l-0,-3.3c-1,-0.6 -1.3,-1.8 -0.7,-2.7c0.6,-0.9 1.7,-1.3 2.7,-0.7c1,0.5 1.3,1.7 0.7,2.7Z" style="fill:white;"/>
        </g>
    </g>
</svg>
