<?xml version="1.0" encoding="UTF-8" standalone="no"?>
<!DOCTYPE svg PUBLIC "-//W3C//DTD SVG 1.1//EN" "http://www.w3.org/Graphics/SVG/1.1/DTD/svg11.dtd">
<svg width="100%" height="100%" viewBox="0 0 3710 322" version="1.1" xmlns="http://www.w3.org/2000/svg" xmlns:xlink="http://www.w3.org/1999/xlink" xml:space="preserve" xmlns:serif="http://www.serif.com/" style="fill-rule:evenodd;clip-rule:evenodd;stroke-linejoin:round;stroke-miterlimit:2;">
    <g id="Artboard1" transform="matrix(1.99155,0,0,1,165.963,-1053.51)">
        <rect x="-83.333" y="1053.51" width="1862.7" height="321.053" style="fill:rgb(25,103,175);"/>
        <g transform="matrix(1,0,0,1,21.8935,6.88533)">
            <g transform="matrix(0.502121,0,0,1,-103.442,1049.2)">
                <path d="M160.763,171.792c0,6.015 -5.642,10.888 -12.6,10.888l-6.301,-0c-6.958,-0 -12.599,-4.873 -12.599,-10.888l0,-54.432c0,-6.013 5.641,-10.885 12.599,-10.885l6.301,-0c6.958,-0 12.6,4.872 12.6,10.885l0,54.432Z" style="fill:white;fill-rule:nonzero;"/>
            </g>
            <g transform="matrix(0.502121,0,0,1,-103.442,1049.2)">
                <path d="M137.627,188.443c-4.847,-0 -8.779,-3.526 -8.779,-7.876c0,-4.348 3.932,-7.875 8.779,-7.875l47.763,0c4.848,0 8.778,3.527 8.778,7.875c-0,4.35 -3.93,7.876 -8.778,7.876l-47.763,-0Z" style="fill:white;fill-rule:nonzero;"/>
            </g>
            <g transform="matrix(0.502121,0,0,1,-103.442,1049.2)">
                <path d="M157.057,125.29c-4.85,-0 -8.778,-3.525 -8.778,-7.875c0,-4.348 3.928,-7.875 8.778,-7.875l47.762,-0c4.849,-0 8.778,3.527 8.778,7.875c0,4.35 -3.929,7.875 -8.778,7.875l-47.762,-0Z" style="fill:white;fill-rule:nonzero;"/>
            </g>
            <g transform="matrix(0.502121,0,0,1,-103.442,1049.2)">
                <path d="M194.519,229.234c-0,4.846 -3.526,8.777 -7.875,8.777c-4.348,-0 -7.875,-3.931 -7.875,-8.777l-0,-47.765c-0,-4.847 3.527,-8.777 7.875,-8.777c4.349,0 7.875,3.93 7.875,8.777l-0,47.765Z" style="fill:white;fill-rule:nonzero;"/>
            </g>
            <g transform="matrix(0.502121,0,0,1,-103.442,1049.2)">
                <path d="M132.54,125.29c4.848,-0 8.777,-3.525 8.777,-7.875c0,-4.347 -3.929,-7.875 -8.777,-7.875l-47.765,-0c-4.848,-0 -8.777,3.528 -8.777,7.875c0,4.35 3.929,7.875 8.777,7.875l47.765,-0Z" style="fill:white;fill-rule:nonzero;"/>
            </g>
            <g transform="matrix(0.502121,0,0,1,-103.442,1049.2)">
                <path d="M156.813,78.611c4.563,6.518 2.98,15.499 -3.534,20.064c-6.513,4.566 -15.498,2.983 -20.063,-3.532c-4.565,-6.515 -2.982,-15.498 3.534,-20.06c6.515,-4.567 15.496,-2.986 20.063,3.528Z" style="fill:white;fill-rule:nonzero;"/>
            </g>
            <g transform="matrix(0.502121,0,0,1,-103.442,1049.2)">
                <path d="M135.198,190.076c4.855,-3.911 4.947,-8.514 2.22,-11.9c-2.728,-3.386 -7.245,-4.275 -12.099,-0.365l-51.106,41.163c-4.854,3.91 -4.941,8.509 -2.214,11.894c2.729,3.388 7.24,4.282 12.095,0.37l51.104,-41.162Z" style="fill:white;fill-rule:nonzero;"/>
            </g>
            <g transform="matrix(0.502121,0,0,1,-103.442,1049.2)">
                <path d="M234.174,236.386c-0,2.029 -1.646,3.675 -3.674,3.675l-186.901,-0c-2.029,-0 -3.675,-1.646 -3.675,-3.675c-0,-2.03 1.646,-3.675 3.675,-3.675l186.901,-0c2.028,-0 3.674,1.645 3.674,3.675Z" style="fill:white;fill-rule:nonzero;"/>
            </g>
        </g>
        <g transform="matrix(1,0,0,1,50.6585,0.163535)">
            <g transform="matrix(0.502121,0,0,1,-141.778,1068.51)">
                <path d="M489.052,118.505c1.168,0.425 1.512,2.424 0.769,4.464l-37.648,103.43c-0.743,2.041 -2.291,3.351 -3.46,2.926l-4.228,-1.539c-1.168,-0.426 -1.512,-2.424 -0.769,-4.464l37.648,-103.431c0.742,-2.041 2.291,-3.351 3.458,-2.925l4.23,1.539Z" style="fill:white;fill-rule:nonzero;"/>
            </g>
            <g transform="matrix(0.502121,0,0,1,-141.778,1068.51)">
                <path d="M481.737,222.619c0.217,2.475 -1.615,4.658 -4.091,4.875l-143.452,12.549c-2.476,0.218 -4.658,-1.614 -4.875,-4.09l-1.568,-17.931c-0.218,-2.476 1.614,-4.658 4.09,-4.876l143.452,-12.549c2.476,-0.218 4.659,1.614 4.875,4.09l1.569,17.932Z" style="fill:white;fill-rule:nonzero;"/>
            </g>
            <g transform="matrix(0.502121,0,0,1,-141.778,1068.51)">
                <path d="M418.754,239.161l-0,-1.8c-0,-2.486 1.376,-4.5 3.05,-4.5l56.901,0c1.673,0 3.049,2.014 3.049,4.5l-0,1.8l-63,0Z" style="fill:white;fill-rule:nonzero;"/>
            </g>
            <g transform="matrix(0.502121,0,0,1,-141.778,1068.51)">
                <path d="M502.533,114.264c0.708,1.946 -0.119,4.033 -1.851,4.664l-44.477,16.188c-1.731,0.63 -3.707,-0.437 -4.415,-2.383l-0.514,-1.41c-0.708,-1.946 0.12,-4.034 1.851,-4.664l44.478,-16.189c1.73,-0.629 3.707,0.439 4.415,2.384l0.513,1.41Z" style="fill:white;fill-rule:nonzero;"/>
            </g>
            <g transform="matrix(0.502121,0,0,1,-141.778,1068.51)">
                <path d="M505.378,98.036c1.757,1.757 1.757,4.607 -0,6.363l-19.092,19.093c-1.758,1.757 -4.606,1.757 -6.364,0c-1.757,-1.758 -1.757,-4.606 -0,-6.364l19.092,-19.092c1.758,-1.758 4.607,-1.758 6.364,0Z" style="fill:white;fill-rule:nonzero;"/>
            </g>
            <g transform="matrix(0.502121,0,0,1,-141.778,1068.51)">
                <path d="M408.274,125.302c-3.202,6.422 -11.003,9.034 -17.424,5.829c-6.419,-3.203 -9.032,-11.001 -5.828,-17.423l18.114,-36.332c3.201,-6.418 11.001,-9.029 17.423,-5.828c6.419,3.2 9.029,11.003 5.829,17.422l-18.114,36.332Z" style="fill:white;fill-rule:nonzero;"/>
            </g>
            <g transform="matrix(0.502121,0,0,1,-141.778,1068.51)">
                <path d="M435.953,152.891c2.301,2.777 1.092,7.583 -2.706,10.727c-3.796,3.151 -8.743,3.452 -11.044,0.672l-27.545,-33.22c-2.304,-2.78 -1.091,-7.583 2.704,-10.73c3.8,-3.148 8.743,-3.448 11.044,-0.672l27.547,33.223Z" style="fill:white;fill-rule:nonzero;"/>
            </g>
            <g transform="matrix(0.502121,0,0,1,-141.778,1068.51)">
                <path d="M426.588,200.51c-0.877,3.501 -4.903,5.51 -8.995,4.484c-4.094,-1.022 -6.7,-4.693 -5.821,-8.193l10.482,-41.865c0.875,-3.499 4.902,-5.507 8.996,-4.48c4.092,1.024 6.698,4.693 5.821,8.192l-10.483,41.862Z" style="fill:white;fill-rule:nonzero;"/>
            </g>
            <g transform="matrix(0.502121,0,0,1,-141.778,1068.51)">
                <path d="M406.78,163.167c0.445,3.58 -3.163,6.978 -8.058,7.583c-4.894,0.61 -9.224,-1.801 -9.667,-5.383l-5.317,-42.825c-0.445,-3.583 3.165,-6.976 8.057,-7.585c4.897,-0.606 9.224,1.803 9.667,5.383l5.318,42.827Z" style="fill:white;fill-rule:nonzero;"/>
            </g>
            <g transform="matrix(0.502121,0,0,1,-141.778,1068.51)">
                <path d="M378.942,201.376c-2.223,2.843 -6.721,3.042 -10.042,0.441c-3.325,-2.595 -4.214,-7.01 -1.988,-9.85l26.59,-33.991c2.222,-2.844 6.718,-3.041 10.042,-0.44c3.321,2.601 4.211,7.01 1.989,9.852l-26.591,33.988Z" style="fill:white;fill-rule:nonzero;"/>
            </g>
            <g transform="matrix(0.502121,0,0,1,-141.778,1068.51)">
                <path d="M436.056,102.167c1.165,2.754 -0.123,5.93 -2.874,7.096c-2.755,1.166 -5.929,-0.122 -7.096,-2.873l-8.443,-19.936c-1.169,-2.754 0.12,-5.93 2.874,-7.095c2.751,-1.167 5.928,0.12 7.094,2.871l8.445,19.937Z" style="fill:white;fill-rule:nonzero;"/>
            </g>
            <g transform="matrix(0.502121,0,0,1,-141.778,1068.51)">
                <path d="M452.431,96.227c2.966,-0.36 5.664,1.758 6.021,4.727c0.358,2.967 -1.76,5.664 -4.73,6.018l-21.495,2.589c-2.966,0.359 -5.66,-1.757 -6.019,-4.726c-0.359,-2.969 1.757,-5.663 4.727,-6.022l21.496,-2.586Z" style="fill:white;fill-rule:nonzero;"/>
            </g>
            <g transform="matrix(0.502121,0,0,1,-141.778,1068.51)">
                <path d="M386.789,86.208c-2.968,0.373 -5.673,-1.732 -6.045,-4.697c-0.372,-2.968 1.731,-5.671 4.696,-6.045l21.482,-2.695c2.969,-0.374 5.673,1.73 6.045,4.697c0.372,2.966 -1.731,5.673 -4.695,6.046l-21.483,2.694Z" style="fill:white;fill-rule:nonzero;"/>
            </g>
            <g transform="matrix(0.502121,0,0,1,-141.778,1068.51)">
                <path d="M370.588,98.221c-2.414,1.76 -5.802,1.227 -7.563,-1.19c-1.758,-2.417 -1.226,-5.803 1.193,-7.561l17.504,-12.745c2.414,-1.76 5.798,-1.228 7.559,1.19c1.762,2.415 1.228,5.799 -1.19,7.562l-17.503,12.744Z" style="fill:white;fill-rule:nonzero;"/>
            </g>
            <g transform="matrix(0.502121,0,0,1,-141.778,1068.51)">
                <path d="M439.647,57.501c0.943,6.51 -3.566,12.553 -10.073,13.498c-6.51,0.944 -12.553,-3.568 -13.498,-10.076c-0.944,-6.509 3.567,-12.55 10.075,-13.494c6.508,-0.946 12.551,3.566 13.496,10.072Z" style="fill:white;fill-rule:nonzero;"/>
            </g>
        </g>
        <g transform="matrix(1,0,0,1,73.5529,3.08442)">
            <g transform="matrix(0.502121,0,0,1,-165.573,1039.55)">
                <path d="M686.727,168.498c-0,-5.487 3.99,-9.932 8.911,-9.932c4.922,-0 8.91,4.445 8.91,9.932l-0,54.039c-0,5.487 -3.988,9.933 -8.91,9.933c-4.921,-0 -8.911,-4.446 -8.911,-9.933l-0,-54.039Z" style="fill:white;fill-rule:nonzero;"/>
            </g>
            <g transform="matrix(0.502121,0,0,1,-165.573,1039.55)">
                <path d="M667.043,113.008c-2.385,-4.94 -0.729,-10.678 3.701,-12.82c4.431,-2.14 9.958,0.124 12.344,5.063l23.519,48.653c2.389,4.942 0.732,10.679 -3.697,12.822c-4.432,2.141 -9.956,-0.125 -12.345,-5.066l-23.522,-48.652Z" style="fill:white;fill-rule:nonzero;"/>
            </g>
            <g transform="matrix(0.502121,0,0,1,-165.573,1039.55)">
                <path d="M640.848,149.381c2.203,-5.02 -0.493,-11.056 -6.023,-13.48c-5.527,-2.424 -11.795,-0.321 -13.996,4.704l-21.702,49.491c-2.205,5.022 0.494,11.061 6.022,13.484c5.528,2.428 11.795,0.318 13.998,-4.706l21.701,-49.493Z" style="fill:white;fill-rule:nonzero;"/>
            </g>
            <g transform="matrix(0.502121,0,0,1,-165.573,1039.55)">
                <path d="M583.756,225.572c-2.204,5.023 0.491,11.056 6.021,13.483c5.53,2.423 11.799,0.318 13.999,-4.703l21.702,-49.494c2.203,-5.021 -0.497,-11.059 -6.022,-13.483c-5.53,-2.425 -11.795,-0.32 -13.999,4.704l-21.701,49.493Z" style="fill:white;fill-rule:nonzero;"/>
            </g>
            <g transform="matrix(0.502121,0,0,1,-165.573,1039.55)">
                <path d="M625.335,149.381c-2.202,-5.02 0.493,-11.056 6.023,-13.48c5.528,-2.424 11.797,-0.321 13.998,4.704l21.7,49.491c2.204,5.022 -0.494,11.061 -6.02,13.484c-5.529,2.428 -11.797,0.318 -13.998,-4.706l-21.703,-49.493Z" style="fill:white;fill-rule:nonzero;"/>
            </g>
            <g transform="matrix(0.502121,0,0,1,-165.573,1039.55)">
                <path d="M682.428,225.572c2.204,5.023 -0.492,11.056 -6.022,13.483c-5.529,2.423 -11.797,0.318 -13.998,-4.703l-21.701,-49.494c-2.204,-5.021 0.495,-11.059 6.021,-13.483c5.53,-2.425 11.795,-0.32 14,4.704l21.7,49.493Z" style="fill:white;fill-rule:nonzero;"/>
            </g>
            <g transform="matrix(0.502121,0,0,1,-165.573,1039.55)">
                <path d="M737.563,193.529c-7.375,5.163 -17.537,3.371 -22.702,-3.997c-5.164,-7.37 -3.375,-17.535 3.996,-22.7c7.372,-5.166 17.536,-3.375 22.696,3.998c5.168,7.371 3.379,17.531 -3.99,22.699Z" style="fill:white;fill-rule:nonzero;"/>
            </g>
            <g transform="matrix(0.502121,0,0,1,-165.573,1039.55)">
                <path d="M628.743,157.018c-6.961,-2.79 -10.303,-10.778 -7.471,-17.84l2.563,-6.397c2.832,-7.063 10.763,-10.533 17.725,-7.741l63.02,25.256c6.949,2.785 10.307,10.779 7.472,17.841l-2.562,6.399c-2.83,7.061 -10.778,10.525 -17.727,7.739l-63.02,-25.257Z" style="fill:white;fill-rule:nonzero;"/>
            </g>
            <g transform="matrix(0.502121,0,0,1,-165.573,1039.55)">
                <path d="M686.727,168.498c-0,-5.487 3.99,-9.932 8.911,-9.932c4.922,-0 8.91,4.445 8.91,9.932l-0,54.039c-0,5.487 -3.988,9.933 -8.91,9.933c-4.921,-0 -8.911,-4.446 -8.911,-9.933l-0,-54.039Z" style="fill:white;fill-rule:nonzero;"/>
            </g>
            <g transform="matrix(0.502121,0,0,1,-165.573,1039.55)">
                <path d="M667.043,113.008c-2.385,-4.94 -0.729,-10.678 3.701,-12.82c4.431,-2.14 9.958,0.124 12.344,5.063l23.519,48.653c2.389,4.942 0.732,10.679 -3.697,12.822c-4.432,2.141 -9.956,-0.125 -12.345,-5.066l-23.522,-48.652Z" style="fill:white;fill-rule:nonzero;"/>
            </g>
            <g transform="matrix(0.502121,0,0,1,-165.573,1039.55)">
                <path d="M640.848,149.381c2.203,-5.02 -0.493,-11.056 -6.023,-13.48c-5.527,-2.424 -11.795,-0.321 -13.996,4.704l-21.702,49.491c-2.205,5.022 0.494,11.061 6.022,13.484c5.528,2.428 11.795,0.318 13.998,-4.706l21.701,-49.493Z" style="fill:white;fill-rule:nonzero;"/>
            </g>
            <g transform="matrix(0.502121,0,0,1,-165.573,1039.55)">
                <path d="M583.756,225.572c-2.204,5.023 0.491,11.056 6.021,13.483c5.53,2.423 11.799,0.318 13.999,-4.703l21.702,-49.494c2.203,-5.021 -0.497,-11.059 -6.022,-13.483c-5.53,-2.425 -11.795,-0.32 -13.999,4.704l-21.701,49.493Z" style="fill:white;fill-rule:nonzero;"/>
            </g>
            <g transform="matrix(0.502121,0,0,1,-165.573,1039.55)">
                <path d="M625.335,149.381c-2.202,-5.02 0.493,-11.056 6.023,-13.48c5.528,-2.424 11.797,-0.321 13.998,4.704l21.7,49.491c2.204,5.022 -0.494,11.061 -6.02,13.484c-5.529,2.428 -11.797,0.318 -13.998,-4.706l-21.703,-49.493Z" style="fill:white;fill-rule:nonzero;"/>
            </g>
            <g transform="matrix(0.502121,0,0,1,-165.573,1039.55)">
                <path d="M682.428,225.572c2.204,5.023 -0.492,11.056 -6.022,13.483c-5.529,2.423 -11.797,0.318 -13.998,-4.703l-21.701,-49.494c-2.204,-5.021 0.495,-11.059 6.021,-13.483c5.53,-2.425 11.795,-0.32 14,4.704l21.7,49.493Z" style="fill:white;fill-rule:nonzero;"/>
            </g>
            <g transform="matrix(0.502121,0,0,1,-165.573,1039.55)">
                <path d="M737.563,193.529c-7.375,5.163 -17.537,3.371 -22.702,-3.997c-5.164,-7.37 -3.375,-17.535 3.996,-22.7c7.372,-5.166 17.536,-3.375 22.696,3.998c5.168,7.371 3.379,17.531 -3.99,22.699Z" style="fill:white;fill-rule:nonzero;"/>
            </g>
            <g transform="matrix(0.502121,0,0,1,-165.573,1039.55)">
                <path d="M628.743,157.018c-6.961,-2.79 -10.303,-10.778 -7.471,-17.84l2.563,-6.397c2.832,-7.063 10.763,-10.533 17.725,-7.741l63.02,25.256c6.949,2.785 10.307,10.779 7.472,17.841l-2.562,6.399c-2.83,7.061 -10.778,10.525 -17.727,7.739l-63.02,-25.257Z" style="fill:white;fill-rule:nonzero;"/>
            </g>
        </g>
        <g transform="matrix(1,0,0,1,72.1355,-6.52133)">
            <g transform="matrix(0.502121,0,0,1,-167.336,1067.63)">
                <path d="M859.554,170.104c-2.128,9.328 -11.412,15.17 -20.742,13.04c-9.323,-2.13 -15.165,-11.409 -13.036,-20.738l12.028,-52.777c2.126,-9.323 11.408,-15.164 20.736,-13.038c9.325,2.125 15.164,11.412 13.038,20.737l-12.024,52.776Z" style="fill:white;fill-rule:nonzero;"/>
            </g>
            <g transform="matrix(0.502121,0,0,1,-167.336,1067.63)">
                <path d="M897.943,165.652c4.781,0.523 8.083,6.25 7.364,12.784c-0.712,6.541 -5.171,11.417 -9.954,10.891l-57.197,-6.257c-4.785,-0.524 -8.079,-6.251 -7.365,-12.785c0.716,-6.54 5.171,-11.413 9.953,-10.891l57.199,6.258Z" style="fill:white;fill-rule:nonzero;"/>
            </g>
            <g transform="matrix(0.502121,0,0,1,-167.336,1067.63)">
                <path d="M899.612,232.486c-0.55,4.779 -5.525,8.139 -11.111,7.496c-5.585,-0.636 -9.673,-5.035 -9.123,-9.815l6.556,-57.167c0.544,-4.78 5.52,-8.136 11.109,-7.494c5.587,0.644 9.673,5.035 9.125,9.816l-6.556,57.164Z" style="fill:white;fill-rule:nonzero;"/>
            </g>
            <g transform="matrix(0.502121,0,0,1,-167.336,1067.63)">
                <path d="M891.445,115.396c3.716,1.446 5.553,5.631 4.109,9.346c-1.446,3.715 -5.629,5.551 -9.344,4.109l-26.901,-10.469c-3.718,-1.444 -5.555,-5.629 -4.108,-9.341c1.445,-3.716 5.626,-5.556 9.341,-4.111l26.903,10.466Z" style="fill:white;fill-rule:nonzero;"/>
            </g>
            <g transform="matrix(0.502121,0,0,1,-167.336,1067.63)">
                <path d="M918.064,111.129c3.949,-0.532 7.583,2.244 8.115,6.195c0.529,3.949 -2.244,7.582 -6.196,8.109l-28.611,3.844c-3.949,0.532 -7.579,-2.239 -8.111,-6.192c-0.534,-3.949 2.241,-7.58 6.193,-8.113l28.61,-3.843Z" style="fill:white;fill-rule:nonzero;"/>
            </g>
            <g transform="matrix(0.502121,0,0,1,-167.336,1067.63)">
                <path d="M878.849,72.381c3.271,8.137 -0.667,17.385 -8.801,20.66c-8.138,3.273 -17.386,-0.67 -20.662,-8.803c-3.273,-8.137 0.669,-17.383 8.804,-20.657c8.134,-3.275 17.385,0.667 20.659,8.8Z" style="fill:white;fill-rule:nonzero;"/>
            </g>
        </g>
        <g transform="matrix(1,0,0,1,18.6539,-4.50932)">
            <g transform="matrix(0.502121,0,0,1,315.611,797.339)">
                <path d="M910.615,436.03c1.006,5.639 -4.353,11.309 -11.963,12.666l-6.892,1.228c-7.61,1.357 -14.596,-2.113 -15.602,-7.753l-9.097,-51.035c-1.005,-5.638 4.354,-11.306 11.964,-12.663l6.892,-1.228c7.61,-1.357 14.596,2.112 15.601,7.75l9.097,51.035Z" style="fill:white;fill-rule:nonzero;"/>
            </g>
            <g transform="matrix(0.502121,0,0,1,315.611,797.339)">
                <path d="M867.669,394.054c3.06,3.457 8.055,4.036 11.157,1.291c3.101,-2.744 3.137,-7.773 0.078,-11.231l-30.145,-34.069c-3.059,-3.458 -8.054,-4.034 -11.156,-1.29c-3.102,2.745 -3.137,7.773 -0.077,11.231l30.143,34.068Z" style="fill:white;fill-rule:nonzero;"/>
            </g>
            <g transform="matrix(0.502121,0,0,1,315.611,797.339)">
                <path d="M889.327,353.009c4.345,6.209 2.838,14.762 -3.366,19.11c-6.203,4.347 -14.759,2.841 -19.107,-3.364c-4.348,-6.205 -2.84,-14.759 3.365,-19.105c6.205,-4.35 14.758,-2.844 19.108,3.359Z" style="fill:white;fill-rule:nonzero;"/>
            </g>
            <g transform="matrix(0.502121,0,0,1,315.611,797.339)">
                <path d="M888.452,452.383c3.416,-4.856 2.289,-9.093 -1.098,-11.477c-3.387,-2.382 -7.754,-2.009 -11.17,2.846l-35.961,51.115c-3.416,4.854 -2.287,9.089 1.1,11.469c3.388,2.385 7.754,2.018 11.17,-2.839l35.959,-51.114Z" style="fill:white;fill-rule:nonzero;"/>
            </g>
            <g transform="matrix(0.502121,0,0,1,315.611,797.339)">
                <path d="M896.601,440.12c-1.413,-5.766 1.177,-9.303 5.198,-10.292c4.022,-0.987 7.955,0.95 9.371,6.715l14.902,60.694c1.417,5.764 -1.175,9.299 -5.196,10.284c-4.025,0.988 -7.956,-0.94 -9.371,-6.708l-14.904,-60.693Z" style="fill:white;fill-rule:nonzero;"/>
            </g>
            <g transform="matrix(0.502121,0,0,1,315.611,797.339)">
                <path d="M886.016,385.631c1.006,4.507 5.098,7.429 9.14,6.527c4.042,-0.903 6.506,-5.287 5.5,-9.794l-9.91,-44.398c-1.006,-4.506 -5.1,-7.426 -9.142,-6.524c-4.043,0.902 -6.504,5.286 -5.498,9.793l9.91,44.396Z" style="fill:white;fill-rule:nonzero;"/>
            </g>
            <g transform="matrix(0.502121,0,0,1,315.611,797.339)">
                <path d="M910.615,436.03c1.006,5.639 -4.353,11.309 -11.963,12.666l-6.892,1.228c-7.61,1.357 -14.596,-2.113 -15.602,-7.753l-9.097,-51.035c-1.005,-5.638 4.354,-11.306 11.964,-12.663l6.892,-1.228c7.61,-1.357 14.596,2.112 15.601,7.75l9.097,51.035Z" style="fill:white;fill-rule:nonzero;"/>
            </g>
            <g transform="matrix(0.502121,0,0,1,315.611,797.339)">
                <path d="M867.669,394.054c3.06,3.457 8.055,4.036 11.157,1.291c3.101,-2.744 3.137,-7.773 0.078,-11.231l-30.145,-34.069c-3.059,-3.458 -8.054,-4.034 -11.156,-1.29c-3.102,2.745 -3.137,7.773 -0.077,11.231l30.143,34.068Z" style="fill:white;fill-rule:nonzero;"/>
            </g>
            <g transform="matrix(0.502121,0,0,1,315.611,797.339)">
                <path d="M889.327,353.009c4.345,6.209 2.838,14.762 -3.366,19.11c-6.203,4.347 -14.759,2.841 -19.107,-3.364c-4.348,-6.205 -2.84,-14.759 3.365,-19.105c6.205,-4.35 14.758,-2.844 19.108,3.359Z" style="fill:white;fill-rule:nonzero;"/>
            </g>
            <g transform="matrix(0.502121,0,0,1,315.611,797.339)">
                <path d="M888.452,452.383c3.416,-4.856 2.289,-9.093 -1.098,-11.477c-3.387,-2.382 -7.754,-2.009 -11.17,2.846l-35.961,51.115c-3.416,4.854 -2.287,9.089 1.1,11.469c3.388,2.385 7.754,2.018 11.17,-2.839l35.959,-51.114Z" style="fill:white;fill-rule:nonzero;"/>
            </g>
            <g transform="matrix(0.502121,0,0,1,315.611,797.339)">
                <path d="M896.601,440.12c-1.413,-5.766 1.177,-9.303 5.198,-10.292c4.022,-0.987 7.955,0.95 9.371,6.715l14.902,60.694c1.417,5.764 -1.175,9.299 -5.196,10.284c-4.025,0.988 -7.956,-0.94 -9.371,-6.708l-14.904,-60.693Z" style="fill:white;fill-rule:nonzero;"/>
            </g>
            <g transform="matrix(0.502121,0,0,1,315.611,797.339)">
                <path d="M886.016,385.631c1.006,4.507 5.098,7.429 9.14,6.527c4.042,-0.903 6.506,-5.287 5.5,-9.794l-9.91,-44.398c-1.006,-4.506 -5.1,-7.426 -9.142,-6.524c-4.043,0.902 -6.504,5.286 -5.498,9.793l9.91,44.396Z" style="fill:white;fill-rule:nonzero;"/>
            </g>
        </g>
        <g transform="matrix(1,0,0,1,81.043,-34.9054)">
            <g transform="matrix(0.502121,0,0,1,315.611,797.339)">
                <path d="M131.782,461.816c5.728,-0 10.369,5.373 10.369,12l0,6c0,6.627 -4.641,12 -10.369,12l-51.84,0c-5.727,0 -10.367,-5.373 -10.367,-12l-0,-6c-0,-6.627 4.64,-12 10.367,-12l51.84,-0Z" style="fill:white;fill-rule:nonzero;"/>
            </g>
            <g transform="matrix(0.502121,0,0,1,315.611,797.339)">
                <path d="M84.897,473.961c-4.062,2.2 -8.949,1.027 -10.921,-2.616c-1.972,-3.642 -0.282,-8.376 3.78,-10.575l40.003,-21.655c4.061,-2.198 8.951,-1.026 10.922,2.616c1.972,3.643 0.279,8.377 -3.781,10.575l-40.003,21.655Z" style="fill:white;fill-rule:nonzero;"/>
            </g>
            <g transform="matrix(0.502121,0,0,1,315.611,797.339)">
                <path d="M179.189,476.816c4.615,-0 8.359,3.358 8.359,7.5c0,4.141 -3.744,7.5 -8.359,7.5l-45.49,0c-4.617,0 -8.359,-3.359 -8.359,-7.5c-0,-4.142 3.742,-7.5 8.359,-7.5l45.49,-0Z" style="fill:white;fill-rule:nonzero;"/>
            </g>
            <g transform="matrix(0.502121,0,0,1,315.611,797.339)">
                <path d="M218.189,476.816c4.615,-0 8.359,3.358 8.359,7.5c0,4.141 -3.744,7.5 -8.359,7.5l-45.49,0c-4.617,0 -8.359,-3.359 -8.359,-7.5c-0,-4.142 3.742,-7.5 8.359,-7.5l45.49,-0Z" style="fill:white;fill-rule:nonzero;"/>
            </g>
            <g transform="matrix(0.502121,0,0,1,315.611,797.339)">
                <path d="M159.321,436.514c3.423,-3.096 8.451,-3.116 11.23,-0.043c2.777,3.07 2.253,8.073 -1.17,11.169l-33.742,30.509c-3.424,3.097 -8.453,3.115 -11.23,0.044c-2.778,-3.073 -2.255,-8.073 1.17,-11.17l33.742,-30.509Z" style="fill:white;fill-rule:nonzero;"/>
            </g>
            <g transform="matrix(0.502121,0,0,1,315.611,797.339)">
                <path d="M188.249,410.357c3.422,-3.095 8.451,-3.116 11.23,-0.043c2.777,3.071 2.253,8.074 -1.17,11.169l-33.742,30.51c-3.424,3.096 -8.453,3.114 -11.23,0.043c-2.778,-3.073 -2.254,-8.073 1.169,-11.169l33.743,-30.51Z" style="fill:white;fill-rule:nonzero;"/>
            </g>
            <g transform="matrix(0.502121,0,0,1,315.611,797.339)">
                <path d="M47.247,448.486c6.208,-4.345 14.761,-2.838 19.109,3.366c4.348,6.203 2.841,14.759 -3.364,19.107c-6.205,4.348 -14.76,2.84 -19.105,-3.365c-4.349,-6.205 -2.844,-14.758 3.36,-19.108Z" style="fill:white;fill-rule:nonzero;"/>
            </g>
            <g transform="matrix(0.502121,0,0,1,315.611,797.339)">
                <path d="M75.038,476.816c4.615,-0 8.359,3.358 8.359,7.5c0,4.141 -3.744,7.5 -8.359,7.5l-45.49,0c-4.617,0 -8.359,-3.359 -8.359,-7.5c-0,-4.142 3.742,-7.5 8.359,-7.5l45.49,-0Z" style="fill:white;fill-rule:nonzero;"/>
            </g>
            <g transform="matrix(0.502121,0,0,1,315.611,797.339)">
                <path d="M182.189,436.411c9.933,-6.954 23.619,-4.541 30.574,5.384c6.956,9.925 4.547,23.616 -5.382,30.572c-9.928,6.956 -23.616,4.544 -30.567,-5.384c-6.959,-9.928 -4.55,-23.613 5.375,-30.572Z" style="fill:white;fill-rule:nonzero;"/>
            </g>
        </g>
        <g transform="matrix(1,0,0,1,76.5556,-12.8001)">
            <g transform="matrix(0.502121,0,0,1,315.611,797.339)">
                <path d="M453.642,401.385l-10.394,-25.46l6.019,-2.457l10.392,25.46l-6.017,2.457Z" style="fill:white;fill-rule:nonzero;"/>
            </g>
            <g transform="matrix(0.502121,0,0,1,315.611,797.339)">
                <path d="M456.292,411.846c-0.64,0.261 -1.326,0.059 -1.534,-0.45l-4.444,-10.886c-0.208,-0.509 0.142,-1.133 0.782,-1.393l8.794,-3.591c0.639,-0.262 1.326,-0.06 1.534,0.45l4.443,10.884c0.208,0.51 -0.141,1.135 -0.78,1.395l-8.795,3.591Z" style="fill:white;fill-rule:nonzero;"/>
            </g>
            <g transform="matrix(0.502121,0,0,1,315.611,797.339)">
                <path d="M443.018,379.328c-0.64,0.261 -1.326,0.059 -1.535,-0.451l-4.442,-10.883c-0.209,-0.51 0.141,-1.135 0.78,-1.396l8.795,-3.591c0.639,-0.261 1.326,-0.058 1.533,0.45l4.445,10.885c0.207,0.51 -0.143,1.135 -0.78,1.396l-8.796,3.59Z" style="fill:white;fill-rule:nonzero;"/>
            </g>
            <g transform="matrix(0.502121,0,0,1,315.611,797.339)">
                <path d="M322.269,401.385l10.394,-25.46l-6.019,-2.457l-10.392,25.46l6.017,2.457Z" style="fill:white;fill-rule:nonzero;"/>
            </g>
            <g transform="matrix(0.502121,0,0,1,315.611,797.339)">
                <path d="M319.619,411.846c0.639,0.261 1.326,0.059 1.534,-0.45l4.443,-10.886c0.208,-0.509 -0.141,-1.133 -0.781,-1.393l-8.794,-3.591c-0.64,-0.262 -1.326,-0.06 -1.534,0.45l-4.444,10.884c-0.208,0.51 0.142,1.135 0.781,1.395l8.795,3.591Z" style="fill:white;fill-rule:nonzero;"/>
            </g>
            <g transform="matrix(0.502121,0,0,1,315.611,797.339)">
                <path d="M332.893,379.328c0.639,0.261 1.325,0.059 1.534,-0.451l4.443,-10.883c0.209,-0.51 -0.141,-1.135 -0.781,-1.396l-8.795,-3.591c-0.638,-0.261 -1.326,-0.058 -1.533,0.45l-4.444,10.885c-0.207,0.51 0.143,1.135 0.78,1.396l8.796,3.59Z" style="fill:white;fill-rule:nonzero;"/>
            </g>
            <g transform="matrix(0.502121,0,0,1,315.611,797.339)">
                <path d="M405.206,442.45c-0,5.728 -6.27,10.37 -14,10.37l-7,0c-7.731,0 -14,-4.642 -14,-10.37l-0,-51.84c-0,-5.727 6.269,-10.367 14,-10.367l7,-0c7.73,-0 14,4.64 14,10.367l-0,51.84Z" style="fill:white;fill-rule:nonzero;"/>
            </g>
            <g transform="matrix(0.502121,0,0,1,315.611,797.339)">
                <path d="M399.176,398.163c-4.619,0 -8.359,-3.358 -8.359,-7.5c-0,-4.141 3.74,-7.5 8.359,-7.5l45.489,0c4.617,0 8.359,3.359 8.359,7.5c-0,4.142 -3.742,7.5 -8.359,7.5l-45.489,0Z" style="fill:white;fill-rule:nonzero;"/>
            </g>
            <g transform="matrix(0.502121,0,0,1,315.611,797.339)">
                <path d="M375.827,398.163c4.617,0 8.359,-3.358 8.359,-7.5c0,-4.141 -3.742,-7.5 -8.359,-7.5l-45.491,0c-4.617,0 -8.359,3.359 -8.359,7.5c-0,4.142 3.742,7.5 8.359,7.5l45.491,0Z" style="fill:white;fill-rule:nonzero;"/>
            </g>
            <g transform="matrix(0.502121,0,0,1,315.611,797.339)">
                <path d="M398.944,353.706c4.346,6.209 2.838,14.761 -3.365,19.109c-6.203,4.348 -14.76,2.842 -19.108,-3.363c-4.347,-6.205 -2.84,-14.76 3.365,-19.106c6.206,-4.349 14.758,-2.844 19.108,3.36Z" style="fill:white;fill-rule:nonzero;"/>
            </g>
            <g transform="matrix(0.502121,0,0,1,315.611,797.339)">
                <path d="M383.319,452.383c3.415,-4.856 2.289,-9.093 -1.098,-11.477c-3.386,-2.382 -7.755,-2.009 -11.171,2.846l-35.96,51.115c-3.416,4.854 -2.287,9.089 1.1,11.469c3.389,2.385 7.753,2.018 11.169,-2.839l35.96,-51.114Z" style="fill:white;fill-rule:nonzero;"/>
            </g>
            <g transform="matrix(0.502121,0,0,1,315.611,797.339)">
                <path d="M392.09,452.383c-3.415,-4.856 -2.289,-9.093 1.098,-11.477c3.387,-2.382 7.755,-2.009 11.171,2.846l35.96,51.115c3.416,4.854 2.287,9.089 -1.1,11.469c-3.388,2.385 -7.753,2.018 -11.169,-2.839l-35.96,-51.114Z" style="fill:white;fill-rule:nonzero;"/>
            </g>
        </g>
        <g transform="matrix(1,0,0,1,55.0699,-9.40034)">
            <g transform="matrix(0.502121,0,0,1,315.611,797.339)">
                <path d="M652.302,443.36c-1.544,6.109 -8.527,9.609 -15.593,7.822l-6.4,-1.619c-7.067,-1.788 -11.544,-8.187 -9.998,-14.294l13.983,-55.284c1.545,-6.107 8.529,-9.606 15.595,-7.818l6.399,1.619c7.066,1.787 11.544,8.186 9.999,14.292l-13.985,55.282Z" style="fill:white;fill-rule:nonzero;"/>
            </g>
            <g transform="matrix(0.502121,0,0,1,315.611,797.339)">
                <path d="M628.349,449.659c-5.026,-0.741 -8.561,-4.995 -7.898,-9.504c0.665,-4.507 5.278,-7.561 10.304,-6.82l49.501,7.295c5.024,0.74 8.559,4.996 7.895,9.502c-0.665,4.51 -5.276,7.563 -10.301,6.822l-49.501,-7.295Z" style="fill:white;fill-rule:nonzero;"/>
            </g>
            <g transform="matrix(0.502121,0,0,1,315.611,797.339)">
                <path d="M646.199,392.643c-2.667,-4.325 -1.683,-9.765 2.195,-12.158c3.876,-2.391 9.182,-0.828 11.849,3.496l26.266,42.589c2.666,4.323 1.681,9.766 -2.196,12.158c-3.879,2.391 -9.184,0.827 -11.849,-3.496l-26.265,-42.589Z" style="fill:white;fill-rule:nonzero;"/>
            </g>
            <g transform="matrix(0.502121,0,0,1,315.611,797.339)">
                <path d="M676.988,500.338c-1.1,4.956 -5.597,8.177 -10.046,7.19c-4.446,-0.987 -7.161,-5.807 -6.062,-10.764l10.838,-48.851c1.1,-4.958 5.6,-8.176 10.046,-7.19c4.448,0.987 7.163,5.806 6.063,10.764l-10.839,48.851Z" style="fill:white;fill-rule:nonzero;"/>
            </g>
            <g transform="matrix(0.502121,0,0,1,315.611,797.339)">
                <path d="M670.418,347.491c4.781,6.829 3.122,16.237 -3.702,21.02c-6.823,4.782 -16.235,3.125 -21.017,-3.7c-4.783,-6.826 -3.124,-16.236 3.701,-21.016c6.826,-4.784 16.233,-3.128 21.018,3.696Z" style="fill:white;fill-rule:nonzero;"/>
            </g>
            <g transform="matrix(0.502121,0,0,1,315.611,797.339)">
                <path d="M635.469,444.265c3.45,-5.546 1.951,-10.129 -1.917,-12.536c-3.867,-2.405 -8.642,-1.724 -12.092,3.82l-36.315,58.371c-3.451,5.544 -1.945,10.124 1.92,12.53c3.871,2.406 8.641,1.732 12.091,-3.815l36.313,-58.37Z" style="fill:white;fill-rule:nonzero;"/>
            </g>
        </g>
        <g transform="matrix(1,0,0,1,39.5691,-9.5547)">
            <g transform="matrix(0.502121,0,0,1,786.66,531.437)">
                <path d="M104.747,705.573c-6.3,-0 -11.406,-5.91 -11.406,-13.2l0,-6.6c0,-7.29 5.106,-13.2 11.406,-13.2l57.024,-0c6.299,-0 11.404,5.91 11.404,13.2l0,6.6c0,7.29 -5.105,13.2 -11.404,13.2l-57.024,-0Z" style="fill:white;fill-rule:nonzero;"/>
            </g>
            <g transform="matrix(0.502121,0,0,1,786.66,531.437)">
                <path d="M87.304,681.803c0,-5.079 3.693,-9.197 8.251,-9.197c4.556,-0 8.249,4.118 8.249,9.197l0,50.037c0,5.079 -3.693,9.196 -8.249,9.196c-4.558,0 -8.251,-4.117 -8.251,-9.196l0,-50.037Z" style="fill:white;fill-rule:nonzero;"/>
            </g>
            <g transform="matrix(0.502121,0,0,1,786.66,531.437)">
                <path d="M153.463,683.275c-0,-5.081 3.693,-9.195 8.25,-9.195c4.557,-0 8.25,4.114 8.25,9.195l-0,50.037c-0,5.079 -3.693,9.195 -8.25,9.195c-4.557,-0 -8.25,-4.116 -8.25,-9.195l-0,-50.037Z" style="fill:white;fill-rule:nonzero;"/>
            </g>
            <g transform="matrix(0.502121,0,0,1,786.66,531.437)">
                <path d="M44.571,741.403c-5.077,0 -9.195,-3.693 -9.195,-8.25c-0,-4.555 4.118,-8.25 9.195,-8.25l50.039,0c5.078,0 9.194,3.695 9.194,8.25c0,4.557 -4.116,8.25 -9.194,8.25l-50.039,0Z" style="fill:white;fill-rule:nonzero;"/>
            </g>
            <g transform="matrix(0.502121,0,0,1,786.66,531.437)">
                <path d="M209.741,693.161c5.079,0 9.195,-3.693 9.195,-8.25c0,-4.555 -4.116,-8.25 -9.195,-8.25l-50.039,0c-5.079,0 -9.196,3.695 -9.196,8.25c-0,4.557 4.117,8.25 9.196,8.25l50.039,0Z" style="fill:white;fill-rule:nonzero;"/>
            </g>
            <g transform="matrix(0.502121,0,0,1,786.66,531.437)">
                <path d="M172.689,665.888c-6.828,4.78 -16.238,3.121 -21.021,-3.702c-4.782,-6.823 -3.123,-16.235 3.703,-21.019c6.825,-4.782 16.235,-3.123 21.013,3.703c4.785,6.825 3.128,16.233 -3.695,21.018Z" style="fill:white;fill-rule:nonzero;"/>
            </g>
            <g transform="matrix(0.502121,0,0,1,786.66,531.437)">
                <path d="M99.547,689.182c6.531,0.011 9.637,-3.681 9.644,-8.236c0.007,-4.554 -3.088,-8.253 -9.618,-8.263l-68.746,-0.11c-6.53,-0.011 -9.629,3.679 -9.638,8.233c-0.006,4.559 3.081,8.257 9.613,8.266l68.745,0.11Z" style="fill:white;fill-rule:nonzero;"/>
            </g>
        </g>
        <g transform="matrix(1,0,0,1,28.7226,7.04269)">
            <g transform="matrix(0.502121,0,0,1,786.66,531.437)">
                <path d="M363.507,683.943c-2.593,6.69 -10.119,10.014 -16.81,7.419c-6.688,-2.594 -10.012,-10.116 -7.418,-16.807l14.668,-37.854c2.592,-6.689 10.117,-10.011 16.806,-7.419c6.69,2.591 10.012,10.117 7.42,16.806l-14.666,37.855Z" style="fill:white;fill-rule:nonzero;"/>
            </g>
            <g transform="matrix(0.502121,0,0,1,786.66,531.437)">
                <path d="M393.625,708.847c2.548,2.551 1.791,7.447 -1.702,10.931c-3.486,3.489 -8.384,4.247 -10.933,1.693l-30.506,-30.522c-2.553,-2.554 -1.789,-7.449 1.697,-10.936c3.49,-3.486 8.385,-4.243 10.934,-1.692l30.51,30.526Z" style="fill:white;fill-rule:nonzero;"/>
            </g>
            <g transform="matrix(0.502121,0,0,1,786.66,531.437)">
                <path d="M388.714,757.128c-0.546,3.568 -4.371,5.942 -8.539,5.299c-4.172,-0.638 -7.107,-4.051 -6.556,-7.618l6.556,-42.656c0.547,-3.566 4.369,-5.938 8.541,-5.295c4.17,0.64 7.104,4.052 6.555,7.617l-6.557,42.653Z" style="fill:white;fill-rule:nonzero;"/>
            </g>
            <g transform="matrix(0.502121,0,0,1,786.66,531.437)">
                <path d="M355.394,722.728c-0.057,3.606 -4.101,6.471 -9.033,6.39c-4.932,-0.078 -8.883,-3.066 -8.826,-6.674l0.685,-43.15c0.059,-3.609 4.106,-6.468 9.033,-6.39c4.936,0.08 8.885,3.067 8.827,6.674l-0.686,43.15Z" style="fill:white;fill-rule:nonzero;"/>
            </g>
            <g transform="matrix(0.502121,0,0,1,786.66,531.437)">
                <path d="M328.488,762.358c-2.123,2.919 -6.611,3.273 -10.022,0.79c-3.412,-2.478 -4.455,-6.859 -2.328,-9.775l25.391,-34.897c2.121,-2.918 6.607,-3.271 10.019,-0.788c3.411,2.483 4.454,6.859 2.33,9.777l-25.39,34.893Z" style="fill:white;fill-rule:nonzero;"/>
            </g>
            <g transform="matrix(0.502121,0,0,1,786.66,531.437)">
                <path d="M365.035,663.58c-0.756,2.893 -3.715,4.621 -6.608,3.866c-2.892,-0.757 -4.621,-3.715 -3.865,-6.607l5.482,-20.946c0.754,-2.893 3.713,-4.622 6.606,-3.864c2.891,0.755 4.621,3.714 3.867,6.604l-5.482,20.947Z" style="fill:white;fill-rule:nonzero;"/>
            </g>
            <g transform="matrix(0.502121,0,0,1,786.66,531.437)">
                <path d="M381.826,662.508c2.904,0.697 4.695,3.622 3.994,6.53c-0.699,2.906 -3.621,4.695 -6.529,3.992l-21.051,-5.066c-2.905,-0.697 -4.694,-3.618 -3.992,-6.526c0.697,-2.908 3.619,-4.697 6.527,-3.996l21.051,5.066Z" style="fill:white;fill-rule:nonzero;"/>
            </g>
            <g transform="matrix(0.502121,0,0,1,786.66,531.437)">
                <path d="M386.521,648.605c2.432,1.739 2.99,5.12 1.252,7.552c-1.74,2.432 -5.117,2.991 -7.551,1.254l-17.609,-12.594c-2.436,-1.738 -2.994,-5.119 -1.254,-7.551c1.738,-2.433 5.119,-2.994 7.549,-1.256l17.613,12.595Z" style="fill:white;fill-rule:nonzero;"/>
            </g>
            <g transform="matrix(0.502121,0,0,1,786.66,531.437)">
                <path d="M406.57,650.771c2.971,0.344 5.096,3.034 4.75,6.004c-0.348,2.969 -3.035,5.095 -6.006,4.746l-21.506,-2.511c-2.967,-0.345 -5.092,-3.032 -4.746,-6.004c0.344,-2.969 3.031,-5.092 6.004,-4.748l21.504,2.513Z" style="fill:white;fill-rule:nonzero;"/>
            </g>
            <g transform="matrix(0.502121,0,0,1,786.66,531.437)">
                <path d="M389.515,611.604c1.684,6.978 -2.605,14.001 -9.579,15.686c-6.98,1.684 -14.002,-2.607 -15.688,-9.583c-1.686,-6.978 2.605,-13.999 9.582,-15.684c6.977,-1.685 13.999,2.605 15.685,9.581Z" style="fill:white;fill-rule:nonzero;"/>
            </g>
            <g transform="matrix(0.502121,0,0,1,786.66,531.437)">
                <path d="M394.138,672.79c-1.939,4.031 -6.781,5.724 -10.812,3.783c-4.03,-1.942 -5.725,-6.782 -3.782,-10.813c1.94,-4.03 6.782,-5.724 10.811,-3.782c4.031,1.941 5.725,6.781 3.783,10.812Z" style="fill:white;fill-rule:nonzero;"/>
            </g>
            <g transform="matrix(0.502121,0,0,1,786.66,531.437)">
                <path d="M420.334,656.843c0,4.474 -3.627,8.1 -8.102,8.1c-4.475,-0 -8.1,-3.626 -8.1,-8.1c-0,-4.473 3.625,-8.1 8.1,-8.1c4.475,0 8.102,3.627 8.102,8.1Z" style="fill:white;fill-rule:nonzero;"/>
            </g>
            <g transform="matrix(0.502121,0,0,1,786.66,531.437)">
                <path d="M460.875,688.122c0,8.284 -6.716,15 -15,15l-10,0c-8.285,0 -15,-6.716 -15,-15l0,-60c0,-8.285 6.715,-15 15,-15l10,0c8.284,0 15,6.715 15,15l0,60Z" style="fill:white;fill-rule:nonzero;"/>
            </g>
            <g transform="matrix(0.502121,0,0,1,786.66,531.437)">
                <rect x="437.875" y="582.946" width="6" height="60" style="fill:white;fill-rule:nonzero;"/>
            </g>
        </g>
        <g transform="matrix(1,0,0,1,12.8214,-5.43078)">
            <g transform="matrix(0.502121,0,0,1,786.66,531.437)">
                <path d="M647.995,699.483c-0,5.728 -6.27,10.369 -14,10.369l-7,-0c-7.731,-0 -14,-4.641 -14,-10.369l-0,-51.84c-0,-5.727 6.269,-10.367 14,-10.367l7,0c7.73,0 14,4.64 14,10.367l-0,51.84Z" style="fill:white;fill-rule:nonzero;"/>
            </g>
            <g transform="matrix(0.502121,0,0,1,786.66,531.437)">
                <path d="M647.266,655.105c-4.186,1.952 -8.995,0.49 -10.746,-3.264c-1.75,-3.753 0.221,-8.379 4.406,-10.33l41.228,-19.224c4.184,-1.953 8.996,-0.489 10.746,3.263c1.751,3.755 -0.222,8.379 -4.406,10.33l-41.228,19.225Z" style="fill:white;fill-rule:nonzero;"/>
            </g>
            <g transform="matrix(0.502121,0,0,1,786.66,531.437)">
                <path d="M613.315,655.106c4.185,1.951 8.995,0.489 10.746,-3.265c1.75,-3.753 -0.223,-8.379 -4.407,-10.33l-41.228,-19.225c-4.184,-1.952 -8.996,-0.489 -10.746,3.264c-1.751,3.755 0.222,8.379 4.406,10.33l41.229,19.226Z" style="fill:white;fill-rule:nonzero;"/>
            </g>
            <g transform="matrix(0.502121,0,0,1,786.66,531.437)">
                <path d="M641.733,613.739c4.346,6.209 2.838,14.761 -3.365,19.109c-6.203,4.348 -14.76,2.842 -19.108,-3.363c-4.347,-6.205 -2.84,-14.76 3.366,-19.106c6.205,-4.349 14.757,-2.843 19.107,3.36Z" style="fill:white;fill-rule:nonzero;"/>
            </g>
            <g transform="matrix(0.502121,0,0,1,786.66,531.437)">
                <path d="M626.108,709.416c3.416,-4.857 2.289,-9.093 -1.098,-11.478c-3.386,-2.381 -7.754,-2.008 -11.17,2.848l-35.961,51.113c-3.416,4.855 -2.287,9.09 1.1,11.471c3.389,2.384 7.754,2.017 11.17,-2.84l35.959,-51.114Z" style="fill:white;fill-rule:nonzero;"/>
            </g>
            <g transform="matrix(0.502121,0,0,1,786.66,531.437)">
                <path d="M634.879,709.416c-3.414,-4.857 -2.289,-9.093 1.098,-11.478c3.387,-2.381 7.756,-2.008 11.172,2.848l35.959,51.113c3.417,4.855 2.288,9.09 -1.1,11.471c-3.388,2.384 -7.752,2.017 -11.168,-2.84l-35.961,-51.114Z" style="fill:white;fill-rule:nonzero;"/>
            </g>
            <g transform="matrix(0.502121,0,0,1,786.66,531.437)">
                <path d="M630.404,670.367c-22.566,1.977 -40.177,11.427 -39.331,21.109c0.847,9.682 19.829,15.929 42.396,13.953c22.567,-1.978 40.177,-11.428 39.332,-21.111c-0.847,-9.681 -19.829,-15.927 -42.397,-13.951Zm2.861,32.723c-20.957,1.835 -38.539,-3.478 -39.272,-11.869c-0.734,-8.391 15.66,-16.681 36.616,-18.516c20.956,-1.835 38.54,3.478 39.271,11.869c0.735,8.391 -15.659,16.68 -36.615,18.516Z" style="fill:white;fill-rule:nonzero;"/>
            </g>
        </g>
        <g transform="matrix(1,0,0,1,20.9321,-27.1636)">
            <g transform="matrix(0.502121,0,0,1,786.66,531.437)">
                <path d="M843.37,699.655c4.773,-1.738 9.906,0.323 11.465,4.608c1.557,4.28 -1.049,9.159 -5.823,10.897l-47.019,17.112c-4.773,1.737 -9.904,-0.324 -11.462,-4.605c-1.559,-4.283 1.047,-9.162 5.818,-10.897l47.021,-17.115Z" style="fill:white;fill-rule:nonzero;"/>
            </g>
            <g transform="matrix(0.502121,0,0,1,786.66,531.437)">
                <path d="M763.796,746.175c-4.77,1.737 -9.903,-0.323 -11.461,-4.606c-1.558,-4.28 1.048,-9.162 5.819,-10.899l47.021,-17.114c4.772,-1.736 9.904,0.328 11.461,4.608c1.559,4.283 -1.046,9.161 -5.818,10.897l-47.022,17.114Z" style="fill:white;fill-rule:nonzero;"/>
            </g>
            <g transform="matrix(0.502121,0,0,1,786.66,531.437)">
                <path d="M916.762,669.463c-8.191,1.53 -13.594,9.412 -12.07,17.604c1.526,8.193 9.409,13.596 17.601,12.069c8.194,-1.524 13.598,-9.409 12.068,-17.597c-1.526,-8.196 -9.404,-13.599 -17.599,-12.076Z" style="fill:white;fill-rule:nonzero;"/>
            </g>
            <g transform="matrix(0.502121,0,0,1,786.66,531.437)">
                <path d="M843.169,693.635c-5.047,1.837 -7.651,7.421 -5.813,12.468l1.663,4.572c1.837,5.048 7.421,7.652 12.469,5.814l45.706,-16.636c5.05,-1.838 7.653,-7.42 5.816,-12.469l-1.664,-4.57c-1.837,-5.049 -7.42,-7.651 -12.469,-5.815l-45.708,16.636Z" style="fill:white;fill-rule:nonzero;"/>
            </g>
            <g transform="matrix(0.502121,0,0,1,786.66,531.437)">
                <path d="M902.863,741.118c1.502,4.366 5.893,6.813 9.81,5.466c3.916,-1.345 5.876,-5.977 4.376,-10.343l-14.788,-43.02c-1.502,-4.366 -5.894,-6.813 -9.81,-5.467c-3.918,1.347 -5.877,5.977 -4.375,10.343l14.787,43.021Z" style="fill:white;fill-rule:nonzero;"/>
            </g>
        </g>
        <g transform="matrix(1,0,0,1,18.5854,-17.3366)">
            <g transform="matrix(0.502121,0,0,1,1270.93,328.719)">
                <path d="M380.121,929.836c3.08,5.496 0.419,12.839 -5.941,16.402l-5.759,3.225c-6.359,3.563 -14.01,1.997 -17.09,-3.499l-27.87,-49.75c-3.079,-5.495 -0.417,-12.837 5.943,-16.4l5.758,-3.225c6.36,-3.563 14.01,-1.998 17.09,3.497l27.869,49.75Z" style="fill:white;fill-rule:nonzero;"/>
            </g>
            <g transform="matrix(0.502121,0,0,1,1270.93,328.719)">
                <path d="M373.338,946.773c-4.161,2.914 -9.652,2.251 -12.266,-1.485c-2.613,-3.732 -1.359,-9.119 2.803,-12.033l40.987,-28.698c4.161,-2.914 9.651,-2.25 12.264,1.482c2.615,3.734 1.36,9.121 -2.799,12.033l-40.989,28.701Z" style="fill:white;fill-rule:nonzero;"/>
            </g>
            <g transform="matrix(0.502121,0,0,1,1270.93,328.719)">
                <path d="M452.395,941.026c3.59,3.59 3.891,9.112 0.668,12.335c-3.221,3.221 -8.746,2.922 -12.335,-0.668l-35.384,-35.383c-3.59,-3.591 -3.888,-9.114 -0.667,-12.335c3.222,-3.223 8.744,-2.923 12.335,0.668l35.383,35.383Z" style="fill:white;fill-rule:nonzero;"/>
            </g>
            <g transform="matrix(0.502121,0,0,1,1270.93,328.719)">
                <path d="M342.635,876.066c-4.19,-0.008 -7.594,3.678 -7.602,8.235c-0.009,4.556 3.378,8.257 7.568,8.266l41.278,0.083c4.19,0.008 7.592,-3.681 7.602,-8.236c0.008,-4.557 -3.38,-8.256 -7.569,-8.265l-41.277,-0.083Z" style="fill:white;fill-rule:nonzero;"/>
            </g>
            <g transform="matrix(0.502121,0,0,1,1270.93,328.719)">
                <path d="M338.336,855.747c3.141,7.719 -0.571,16.525 -8.287,19.67c-7.716,3.144 -16.524,-0.568 -19.668,-8.287c-3.144,-7.717 0.568,-16.523 8.285,-19.662c7.718,-3.146 16.523,0.562 19.67,8.279Z" style="fill:white;fill-rule:nonzero;"/>
            </g>
        </g>
        <g transform="matrix(1,0,0,1,28.8314,-4.88503)">
            <g transform="matrix(0.502121,0,0,1,1270.93,328.719)">
                <path d="M117.252,944.995c5.373,-0 9.729,-4.357 9.728,-9.728l0.001,-4.865c0,-5.372 -4.356,-9.728 -9.729,-9.728l-48.64,0c-5.373,0 -9.729,4.356 -9.729,9.728l-0,4.864c-0,5.372 4.356,9.728 9.729,9.729l48.64,-0Z" style="fill:white;fill-rule:nonzero;"/>
            </g>
            <g transform="matrix(0.502121,0,0,1,1270.93,328.719)">
                <path d="M111.221,923.76c-0.753,4.266 2.926,8.481 8.219,9.413c5.289,0.933 10.188,-1.767 10.941,-6.036l7.412,-42.032c0.753,-4.266 -2.928,-8.482 -8.217,-9.412c-5.293,-0.936 -10.192,1.768 -10.944,6.034l-7.411,42.033Z" style="fill:white;fill-rule:nonzero;"/>
            </g>
            <g transform="matrix(0.502121,0,0,1,1270.93,328.719)">
                <path d="M169.605,942.563c4.331,-0 7.842,-4.354 7.842,-9.729c0,-5.371 -3.511,-9.728 -7.843,-9.728l-42.68,0c-4.332,0 -7.845,4.357 -7.843,9.728c-0.003,5.375 3.511,9.729 7.841,9.729l42.683,-0Z" style="fill:white;fill-rule:nonzero;"/>
            </g>
            <g transform="matrix(0.502121,0,0,1,1270.93,328.719)">
                <path d="M206.517,942.563c4.331,-0 7.843,-4.354 7.842,-9.729c0.001,-5.371 -3.51,-9.728 -7.843,-9.728l-42.681,0c-4.331,0 -7.844,4.357 -7.844,9.728c-0.001,5.375 3.513,9.73 7.844,9.729l42.682,-0Z" style="fill:white;fill-rule:nonzero;"/>
            </g>
            <g transform="matrix(0.502121,0,0,1,1270.93,328.719)">
                <path d="M145.307,841.641c0.753,-4.267 -2.926,-8.479 -8.219,-9.413c-5.289,-0.933 -10.189,1.769 -10.942,6.036l-7.411,42.031c-0.753,4.266 2.927,8.483 8.218,9.414c5.293,0.932 10.191,-1.768 10.943,-6.035l7.411,-42.033Z" style="fill:white;fill-rule:nonzero;"/>
            </g>
            <g transform="matrix(0.502121,0,0,1,1270.93,328.719)">
                <path d="M40.102,944.127c-7.343,-1.295 -12.247,-8.292 -10.955,-15.635c1.292,-7.338 8.294,-12.244 15.635,-10.952c7.341,1.292 12.245,8.292 10.951,15.633c-1.292,7.341 -8.291,12.244 -15.631,10.954Z" style="fill:white;fill-rule:nonzero;"/>
            </g>
        </g>
        <g transform="matrix(1,0,0,1,1.24081,-16.1123)">
            <g transform="matrix(0.502121,0,0,1,1270.93,328.719)">
                <path d="M566.643,922.352c-3.996,4.869 -2.666,12.565 2.971,17.189l5.102,4.186c5.635,4.623 13.443,4.426 17.439,-0.444l36.169,-44.087c3.996,-4.871 2.663,-12.566 -2.972,-17.19l-5.102,-4.184c-5.636,-4.624 -13.444,-4.426 -17.439,0.443l-36.168,44.087Z" style="fill:white;fill-rule:nonzero;"/>
            </g>
            <g transform="matrix(0.502121,0,0,1,1270.93,328.719)">
                <path d="M583.363,947.069c-5.079,0 -9.197,-3.693 -9.196,-8.252c-0,-4.555 4.118,-8.248 9.197,-8.248l50.037,0.001c5.079,-0 9.195,3.692 9.195,8.247c0,4.558 -4.117,8.252 -9.194,8.251l-50.039,0.001Z" style="fill:white;fill-rule:nonzero;"/>
            </g>
            <g transform="matrix(0.502121,0,0,1,1270.93,328.719)">
                <path d="M687.048,930.569c5.078,0 9.196,3.691 9.196,8.249c0,4.555 -4.119,8.251 -9.196,8.251l-50.039,0c-5.078,0 -9.194,-3.696 -9.194,-8.25c0,-4.558 4.116,-8.25 9.194,-8.25l50.039,0Z" style="fill:white;fill-rule:nonzero;"/>
            </g>
            <g transform="matrix(0.502121,0,0,1,1270.93,328.719)">
                <path d="M622.581,887.347c-4.462,-2.425 -9.842,-1.147 -12.02,2.857c-2.177,4.003 -0.325,9.214 4.138,11.641l43.963,23.902c4.461,2.424 9.843,1.145 12.017,-2.857c2.178,-4.004 0.325,-9.215 -4.137,-11.64l-43.961,-23.903Z" style="fill:white;fill-rule:nonzero;"/>
            </g>
            <g transform="matrix(0.502121,0,0,1,1270.93,328.719)">
                <path d="M624.499,856.818c-5.904,5.882 -5.923,15.437 -0.045,21.344c5.879,5.906 15.435,5.924 21.341,0.045c5.907,-5.879 5.925,-15.436 0.045,-21.337c-5.88,-5.909 -15.433,-5.929 -21.341,-0.052Z" style="fill:white;fill-rule:nonzero;"/>
            </g>
        </g>
        <g transform="matrix(1,0,0,1,2.94569,9.37335)">
            <g transform="matrix(0.502121,0,0,1,1270.93,328.719)">
                <path d="M860.363,933.729c-5.079,-0 -9.197,-3.692 -9.196,-8.252c-0,-4.555 4.118,-8.248 9.197,-8.248l50.037,0.001c5.079,0 9.195,3.692 9.195,8.247c0,4.559 -4.117,8.252 -9.194,8.251l-50.039,0.001Z" style="fill:white;fill-rule:nonzero;"/>
            </g>
            <g transform="matrix(0.502121,0,0,1,1270.93,328.719)">
                <path d="M954.048,917.229c5.078,-0 9.196,3.691 9.196,8.249c0,4.555 -4.119,8.251 -9.196,8.251l-50.039,-0c-5.078,-0 -9.194,-3.695 -9.194,-8.25c0,-4.558 4.116,-8.25 9.194,-8.25l50.039,-0Z" style="fill:white;fill-rule:nonzero;"/>
            </g>
            <g transform="matrix(0.502121,0,0,1,1270.93,328.719)">
                <path d="M878.576,922.736c0.673,5.034 -2.442,9.605 -6.961,10.209c-4.515,0.602 -8.721,-2.989 -9.394,-8.025l-6.627,-49.595c-0.673,-5.035 2.442,-9.604 6.956,-10.207c4.519,-0.604 8.725,2.988 9.397,8.02l6.629,49.598Z" style="fill:white;fill-rule:nonzero;"/>
            </g>
            <g transform="matrix(0.502121,0,0,1,1270.93,328.719)">
                <path d="M855.502,823.989c0,-5.077 3.692,-9.196 8.25,-9.196c4.554,-0 8.25,4.12 8.25,9.196l0,50.039c0,5.078 -3.695,9.194 -8.25,9.194c-4.557,0 -8.25,-4.116 -8.25,-9.194l0,-50.039Z" style="fill:white;fill-rule:nonzero;"/>
            </g>
            <g transform="matrix(0.502121,0,0,1,1270.93,328.719)">
                <path d="M779.961,931.273c8.221,1.364 15.995,-4.194 17.364,-12.414c1.368,-8.221 -4.192,-15.993 -12.412,-17.361c-8.221,-1.37 -15.995,4.191 -17.359,12.409c-1.369,8.222 4.187,15.995 12.407,17.366Z" style="fill:white;fill-rule:nonzero;"/>
            </g>
            <g transform="matrix(0.502121,0,0,1,1270.93,328.719)">
                <path d="M857.383,933.729c5.372,-0 9.729,-4.356 9.728,-9.728l0.001,-4.865c-0,-5.372 -4.357,-9.727 -9.729,-9.727l-48.639,-0c-5.374,-0 -9.73,4.355 -9.73,9.727l-0,4.864c-0,5.373 4.356,9.728 9.73,9.729l48.639,-0Z" style="fill:white;fill-rule:nonzero;"/>
            </g>
            <g transform="matrix(0.502121,0,0,1,1270.93,328.719)">
                <path d="M849.211,882.694c4.388,-2.558 9.804,-1.441 12.099,2.497c2.294,3.936 0.598,9.201 -3.79,11.759l-43.232,25.196c-4.388,2.558 -9.806,1.438 -12.099,-2.498c-2.295,-3.938 -0.599,-9.2 3.79,-11.758l43.232,-25.196Z" style="fill:white;fill-rule:nonzero;"/>
            </g>
        </g>
    </g>
</svg>
