<?xml version="1.0" encoding="UTF-8" standalone="no"?>
<!DOCTYPE svg PUBLIC "-//W3C//DTD SVG 1.1//EN" "http://www.w3.org/Graphics/SVG/1.1/DTD/svg11.dtd">
<svg width="100%" height="100%" viewBox="0 0 129 129" version="1.1" xmlns="http://www.w3.org/2000/svg" xmlns:xlink="http://www.w3.org/1999/xlink" xml:space="preserve" xmlns:serif="http://www.serif.com/" style="fill-rule:evenodd;clip-rule:evenodd;stroke-miterlimit:10;">
    <g id="Artboard1" transform="matrix(1,0,0,0.924503,0,0)">
        <rect x="0" y="0" width="128.48" height="138.994" style="fill:none;"/>
        <clipPath id="_clip1">
            <rect x="0" y="0" width="128.48" height="138.994"/>
        </clipPath>
        <g clip-path="url(#_clip1)">
            <g transform="matrix(1,0,0,1.08166,21.5859,4.89347)">
                <circle cx="42.654" cy="59.894" r="64.24" style="fill:rgb(25,103,175);"/>
            </g>
            <g transform="matrix(0.375,0,0,0.405624,16.9899,12.8845)">
                <g transform="matrix(5.18346,0,0,5.18346,87.8054,248.442)">
                    <path d="M11.782,-21.734c2.389,1.274 4.618,2.628 6.847,4.14c3.184,2.15 4.776,5.175 5.573,8.837c0.398,2.149 0.557,4.219 0.796,6.369c0.079,0.796 -0.16,1.512 -0.717,2.07c-0.796,0.875 -1.751,1.512 -2.866,1.91c-1.91,0.637 -3.821,1.274 -5.891,1.194c-3.901,-0.079 -7.881,0.16 -11.703,-0.796c-2.627,-0.637 -5.174,-1.751 -7.483,-3.104c-2.548,-1.433 -4.06,-3.424 -3.742,-6.608c0.398,-4.299 1.752,-7.882 5.493,-10.35c0.637,-0.398 1.354,-0.716 1.991,-1.034c1.433,0.079 1.433,0.079 1.433,1.512l0,1.354c0.159,1.433 0.875,2.149 2.388,2.069c1.99,-0.079 3.503,-1.035 4.617,-2.627c1.035,-1.672 2.15,-3.264 3.264,-4.936Z" style="fill:rgb(125,202,244);stroke:black;stroke-width:2.14px;"/>
                </g>
                <g transform="matrix(5.18346,0,0,5.18346,62.6329,32.2105)">
                    <path d="M0,5.095c-1.274,-0.796 -1.433,-1.035 -1.115,-2.468c0.399,-2.07 0.956,-4.06 1.991,-5.891c0.318,-0.637 0.875,-1.035 1.512,-1.274c5.255,-1.751 10.031,-1.194 14.251,2.548c1.114,0.875 1.99,1.99 2.786,3.184c0.478,0.717 0.637,1.433 0.478,2.309c-0.558,2.308 -0.956,4.617 -1.513,7.006c-0.08,0.318 -0.159,0.636 -0.398,0.875c0,-0.159 -0.08,-0.318 -0.08,-0.398c0.637,-1.512 -0.159,-2.627 -1.194,-3.582c-1.592,-1.513 -3.343,-2.627 -5.413,-3.503c-2.15,-0.876 -4.379,-1.354 -6.608,-1.115c-1.751,0.16 -4.14,-0.398 -4.697,2.309Z" style="fill:rgb(94,214,173);fill-rule:nonzero;stroke:black;stroke-width:2.14px;"/>
                </g>
                <g transform="matrix(5.18346,0,0,5.18346,145.164,111.85)">
                    <path d="M0,-0.716c-0.08,0.159 -0.08,0.318 -0.159,0.478c-0.796,0.238 -1.274,0.875 -1.672,1.512c-0.557,1.035 -1.513,1.592 -2.388,2.07c-2.866,1.513 -5.892,2.627 -9.235,1.831c0,-0.159 -0.08,-0.159 -0.159,-0.239c-2.07,-1.751 -2.628,-4.06 -2.946,-6.607c-0.159,-1.354 -0.159,-2.627 0.08,-3.981c1.512,-0.079 3.025,-0.159 4.537,-0.159c2.548,0 5.096,0 7.563,0.876c1.115,0.398 1.593,0.079 1.991,-0.796c0.079,-0.16 0.159,-0.319 0.239,-0.399c0.079,-0.159 0.159,-0.557 0.477,-0.398c0.398,0.16 0.08,0.398 -0.079,0.637c-0.398,0.796 -1.035,1.433 -1.115,2.309c-0.159,1.353 0,2.786 -0.159,4.219c0.637,-0.159 0.955,-0.716 1.433,-1.035c0.477,-0.238 0.955,-0.636 1.592,-0.318Z" style="fill:rgb(125,202,244);fill-rule:nonzero;stroke:black;stroke-width:2.14px;"/>
                </g>
                <g transform="matrix(5.18346,0,0,5.18346,145.164,51.6032)">
                    <path d="M0,10.907c-0.637,-0.318 -1.115,0.08 -1.592,0.398c-0.478,0.318 -0.717,0.876 -1.433,1.035c0.159,-1.433 0,-2.866 0.159,-4.219c0.08,-0.876 0.717,-1.513 1.115,-2.309c0.079,-0.239 0.477,-0.478 0.079,-0.637c-0.318,-0.159 -0.398,0.239 -0.477,0.398c-0.08,0.159 -0.16,0.319 -0.239,0.398c-0.398,0.955 -0.876,1.194 -1.991,0.796c-2.388,-0.875 -5.015,-0.955 -7.563,-0.875c-1.512,0 -3.025,0.079 -4.537,0.159c-0.08,-1.592 0.318,-3.185 0.557,-4.777c0.557,-2.707 2.945,-2.149 4.617,-2.309c2.229,-0.238 4.459,0.239 6.608,1.115c2.07,0.876 3.821,1.99 5.413,3.503c1.035,0.955 1.832,2.07 1.195,3.582c-0.08,0.08 -0,0.239 0.079,0.398c-0.557,1.274 -0.955,2.468 -1.99,3.344Z" style="fill:white;fill-rule:nonzero;stroke:black;stroke-width:2.14px;"/>
                </g>
                <g transform="matrix(5.18346,0,0,5.18346,75.8383,147.755)">
                    <path d="M0,-1.672c3.344,0.716 6.369,-0.318 9.235,-1.831c0.955,-0.478 1.831,-1.035 2.388,-2.07c0.319,-0.637 0.876,-1.194 1.672,-1.512c0.159,1.671 0.159,3.264 0.796,4.856c-1.114,1.672 -2.229,3.264 -3.344,4.936c-1.114,1.592 -2.627,2.547 -4.617,2.627c-1.513,0.079 -2.229,-0.637 -2.388,-2.07c-0.08,-0.478 -0,-0.955 -0,-1.354c-0,-1.433 -0,-1.433 -1.433,-1.512c-0.876,-0.637 -1.831,-1.194 -2.309,-2.07Z" style="fill:white;stroke:black;stroke-width:2.14px;"/>
                </g>
            </g>
        </g>
    </g>
</svg>
