<?xml version="1.0" encoding="UTF-8" standalone="no"?>
<!DOCTYPE svg PUBLIC "-//W3C//DTD SVG 1.1//EN" "http://www.w3.org/Graphics/SVG/1.1/DTD/svg11.dtd">
<svg width="100%" height="100%" viewBox="0 0 24 24" version="1.1" xmlns="http://www.w3.org/2000/svg" xmlns:xlink="http://www.w3.org/1999/xlink" xml:space="preserve" xmlns:serif="http://www.serif.com/" style="fill-rule:evenodd;clip-rule:evenodd;stroke-linejoin:round;stroke-miterlimit:2;">
    <rect id="Artboard1" x="0" y="0" width="24" height="23.871" style="fill:none;"/>
    <clipPath id="_clip1">
        <rect x="0" y="0" width="24" height="23.871"/>
    </clipPath>
    <g clip-path="url(#_clip1)">
        <g id="Layer_2">
            <g id="Layer_1-2">
                <circle cx="12" cy="11.935" r="11.935" style="fill:#1967af;"/>
                <path d="M13.091,11.065l-1.216,-1.52c1.223,-0.634 2.314,-1.497 3.799,-1.44c1.916,0.098 3.483,1.608 3.652,3.519c0.104,1.886 -1.155,3.597 -2.987,4.058c-1.519,0.334 -2.792,-0.137 -3.97,-1.303c0.931,-0.319 1.622,-1.049 2.69,-0.699c0.719,0.178 1.476,-0.13 1.866,-0.76c0.203,-0.298 0.311,-0.65 0.311,-1.011c0,-0.984 -0.809,-1.793 -1.793,-1.793c-0.123,-0 -0.245,0.012 -0.365,0.037c-0.343,0.095 -0.677,0.222 -0.996,0.38c-0.323,0.145 -0.627,0.335 -0.991,0.532Z" style="fill:#fff;fill-rule:nonzero;"/>
                <path d="M4.263,13.3c1.011,0.095 1.935,-0.187 2.877,0.258c0.473,0.166 0.99,0.149 1.452,-0.046c1.295,-0.528 2.538,-1.185 3.799,-1.763c1.179,-0.589 2.483,-0.883 3.8,-0.855c0.627,0.034 0.688,0.49 0.707,0.939c0.019,0.448 0,1.14 -0.646,1.117c-1.736,-0.038 -3.169,0.798 -4.67,1.452c-0.874,0.38 -1.733,0.809 -2.618,1.139c-2.006,0.798 -4.112,-0.569 -4.701,-2.241Z" style="fill:#fff;fill-rule:nonzero;"/>
                <path d="M10.746,12.16c-0.701,0.487 -1.533,0.752 -2.386,0.76c-2.402,-0.042 -4.807,-0 -7.22,-0.023c-0.92,0.023 -1.44,-0.768 -0.954,-1.478c0.211,-0.27 0.525,-0.441 0.867,-0.472c2.625,-0.045 5.251,-0.034 7.873,-0.045c0.878,-0 1.178,0.767 1.82,1.258Z" style="fill:#fff;fill-rule:nonzero;"/>
                <path d="M4.18,10.666c0.657,-1.482 1.607,-2.337 3.013,-2.53c2.55,-0.346 4.18,1.075 5.594,3.039l-1.695,0.848c-0.56,-0.518 -1.149,-1.004 -1.763,-1.456c-0.81,-0.532 -1.634,-0.535 -2.588,-0.14c-0.714,0.3 -1.604,0.171 -2.561,0.239Z" style="fill:#fff;fill-rule:nonzero;"/>
                <path d="M19.581,12.992l-0,-2.181c1.14,-0 2.28,-0.031 3.442,-0c0.553,0.078 0.971,0.551 0.981,1.109c-0.027,0.552 -0.452,1.008 -1,1.076c-0.934,0.03 -1.869,-0 -2.804,-0c-0.201,0.022 -0.399,0.007 -0.619,-0.004Z" style="fill:#fff;fill-rule:nonzero;"/>
            </g>
        </g>
    </g>
</svg>
