<?xml version="1.0" encoding="UTF-8" standalone="no"?>
<!DOCTYPE svg PUBLIC "-//W3C//DTD SVG 1.1//EN" "http://www.w3.org/Graphics/SVG/1.1/DTD/svg11.dtd">
<svg width="100%" height="100%" viewBox="0 0 24 24" version="1.1" xmlns="http://www.w3.org/2000/svg" xmlns:xlink="http://www.w3.org/1999/xlink" xml:space="preserve" xmlns:serif="http://www.serif.com/" style="fill-rule:evenodd;clip-rule:evenodd;stroke-linejoin:round;stroke-miterlimit:2;">
    <rect id="Artboard1" x="0" y="0" width="24" height="24" style="fill:none;"/>
    <path d="M0.637,18.188c0,-0.076 -0.037,-0.113 -0.075,-0.188c-0.375,-0.938 -0.487,-1.913 -0.337,-2.925c0.225,-1.312 0.9,-2.4 1.95,-3.262c0.263,-0.225 0.563,-0.375 0.862,-0.525c1.988,-1.05 4.013,-2.1 6.038,-3.15c0.038,-0.038 0.075,-0.038 0.038,-0.113l-0,-0.037c-0,-0 0.037,-0 0.037,-0.038c2.213,-1.162 4.425,-2.325 6.675,-3.487c1.2,-0.638 2.438,-0.788 3.75,-0.488c1.163,0.263 2.138,0.863 2.888,1.8c0.375,0.45 0.675,0.9 0.862,1.425c0.6,1.575 0.525,3.113 -0.262,4.613c-0.413,0.75 -0.976,1.35 -1.65,1.837c-0.076,0.075 -0.188,0.113 -0.3,0.188l-0,0.037c-2.363,1.237 -4.688,2.475 -7.05,3.675c-0.038,-0.113 -0.038,-0.113 -0.15,-0.038c-1.988,1.05 -4.013,2.1 -6,3.15c-0.45,0.226 -0.938,0.413 -1.425,0.525c-1.35,0.263 -2.625,0.038 -3.788,-0.637c-0.675,-0.375 -1.2,-0.9 -1.612,-1.538c-0.038,-0.075 -0.075,-0.149 -0.15,-0.225c-0.075,-0.224 -0.188,-0.412 -0.3,-0.599Zm10.35,-6.525c-0.075,-0.15 -0.15,-0.3 -0.225,-0.413c-0.525,-0.975 -1.013,-1.95 -1.538,-2.925c-0.037,-0.075 -0.037,-0.075 -0.112,-0.037c-2.025,1.05 -4.013,2.1 -6.038,3.15c-0.187,0.112 -0.375,0.225 -0.562,0.337c-0.488,0.338 -0.938,0.75 -1.275,1.275c-0.413,0.6 -0.713,1.238 -0.825,1.95c-0.075,0.45 -0.113,0.863 -0.113,1.313c0.038,0.712 0.225,1.387 0.563,2.025c0.112,0.225 0.225,0.412 0.375,0.6c0.075,0.112 0.15,0.225 0.225,0.3c0.637,0.787 1.425,1.312 2.362,1.65c0.638,0.225 1.275,0.3 1.913,0.262c0.712,-0.037 1.35,-0.225 1.987,-0.525c2.063,-1.05 4.088,-2.137 6.15,-3.187c0.038,-0.038 0.075,-0.038 0.038,-0.113c-0.975,-1.875 -1.95,-3.712 -2.925,-5.587c0.037,-0.038 -0,-0.075 -0,-0.075Zm11.475,-5.7c-0.15,-0.188 -0.3,-0.338 -0.45,-0.488c-1.651,-1.575 -4.05,-1.912 -6.075,-0.862c-2.175,1.162 -4.388,2.287 -6.563,3.45c-0.038,0.037 -0.075,0.037 -0.038,0.112l0,0.038c0.525,0.975 1.05,1.987 1.538,2.962c0,0.038 0,0.038 0.038,0.075c-0,0 -0,0.038 0.037,0.038c1.05,2.025 2.138,4.05 3.188,6.075c0.037,0.037 0.037,0.037 0.112,0.037c2.212,-1.162 4.388,-2.287 6.6,-3.45c0.3,-0.15 0.6,-0.337 0.9,-0.562c0.938,-0.788 1.575,-1.8 1.837,-3c0.15,-0.713 0.15,-1.425 0,-2.175c-0.149,-0.638 -0.375,-1.238 -0.75,-1.8c-0.149,-0.15 -0.262,-0.3 -0.375,-0.45Z" style="fill:rgb(4,3,3);fill-rule:nonzero;"/>
    <path d="M22.462,5.963c0.113,0.15 0.226,0.299 0.338,0.45c0.337,0.562 0.6,1.125 0.75,1.8c0.15,0.712 0.15,1.425 -0,2.175c-0.263,1.199 -0.863,2.212 -1.838,2.999c-0.262,0.225 -0.562,0.413 -0.899,0.563c-2.213,1.162 -4.388,2.287 -6.601,3.45c-0.037,0.038 -0.075,0.038 -0.112,-0.038c-1.05,-2.062 -2.1,-4.087 -3.15,-6.112c0,-0 0,-0.038 -0.037,-0.038c0.037,0 0.037,-0.037 0.075,-0.037c0.15,-0.038 0.262,-0.113 0.412,-0.15c0.188,-0.075 0.375,-0.15 0.563,-0.188c0.149,-0.075 0.3,-0.112 0.487,-0.187c0.188,-0.075 0.375,-0.15 0.6,-0.225c0.15,-0.038 0.3,-0.113 0.412,-0.15c0.15,-0.075 0.3,-0.113 0.451,-0.188c0.149,-0.037 0.262,-0.112 0.412,-0.149c0.188,-0.075 0.412,-0.15 0.6,-0.263c0.188,-0.075 0.375,-0.15 0.563,-0.262c0.225,-0.113 0.45,-0.226 0.712,-0.338c0.337,-0.188 0.712,-0.375 1.05,-0.563c0.075,-0.037 0.187,-0.112 0.262,-0.149c0.038,-0.038 0.113,-0.075 0.15,-0.113c0.15,-0.075 0.263,-0.188 0.413,-0.263c0.15,-0.075 0.262,-0.187 0.412,-0.262c0.151,-0.112 0.263,-0.188 0.413,-0.3c0.188,-0.112 0.375,-0.188 0.563,-0.3c0.149,-0.075 0.3,-0.113 0.45,-0.15c0.412,-0.112 0.825,-0.15 1.237,-0.112c0.375,0.037 0.713,0.112 1.05,0.262c0.225,0.112 0.488,0.225 0.713,0.337c0.112,0.075 0.225,0.15 0.375,0.226c0.037,-0 0.075,0.037 0.075,-0c0.037,-0.038 -0,-0.075 -0,-0.075c-0.038,-0.113 -0.075,-0.188 -0.113,-0.263c-0.15,-0.262 -0.262,-0.525 -0.412,-0.75c-0.113,-0.188 -0.226,-0.375 -0.375,-0.525c-0.038,-0.038 -0.038,-0.075 -0.001,-0.113Z" style="fill:rgb(163,173,188);fill-rule:nonzero;"/>
    <path d="M10.988,11.663l0.037,0.037c0.975,1.875 1.95,3.713 2.925,5.588c0.037,0.037 0.037,0.075 -0.037,0.112c-2.063,1.05 -4.088,2.138 -6.15,3.188c-0.638,0.337 -1.275,0.487 -1.988,0.524c-0.675,0.038 -1.313,-0.037 -1.912,-0.262c-0.938,-0.3 -1.725,-0.863 -2.363,-1.65c0.075,0 0.113,0.037 0.188,0c0.112,-0.038 0.15,-0.113 0.225,-0.188c0.187,-0.262 0.3,-0.525 0.45,-0.787c0.225,-0.45 0.412,-0.863 0.637,-1.313c0.3,-0.525 0.6,-1.012 0.975,-1.462c0.225,-0.263 0.45,-0.525 0.713,-0.75c0.337,-0.3 0.675,-0.6 1.012,-0.825c0.225,-0.15 0.45,-0.3 0.712,-0.45c0.375,-0.225 0.788,-0.413 1.2,-0.563c0.188,-0.075 0.375,-0.15 0.563,-0.225c0.262,-0.112 0.525,-0.187 0.787,-0.262c0.3,-0.113 0.638,-0.225 0.938,-0.338c0.337,-0.112 0.712,-0.225 1.05,-0.375c-0.038,0.038 -0,0.038 0.037,0Z" style="fill:rgb(170,0,0);fill-rule:nonzero;"/>
    <path d="M22.462,5.963c-0.037,0.037 -0.037,0.075 0,0.112c0.15,0.187 0.263,0.337 0.375,0.525c0.15,0.225 0.263,0.487 0.413,0.75c0.038,0.075 0.075,0.187 0.112,0.262c0,0.038 0.038,0.075 0,0.075c-0.037,0.038 -0.075,0 -0.075,0c-0.112,-0.075 -0.225,-0.15 -0.375,-0.225c-0.225,-0.15 -0.45,-0.262 -0.712,-0.337c-0.338,-0.15 -0.675,-0.225 -1.05,-0.263c-0.413,-0.037 -0.825,0 -1.237,0.113c-0.15,0.037 -0.3,0.112 -0.45,0.15c-0.188,0.075 -0.375,0.187 -0.563,0.3c-0.15,0.075 -0.3,0.187 -0.413,0.3c-0.149,0.075 -0.262,0.187 -0.412,0.262c-0.15,0.075 -0.263,0.188 -0.413,0.263c-0.037,0.037 -0.112,0.075 -0.149,0.112c-0.076,0.075 -0.188,0.113 -0.263,0.15c-0.337,0.188 -0.675,0.413 -1.05,0.563c-0.225,0.112 -0.45,0.225 -0.712,0.337c-0.188,0.075 -0.375,0.15 -0.563,0.263c-0.187,0.075 -0.412,0.15 -0.6,0.262c-0.15,0.038 -0.262,0.113 -0.412,0.15c-0.15,0.075 -0.3,0.113 -0.45,0.188c-0.15,0.037 -0.3,0.112 -0.413,0.15c-0.187,0.075 -0.375,0.15 -0.6,0.225c-0.15,0.075 -0.3,0.112 -0.488,0.187c-0.187,0.075 -0.375,0.15 -0.562,0.188c-0.15,0.037 -0.263,0.112 -0.413,0.15c-0.037,-0 -0.037,0.037 -0.075,0.037c-0.037,0 -0.037,-0.037 -0.037,-0.075c-0.525,-0.975 -1.05,-1.987 -1.538,-2.962l0,-0.038c-0.037,-0.037 -0.037,-0.075 0.038,-0.112c2.212,-1.163 4.387,-2.288 6.562,-3.45c2.025,-1.05 4.463,-0.713 6.075,0.862c0.151,0.188 0.301,0.375 0.451,0.525Z" style="fill:rgb(212,215,218);fill-rule:nonzero;"/>
    <path d="M10.988,11.663c-0.038,0.037 -0.075,0.037 -0.113,0.075c-0.337,0.112 -0.675,0.225 -1.05,0.374c-0.3,0.113 -0.637,0.225 -0.938,0.338c-0.262,0.075 -0.524,0.188 -0.787,0.262c-0.187,0.076 -0.375,0.15 -0.562,0.226c-0.375,0.149 -0.788,0.337 -1.163,0.562c-0.225,0.15 -0.487,0.263 -0.712,0.45c-0.375,0.263 -0.713,0.525 -1.013,0.825c-0.262,0.225 -0.487,0.488 -0.712,0.75c-0.375,0.45 -0.675,0.938 -0.975,1.463c-0.225,0.412 -0.45,0.862 -0.638,1.312c-0.15,0.263 -0.262,0.563 -0.45,0.788c-0.075,0.075 -0.112,0.149 -0.225,0.187c-0.075,0.038 -0.15,0 -0.187,0c-0.113,-0.075 -0.15,-0.188 -0.225,-0.3c-0.15,-0.188 -0.263,-0.412 -0.375,-0.6c-0.3,-0.637 -0.525,-1.312 -0.563,-2.025c-0.037,-0.45 0,-0.9 0.113,-1.312c0.15,-0.713 0.412,-1.35 0.825,-1.95c0.337,-0.488 0.787,-0.9 1.275,-1.275c0.187,-0.113 0.375,-0.226 0.562,-0.338c2.025,-1.05 4.013,-2.1 6.038,-3.15c0.075,-0.037 0.075,-0.037 0.112,0.038c0.525,0.975 1.013,1.95 1.538,2.925c0.074,0.074 0.15,0.224 0.225,0.374Z" style="fill:rgb(237,59,59);fill-rule:nonzero;"/>
</svg>
